<?xml version="1.0" encoding="UTF-8"?>
<svg width="623px" height="70px" viewBox="0 0 623 70" version="1.1" xmlns="http://www.w3.org/2000/svg" xmlns:xlink="http://www.w3.org/1999/xlink">
    <!-- Generator: Sketch 52 (66869) - http://www.bohemiancoding.com/sketch -->
    <title>Group 3</title>
    <desc>Created with Sketch.</desc>
    <defs>
        <path d="M8.65454102,63.4599609 L3.43139648,63.4599609 L2.50366211,66.6513672 L0.768798828,66.6513672 L4.8972168,53.3476563 L7.25366211,53.3476563 L11.4099121,66.6513672 L9.61010742,66.6513672 L8.65454102,63.4599609 Z M3.83032227,62.0683594 L8.25561523,62.0683594 L6.11254883,54.8134766 L5.96411133,54.8134766 L3.83032227,62.0683594 Z M14.9909668,57.1699219 L14.9909668,58.2553711 C15.2692885,57.8657207 15.6465634,57.556479 16.1228027,57.3276367 C16.5990421,57.0987944 17.1463999,56.984375 17.7648926,56.984375 C18.3772003,56.984375 18.930743,57.1065255 19.4255371,57.3508301 C19.9203313,57.5951347 20.3439924,57.9368468 20.6965332,58.3759766 C21.049074,58.8151064 21.3196605,59.3361786 21.5083008,59.939209 C21.696941,60.5422394 21.7912598,61.2024704 21.7912598,61.9199219 C21.7912598,62.6373734 21.696941,63.2960582 21.5083008,63.8959961 C21.3196605,64.495934 21.049074,65.0139138 20.6965332,65.4499512 C20.3439924,65.8859885 19.9203313,66.2261544 19.4255371,66.470459 C18.930743,66.7147636 18.3772003,66.8369141 17.7648926,66.8369141 C17.1463999,66.8369141 16.5990421,66.7224946 16.1228027,66.4936524 C15.6465634,66.2648101 15.2692885,65.9555684 14.9909668,65.565918 L14.9909668,69.5366211 L13.432373,69.5366211 L13.432373,57.1699219 L14.9909668,57.1699219 Z M20.177002,61.8642578 C20.177002,61.3694637 20.118246,60.9086936 20.0007324,60.4819336 C19.8832188,60.0551737 19.7100435,59.6856298 19.4812012,59.373291 C19.2523589,59.0609522 18.9694027,58.8151051 18.6323242,58.6357422 C18.2952457,58.4563793 17.9102398,58.3666992 17.4772949,58.3666992 C17.0629048,58.3666992 16.6995458,58.4378248 16.387207,58.5800781 C16.0748682,58.7223315 15.813559,58.9171537 15.6032715,59.1645508 C15.392984,59.4119479 15.2337245,59.7041813 15.1254883,60.0412598 C15.0172521,60.3783383 14.9631348,60.7447897 14.9631348,61.140625 L14.9631348,62.6806641 C14.9631348,63.0764994 15.0172521,63.4429508 15.1254883,63.7800293 C15.2337245,64.1171078 15.392984,64.4093412 15.6032715,64.6567383 C15.813559,64.9041354 16.0748682,65.0989576 16.387207,65.2412109 C16.6995458,65.3834643 17.0629048,65.4545899 17.4772949,65.4545899 C17.9102398,65.4545899 18.2952457,65.3649098 18.6323242,65.1855469 C18.9694027,65.006184 19.2523589,64.7603369 19.4812012,64.4479981 C19.7100435,64.1356593 19.8832188,63.7661154 20.0007324,63.3393555 C20.118246,62.9125955 20.177002,62.4518254 20.177002,61.9570313 L20.177002,61.8642578 Z M25.6506348,57.1699219 L25.6506348,58.2553711 C25.9289565,57.8657207 26.3062313,57.556479 26.7824707,57.3276367 C27.2587101,57.0987944 27.8060679,56.984375 28.4245605,56.984375 C29.0368683,56.984375 29.5904109,57.1065255 30.0852051,57.3508301 C30.5799992,57.5951347 31.0036603,57.9368468 31.3562012,58.3759766 C31.708742,58.8151064 31.9793285,59.3361786 32.1679688,59.939209 C32.356609,60.5422394 32.4509277,61.2024704 32.4509277,61.9199219 C32.4509277,62.6373734 32.356609,63.2960582 32.1679688,63.8959961 C31.9793285,64.495934 31.708742,65.0139138 31.3562012,65.4499512 C31.0036603,65.8859885 30.5799992,66.2261544 30.0852051,66.470459 C29.5904109,66.7147636 29.0368683,66.8369141 28.4245605,66.8369141 C27.8060679,66.8369141 27.2587101,66.7224946 26.7824707,66.4936524 C26.3062313,66.2648101 25.9289565,65.9555684 25.6506348,65.565918 L25.6506348,69.5366211 L24.092041,69.5366211 L24.092041,57.1699219 L25.6506348,57.1699219 Z M30.8366699,61.8642578 C30.8366699,61.3694637 30.777914,60.9086936 30.6604004,60.4819336 C30.5428868,60.0551737 30.3697114,59.6856298 30.1408691,59.373291 C29.9120269,59.0609522 29.6290707,58.8151051 29.2919922,58.6357422 C28.9549137,58.4563793 28.5699078,58.3666992 28.1369629,58.3666992 C27.7225728,58.3666992 27.3592138,58.4378248 27.046875,58.5800781 C26.7345362,58.7223315 26.473227,58.9171537 26.2629395,59.1645508 C26.0526519,59.4119479 25.8933925,59.7041813 25.7851563,60.0412598 C25.67692,60.3783383 25.6228027,60.7447897 25.6228027,61.140625 L25.6228027,62.6806641 C25.6228027,63.0764994 25.67692,63.4429508 25.7851563,63.7800293 C25.8933925,64.1171078 26.0526519,64.4093412 26.2629395,64.6567383 C26.473227,64.9041354 26.7345362,65.0989576 27.046875,65.2412109 C27.3592138,65.3834643 27.7225728,65.4545899 28.1369629,65.4545899 C28.5699078,65.4545899 28.9549137,65.3649098 29.2919922,65.1855469 C29.6290707,65.006184 29.9120269,64.7603369 30.1408691,64.4479981 C30.3697114,64.1356593 30.5428868,63.7661154 30.6604004,63.3393555 C30.777914,62.9125955 30.8366699,62.4518254 30.8366699,61.9570313 L30.8366699,61.8642578 Z M35.8093262,62.3930664 C35.8402508,62.8383811 35.9299309,63.2496726 36.0783691,63.6269531 C36.2268074,64.0042337 36.4293607,64.3304837 36.6860352,64.6057129 C36.9427096,64.8809421 37.2457665,65.0943189 37.5952148,65.2458496 C37.9446632,65.3973803 38.3327615,65.4731445 38.7595215,65.4731445 C39.2852403,65.4731445 39.7475566,65.3850107 40.1464844,65.2087402 C40.5454122,65.0324698 40.9118636,64.811362 41.2458496,64.5454102 L42.0437012,65.6679688 C41.6169412,66.0081397 41.1237007,66.2880035 40.5639648,66.5075684 C40.004229,66.7271333 39.3780145,66.8369141 38.6853027,66.8369141 C37.9987759,66.8369141 37.3772,66.7147636 36.8205566,66.470459 C36.2639132,66.2261544 35.7892272,65.8859885 35.3964844,65.4499512 C35.0037415,65.0139138 34.7022309,64.4943878 34.4919434,63.8913574 C34.2816558,63.2883271 34.1765137,62.6311885 34.1765137,61.9199219 C34.1765137,61.1962855 34.2801096,60.532962 34.4873047,59.9299317 C34.6944997,59.3269013 34.9867331,58.8073752 35.3640137,58.3713379 C35.7412942,57.9353006 36.1927871,57.5951347 36.7185059,57.3508301 C37.2442246,57.1065255 37.8286914,56.984375 38.4719238,56.984375 C39.0966014,56.984375 39.6594213,57.1065255 40.1604004,57.3508301 C40.6613795,57.5951347 41.088133,57.9353006 41.4406738,58.3713379 C41.7932147,58.8073752 42.0638011,59.3269013 42.2524414,59.9299317 C42.4410817,60.532962 42.5354004,61.1901006 42.5354004,61.9013672 L42.5354004,62.3930664 L35.8093262,62.3930664 Z M38.4162598,58.3481445 C38.0204245,58.3481445 37.6678889,58.425455 37.3586426,58.5800781 C37.0493962,58.7347013 36.7849946,58.9418932 36.5654297,59.2016602 C36.3458648,59.4614271 36.1726894,59.7598453 36.0458984,60.0969238 C35.9191074,60.4340023 35.8464356,60.7818993 35.8278809,61.140625 L40.8469238,61.140625 C40.834554,60.7757143 40.7711594,60.424725 40.6567383,60.0876465 C40.5423171,59.750568 40.3815115,59.453696 40.1743164,59.1970215 C39.9671214,58.940347 39.7166356,58.7347013 39.4228516,58.5800781 C39.1290675,58.425455 38.7935403,58.3481445 38.4162598,58.3481445 Z M50.0964355,65.7050781 C49.8181138,66.0266943 49.4423852,66.2957346 48.9692383,66.512207 C48.4960914,66.7286795 47.9410025,66.8369141 47.3039551,66.8369141 C46.8339006,66.8369141 46.3978698,66.7704271 45.9958496,66.6374512 C45.5938294,66.5044753 45.2443863,66.3142916 44.9475098,66.0668945 C44.6506333,65.8194975 44.418702,65.519533 44.251709,65.1669922 C44.084716,64.8144514 44.0012207,64.4155296 44.0012207,63.9702149 C44.0012207,63.5991193 44.0615228,63.2604996 44.1821289,62.9543457 C44.302735,62.6481918 44.4728179,62.3806978 44.6923828,62.1518555 C44.9119477,61.9230132 45.1763494,61.735922 45.4855957,61.5905762 C45.794842,61.4452304 46.1411927,61.3447269 46.5246582,61.2890625 L49.8737793,60.8344727 L49.8737793,60.2314453 C49.8737793,59.8727196 49.8181158,59.5712089 49.7067871,59.3269043 C49.5954584,59.0825997 49.4454762,58.8893236 49.2568359,58.7470703 C49.0681957,58.604817 48.8455416,58.5027672 48.5888672,58.440918 C48.3321927,58.3790687 48.0554214,58.3481445 47.7585449,58.3481445 C47.2266412,58.3481445 46.7303083,58.4223626 46.2695313,58.5708008 C45.8087542,58.719239 45.3928241,58.8924144 45.0217285,59.090332 L44.4372559,57.8564453 C44.9815294,57.547199 45.5520803,57.324545 46.1489258,57.1884766 C46.7457712,57.0524082 47.3348767,56.984375 47.9162598,56.984375 C49.0728411,56.984375 49.9479951,57.2456842 50.541748,57.7683106 C51.135501,58.2909369 51.432373,59.0532177 51.432373,60.0551758 L51.432373,64.4248047 C51.432373,64.740236 51.4942214,65.0046376 51.6179199,65.2180176 C51.7416185,65.4313976 51.9395331,65.5999343 52.2116699,65.7236328 L51.3303223,66.8369141 C51.0334458,66.762695 50.7783214,66.6312672 50.5649414,66.442627 C50.3515614,66.2539867 50.2015792,66.0266941 50.1149902,65.7607422 L50.0964355,65.7050781 Z M47.3225098,62.4301758 C47.0627428,62.4672854 46.8261729,62.5198564 46.612793,62.5878906 C46.399413,62.6559248 46.2185066,62.7471511 46.0700684,62.8615723 C45.9216301,62.9759934 45.8056645,63.1166984 45.722168,63.2836914 C45.6386715,63.4506844 45.5969238,63.654784 45.5969238,63.8959961 C45.5969238,64.1743178 45.6494949,64.4217112 45.7546387,64.6381836 C45.8597824,64.854656 46.0020336,65.0371086 46.1813965,65.1855469 C46.3607594,65.3339851 46.5694975,65.4468583 46.8076172,65.5241699 C47.0457369,65.6014815 47.2946764,65.6401367 47.5544434,65.6401367 C47.8451349,65.6401367 48.1296373,65.5999353 48.407959,65.5195313 C48.6862807,65.4391272 48.933674,65.3231616 49.1501465,65.1716309 C49.3666189,65.0201002 49.5413405,64.8361014 49.6743164,64.6196289 C49.8072923,64.4031565 49.8737793,64.1557631 49.8737793,63.8774414 L49.8737793,62.0498047 L47.3225098,62.4301758 Z M54.1970215,53.3476563 L55.7556152,53.3476563 L55.7556152,64.5268555 C55.7556152,64.6814787 55.7695311,64.817545 55.7973633,64.9350586 C55.8251955,65.0525722 55.8731279,65.1515296 55.9411621,65.2319336 C56.0091963,65.3123377 56.103515,65.3726398 56.2241211,65.4128418 C56.3447272,65.4530438 56.4947094,65.4731445 56.6740723,65.4731445 C56.8719899,65.4731445 57.0513501,65.4669597 57.2121582,65.4545899 C57.3729663,65.44222 57.5152175,65.4298503 57.638916,65.4174805 L57.7966309,66.7255859 L57.2585449,66.78125 C57.1039218,66.7936199 56.9338388,66.8059895 56.748291,66.8183594 C56.5627432,66.8307292 56.3864754,66.8369141 56.2194824,66.8369141 C55.9411607,66.8369141 55.6783053,66.8044437 55.4309082,66.739502 C55.1835111,66.6745602 54.9685882,66.5678718 54.7861328,66.4194336 C54.6036775,66.2709954 54.4598801,66.0792655 54.3547363,65.8442383 C54.2495926,65.6092111 54.1970215,65.3216163 54.1970215,64.9814453 L54.1970215,53.3476563 Z" id="path-1"></path>
        <path d="M171.22998,60.2221679 C171.22998,61.2179411 171.106283,62.1255655 170.858886,62.9450683 C170.611489,63.7645711 170.234214,64.4650036 169.72705,65.0463867 C169.219886,65.6277698 168.584395,66.0777165 167.820556,66.3962402 C167.056718,66.7147639 166.158371,66.8740234 165.125488,66.8740234 L160.85791,66.8740234 L160.85791,53.5703125 L165.125488,53.5703125 C166.158371,53.5703125 167.056718,53.7295719 167.820556,54.0480957 C168.584395,54.3666194 169.219886,54.8165661 169.72705,55.3979492 C170.234214,55.9793323 170.611489,56.6797647 170.858886,57.4992675 C171.106283,58.3187703 171.22998,59.2263947 171.22998,60.2221679 Z M169.476562,59.9624023 C169.476562,59.2696905 169.389974,58.6202829 169.216796,58.0141601 C169.043618,57.4080373 168.779217,56.8807802 168.423584,56.432373 C168.06795,55.9839658 167.613365,55.6298841 167.059814,55.3701172 C166.506263,55.1103502 165.849124,54.9804687 165.088378,54.9804687 L162.490722,54.9804687 L162.490722,65.4638672 L165.088378,65.4638672 C165.849124,65.4638672 166.506263,65.3355318 167.059814,65.0788574 C167.613365,64.8221829 168.06795,64.4696474 168.423584,64.0212402 C168.779217,63.572833 169.043618,63.0455759 169.216796,62.4394531 C169.389974,61.8333303 169.476562,61.1839227 169.476562,60.4912109 L169.476562,59.9624023 Z M184.357421,64.5175781 L184.450195,64.5175781 L186.713867,53.5703125 L188.383789,53.5703125 L185.424316,66.8740234 L183.485351,66.8740234 L180.655761,56.0102539 L177.835449,66.8740234 L175.887207,66.8740234 L172.937011,53.5703125 L174.588378,53.5703125 L176.88916,64.5175781 L177.000488,64.5175781 L179.895019,53.5703125 L181.472168,53.5703125 L184.357421,64.5175781 Z M191.027832,53.5703125 L195.694335,53.5703125 C196.319013,53.5703125 196.884925,53.6739084 197.392089,53.8811035 C197.899253,54.0882985 198.333738,54.3758933 198.695556,54.7438964 C199.057374,55.1118996 199.335692,55.552569 199.530517,56.0659179 C199.725342,56.5792669 199.822753,57.1420867 199.822753,57.7543945 C199.822753,58.3728872 199.716065,58.9372533 199.502685,59.4475097 C199.289305,59.9577662 198.990887,60.3953432 198.607421,60.7602539 C198.223956,61.1251645 197.767824,61.4081207 197.239013,61.6091308 C196.710202,61.8101409 196.133466,61.9106445 195.508789,61.9106445 L192.660644,61.9106445 L192.660644,66.8740234 L191.027832,66.8740234 L191.027832,53.5703125 Z M198.08789,57.7172851 C198.08789,57.3276347 198.026042,56.9658219 197.902343,56.6318359 C197.778645,56.2978499 197.599285,56.0087089 197.364257,55.7644043 C197.12923,55.5200997 196.843182,55.3283698 196.506103,55.1892089 C196.169025,55.0500481 195.787111,54.9804687 195.360351,54.9804687 L192.660644,54.9804687 L192.660644,60.5097656 L195.360351,60.5097656 C195.787111,60.5097656 196.169025,60.4417324 196.506103,60.305664 C196.843182,60.1695956 197.12923,59.9825044 197.364257,59.7443847 C197.599285,59.506265 197.778645,59.2217627 197.902343,58.8908691 C198.026042,58.5599755 198.08789,58.1997089 198.08789,57.8100586 L198.08789,57.7172851 Z M210.064941,58.7841797 L209.814453,58.7841797 C209.412432,58.7841797 209.028973,58.8305659 208.664062,58.9233398 C208.299151,59.0161137 207.97754,59.1831042 207.699218,59.4243164 C207.420897,59.6655285 207.198243,59.9948709 207.03125,60.4123535 C206.864257,60.829836 206.780761,61.363278 206.780761,62.0126953 L206.780761,66.8740234 L205.222168,66.8740234 L205.222168,57.3925781 L206.780761,57.3925781 L206.780761,58.8955078 C206.898275,58.6171861 207.055988,58.3728851 207.253906,58.1625976 C207.451823,57.9523101 207.676024,57.7775885 207.926513,57.6384277 C208.177003,57.4992668 208.446043,57.3956709 208.733642,57.3276367 C209.021241,57.2596025 209.313475,57.2255859 209.610351,57.2255859 L210.064941,57.2255859 L210.064941,58.7841797 Z M212.718261,62.6157226 C212.749186,63.0610373 212.838866,63.4723288 212.987304,63.8496093 C213.135742,64.2268899 213.338296,64.5531399 213.59497,64.8283691 C213.851645,65.1035983 214.154702,65.3169751 214.50415,65.4685058 C214.853598,65.6200365 215.241697,65.6958007 215.668457,65.6958007 C216.194175,65.6958007 216.656492,65.6076669 217.055419,65.4313964 C217.454347,65.255126 217.820799,65.0340182 218.154785,64.7680664 L218.952636,65.890625 C218.525876,66.2307959 218.032636,66.5106597 217.4729,66.7302246 C216.913164,66.9497895 216.28695,67.0595703 215.594238,67.0595703 C214.907711,67.0595703 214.286135,66.9374198 213.729492,66.6931152 C213.172848,66.4488106 212.698162,66.1086447 212.305419,65.6726074 C211.912677,65.23657 211.611166,64.717044 211.400878,64.1140136 C211.190591,63.5109833 211.085449,62.8538447 211.085449,62.1425781 C211.085449,61.4189417 211.189045,60.7556182 211.39624,60.1525879 C211.603435,59.5495575 211.895668,59.0300314 212.272949,58.5939941 C212.650229,58.1579568 213.101722,57.8177909 213.627441,57.5734863 C214.15316,57.3291817 214.737627,57.2070312 215.380859,57.2070312 C216.005537,57.2070312 216.568356,57.3291817 217.069335,57.5734863 C217.570315,57.8177909 217.997068,58.1579568 218.349609,58.5939941 C218.70215,59.0300314 218.972736,59.5495575 219.161377,60.1525879 C219.350017,60.7556182 219.444335,61.4127568 219.444335,62.1240234 L219.444335,62.6157226 L212.718261,62.6157226 Z M215.325195,58.5708007 C214.92936,58.5708007 214.576824,58.6481112 214.267578,58.8027343 C213.958331,58.9573575 213.69393,59.1645494 213.474365,59.4243164 C213.2548,59.6840833 213.081625,59.9825015 212.954834,60.31958 C212.828043,60.6566585 212.755371,61.0045555 212.736816,61.3632812 L217.755859,61.3632812 C217.743489,60.9983705 217.680095,60.6473812 217.565673,60.3103027 C217.451252,59.9732242 217.290447,59.6763522 217.083252,59.4196777 C216.876056,59.1630032 216.625571,58.9573575 216.331787,58.8027343 C216.038003,58.6481112 215.702475,58.5708007 215.325195,58.5708007 Z M227.960937,64.2485351 C227.960937,64.6938498 227.863526,65.0912254 227.668701,65.4406738 C227.473876,65.7901222 227.215659,66.085448 226.894043,66.3266601 C226.572426,66.5678723 226.202883,66.7503249 225.7854,66.8740234 C225.367917,66.9977219 224.939618,67.0595703 224.500488,67.0595703 C223.807776,67.0595703 223.14136,66.9405122 222.50122,66.7023925 C221.86108,66.4642729 221.293622,66.1225608 220.798828,65.6772461 L221.652343,64.5732422 C221.800782,64.7031256 221.972411,64.839192 222.167236,64.9814453 C222.362061,65.1236986 222.580076,65.2551263 222.821289,65.3757324 C223.062501,65.4963385 223.322264,65.5952958 223.600585,65.6726074 C223.878907,65.749919 224.172687,65.7885742 224.481933,65.7885742 C224.735515,65.7885742 224.97827,65.7561038 225.210205,65.6911621 C225.442139,65.6262203 225.644693,65.5303554 225.817871,65.4035644 C225.991049,65.2767734 226.128661,65.125245 226.230712,64.9489746 C226.332764,64.7727042 226.383789,64.5732433 226.383789,64.3505859 C226.383789,64.1031888 226.329671,63.8959969 226.221435,63.7290039 C226.113199,63.5620108 225.966309,63.4197597 225.780761,63.3022461 C225.595213,63.1847324 225.378744,63.0826827 225.131347,62.9960937 C224.88395,62.9095047 224.624187,62.8229171 224.35205,62.7363281 L223.7583,62.5415039 C223.424314,62.4301752 223.102703,62.3033861 222.793457,62.1611328 C222.48421,62.0188795 222.210531,61.8441579 221.972412,61.6369629 C221.734292,61.4297678 221.545655,61.1839207 221.406494,60.899414 C221.267333,60.6149074 221.197753,60.2747415 221.197753,59.8789062 C221.197753,59.55729 221.265787,59.2372249 221.401855,58.9187011 C221.537923,58.6001774 221.746662,58.3141288 222.028076,58.0605468 C222.30949,57.8069648 222.666664,57.6013191 223.099609,57.4436035 C223.532554,57.2858878 224.042803,57.2070312 224.630371,57.2070312 C225.279788,57.2070312 225.881263,57.3152658 226.434814,57.5317382 C226.988365,57.7482107 227.456866,58.017251 227.840332,58.3388672 L227.023925,59.4614257 C226.887857,59.3315423 226.727051,59.2078456 226.541503,59.090332 C226.355956,58.9728184 226.158041,58.8692224 225.947753,58.779541 C225.737466,58.6898595 225.517904,58.6171877 225.289062,58.5615234 C225.06022,58.5058591 224.834473,58.4780273 224.611816,58.4780273 C224.271645,58.4780273 223.98405,58.5166825 223.749023,58.5939941 C223.513996,58.6713057 223.325358,58.7718092 223.183105,58.8955078 C223.040852,59.0192063 222.937256,59.1583651 222.872314,59.3129882 C222.807372,59.4676114 222.774902,59.6191398 222.774902,59.7675781 C222.774902,59.9840505 222.821288,60.1649569 222.914062,60.3103027 C223.006836,60.4556485 223.128986,60.5808914 223.280517,60.6860351 C223.432048,60.7911789 223.605223,60.880859 223.800048,60.9550781 C223.994874,61.0292972 224.197427,61.1035152 224.407714,61.1777343 L225.187011,61.4375 C225.558107,61.5611985 225.898273,61.6926262 226.207519,61.8317871 C226.516765,61.9709479 226.788898,62.1302074 227.023925,62.3095703 C227.320802,62.5445975 227.551187,62.8167302 227.715087,63.1259765 C227.878988,63.4352229 227.960937,63.8094053 227.960937,64.2485351 Z M231.913085,57.3925781 L231.913085,58.4780273 C232.191407,58.0883769 232.568682,57.7791352 233.044921,57.5502929 C233.521161,57.3214506 234.068519,57.2070312 234.687011,57.2070312 C235.299319,57.2070312 235.852862,57.3291817 236.347656,57.5734863 C236.84245,57.8177909 237.266111,58.159503 237.618652,58.5986328 C237.971193,59.0377626 238.241779,59.5588348 238.430419,60.1618652 C238.61906,60.7648956 238.713378,61.4251266 238.713378,62.1425781 C238.713378,62.8600296 238.61906,63.5187144 238.430419,64.1186523 C238.241779,64.7185902 237.971193,65.23657 237.618652,65.6726074 C237.266111,66.1086447 236.84245,66.4488106 236.347656,66.6931152 C235.852862,66.9374198 235.299319,67.0595703 234.687011,67.0595703 C234.068519,67.0595703 233.521161,66.9451508 233.044921,66.7163086 C232.568682,66.4874663 232.191407,66.1782246 231.913085,65.7885742 L231.913085,69.7592773 L230.354492,69.7592773 L230.354492,57.3925781 L231.913085,57.3925781 Z M237.099121,62.086914 C237.099121,61.5921199 237.040365,61.1313498 236.922851,60.7045898 C236.805338,60.2778299 236.632162,59.908286 236.40332,59.5959472 C236.174478,59.2836084 235.891521,59.0377613 235.554443,58.8583984 C235.217364,58.6790355 234.832358,58.5893554 234.399414,58.5893554 C233.985024,58.5893554 233.621665,58.660481 233.309326,58.8027343 C232.996987,58.9449877 232.735678,59.1398099 232.52539,59.387207 C232.315103,59.6346041 232.155843,59.9268375 232.047607,60.263916 C231.939371,60.6009945 231.885253,60.9674459 231.885253,61.3632812 L231.885253,62.9033203 C231.885253,63.2991556 231.939371,63.665607 232.047607,64.0026855 C232.155843,64.339764 232.315103,64.6319974 232.52539,64.8793945 C232.735678,65.1267916 232.996987,65.3216138 233.309326,65.4638672 C233.621665,65.6061205 233.985024,65.6772461 234.399414,65.6772461 C234.832358,65.6772461 235.217364,65.587566 235.554443,65.4082031 C235.891521,65.2288402 236.174478,64.9829931 236.40332,64.6706543 C236.632162,64.3583155 236.805338,63.9887716 236.922851,63.5620117 C237.040365,63.1352517 237.099121,62.6744816 237.099121,62.1796875 L237.099121,62.086914 Z M244.808593,57.2070312 C245.464196,57.2070312 246.061032,57.3291817 246.599121,57.5734863 C247.137209,57.8177909 247.596433,58.1579568 247.976806,58.5939941 C248.357179,59.0300314 248.652505,59.5495575 248.862793,60.1525879 C249.07308,60.7556182 249.178222,61.4189417 249.178222,62.1425781 C249.178222,62.8538447 249.07308,63.5109833 248.862793,64.1140136 C248.652505,64.717044 248.357179,65.23657 247.976806,65.6726074 C247.596433,66.1086447 247.137209,66.4488106 246.599121,66.6931152 C246.061032,66.9374198 245.464196,67.0595703 244.808593,67.0595703 C244.152991,67.0595703 243.557701,66.9374198 243.022705,66.6931152 C242.487708,66.4488106 242.028485,66.1086447 241.645019,65.6726074 C241.261554,65.23657 240.964682,64.717044 240.754394,64.1140136 C240.544107,63.5109833 240.438964,62.8538447 240.438964,62.1425781 C240.438964,61.4189417 240.544107,60.7556182 240.754394,60.1525879 C240.964682,59.5495575 241.261554,59.0300314 241.645019,58.5939941 C242.028485,58.1579568 242.487708,57.8177909 243.022705,57.5734863 C243.557701,57.3291817 244.152991,57.2070312 244.808593,57.2070312 Z M244.808593,65.6958007 C245.260093,65.6958007 245.657469,65.601482 246.000732,65.4128418 C246.343995,65.2242015 246.63159,64.9690771 246.863525,64.6474609 C247.09546,64.3258447 247.270181,63.9532085 247.387695,63.529541 C247.505208,63.1058735 247.563964,62.6621117 247.563964,62.1982422 L247.563964,62.086914 C247.563964,61.6106747 247.505208,61.1591818 247.387695,60.7324218 C247.270181,60.3056619 247.09546,59.9330256 246.863525,59.6145019 C246.63159,59.2959782 246.343995,59.0424 246.000732,58.8537597 C245.657469,58.6651195 245.260093,58.5708007 244.808593,58.5708007 C244.357094,58.5708007 243.959718,58.6651195 243.616455,58.8537597 C243.273191,59.0424 242.985596,59.2959782 242.753662,59.6145019 C242.521727,59.9330256 242.347005,60.3056619 242.229492,60.7324218 C242.111978,61.1591818 242.053222,61.6106747 242.053222,62.086914 L242.053222,62.1982422 C242.053222,62.6621117 242.111978,63.1058735 242.229492,63.529541 C242.347005,63.9532085 242.521727,64.3258447 242.753662,64.6474609 C242.985596,64.9690771 243.273191,65.2242015 243.616455,65.4128418 C243.959718,65.601482 244.357094,65.6958007 244.808593,65.6958007 Z M251.460449,57.3925781 L253.019043,57.3925781 L253.019043,58.4780273 C253.340659,58.0388975 253.738034,57.7172861 254.211181,57.5131836 C254.684328,57.309081 255.211585,57.2070312 255.792968,57.2070312 C256.318687,57.2070312 256.779457,57.2936189 257.175293,57.4667968 C257.571128,57.6399748 257.902016,57.8749985 258.167968,58.171875 C258.43392,58.4687514 258.633381,58.8120097 258.766357,59.2016601 C258.899333,59.5913105 258.96582,60.002602 258.96582,60.4355468 L258.96582,66.8740234 L257.407226,66.8740234 L257.407226,60.9272461 C257.407226,60.512856 257.356201,60.1587742 257.25415,59.8649902 C257.152099,59.5712062 257.01294,59.3330901 256.836669,59.1506347 C256.660399,58.9681794 256.453207,58.8352055 256.215087,58.7517089 C255.976968,58.6682124 255.721843,58.6264648 255.449707,58.6264648 C255.15283,58.6264648 254.860597,58.6805821 254.572998,58.7888183 C254.285399,58.8970545 254.025635,59.0594064 253.793701,59.2758789 C253.561766,59.4923513 253.374675,59.764484 253.232421,60.0922851 C253.090168,60.4200862 253.019043,60.8066384 253.019043,61.2519531 L253.019043,66.8740234 L251.460449,66.8740234 L251.460449,57.3925781 Z M268.085449,64.2485351 C268.085449,64.6938498 267.988038,65.0912254 267.793212,65.4406738 C267.598387,65.7901222 267.34017,66.085448 267.018554,66.3266601 C266.696938,66.5678723 266.327394,66.7503249 265.909912,66.8740234 C265.492429,66.9977219 265.064129,67.0595703 264.625,67.0595703 C263.932288,67.0595703 263.265872,66.9405122 262.625732,66.7023925 C261.985592,66.4642729 261.418134,66.1225608 260.923339,65.6772461 L261.776855,64.5732422 C261.925293,64.7031256 262.096922,64.839192 262.291748,64.9814453 C262.486573,65.1236986 262.704588,65.2551263 262.9458,65.3757324 C263.187012,65.4963385 263.446776,65.5952958 263.725097,65.6726074 C264.003419,65.749919 264.297199,65.7885742 264.606445,65.7885742 C264.860027,65.7885742 265.102782,65.7561038 265.334716,65.6911621 C265.566651,65.6262203 265.769204,65.5303554 265.942382,65.4035644 C266.11556,65.2767734 266.253173,65.125245 266.355224,64.9489746 C266.457275,64.7727042 266.5083,64.5732433 266.5083,64.3505859 C266.5083,64.1031888 266.454183,63.8959969 266.345947,63.7290039 C266.237711,63.5620108 266.090821,63.4197597 265.905273,63.3022461 C265.719725,63.1847324 265.503256,63.0826827 265.255859,62.9960937 C265.008462,62.9095047 264.748699,62.8229171 264.476562,62.7363281 L263.882812,62.5415039 C263.548826,62.4301752 263.227215,62.3033861 262.917968,62.1611328 C262.608722,62.0188795 262.335043,61.8441579 262.096923,61.6369629 C261.858804,61.4297678 261.670166,61.1839207 261.531005,60.899414 C261.391845,60.6149074 261.322265,60.2747415 261.322265,59.8789062 C261.322265,59.55729 261.390298,59.2372249 261.526367,58.9187011 C261.662435,58.6001774 261.871173,58.3141288 262.152587,58.0605468 C262.434002,57.8069648 262.791176,57.6013191 263.224121,57.4436035 C263.657066,57.2858878 264.167314,57.2070312 264.754882,57.2070312 C265.4043,57.2070312 266.005775,57.3152658 266.559326,57.5317382 C267.112877,57.7482107 267.581378,58.017251 267.964843,58.3388672 L267.148437,59.4614257 C267.012369,59.3315423 266.851563,59.2078456 266.666015,59.090332 C266.480467,58.9728184 266.282553,58.8692224 266.072265,58.779541 C265.861978,58.6898595 265.642416,58.6171877 265.413574,58.5615234 C265.184731,58.5058591 264.958985,58.4780273 264.736328,58.4780273 C264.396157,58.4780273 264.108562,58.5166825 263.873535,58.5939941 C263.638508,58.6713057 263.44987,58.7718092 263.307617,58.8955078 C263.165363,59.0192063 263.061767,59.1583651 262.996826,59.3129882 C262.931884,59.4676114 262.899414,59.6191398 262.899414,59.7675781 C262.899414,59.9840505 262.9458,60.1649569 263.038574,60.3103027 C263.131348,60.4556485 263.253498,60.5808914 263.405029,60.6860351 C263.55656,60.7911789 263.729735,60.880859 263.92456,60.9550781 C264.119385,61.0292972 264.321939,61.1035152 264.532226,61.1777343 L265.311523,61.4375 C265.682619,61.5611985 266.022784,61.6926262 266.332031,61.8317871 C266.641277,61.9709479 266.91341,62.1302074 267.148437,62.3095703 C267.445314,62.5445975 267.675699,62.8167302 267.839599,63.1259765 C268.0035,63.4352229 268.085449,63.8094053 268.085449,64.2485351 Z M271.536621,62.6157226 C271.567545,63.0610373 271.657225,63.4723288 271.805664,63.8496093 C271.954102,64.2268899 272.156655,64.5531399 272.41333,64.8283691 C272.670004,65.1035983 272.973061,65.3169751 273.322509,65.4685058 C273.671958,65.6200365 274.060056,65.6958007 274.486816,65.6958007 C275.012535,65.6958007 275.474851,65.6076669 275.873779,65.4313964 C276.272707,65.255126 276.639158,65.0340182 276.973144,64.7680664 L277.770996,65.890625 C277.344236,66.2307959 276.850995,66.5106597 276.291259,66.7302246 C275.731523,66.9497895 275.105309,67.0595703 274.412597,67.0595703 C273.72607,67.0595703 273.104495,66.9374198 272.547851,66.6931152 C271.991208,66.4488106 271.516522,66.1086447 271.123779,65.6726074 C270.731036,65.23657 270.429525,64.717044 270.219238,64.1140136 C270.00895,63.5109833 269.903808,62.8538447 269.903808,62.1425781 C269.903808,61.4189417 270.007404,60.7556182 270.214599,60.1525879 C270.421794,59.5495575 270.714028,59.0300314 271.091308,58.5939941 C271.468589,58.1579568 271.920082,57.8177909 272.4458,57.5734863 C272.971519,57.3291817 273.555986,57.2070312 274.199218,57.2070312 C274.823896,57.2070312 275.386716,57.3291817 275.887695,57.5734863 C276.388674,57.8177909 276.815427,58.1579568 277.167968,58.5939941 C277.520509,59.0300314 277.791096,59.5495575 277.979736,60.1525879 C278.168376,60.7556182 278.262695,61.4127568 278.262695,62.1240234 L278.262695,62.6157226 L271.536621,62.6157226 Z M274.143554,58.5708007 C273.747719,58.5708007 273.395183,58.6481112 273.085937,58.8027343 C272.776691,58.9573575 272.512289,59.1645494 272.292724,59.4243164 C272.073159,59.6840833 271.899984,59.9825015 271.773193,60.31958 C271.646402,60.6566585 271.57373,61.0045555 271.555175,61.3632812 L276.574218,61.3632812 C276.561848,60.9983705 276.498454,60.6473812 276.384033,60.3103027 C276.269612,59.9732242 276.108806,59.6763522 275.901611,59.4196777 C275.694416,59.1630032 275.44393,58.9573575 275.150146,58.8027343 C274.856362,58.6481112 274.520835,58.5708007 274.143554,58.5708007 Z" id="path-2"></path>
        <path d="M339.398926,53.6962891 L348.518555,53.6962891 L348.518555,55.1621094 L344.779785,55.1621094 L344.779785,67 L343.137695,67 L343.137695,55.1621094 L339.398926,55.1621094 L339.398926,53.6962891 Z M353.741699,58.9101562 L353.491211,58.9101562 C353.089191,58.9101562 352.705731,58.9565425 352.34082,59.0493164 C351.97591,59.1420903 351.654298,59.3090808 351.375977,59.550293 C351.097655,59.7915051 350.875001,60.1208475 350.708008,60.5383301 C350.541015,60.9558126 350.45752,61.4892546 350.45752,62.1386719 L350.45752,67 L348.898926,67 L348.898926,57.5185547 L350.45752,57.5185547 L350.45752,59.0214844 C350.575033,58.7431627 350.732746,58.4988617 350.930664,58.2885742 C351.128582,58.0782867 351.352782,57.9035651 351.603271,57.7644043 C351.853761,57.6252434 352.122801,57.5216475 352.4104,57.4536133 C352.697999,57.3855791 352.990233,57.3515625 353.287109,57.3515625 L353.741699,57.3515625 L353.741699,58.9101562 Z M357.12793,67 L355.569336,67 L355.569336,57.5185547 L357.12793,57.5185547 L357.12793,67 Z M355.281738,54.7817383 C355.281738,54.6333 355.311116,54.4941413 355.369873,54.3642578 C355.42863,54.2343744 355.50594,54.1199549 355.601807,54.0209961 C355.697673,53.9220373 355.812092,53.8431806 355.945068,53.7844238 C356.078044,53.725667 356.218749,53.6962891 356.367188,53.6962891 C356.515626,53.6962891 356.654785,53.725667 356.784668,53.7844238 C356.914551,53.8431806 357.027425,53.9220373 357.123291,54.0209961 C357.219157,54.1199549 357.296468,54.2343744 357.355225,54.3642578 C357.413981,54.4941413 357.443359,54.6333 357.443359,54.7817383 C357.443359,54.9301765 357.413981,55.0708815 357.355225,55.2038574 C357.296468,55.3368333 357.219157,55.4512528 357.123291,55.5471191 C357.027425,55.6429855 356.914551,55.7202959 356.784668,55.7790527 C356.654785,55.8378095 356.515626,55.8671875 356.367188,55.8671875 C356.218749,55.8671875 356.078044,55.8378095 355.945068,55.7790527 C355.812092,55.7202959 355.697673,55.6429855 355.601807,55.5471191 C355.50594,55.4512528 355.42863,55.3368333 355.369873,55.2038574 C355.311116,55.0708815 355.281738,54.9301765 355.281738,54.7817383 Z M361.534668,67 L359.976074,67 L359.976074,53.6962891 L361.534668,53.6962891 L361.534668,58.6040039 C361.81299,58.2143535 362.190265,57.9051118 362.666504,57.6762695 C363.142743,57.4474272 363.690101,57.3330078 364.308594,57.3330078 C364.920901,57.3330078 365.474444,57.4551583 365.969238,57.6994629 C366.464032,57.9437675 366.887694,58.2854796 367.240234,58.7246094 C367.592775,59.1637392 367.863362,59.6848114 368.052002,60.2878418 C368.240642,60.8908722 368.334961,61.5511032 368.334961,62.2685547 C368.334961,62.9860062 368.240642,63.644691 368.052002,64.2446289 C367.863362,64.8445668 367.592775,65.3625466 367.240234,65.798584 C366.887694,66.2346213 366.464032,66.5747872 365.969238,66.8190918 C365.474444,67.0633964 364.920901,67.1855469 364.308594,67.1855469 C363.690101,67.1855469 363.142743,67.0711274 362.666504,66.8422852 C362.190265,66.6134429 361.81299,66.3042012 361.534668,65.9145508 L361.534668,67 Z M366.720703,62.2128906 C366.720703,61.7180965 366.661947,61.2573264 366.544434,60.8305664 C366.42692,60.4038065 366.253745,60.0342626 366.024902,59.7219238 C365.79606,59.409585 365.513104,59.1637379 365.176025,58.984375 C364.838947,58.8050121 364.453941,58.715332 364.020996,58.715332 C363.606606,58.715332 363.243247,58.7864576 362.930908,58.9287109 C362.618569,59.0709643 362.35726,59.2657865 362.146973,59.5131836 C361.936685,59.7605807 361.777426,60.0528141 361.669189,60.3898926 C361.560953,60.7269711 361.506836,61.0934225 361.506836,61.4892578 L361.506836,63.0292969 C361.506836,63.4251322 361.560953,63.7915836 361.669189,64.1286621 C361.777426,64.4657406 361.936685,64.757974 362.146973,65.0053711 C362.35726,65.2527682 362.618569,65.4475904 362.930908,65.5898438 C363.243247,65.7320971 363.606606,65.8032227 364.020996,65.8032227 C364.453941,65.8032227 364.838947,65.7135426 365.176025,65.5341797 C365.513104,65.3548168 365.79606,65.1089697 366.024902,64.7966309 C366.253745,64.4842921 366.42692,64.1147482 366.544434,63.6879883 C366.661947,63.2612283 366.720703,62.8004582 366.720703,62.3056641 L366.720703,62.2128906 Z M378.057617,67 L376.499023,67 L376.499023,65.9145508 C376.177407,66.3536806 375.780032,66.6752919 375.306885,66.8793945 C374.833738,67.0834971 374.306481,67.1855469 373.725098,67.1855469 C373.199379,67.1855469 372.738609,67.0989592 372.342773,66.9257812 C371.946938,66.7526033 371.61605,66.5175796 371.350098,66.2207031 C371.084146,65.9238266 370.884685,65.5805684 370.751709,65.190918 C370.618733,64.8012676 370.552246,64.3899761 370.552246,63.9570312 L370.552246,57.5185547 L372.11084,57.5185547 L372.11084,63.465332 C372.11084,63.8859071 372.161865,64.241535 372.263916,64.5322266 C372.365967,64.8229181 372.505126,65.059488 372.681396,65.2419434 C372.857667,65.4243987 373.064859,65.5573726 373.302979,65.6408691 C373.541098,65.7243657 373.796223,65.7661133 374.068359,65.7661133 C374.389976,65.7661133 374.697671,65.711996 374.991455,65.6037598 C375.285239,65.4955235 375.543456,65.3331717 375.766113,65.1166992 C375.988771,64.9002268 376.166585,64.6280941 376.299561,64.300293 C376.432536,63.9724919 376.499023,63.5859397 376.499023,63.140625 L376.499023,57.5185547 L378.057617,57.5185547 L378.057617,67 Z M380.915039,57.5185547 L382.473633,57.5185547 L382.473633,58.6040039 C382.795249,58.1648741 383.192625,57.8432627 383.665771,57.6391602 C384.138918,57.4350576 384.666175,57.3330078 385.247559,57.3330078 C385.773277,57.3330078 386.234047,57.4195955 386.629883,57.5927734 C387.025718,57.7659514 387.356607,58.0009751 387.622559,58.2978516 C387.88851,58.594728 388.087971,58.9379863 388.220947,59.3276367 C388.353923,59.7172871 388.42041,60.1285786 388.42041,60.5615234 L388.42041,67 L386.861816,67 L386.861816,61.0532227 C386.861816,60.6388326 386.810792,60.2847508 386.70874,59.9909668 C386.606689,59.6971828 386.46753,59.4590667 386.29126,59.2766113 C386.114989,59.094156 385.907797,58.9611821 385.669678,58.8776855 C385.431558,58.794189 385.176434,58.7524414 384.904297,58.7524414 C384.60742,58.7524414 384.315187,58.8065587 384.027588,58.9147949 C383.739989,59.0230311 383.480226,59.185383 383.248291,59.4018555 C383.016356,59.6183279 382.829265,59.8904606 382.687012,60.2182617 C382.544758,60.5460628 382.473633,60.932615 382.473633,61.3779297 L382.473633,67 L380.915039,67 L380.915039,57.5185547 Z M396.584473,66.0537109 C396.306151,66.3753271 395.930422,66.6443674 395.457275,66.8608398 C394.984128,67.0773123 394.42904,67.1855469 393.791992,67.1855469 C393.321938,67.1855469 392.885907,67.1190599 392.483887,66.986084 C392.081866,66.8531081 391.732423,66.6629244 391.435547,66.4155273 C391.13867,66.1681303 390.906739,65.8681658 390.739746,65.515625 C390.572753,65.1630842 390.489258,64.7641624 390.489258,64.3188477 C390.489258,63.9477521 390.54956,63.6091324 390.670166,63.3029785 C390.790772,62.9968246 390.960855,62.7293306 391.18042,62.5004883 C391.399985,62.271646 391.664386,62.0845548 391.973633,61.939209 C392.282879,61.7938632 392.62923,61.6933597 393.012695,61.6376953 L396.361816,61.1831055 L396.361816,60.5800781 C396.361816,60.2213524 396.306153,59.9198417 396.194824,59.6755371 C396.083496,59.4312325 395.933513,59.2379564 395.744873,59.0957031 C395.556233,58.9534498 395.333579,58.8514 395.076904,58.7895508 C394.82023,58.7277015 394.543459,58.6967773 394.246582,58.6967773 C393.714678,58.6967773 393.218345,58.7709954 392.757568,58.9194336 C392.296791,59.0678718 391.880861,59.2410472 391.509766,59.4389648 L390.925293,58.2050781 C391.469567,57.8958318 392.040117,57.6731778 392.636963,57.5371094 C393.233808,57.401041 393.822914,57.3330078 394.404297,57.3330078 C395.560878,57.3330078 396.436032,57.594317 397.029785,58.1169434 C397.623538,58.6395697 397.92041,59.4018505 397.92041,60.4038086 L397.92041,64.7734375 C397.92041,65.0888688 397.982258,65.3532704 398.105957,65.5666504 C398.229656,65.7800304 398.42757,65.9485671 398.699707,66.0722656 L397.818359,67.1855469 C397.521483,67.1113278 397.266358,66.9799 397.052979,66.7912598 C396.839599,66.6026195 396.689616,66.3753269 396.603027,66.109375 L396.584473,66.0537109 Z M393.810547,62.7788086 C393.55078,62.8159182 393.31421,62.8684892 393.10083,62.9365234 C392.88745,63.0045576 392.706544,63.0957839 392.558105,63.2102051 C392.409667,63.3246262 392.293702,63.4653312 392.210205,63.6323242 C392.126709,63.7993172 392.084961,64.0034168 392.084961,64.2446289 C392.084961,64.5229506 392.137532,64.770344 392.242676,64.9868164 C392.34782,65.2032888 392.490071,65.3857414 392.669434,65.5341797 C392.848796,65.6826179 393.057535,65.7954911 393.295654,65.8728027 C393.533774,65.9501143 393.782714,65.9887695 394.04248,65.9887695 C394.333172,65.9887695 394.617674,65.9485681 394.895996,65.8681641 C395.174318,65.78776 395.421711,65.6717944 395.638184,65.5202637 C395.854656,65.368733 396.029378,65.1847342 396.162354,64.9682617 C396.295329,64.7517893 396.361816,64.5043959 396.361816,64.2260742 L396.361816,62.3984375 L393.810547,62.7788086 Z M400.685059,53.6962891 L402.243652,53.6962891 L402.243652,64.8754883 C402.243652,65.0301115 402.257568,65.1661778 402.2854,65.2836914 C402.313233,65.401205 402.361165,65.5001624 402.429199,65.5805664 C402.497233,65.6609705 402.591552,65.7212726 402.712158,65.7614746 C402.832764,65.8016766 402.982746,65.8217773 403.162109,65.8217773 C403.360027,65.8217773 403.539387,65.8155925 403.700195,65.8032227 C403.861003,65.7908528 404.003255,65.7784831 404.126953,65.7661133 L404.284668,67.0742188 L403.746582,67.1298828 C403.591959,67.1422527 403.421876,67.1546223 403.236328,67.1669922 C403.05078,67.179362 402.874513,67.1855469 402.70752,67.1855469 C402.429198,67.1855469 402.166342,67.1530765 401.918945,67.0881348 C401.671548,67.023193 401.456625,66.9165046 401.27417,66.7680664 C401.091715,66.6196282 400.947917,66.4278983 400.842773,66.1928711 C400.73763,65.9578439 400.685059,65.6702491 400.685059,65.3300781 L400.685059,53.6962891 Z M413.905273,58.9101562 L413.654785,58.9101562 C413.252765,58.9101562 412.869305,58.9565425 412.504395,59.0493164 C412.139484,59.1420903 411.817872,59.3090808 411.539551,59.550293 C411.261229,59.7915051 411.038575,60.1208475 410.871582,60.5383301 C410.704589,60.9558126 410.621094,61.4892546 410.621094,62.1386719 L410.621094,67 L409.0625,67 L409.0625,57.5185547 L410.621094,57.5185547 L410.621094,59.0214844 C410.738607,58.7431627 410.896321,58.4988617 411.094238,58.2885742 C411.292156,58.0782867 411.516356,57.9035651 411.766846,57.7644043 C412.017335,57.6252434 412.286376,57.5216475 412.573975,57.4536133 C412.861574,57.3855791 413.153807,57.3515625 413.450684,57.3515625 L413.905273,57.3515625 L413.905273,58.9101562 Z M416.558594,62.7416992 C416.589518,63.1870139 416.679198,63.5983054 416.827637,63.9755859 C416.976075,64.3528665 417.178628,64.6791165 417.435303,64.9543457 C417.691977,65.2295749 417.995034,65.4429517 418.344482,65.5944824 C418.693931,65.7460131 419.082029,65.8217773 419.508789,65.8217773 C420.034508,65.8217773 420.496824,65.7336435 420.895752,65.557373 C421.29468,65.3811026 421.661131,65.1599948 421.995117,64.894043 L422.792969,66.0166016 C422.366209,66.3567725 421.872968,66.6366363 421.313232,66.8562012 C420.753497,67.0757661 420.127282,67.1855469 419.43457,67.1855469 C418.748043,67.1855469 418.126468,67.0633964 417.569824,66.8190918 C417.013181,66.5747872 416.538495,66.2346213 416.145752,65.798584 C415.753009,65.3625466 415.451498,64.8430206 415.241211,64.2399902 C415.030923,63.6369599 414.925781,62.9798213 414.925781,62.2685547 C414.925781,61.5449183 415.029377,60.8815948 415.236572,60.2785645 C415.443767,59.6755341 415.736001,59.156008 416.113281,58.7199707 C416.490562,58.2839334 416.942055,57.9437675 417.467773,57.6994629 C417.993492,57.4551583 418.577959,57.3330078 419.221191,57.3330078 C419.845869,57.3330078 420.408689,57.4551583 420.909668,57.6994629 C421.410647,57.9437675 421.837401,58.2839334 422.189941,58.7199707 C422.542482,59.156008 422.813069,59.6755341 423.001709,60.2785645 C423.190349,60.8815948 423.284668,61.5387334 423.284668,62.25 L423.284668,62.7416992 L416.558594,62.7416992 Z M419.165527,58.6967773 C418.769692,58.6967773 418.417156,58.7740878 418.10791,58.9287109 C417.798664,59.0833341 417.534262,59.290526 417.314697,59.550293 C417.095132,59.8100599 416.921957,60.1084781 416.795166,60.4455566 C416.668375,60.7826351 416.595703,61.1305321 416.577148,61.4892578 L421.596191,61.4892578 C421.583822,61.1243471 421.520427,60.7733578 421.406006,60.4362793 C421.291585,60.0992008 421.130779,59.8023288 420.923584,59.5456543 C420.716389,59.2889798 420.465903,59.0833341 420.172119,58.9287109 C419.878335,58.7740878 419.542808,58.6967773 419.165527,58.6967773 Z M427.357422,67 L424.351562,57.5185547 L426.123535,57.5185547 L428.396484,65.5527344 L430.660156,57.5185547 L432.432129,57.5185547 L429.42627,67 L427.357422,67 Z M435.874023,67 L434.31543,67 L434.31543,57.5185547 L435.874023,57.5185547 L435.874023,67 Z M434.027832,54.7817383 C434.027832,54.6333 434.05721,54.4941413 434.115967,54.3642578 C434.174724,54.2343744 434.252034,54.1199549 434.3479,54.0209961 C434.443767,53.9220373 434.558186,53.8431806 434.691162,53.7844238 C434.824138,53.725667 434.964843,53.6962891 435.113281,53.6962891 C435.261719,53.6962891 435.400878,53.725667 435.530762,53.7844238 C435.660645,53.8431806 435.773518,53.9220373 435.869385,54.0209961 C435.965251,54.1199549 436.042562,54.2343744 436.101318,54.3642578 C436.160075,54.4941413 436.189453,54.6333 436.189453,54.7817383 C436.189453,54.9301765 436.160075,55.0708815 436.101318,55.2038574 C436.042562,55.3368333 435.965251,55.4512528 435.869385,55.5471191 C435.773518,55.6429855 435.660645,55.7202959 435.530762,55.7790527 C435.400878,55.8378095 435.261719,55.8671875 435.113281,55.8671875 C434.964843,55.8671875 434.824138,55.8378095 434.691162,55.7790527 C434.558186,55.7202959 434.443767,55.6429855 434.3479,55.5471191 C434.252034,55.4512528 434.174724,55.3368333 434.115967,55.2038574 C434.05721,55.0708815 434.027832,54.9301765 434.027832,54.7817383 Z M439.779785,62.7416992 C439.81071,63.1870139 439.90039,63.5983054 440.048828,63.9755859 C440.197266,64.3528665 440.39982,64.6791165 440.656494,64.9543457 C440.913169,65.2295749 441.216225,65.4429517 441.565674,65.5944824 C441.915122,65.7460131 442.303221,65.8217773 442.72998,65.8217773 C443.255699,65.8217773 443.718016,65.7336435 444.116943,65.557373 C444.515871,65.3811026 444.882323,65.1599948 445.216309,64.894043 L446.01416,66.0166016 C445.5874,66.3567725 445.09416,66.6366363 444.534424,66.8562012 C443.974688,67.0757661 443.348474,67.1855469 442.655762,67.1855469 C441.969235,67.1855469 441.347659,67.0633964 440.791016,66.8190918 C440.234372,66.5747872 439.759686,66.2346213 439.366943,65.798584 C438.974201,65.3625466 438.67269,64.8430206 438.462402,64.2399902 C438.252115,63.6369599 438.146973,62.9798213 438.146973,62.2685547 C438.146973,61.5449183 438.250569,60.8815948 438.457764,60.2785645 C438.664959,59.6755341 438.957192,59.156008 439.334473,58.7199707 C439.711753,58.2839334 440.163246,57.9437675 440.688965,57.6994629 C441.214684,57.4551583 441.79915,57.3330078 442.442383,57.3330078 C443.06706,57.3330078 443.62988,57.4551583 444.130859,57.6994629 C444.631838,57.9437675 445.058592,58.2839334 445.411133,58.7199707 C445.763674,59.156008 446.03426,59.6755341 446.2229,60.2785645 C446.411541,60.8815948 446.505859,61.5387334 446.505859,62.25 L446.505859,62.7416992 L439.779785,62.7416992 Z M442.386719,58.6967773 C441.990883,58.6967773 441.638348,58.7740878 441.329102,58.9287109 C441.019855,59.0833341 440.755454,59.290526 440.535889,59.550293 C440.316324,59.8100599 440.143148,60.1084781 440.016357,60.4455566 C439.889566,60.7826351 439.816895,61.1305321 439.79834,61.4892578 L444.817383,61.4892578 C444.805013,61.1243471 444.741618,60.7733578 444.627197,60.4362793 C444.512776,60.0992008 444.35197,59.8023288 444.144775,59.5456543 C443.93758,59.2889798 443.687095,59.0833341 443.393311,58.9287109 C443.099527,58.7740878 442.763999,58.6967773 442.386719,58.6967773 Z M456.87793,65.1538086 L458.594238,57.5185547 L460.245605,57.5185547 L457.92627,67 L455.931641,67 L454.01123,59.4018555 L452.053711,67 L450.133301,67 L447.83252,57.5185547 L449.511719,57.5185547 L451.163086,65.1538086 L453.157715,57.5185547 L454.92041,57.5185547 L456.87793,65.1538086 Z" id="path-3"></path>
        <path d="M562.121094,60.2221679 C562.121094,61.2179411 561.986573,62.1255655 561.717529,62.9450683 C561.448485,63.7645711 561.046471,64.4650036 560.511474,65.0463867 C559.976478,65.6277698 559.30697,66.0777165 558.50293,66.3962402 C557.698889,66.7147639 556.758794,66.8740234 555.682617,66.8740234 L550.78418,66.8740234 L550.78418,53.5703125 L555.682617,53.5703125 C556.758794,53.5703125 557.698889,53.7295719 558.50293,54.0480957 C559.30697,54.3666194 559.976478,54.8165661 560.511474,55.3979492 C561.046471,55.9793323 561.448485,56.6797647 561.717529,57.4992675 C561.986573,58.3187703 562.121094,59.2263947 562.121094,60.2221679 Z M559.328613,59.9624023 C559.328613,59.399574 559.259034,58.8754093 559.119873,58.3898925 C558.980712,57.9043758 558.758058,57.4822609 558.451904,57.1235351 C558.14575,56.7648094 557.748375,56.4818532 557.259765,56.2746582 C556.771156,56.0674631 556.180505,55.9638672 555.487793,55.9638672 L553.474609,55.9638672 L553.474609,64.4804687 L555.487793,64.4804687 C556.17432,64.4804687 556.761879,64.3768727 557.250488,64.1696777 C557.739097,63.9624827 558.136473,63.6779803 558.442627,63.3161621 C558.748781,62.9543439 558.972981,62.5291365 559.115234,62.0405273 C559.257488,61.5519181 559.328613,61.0292996 559.328613,60.4726562 L559.328613,59.9624023 Z M566.147461,62.7919922 C566.190755,63.0888686 566.285074,63.3610013 566.43042,63.6083984 C566.575766,63.8557955 566.759764,64.067626 566.982422,64.2438964 C567.205079,64.4201669 567.46175,64.5577794 567.752441,64.6567382 C568.043133,64.7556971 568.352375,64.8051757 568.680176,64.8051757 C569.057456,64.8051757 569.465655,64.7325039 569.904785,64.5871582 C570.343915,64.4418124 570.745929,64.2299818 571.11084,63.9516601 L572.344726,65.7514648 C571.880857,66.1411152 571.311852,66.4565417 570.637695,66.6977539 C569.963538,66.938966 569.246097,67.0595703 568.485351,67.0595703 C567.798825,67.0595703 567.152509,66.9420584 566.546387,66.7070312 C565.940264,66.472004 565.409914,66.1318381 564.955322,65.6865234 C564.50073,65.2412087 564.14201,64.7000357 563.87915,64.0629882 C563.616291,63.4259408 563.484863,62.7085 563.484863,61.9106445 C563.484863,61.1808231 563.600829,60.5004914 563.832764,59.8696289 C564.064698,59.2387663 564.389402,58.6914085 564.806885,58.227539 C565.224367,57.7636695 565.723793,57.4003105 566.305176,57.1374511 C566.886559,56.8745917 567.529782,56.743164 568.234863,56.743164 C568.890465,56.743164 569.499672,56.8622221 570.0625,57.1003418 C570.625328,57.3384614 571.11393,57.6724425 571.52832,58.1022949 C571.94271,58.5321473 572.267414,59.0470347 572.502441,59.6469726 C572.737468,60.2469105 572.85498,60.9086878 572.85498,61.6323242 L572.85498,62.7919922 L566.147461,62.7919922 Z M568.225586,58.9697265 C567.675127,58.9697265 567.209719,59.1537253 566.829346,59.5217285 C566.448973,59.8897316 566.227865,60.3334935 566.166015,60.8530273 L570.173828,60.8530273 C570.161458,60.3273085 569.969728,59.8820005 569.598633,59.5170898 C569.227537,59.1521791 568.769859,58.9697265 568.225586,58.9697265 Z M576.612305,61.9570312 C576.612305,62.2786474 576.655598,62.601805 576.742187,62.9265136 C576.828776,63.2512223 576.96175,63.5434557 577.141113,63.8032226 C577.320476,64.0629895 577.550861,64.2748201 577.832275,64.4387207 C578.113689,64.6026212 578.449217,64.6845703 578.838867,64.6845703 C579.092449,64.6845703 579.322834,64.6505537 579.530029,64.5825195 C579.737224,64.5144853 579.922769,64.4201666 580.08667,64.2995605 C580.25057,64.1789544 580.395914,64.0367033 580.522705,63.8728027 C580.649496,63.7089021 580.759277,63.5310882 580.852051,63.3393554 L583.097168,64.4990234 C582.93636,64.8886738 582.715252,65.2412093 582.433838,65.5566406 C582.152424,65.8720719 581.826174,66.1411121 581.455078,66.3637695 C581.083982,66.5864269 580.672691,66.758056 580.221191,66.8786621 C579.769692,66.9992681 579.290367,67.0595703 578.783203,67.0595703 C578.084306,67.0595703 577.441084,66.9281426 576.853515,66.6652832 C576.265947,66.4024238 575.758791,66.0421572 575.332031,65.5844726 C574.905271,65.126788 574.57129,64.5840689 574.330078,63.9562988 C574.088866,63.3285287 573.968262,62.6466508 573.968262,61.9106445 C573.968262,61.1808231 574.088866,60.5004914 574.330078,59.8696289 C574.57129,59.2387663 574.905271,58.6914085 575.332031,58.227539 C575.758791,57.7636695 576.265947,57.4003105 576.853515,57.1374511 C577.441084,56.8745917 578.084306,56.743164 578.783203,56.743164 C579.290367,56.743164 579.769692,56.8034662 580.221191,56.9240722 C580.672691,57.0446783 581.083982,57.2178537 581.455078,57.4436035 C581.826174,57.6693533 582.152424,57.9399398 582.433838,58.2553711 C582.715252,58.5708023 582.93636,58.9233379 583.097168,59.3129882 L580.852051,60.4726562 C580.759277,60.2809235 580.649496,60.1031095 580.522705,59.9392089 C580.395914,59.7753084 580.25057,59.6330572 580.08667,59.5124511 C579.922769,59.3918451 579.737224,59.2959801 579.530029,59.2248535 C579.322834,59.1537268 579.092449,59.118164 578.838867,59.118164 C578.449217,59.118164 578.113689,59.2001131 577.832275,59.3640136 C577.550861,59.5279142 577.320476,59.741291 577.141113,60.0041504 C576.96175,60.2670097 576.828776,60.5623356 576.742187,60.8901367 C576.655598,61.2179378 576.612305,61.545734 576.612305,61.8735351 L576.612305,61.9570312 Z M587.234863,66.8740234 L584.674316,66.8740234 L584.674316,56.9379882 L587.234863,56.9379882 L587.234863,66.8740234 Z M584.405273,54.3310547 C584.405273,54.1207671 584.445475,53.9213062 584.525879,53.732666 C584.606283,53.5440257 584.716064,53.3801276 584.855224,53.2409668 C584.994385,53.1018059 585.156737,52.9920251 585.342285,52.9116211 C585.527833,52.831217 585.72884,52.7910156 585.945312,52.7910156 C586.1556,52.7910156 586.355061,52.831217 586.543701,52.9116211 C586.732341,52.9920251 586.896239,53.1018059 587.0354,53.2409668 C587.174561,53.3801276 587.284342,53.5440257 587.364746,53.732666 C587.44515,53.9213062 587.485351,54.1207671 587.485351,54.3310547 C587.485351,54.5475271 587.44515,54.7485342 587.364746,54.934082 C587.284342,55.1196298 587.174561,55.2819817 587.0354,55.4211425 C586.896239,55.5603034 586.732341,55.6700842 586.543701,55.7504882 C586.355061,55.8308923 586.1556,55.8710937 585.945312,55.8710937 C585.72884,55.8710937 585.527833,55.8308923 585.342285,55.7504882 C585.156737,55.6700842 584.994385,55.5603034 584.855224,55.4211425 C584.716064,55.2819817 584.606283,55.1196298 584.525879,54.934082 C584.445475,54.7485342 584.405273,54.5475271 584.405273,54.3310547 Z M590.147949,63.7011718 C590.51286,64.028973 590.948891,64.3103829 591.456055,64.5454101 C591.963219,64.7804373 592.47656,64.8979492 592.996094,64.8979492 C593.373374,64.8979492 593.670246,64.8252774 593.886719,64.6799316 C594.103191,64.5345858 594.211426,64.3474946 594.211426,64.1186523 C594.211426,63.7290019 593.793949,63.4259451 592.958984,63.2094726 L592.235351,63.0146484 C591.876626,62.9280594 591.514813,62.8090014 591.149902,62.6574707 C590.784992,62.50594 590.449464,62.3064791 590.14331,62.059082 C589.837157,61.8116849 589.589763,61.5101743 589.401123,61.154541 C589.212483,60.7989077 589.118164,60.3613307 589.118164,59.8417968 C589.118164,59.4274067 589.20939,59.0331236 589.391846,58.6589355 C589.574301,58.2847474 589.834064,57.955405 590.171142,57.6708984 C590.508221,57.3863918 590.917966,57.1606453 591.40039,56.9936523 C591.882815,56.8266593 592.420895,56.743164 593.014648,56.743164 C593.861983,56.743164 594.618079,56.876138 595.282959,57.1420898 C595.947838,57.4080417 596.472003,57.7080061 596.855469,58.0419922 L595.519531,59.7490234 C595.2041,59.5201811 594.831464,59.3238126 594.401611,59.1599121 C593.971759,58.9960115 593.540367,58.9140625 593.107422,58.9140625 C592.705402,58.9140625 592.393067,58.9867343 592.17041,59.13208 C591.947753,59.2774258 591.836426,59.4521474 591.836426,59.65625 C591.836426,59.8727224 591.933837,60.047444 592.128662,60.1804199 C592.323487,60.3133958 592.606443,60.4293614 592.977539,60.5283203 L594.053711,60.8344726 C595.080409,61.1251642 595.816404,61.5179011 596.261719,62.0126953 C596.707033,62.5074894 596.929687,63.1321576 596.929687,63.8867187 C596.929687,64.3072937 596.8431,64.7077617 596.669922,65.0881347 C596.496744,65.4685077 596.243166,65.8071274 595.90918,66.1040039 C595.575194,66.4008804 595.16081,66.6343578 594.666015,66.8044433 C594.171221,66.9745288 593.608401,67.0595703 592.977539,67.0595703 C592.495115,67.0595703 592.042076,67.0162764 591.618408,66.9296875 C591.194741,66.8430985 590.802004,66.7240404 590.440185,66.5725097 C590.078367,66.420979 589.752117,66.2493499 589.461426,66.0576172 C589.170734,65.8658844 588.923341,65.6741546 588.719238,65.4824218 L590.147949,63.7011718 Z M601.141601,66.8740234 L598.581055,66.8740234 L598.581055,56.9379882 L601.141601,56.9379882 L601.141601,66.8740234 Z M598.312012,54.3310547 C598.312012,54.1207671 598.352213,53.9213062 598.432617,53.732666 C598.513021,53.5440257 598.622802,53.3801276 598.761963,53.2409668 C598.901124,53.1018059 599.063476,52.9920251 599.249023,52.9116211 C599.434571,52.831217 599.635578,52.7910156 599.852051,52.7910156 C600.062338,52.7910156 600.261799,52.831217 600.450439,52.9116211 C600.63908,52.9920251 600.802978,53.1018059 600.942139,53.2409668 C601.081299,53.3801276 601.19108,53.5440257 601.271484,53.732666 C601.351888,53.9213062 601.39209,54.1207671 601.39209,54.3310547 C601.39209,54.5475271 601.351888,54.7485342 601.271484,54.934082 C601.19108,55.1196298 601.081299,55.2819817 600.942139,55.4211425 C600.802978,55.5603034 600.63908,55.6700842 600.450439,55.7504882 C600.261799,55.8308923 600.062338,55.8710937 599.852051,55.8710937 C599.635578,55.8710937 599.434571,55.8308923 599.249023,55.7504882 C599.063476,55.6700842 598.901124,55.5603034 598.761963,55.4211425 C598.622802,55.2819817 598.513021,55.1196298 598.432617,54.934082 C598.352213,54.7485342 598.312012,54.5475271 598.312012,54.3310547 Z M607.719238,56.743164 C608.455244,56.743164 609.123207,56.8745917 609.723144,57.1374511 C610.323082,57.4003105 610.836424,57.7636695 611.263183,58.227539 C611.689943,58.6914085 612.019286,59.2387663 612.251221,59.8696289 C612.483155,60.5004914 612.599121,61.1808231 612.599121,61.9106445 C612.599121,62.6466508 612.481609,63.3285287 612.246582,63.9562988 C612.011555,64.5840689 611.680666,65.126788 611.253906,65.5844726 C610.827146,66.0421572 610.313805,66.4024238 609.713867,66.6652832 C609.113929,66.9281426 608.44906,67.0595703 607.719238,67.0595703 C606.983232,67.0595703 606.31527,66.9281426 605.715332,66.6652832 C605.115394,66.4024238 604.602053,66.0421572 604.175293,65.5844726 C603.748533,65.126788 603.417644,64.5840689 603.182617,63.9562988 C602.94759,63.3285287 602.830078,62.6466508 602.830078,61.9106445 C602.830078,61.1808231 602.946044,60.5004914 603.177978,59.8696289 C603.409913,59.2387663 603.739256,58.6914085 604.166015,58.227539 C604.592775,57.7636695 605.107663,57.4003105 605.710693,57.1374511 C606.313724,56.8745917 606.983232,56.743164 607.719238,56.743164 Z M607.719238,64.6845703 C608.084149,64.6845703 608.407306,64.6165371 608.688721,64.4804687 C608.970135,64.3444003 609.206705,64.1557629 609.398437,63.9145507 C609.59017,63.6733386 609.735514,63.3841976 609.834473,63.0471191 C609.933431,62.7100406 609.98291,62.3404968 609.98291,61.9384765 L609.98291,61.8735351 C609.98291,61.4715149 609.933431,61.101971 609.834473,60.7648925 C609.735514,60.427814 609.59017,60.1371268 609.398437,59.8928222 C609.206705,59.6485176 608.970135,59.458334 608.688721,59.3222656 C608.407306,59.1861972 608.084149,59.118164 607.719238,59.118164 C607.354327,59.118164 607.03117,59.1861972 606.749756,59.3222656 C606.468342,59.458334 606.231772,59.6485176 606.040039,59.8928222 C605.848306,60.1371268 605.702963,60.427814 605.604004,60.7648925 C605.505045,61.101971 605.455566,61.4715149 605.455566,61.8735351 L605.455566,61.9384765 C605.455566,62.3404968 605.505045,62.7100406 605.604004,63.0471191 C605.702963,63.3841976 605.848306,63.6733386 606.040039,63.9145507 C606.231772,64.1557629 606.468342,64.3444003 606.749756,64.4804687 C607.03117,64.6165371 607.354327,64.6845703 607.719238,64.6845703 Z M614.296875,56.9379882 L616.857422,56.9379882 L616.857422,57.7915039 C616.99349,57.6554355 617.146565,57.5240078 617.31665,57.3972168 C617.486736,57.2704258 617.673827,57.1590987 617.87793,57.0632324 C618.082032,56.967366 618.309325,56.8900556 618.559814,56.8312988 C618.810304,56.772542 619.087075,56.743164 619.390137,56.743164 C619.928225,56.743164 620.410642,56.8312979 620.837402,57.0075683 C621.264162,57.1838387 621.624429,57.4265935 621.918213,57.7358398 C622.211997,58.0450861 622.436197,58.4068989 622.59082,58.821289 C622.745443,59.2356791 622.822754,59.6840796 622.822754,60.1665039 L622.822754,66.8740234 L620.262207,66.8740234 L620.262207,61.0942382 C620.262207,60.7416974 620.222005,60.4432792 620.141601,60.1989746 C620.061197,59.95467 619.951417,59.7567553 619.812256,59.6052246 C619.673095,59.4536939 619.509197,59.3423669 619.320557,59.2712402 C619.131916,59.2001135 618.926271,59.1645507 618.703613,59.1645507 C618.443846,59.1645507 618.201091,59.210937 617.975342,59.3037109 C617.749592,59.3964848 617.553223,59.5371898 617.38623,59.72583 C617.219237,59.9144703 617.089356,60.1510402 616.996582,60.4355468 C616.903808,60.7200535 616.857422,61.0540345 616.857422,61.4375 L616.857422,66.8740234 L614.296875,66.8740234 L614.296875,56.9379882 Z" id="path-4"></path>
    </defs>
    <g id="Page-1" stroke="none" stroke-width="1" fill="none" fill-rule="evenodd">
        <g id="Decision" transform="translate(-9.000000, -13.000000)">
            <g id="Group-3" transform="translate(9.000000, 13.000000)">
                <g id="Group-2">
                    <g id="Appeal">
                        <use fill="#000000" xlink:href="#path-1"></use>
                        <use fill="#0B0C0C" xlink:href="#path-1"></use>
                    </g>
                    <g id="DWP-response">
                        <use fill="#000000" xlink:href="#path-2"></use>
                        <use fill="#0B0C0C" xlink:href="#path-2"></use>
                    </g>
                    <g id="Tribunal-review">
                        <use fill="#000000" xlink:href="#path-3"></use>
                        <use fill="#0B0C0C" xlink:href="#path-3"></use>
                    </g>
                    <g id="Decision">
                        <use fill="#000000" xlink:href="#path-4"></use>
                        <use fill="#0B0C0C" xlink:href="#path-4"></use>
                    </g>
                    <g id="Group" transform="translate(12.000000, -0.000000)">
                        <circle id="Oval-2" fill="#006435" cx="20.5" cy="20.5" r="20.5"></circle>
                        <polygon id="Path" fill="#FFFFFF" points="16.3374074 23.5619753 12.1128395 19.3374074 9 22.4502469 16.3374074 30.01 31.2345679 15.1128395 28.1217284 12"></polygon>
                    </g>
                    <path d="M53.5,20.5 L571.000242,20.5" id="Line" stroke="#006435" stroke-width="6" stroke-linecap="square"></path>
                    <g id="Group" transform="translate(568.000000, 3.000000)" fill="#006435" stroke="#006435" stroke-width="6">
                        <circle id="Oval-2" cx="17.5" cy="17.5" r="17.5"></circle>
                    </g>
                    <circle id="Oval-2" stroke="#006435" stroke-width="6" fill="#006435" cx="217.5" cy="20.5" r="17.5"></circle>
                    <polygon id="Path" fill="#FFFFFF" points="213.337407 23.5619753 209.11284 19.3374074 206 22.4502469 213.337407 30.01 228.234568 15.1128395 225.121728 12"></polygon>
                    <circle id="Oval-2" stroke="#006435" stroke-width="6" fill="#006435" cx="401.5" cy="20.5" r="17.5"></circle>
                </g>
                <polygon id="Path" fill="#FFFFFF" points="397.337407 23.5619753 393.11284 19.3374074 390 22.4502469 397.337407 30.01 412.234568 15.1128395 409.121728 12"></polygon>
                <polygon id="Path" fill="#FFFFFF" points="581.337407 23.5619753 577.112839 19.3374074 574 22.4502469 581.337407 30.01 596.234568 15.1128395 593.121728 12"></polygon>
            </g>
        </g>
    </g>
</svg>