<?xml version="1.0" encoding="UTF-8"?>
<svg width="604px" height="69px" viewBox="0 0 604 69" version="1.1" xmlns="http://www.w3.org/2000/svg" xmlns:xlink="http://www.w3.org/1999/xlink">
    <!-- Generator: Sketch 52 (66869) - http://www.bohemiancoding.com/sketch -->
    <title>Group 2</title>
    <desc>Created with Sketch.</desc>
    <g id="Page-2" stroke="none" stroke-width="1" fill="none" fill-rule="evenodd">
        <g id="Hearing-hearing" transform="translate(-16.000000, -15.000000)">
            <g id="Group-2" transform="translate(14.000000, 15.000000)">
                <text id="Appeal" font-family="GDSTransportWebsite, GDS Transport Website" font-size="16" font-weight="300" line-spacing="22" fill="#0B0C0C">
                    <tspan x="1.71875" y="65">Appeal</tspan>
                </text>
                <text id="DWP-response" font-family="GDSTransportWebsite, GDS Transport Website" font-size="16" font-weight="300" line-spacing="22" fill="#0B0C0C">
                    <tspan x="159.484375" y="65">DWP response</tspan>
                </text>
                <text id="Hearing-booked" font-family="GDSTransportWebsite, GDS Transport Website" font-size="16" font-weight="300" line-spacing="22" fill="#0B0C0C">
                    <tspan x="339.085938" y="65">Hearing booked</tspan>
                </text>
                <text id="Hearing" font-family="GDSTransportWebsite-Bold, GDS Transport Website" font-size="16" font-weight="bold" line-spacing="22" fill="#0B0C0C">
                    <tspan x="549.984375" y="65">Hearing</tspan>
                </text>
                <path d="M46.5,20.5 L564.000242,20.5" id="Line" stroke="#006435" stroke-width="6" stroke-linecap="square"></path>
                <g id="Group" transform="translate(5.000000, 0.000000)">
                    <circle id="Oval-2" fill="#006435" cx="20.5" cy="20.5" r="20.5"></circle>
                    <polygon id="Path" fill="#FFFFFF" points="16.3374074 23.5619753 12.1128395 19.3374074 9 22.4502469 16.3374074 30.01 31.2345679 15.1128395 28.1217284 12"></polygon>
                    <circle id="Oval-2" fill="#006435" cx="205.5" cy="20.5" r="20.5"></circle>
                    <polygon id="Path" fill="#FFFFFF" points="201.337407 23.5619753 197.11284 19.3374074 194 22.4502469 201.337407 30.01 216.234568 15.1128395 213.121728 12"></polygon>
                    <circle id="Oval-2" fill="#006435" cx="389.5" cy="20.5" r="20.5"></circle>
                    <polygon id="Path" fill="#FFFFFF" points="385.337407 23.5619753 381.11284 19.3374074 378 22.4502469 385.337407 30.01 400.234568 15.1128395 397.121728 12"></polygon>
                    <circle id="Oval-2" fill="#006435" cx="573.5" cy="20.5" r="20.5"></circle>
                    <polygon id="Path" fill="#FFFFFF" points="569.337407 23.5619753 565.11284 19.3374074 562 22.4502469 569.337407 30.01 584.234568 15.1128395 581.121728 12"></polygon>
                </g>
            </g>
        </g>
    </g>
</svg>