<?xml version="1.0" encoding="UTF-8"?>
<svg width="605px" height="69px" viewBox="0 0 605 69" version="1.1" xmlns="http://www.w3.org/2000/svg" xmlns:xlink="http://www.w3.org/1999/xlink">
    <!-- Generator: Sketch 52 (66869) - http://www.bohemiancoding.com/sketch -->
    <title>Group 2</title>
    <desc>Created with Sketch.</desc>
    <g id="Page-2" stroke="none" stroke-width="1" fill="none" fill-rule="evenodd">
        <g id="Hearing-hearing" transform="translate(-16.000000, -15.000000)">
            <g id="Group-2" transform="translate(16.000000, 15.000000)">
                <path d="M6.8515625,63.3125 L2.453125,63.3125 L1.671875,66 L0.2109375,66 L3.6875,54.796875 L5.671875,54.796875 L9.171875,66 L7.65625,66 L6.8515625,63.3125 Z M2.7890625,62.140625 L6.515625,62.140625 L4.7109375,56.03125 L4.5859375,56.03125 L2.7890625,62.140625 Z M12.1875,58.015625 L12.1875,58.9296875 C12.4218762,58.6015609 12.7395813,58.3411468 13.140625,58.1484375 C13.5416687,57.9557282 14.0026016,57.859375 14.5234375,57.859375 C15.0390651,57.859375 15.5052063,57.9622386 15.921875,58.1679688 C16.3385437,58.3736989 16.695311,58.6614565 16.9921875,59.03125 C17.289064,59.4010435 17.5169263,59.8398412 17.6757812,60.3476562 C17.8346362,60.8554713 17.9140625,61.4114553 17.9140625,62.015625 C17.9140625,62.6197947 17.8346362,63.1744766 17.6757812,63.6796875 C17.5169263,64.1848984 17.289064,64.6210919 16.9921875,64.9882812 C16.695311,65.3554706 16.3385437,65.6419261 15.921875,65.8476562 C15.5052063,66.0533864 15.0390651,66.15625 14.5234375,66.15625 C14.0026016,66.15625 13.5416687,66.0598968 13.140625,65.8671875 C12.7395813,65.6744782 12.4218762,65.4140641 12.1875,65.0859375 L12.1875,68.4296875 L10.875,68.4296875 L10.875,58.015625 L12.1875,58.015625 Z M16.5546875,61.96875 C16.5546875,61.5520813 16.5052088,61.1640643 16.40625,60.8046875 C16.3072912,60.4453107 16.1614593,60.1341159 15.96875,59.8710938 C15.7760407,59.6080716 15.5377618,59.4010424 15.2539062,59.25 C14.9700507,59.0989576 14.6458352,59.0234375 14.28125,59.0234375 C13.9322899,59.0234375 13.6263034,59.0833327 13.3632812,59.203125 C13.1002591,59.3229173 12.8802092,59.4869781 12.703125,59.6953125 C12.5260408,59.9036469 12.3919275,60.1497382 12.3007812,60.4335938 C12.209635,60.7174493 12.1640625,61.02604 12.1640625,61.359375 L12.1640625,62.65625 C12.1640625,62.989585 12.209635,63.2981757 12.3007812,63.5820312 C12.3919275,63.8658868 12.5260408,64.1119781 12.703125,64.3203125 C12.8802092,64.5286469 13.1002591,64.6927077 13.3632812,64.8125 C13.6263034,64.9322923 13.9322899,64.9921875 14.28125,64.9921875 C14.6458352,64.9921875 14.9700507,64.9166674 15.2539062,64.765625 C15.5377618,64.6145826 15.7760407,64.4075534 15.96875,64.1445312 C16.1614593,63.8815091 16.3072912,63.5703143 16.40625,63.2109375 C16.5052088,62.8515607 16.5546875,62.4635437 16.5546875,62.046875 L16.5546875,61.96875 Z M21.1640625,58.015625 L21.1640625,58.9296875 C21.3984387,58.6015609 21.7161438,58.3411468 22.1171875,58.1484375 C22.5182312,57.9557282 22.9791641,57.859375 23.5,57.859375 C24.0156276,57.859375 24.4817688,57.9622386 24.8984375,58.1679688 C25.3151062,58.3736989 25.6718735,58.6614565 25.96875,59.03125 C26.2656265,59.4010435 26.4934888,59.8398412 26.6523438,60.3476562 C26.8111987,60.8554713 26.890625,61.4114553 26.890625,62.015625 C26.890625,62.6197947 26.8111987,63.1744766 26.6523438,63.6796875 C26.4934888,64.1848984 26.2656265,64.6210919 25.96875,64.9882812 C25.6718735,65.3554706 25.3151062,65.6419261 24.8984375,65.8476562 C24.4817688,66.0533864 24.0156276,66.15625 23.5,66.15625 C22.9791641,66.15625 22.5182312,66.0598968 22.1171875,65.8671875 C21.7161438,65.6744782 21.3984387,65.4140641 21.1640625,65.0859375 L21.1640625,68.4296875 L19.8515625,68.4296875 L19.8515625,58.015625 L21.1640625,58.015625 Z M25.53125,61.96875 C25.53125,61.5520813 25.4817713,61.1640643 25.3828125,60.8046875 C25.2838537,60.4453107 25.1380218,60.1341159 24.9453125,59.8710938 C24.7526032,59.6080716 24.5143243,59.4010424 24.2304688,59.25 C23.9466132,59.0989576 23.6223977,59.0234375 23.2578125,59.0234375 C22.9088524,59.0234375 22.6028659,59.0833327 22.3398438,59.203125 C22.0768216,59.3229173 21.8567717,59.4869781 21.6796875,59.6953125 C21.5026033,59.9036469 21.36849,60.1497382 21.2773438,60.4335938 C21.1861975,60.7174493 21.140625,61.02604 21.140625,61.359375 L21.140625,62.65625 C21.140625,62.989585 21.1861975,63.2981757 21.2773438,63.5820312 C21.36849,63.8658868 21.5026033,64.1119781 21.6796875,64.3203125 C21.8567717,64.5286469 22.0768216,64.6927077 22.3398438,64.8125 C22.6028659,64.9322923 22.9088524,64.9921875 23.2578125,64.9921875 C23.6223977,64.9921875 23.9466132,64.9166674 24.2304688,64.765625 C24.5143243,64.6145826 24.7526032,64.4075534 24.9453125,64.1445312 C25.1380218,63.8815091 25.2838537,63.5703143 25.3828125,63.2109375 C25.4817713,62.8515607 25.53125,62.4635437 25.53125,62.046875 L25.53125,61.96875 Z M29.71875,62.4140625 C29.7447918,62.7890644 29.8203119,63.1354151 29.9453125,63.453125 C30.0703131,63.7708349 30.2408843,64.0455718 30.4570312,64.2773438 C30.6731782,64.5091157 30.9283839,64.6888014 31.2226562,64.8164062 C31.5169286,64.9440111 31.8437482,65.0078125 32.203125,65.0078125 C32.6458355,65.0078125 33.0351546,64.9335945 33.3710938,64.7851562 C33.7070329,64.636718 34.0156236,64.450522 34.296875,64.2265625 L34.96875,65.171875 C34.6093732,65.4583348 34.1940128,65.6940095 33.7226562,65.8789062 C33.2512997,66.063803 32.7239613,66.15625 32.140625,66.15625 C31.5624971,66.15625 31.0390648,66.0533864 30.5703125,65.8476562 C30.1015602,65.6419261 29.7018246,65.3554706 29.3710938,64.9882812 C29.0403629,64.6210919 28.7864592,64.1835963 28.609375,63.6757812 C28.4322908,63.1679662 28.34375,62.6145863 28.34375,62.015625 C28.34375,61.406247 28.4309887,60.8476588 28.6054688,60.3398438 C28.7799488,59.8320287 29.0260401,59.3945331 29.34375,59.0273438 C29.6614599,58.6601544 30.0416645,58.3736989 30.484375,58.1679688 C30.9270855,57.9622386 31.4192681,57.859375 31.9609375,57.859375 C32.4869818,57.859375 32.9609354,57.9622386 33.3828125,58.1679688 C33.8046896,58.3736989 34.164061,58.6601544 34.4609375,59.0273438 C34.757814,59.3945331 34.9856763,59.8320287 35.1445312,60.3398438 C35.3033862,60.8476588 35.3828125,61.4010387 35.3828125,62 L35.3828125,62.4140625 L29.71875,62.4140625 Z M31.9140625,59.0078125 C31.5807275,59.0078125 31.2838555,59.072916 31.0234375,59.203125 C30.7630195,59.333334 30.5403655,59.5078114 30.3554688,59.7265625 C30.170572,59.9453136 30.0247401,60.1966132 29.9179688,60.4804688 C29.8111974,60.7643243 29.7500001,61.0572902 29.734375,61.359375 L33.9609375,61.359375 C33.9505208,61.0520818 33.8971359,60.7565118 33.8007812,60.4726562 C33.7044266,60.1888007 33.5690113,59.9388032 33.3945312,59.7226562 C33.2200512,59.5065093 33.0091158,59.333334 32.7617188,59.203125 C32.5143217,59.072916 32.2317724,59.0078125 31.9140625,59.0078125 Z M41.75,65.203125 C41.5156238,65.4739597 41.1992207,65.7005199 40.8007812,65.8828125 C40.4023418,66.0651051 39.9348985,66.15625 39.3984375,66.15625 C39.0026022,66.15625 38.6354184,66.100261 38.296875,65.9882812 C37.9583316,65.8763015 37.6640637,65.7161469 37.4140625,65.5078125 C37.1640612,65.2994781 36.9687507,65.0468765 36.828125,64.75 C36.6874993,64.4531235 36.6171875,64.1171894 36.6171875,63.7421875 C36.6171875,63.4296859 36.6679682,63.1445325 36.7695312,62.8867188 C36.8710943,62.628905 37.014322,62.4036468 37.1992188,62.2109375 C37.3841155,62.0182282 37.6067695,61.8606777 37.8671875,61.7382812 C38.1276055,61.6158848 38.4192692,61.5312502 38.7421875,61.484375 L41.5625,61.1015625 L41.5625,60.59375 C41.5625,60.2916652 41.5156255,60.0377614 41.421875,59.8320312 C41.3281245,59.6263011 41.2018237,59.4635423 41.0429688,59.34375 C40.8841138,59.2239577 40.6966157,59.1380211 40.4804688,59.0859375 C40.2643218,59.0338539 40.0312512,59.0078125 39.78125,59.0078125 C39.3333311,59.0078125 38.9153665,59.0703119 38.5273438,59.1953125 C38.139321,59.3203131 37.7890641,59.466145 37.4765625,59.6328125 L36.984375,58.59375 C37.4427106,58.333332 37.9231746,58.1458339 38.4257812,58.03125 C38.9283879,57.9166661 39.4244767,57.859375 39.9140625,57.859375 C40.8880257,57.859375 41.6249975,58.0794249 42.125,58.5195312 C42.6250025,58.9596376 42.875,59.6015583 42.875,60.4453125 L42.875,64.125 C42.875,64.3906263 42.9270828,64.6132804 43.03125,64.7929688 C43.1354172,64.9726571 43.3020822,65.1145828 43.53125,65.21875 L42.7890625,66.15625 C42.5390613,66.0937497 42.3242196,65.9830737 42.1445312,65.8242188 C41.9648429,65.6653638 41.838542,65.4739595 41.765625,65.25 L41.75,65.203125 Z M39.4140625,62.4453125 C39.1953114,62.4765627 38.9960946,62.520833 38.8164062,62.578125 C38.6367179,62.635417 38.4843756,62.7122391 38.359375,62.8085938 C38.2343744,62.9049484 38.1367191,63.0234368 38.0664062,63.1640625 C37.9960934,63.3046882 37.9609375,63.4765615 37.9609375,63.6796875 C37.9609375,63.9140637 38.0052079,64.1223949 38.09375,64.3046875 C38.1822921,64.4869801 38.3020826,64.6406244 38.453125,64.765625 C38.6041674,64.8906256 38.7799469,64.9856768 38.9804688,65.0507812 C39.1809906,65.1158857 39.3906239,65.1484375 39.609375,65.1484375 C39.8541679,65.1484375 40.0937488,65.1145837 40.328125,65.046875 C40.5625012,64.9791663 40.7708324,64.8815111 40.953125,64.7539062 C41.1354176,64.6263014 41.2825515,64.4713551 41.3945312,64.2890625 C41.506511,64.1067699 41.5625,63.8984387 41.5625,63.6640625 L41.5625,62.125 L39.4140625,62.4453125 Z M45.203125,54.796875 L46.515625,54.796875 L46.515625,64.2109375 C46.515625,64.3411465 46.5273436,64.4557287 46.5507812,64.5546875 C46.5742189,64.6536463 46.614583,64.7369788 46.671875,64.8046875 C46.729167,64.8723962 46.8085932,64.9231769 46.9101562,64.9570312 C47.0117193,64.9908856 47.1380201,65.0078125 47.2890625,65.0078125 C47.45573,65.0078125 47.6067702,65.0026042 47.7421875,64.9921875 C47.8776048,64.9817708 47.9973953,64.9713542 48.1015625,64.9609375 L48.234375,66.0625 L47.78125,66.109375 C47.651041,66.1197917 47.5078133,66.1302083 47.3515625,66.140625 C47.1953117,66.1510417 47.0468757,66.15625 46.90625,66.15625 C46.6718738,66.15625 46.4505219,66.1289065 46.2421875,66.0742188 C46.0338531,66.019531 45.8528654,65.9296881 45.6992188,65.8046875 C45.5455721,65.6796869 45.4244796,65.5182302 45.3359375,65.3203125 C45.2473954,65.1223948 45.203125,64.8802098 45.203125,64.59375 L45.203125,54.796875 Z" id="Appeal" fill="#0B0C0C"></path>
                <path d="M167.757812,60.3984375 C167.757812,61.2369834 167.653647,62.0012986 167.445312,62.6914062 C167.236978,63.3815139 166.919273,63.9713517 166.492188,64.4609375 C166.065102,64.9505233 165.529951,65.3294257 164.886719,65.5976562 C164.243486,65.8658868 163.486984,66 162.617188,66 L159.023438,66 L159.023438,54.796875 L162.617188,54.796875 C163.486984,54.796875 164.243486,54.9309882 164.886719,55.1992188 C165.529951,55.4674493 166.065102,55.8463517 166.492188,56.3359375 C166.919273,56.8255233 167.236978,57.4153611 167.445312,58.1054688 C167.653647,58.7955764 167.757812,59.5598916 167.757812,60.3984375 Z M166.28125,60.1796875 C166.28125,59.5963512 166.208334,59.0494817 166.0625,58.5390625 C165.916666,58.0286433 165.694012,57.5846373 165.394531,57.2070312 C165.095051,56.8294252 164.712242,56.5312511 164.246094,56.3125 C163.779946,56.0937489 163.226566,55.984375 162.585938,55.984375 L160.398438,55.984375 L160.398438,64.8125 L162.585938,64.8125 C163.226566,64.8125 163.779946,64.7044282 164.246094,64.4882812 C164.712242,64.2721343 165.095051,63.9752623 165.394531,63.5976562 C165.694012,63.2200502 165.916666,62.7760442 166.0625,62.265625 C166.208334,61.7552058 166.28125,61.2083363 166.28125,60.625 L166.28125,60.1796875 Z M178.8125,64.015625 L178.890625,64.015625 L180.796875,54.796875 L182.203125,54.796875 L179.710938,66 L178.078125,66 L175.695312,56.8515625 L173.320312,66 L171.679688,66 L169.195312,54.796875 L170.585938,54.796875 L172.523438,64.015625 L172.617188,64.015625 L175.054688,54.796875 L176.382812,54.796875 L178.8125,64.015625 Z M184.429688,54.796875 L188.359375,54.796875 C188.885419,54.796875 189.361977,54.8841137 189.789062,55.0585938 C190.216148,55.2330738 190.58203,55.4752589 190.886719,55.7851562 C191.191408,56.0950536 191.42578,56.4661437 191.589844,56.8984375 C191.753907,57.3307313 191.835938,57.8046849 191.835938,58.3203125 C191.835938,58.8411484 191.746095,59.3164041 191.566406,59.7460938 C191.386718,60.1757834 191.135418,60.5442693 190.8125,60.8515625 C190.489582,61.1588557 190.105471,61.3971346 189.660156,61.5664062 C189.214842,61.7356779 188.729169,61.8203125 188.203125,61.8203125 L185.804688,61.8203125 L185.804688,66 L184.429688,66 L184.429688,54.796875 Z M190.375,58.2890625 C190.375,57.9609359 190.322917,57.6562514 190.21875,57.375 C190.114583,57.0937486 189.963543,56.8502614 189.765625,56.6445312 C189.567707,56.4388011 189.326824,56.2773443 189.042969,56.1601562 C188.759113,56.0429682 188.437502,55.984375 188.078125,55.984375 L185.804688,55.984375 L185.804688,60.640625 L188.078125,60.640625 C188.437502,60.640625 188.759113,60.5833339 189.042969,60.46875 C189.326824,60.3541661 189.567707,60.1966156 189.765625,59.9960938 C189.963543,59.7955719 190.114583,59.555991 190.21875,59.2773438 C190.322917,58.9986965 190.375,58.6953141 190.375,58.3671875 L190.375,58.2890625 Z M200.460938,59.1875 L200.25,59.1875 C199.911457,59.1875 199.588543,59.2265621 199.28125,59.3046875 C198.973957,59.3828129 198.703126,59.5234365 198.46875,59.7265625 C198.234374,59.9296885 198.046876,60.2070295 197.90625,60.5585938 C197.765624,60.910158 197.695312,61.3593723 197.695312,61.90625 L197.695312,66 L196.382812,66 L196.382812,58.015625 L197.695312,58.015625 L197.695312,59.28125 C197.794271,59.0468738 197.927082,58.8411467 198.09375,58.6640625 C198.260418,58.4869783 198.449218,58.3398443 198.660156,58.2226562 C198.871095,58.1054682 199.097655,58.0182295 199.339844,57.9609375 C199.582032,57.9036455 199.828124,57.875 200.078125,57.875 L200.460938,57.875 L200.460938,59.1875 Z M202.695312,62.4140625 C202.721354,62.7890644 202.796874,63.1354151 202.921875,63.453125 C203.046876,63.7708349 203.217447,64.0455718 203.433594,64.2773438 C203.649741,64.5091157 203.904946,64.6888014 204.199219,64.8164062 C204.493491,64.9440111 204.820311,65.0078125 205.179688,65.0078125 C205.622398,65.0078125 206.011717,64.9335945 206.347656,64.7851562 C206.683595,64.636718 206.992186,64.450522 207.273438,64.2265625 L207.945312,65.171875 C207.585936,65.4583348 207.170575,65.6940095 206.699219,65.8789062 C206.227862,66.063803 205.700524,66.15625 205.117188,66.15625 C204.53906,66.15625 204.015627,66.0533864 203.546875,65.8476562 C203.078123,65.6419261 202.678387,65.3554706 202.347656,64.9882812 C202.016925,64.6210919 201.763022,64.1835963 201.585938,63.6757812 C201.408853,63.1679662 201.320312,62.6145863 201.320312,62.015625 C201.320312,61.406247 201.407551,60.8476588 201.582031,60.3398438 C201.756511,59.8320287 202.002603,59.3945331 202.320312,59.0273438 C202.638022,58.6601544 203.018227,58.3736989 203.460938,58.1679688 C203.903648,57.9622386 204.395831,57.859375 204.9375,57.859375 C205.463544,57.859375 205.937498,57.9622386 206.359375,58.1679688 C206.781252,58.3736989 207.140624,58.6601544 207.4375,59.0273438 C207.734376,59.3945331 207.962239,59.8320287 208.121094,60.3398438 C208.279949,60.8476588 208.359375,61.4010387 208.359375,62 L208.359375,62.4140625 L202.695312,62.4140625 Z M204.890625,59.0078125 C204.55729,59.0078125 204.260418,59.072916 204,59.203125 C203.739582,59.333334 203.516928,59.5078114 203.332031,59.7265625 C203.147134,59.9453136 203.001303,60.1966132 202.894531,60.4804688 C202.78776,60.7643243 202.726563,61.0572902 202.710938,61.359375 L206.9375,61.359375 C206.927083,61.0520818 206.873698,60.7565118 206.777344,60.4726562 C206.680989,60.1888007 206.545574,59.9388032 206.371094,59.7226562 C206.196614,59.5065093 205.985678,59.333334 205.738281,59.203125 C205.490884,59.072916 205.208335,59.0078125 204.890625,59.0078125 Z M215.53125,63.7890625 C215.53125,64.1640644 215.44922,64.4986964 215.285156,64.7929688 C215.121093,65.0872411 214.903647,65.3359365 214.632812,65.5390625 C214.361978,65.7421885 214.050783,65.8958328 213.699219,66 C213.347654,66.1041672 212.986981,66.15625 212.617188,66.15625 C212.033851,66.15625 211.472659,66.0559906 210.933594,65.8554688 C210.394529,65.6549469 209.916669,65.3671894 209.5,64.9921875 L210.21875,64.0625 C210.343751,64.1718755 210.48828,64.2864577 210.652344,64.40625 C210.816407,64.5260423 210.999999,64.6367182 211.203125,64.7382812 C211.406251,64.8398443 211.624999,64.9231768 211.859375,64.9882812 C212.093751,65.0533857 212.341145,65.0859375 212.601562,65.0859375 C212.815105,65.0859375 213.01953,65.058594 213.214844,65.0039062 C213.410157,64.9492185 213.580728,64.8684901 213.726562,64.7617188 C213.872397,64.6549474 213.988281,64.5273445 214.074219,64.3789062 C214.160157,64.230468 214.203125,64.0625009 214.203125,63.875 C214.203125,63.6666656 214.157553,63.4921882 214.066406,63.3515625 C213.97526,63.2109368 213.851563,63.0911463 213.695312,62.9921875 C213.539062,62.8932287 213.356772,62.807292 213.148438,62.734375 C212.940103,62.661458 212.721355,62.588542 212.492188,62.515625 L211.992188,62.3515625 C211.710936,62.257812 211.440105,62.1510423 211.179688,62.03125 C210.91927,61.9114577 210.688803,61.7643238 210.488281,61.5898438 C210.287759,61.4153637 210.128907,61.2083345 210.011719,60.96875 C209.894531,60.7291655 209.835938,60.44271 209.835938,60.109375 C209.835938,59.8385403 209.893229,59.5690118 210.007812,59.3007812 C210.122396,59.0325507 210.298176,58.7916677 210.535156,58.578125 C210.772137,58.3645823 211.072915,58.1914069 211.4375,58.0585938 C211.802085,57.9257806 212.231768,57.859375 212.726562,57.859375 C213.27344,57.859375 213.779946,57.9505199 214.246094,58.1328125 C214.712242,58.3151051 215.106769,58.5416653 215.429688,58.8125 L214.742188,59.7578125 C214.627604,59.648437 214.492188,59.5442713 214.335938,59.4453125 C214.179687,59.3463537 214.013022,59.259115 213.835938,59.1835938 C213.658853,59.1080725 213.473959,59.0468752 213.28125,59 C213.088541,58.9531248 212.898438,58.9296875 212.710938,58.9296875 C212.424478,58.9296875 212.182293,58.9622393 211.984375,59.0273438 C211.786457,59.0924482 211.627605,59.1770828 211.507812,59.28125 C211.38802,59.3854172 211.300782,59.5026035 211.246094,59.6328125 C211.191406,59.7630215 211.164062,59.8906244 211.164062,60.015625 C211.164062,60.1979176 211.203125,60.3502598 211.28125,60.4726562 C211.359375,60.5950527 211.462239,60.7005204 211.589844,60.7890625 C211.717449,60.8776046 211.86328,60.9531247 212.027344,61.015625 C212.191407,61.0781253 212.361978,61.1406247 212.539062,61.203125 L213.195312,61.421875 C213.507814,61.5260422 213.79427,61.6367182 214.054688,61.7539062 C214.315105,61.8710943 214.54427,62.0052076 214.742188,62.15625 C214.992189,62.3541677 215.186197,62.583332 215.324219,62.84375 C215.46224,63.104168 215.53125,63.419269 215.53125,63.7890625 Z M218.859375,58.015625 L218.859375,58.9296875 C219.093751,58.6015609 219.411456,58.3411468 219.8125,58.1484375 C220.213544,57.9557282 220.674477,57.859375 221.195312,57.859375 C221.71094,57.859375 222.177081,57.9622386 222.59375,58.1679688 C223.010419,58.3736989 223.367186,58.6614565 223.664062,59.03125 C223.960939,59.4010435 224.188801,59.8398412 224.347656,60.3476562 C224.506511,60.8554713 224.585938,61.4114553 224.585938,62.015625 C224.585938,62.6197947 224.506511,63.1744766 224.347656,63.6796875 C224.188801,64.1848984 223.960939,64.6210919 223.664062,64.9882812 C223.367186,65.3554706 223.010419,65.6419261 222.59375,65.8476562 C222.177081,66.0533864 221.71094,66.15625 221.195312,66.15625 C220.674477,66.15625 220.213544,66.0598968 219.8125,65.8671875 C219.411456,65.6744782 219.093751,65.4140641 218.859375,65.0859375 L218.859375,68.4296875 L217.546875,68.4296875 L217.546875,58.015625 L218.859375,58.015625 Z M223.226562,61.96875 C223.226562,61.5520813 223.177084,61.1640643 223.078125,60.8046875 C222.979166,60.4453107 222.833334,60.1341159 222.640625,59.8710938 C222.447916,59.6080716 222.209637,59.4010424 221.925781,59.25 C221.641926,59.0989576 221.31771,59.0234375 220.953125,59.0234375 C220.604165,59.0234375 220.298178,59.0833327 220.035156,59.203125 C219.772134,59.3229173 219.552084,59.4869781 219.375,59.6953125 C219.197916,59.9036469 219.063803,60.1497382 218.972656,60.4335938 C218.88151,60.7174493 218.835938,61.02604 218.835938,61.359375 L218.835938,62.65625 C218.835938,62.989585 218.88151,63.2981757 218.972656,63.5820312 C219.063803,63.8658868 219.197916,64.1119781 219.375,64.3203125 C219.552084,64.5286469 219.772134,64.6927077 220.035156,64.8125 C220.298178,64.9322923 220.604165,64.9921875 220.953125,64.9921875 C221.31771,64.9921875 221.641926,64.9166674 221.925781,64.765625 C222.209637,64.6145826 222.447916,64.4075534 222.640625,64.1445312 C222.833334,63.8815091 222.979166,63.5703143 223.078125,63.2109375 C223.177084,62.8515607 223.226562,62.4635437 223.226562,62.046875 L223.226562,61.96875 Z M229.71875,57.859375 C230.270836,57.859375 230.773435,57.9622386 231.226562,58.1679688 C231.67969,58.3736989 232.066405,58.6601544 232.386719,59.0273438 C232.707033,59.3945331 232.955728,59.8320287 233.132812,60.3398438 C233.309897,60.8476588 233.398438,61.406247 233.398438,62.015625 C233.398438,62.6145863 233.309897,63.1679662 233.132812,63.6757812 C232.955728,64.1835963 232.707033,64.6210919 232.386719,64.9882812 C232.066405,65.3554706 231.67969,65.6419261 231.226562,65.8476562 C230.773435,66.0533864 230.270836,66.15625 229.71875,66.15625 C229.166664,66.15625 228.665367,66.0533864 228.214844,65.8476562 C227.764321,65.6419261 227.377606,65.3554706 227.054688,64.9882812 C226.731769,64.6210919 226.481772,64.1835963 226.304688,63.6757812 C226.127603,63.1679662 226.039062,62.6145863 226.039062,62.015625 C226.039062,61.406247 226.127603,60.8476588 226.304688,60.3398438 C226.481772,59.8320287 226.731769,59.3945331 227.054688,59.0273438 C227.377606,58.6601544 227.764321,58.3736989 228.214844,58.1679688 C228.665367,57.9622386 229.166664,57.859375 229.71875,57.859375 Z M229.71875,65.0078125 C230.09896,65.0078125 230.433592,64.9283862 230.722656,64.7695312 C231.01172,64.6106763 231.253905,64.3958347 231.449219,64.125 C231.644532,63.8541653 231.791666,63.5403664 231.890625,63.1835938 C231.989584,62.8268211 232.039062,62.453127 232.039062,62.0625 L232.039062,61.96875 C232.039062,61.5677063 231.989584,61.1875018 231.890625,60.828125 C231.791666,60.4687482 231.644532,60.1549493 231.449219,59.8867188 C231.253905,59.6184882 231.01172,59.4049487 230.722656,59.2460938 C230.433592,59.0872388 230.09896,59.0078125 229.71875,59.0078125 C229.33854,59.0078125 229.003908,59.0872388 228.714844,59.2460938 C228.42578,59.4049487 228.183595,59.6184882 227.988281,59.8867188 C227.792968,60.1549493 227.645834,60.4687482 227.546875,60.828125 C227.447916,61.1875018 227.398438,61.5677063 227.398438,61.96875 L227.398438,62.0625 C227.398438,62.453127 227.447916,62.8268211 227.546875,63.1835938 C227.645834,63.5403664 227.792968,63.8541653 227.988281,64.125 C228.183595,64.3958347 228.42578,64.6106763 228.714844,64.7695312 C229.003908,64.9283862 229.33854,65.0078125 229.71875,65.0078125 Z M235.320312,58.015625 L236.632812,58.015625 L236.632812,58.9296875 C236.903647,58.559894 237.238279,58.2890634 237.636719,58.1171875 C238.035158,57.9453116 238.479164,57.859375 238.96875,57.859375 C239.411461,57.859375 239.799477,57.9322909 240.132812,58.078125 C240.466148,58.2239591 240.744791,58.4218738 240.96875,58.671875 C241.192709,58.9218762 241.360677,59.2109359 241.472656,59.5390625 C241.584636,59.8671891 241.640625,60.2135398 241.640625,60.578125 L241.640625,66 L240.328125,66 L240.328125,60.9921875 C240.328125,60.6432274 240.285157,60.3450533 240.199219,60.0976562 C240.113281,59.8502592 239.996094,59.6497404 239.847656,59.4960938 C239.699218,59.3424471 239.524741,59.2304691 239.324219,59.1601562 C239.123697,59.0898434 238.908855,59.0546875 238.679688,59.0546875 C238.429686,59.0546875 238.183595,59.10026 237.941406,59.1914062 C237.699218,59.2825525 237.48047,59.4192699 237.285156,59.6015625 C237.089843,59.7838551 236.932292,60.0130195 236.8125,60.2890625 C236.692708,60.5651055 236.632812,60.8906231 236.632812,61.265625 L236.632812,66 L235.320312,66 L235.320312,58.015625 Z M249.320312,63.7890625 C249.320312,64.1640644 249.238282,64.4986964 249.074219,64.7929688 C248.910155,65.0872411 248.69271,65.3359365 248.421875,65.5390625 C248.15104,65.7421885 247.839846,65.8958328 247.488281,66 C247.136717,66.1041672 246.776044,66.15625 246.40625,66.15625 C245.822914,66.15625 245.261721,66.0559906 244.722656,65.8554688 C244.183591,65.6549469 243.705731,65.3671894 243.289062,64.9921875 L244.007812,64.0625 C244.132813,64.1718755 244.277343,64.2864577 244.441406,64.40625 C244.60547,64.5260423 244.789061,64.6367182 244.992188,64.7382812 C245.195314,64.8398443 245.414061,64.9231768 245.648438,64.9882812 C245.882814,65.0533857 246.130207,65.0859375 246.390625,65.0859375 C246.604168,65.0859375 246.808593,65.058594 247.003906,65.0039062 C247.19922,64.9492185 247.369791,64.8684901 247.515625,64.7617188 C247.661459,64.6549474 247.777343,64.5273445 247.863281,64.3789062 C247.949219,64.230468 247.992188,64.0625009 247.992188,63.875 C247.992188,63.6666656 247.946615,63.4921882 247.855469,63.3515625 C247.764322,63.2109368 247.640626,63.0911463 247.484375,62.9921875 C247.328124,62.8932287 247.145834,62.807292 246.9375,62.734375 C246.729166,62.661458 246.510418,62.588542 246.28125,62.515625 L245.78125,62.3515625 C245.499999,62.257812 245.229168,62.1510423 244.96875,62.03125 C244.708332,61.9114577 244.477866,61.7643238 244.277344,61.5898438 C244.076822,61.4153637 243.917969,61.2083345 243.800781,60.96875 C243.683593,60.7291655 243.625,60.44271 243.625,60.109375 C243.625,59.8385403 243.682291,59.5690118 243.796875,59.3007812 C243.911459,59.0325507 244.087238,58.7916677 244.324219,58.578125 C244.561199,58.3645823 244.861977,58.1914069 245.226562,58.0585938 C245.591148,57.9257806 246.020831,57.859375 246.515625,57.859375 C247.062503,57.859375 247.569008,57.9505199 248.035156,58.1328125 C248.501304,58.3151051 248.895832,58.5416653 249.21875,58.8125 L248.53125,59.7578125 C248.416666,59.648437 248.281251,59.5442713 248.125,59.4453125 C247.968749,59.3463537 247.802084,59.259115 247.625,59.1835938 C247.447916,59.1080725 247.263022,59.0468752 247.070312,59 C246.877603,58.9531248 246.687501,58.9296875 246.5,58.9296875 C246.21354,58.9296875 245.971355,58.9622393 245.773438,59.0273438 C245.57552,59.0924482 245.416667,59.1770828 245.296875,59.28125 C245.177083,59.3854172 245.089844,59.5026035 245.035156,59.6328125 C244.980468,59.7630215 244.953125,59.8906244 244.953125,60.015625 C244.953125,60.1979176 244.992187,60.3502598 245.070312,60.4726562 C245.148438,60.5950527 245.251301,60.7005204 245.378906,60.7890625 C245.506511,60.8776046 245.652343,60.9531247 245.816406,61.015625 C245.98047,61.0781253 246.151041,61.1406247 246.328125,61.203125 L246.984375,61.421875 C247.296877,61.5260422 247.583332,61.6367182 247.84375,61.7539062 C248.104168,61.8710943 248.333332,62.0052076 248.53125,62.15625 C248.781251,62.3541677 248.97526,62.583332 249.113281,62.84375 C249.251303,63.104168 249.320312,63.419269 249.320312,63.7890625 Z M252.226562,62.4140625 C252.252604,62.7890644 252.328124,63.1354151 252.453125,63.453125 C252.578126,63.7708349 252.748697,64.0455718 252.964844,64.2773438 C253.180991,64.5091157 253.436196,64.6888014 253.730469,64.8164062 C254.024741,64.9440111 254.351561,65.0078125 254.710938,65.0078125 C255.153648,65.0078125 255.542967,64.9335945 255.878906,64.7851562 C256.214845,64.636718 256.523436,64.450522 256.804688,64.2265625 L257.476562,65.171875 C257.117186,65.4583348 256.701825,65.6940095 256.230469,65.8789062 C255.759112,66.063803 255.231774,66.15625 254.648438,66.15625 C254.07031,66.15625 253.546877,66.0533864 253.078125,65.8476562 C252.609373,65.6419261 252.209637,65.3554706 251.878906,64.9882812 C251.548175,64.6210919 251.294272,64.1835963 251.117188,63.6757812 C250.940103,63.1679662 250.851562,62.6145863 250.851562,62.015625 C250.851562,61.406247 250.938801,60.8476588 251.113281,60.3398438 C251.287761,59.8320287 251.533853,59.3945331 251.851562,59.0273438 C252.169272,58.6601544 252.549477,58.3736989 252.992188,58.1679688 C253.434898,57.9622386 253.927081,57.859375 254.46875,57.859375 C254.994794,57.859375 255.468748,57.9622386 255.890625,58.1679688 C256.312502,58.3736989 256.671874,58.6601544 256.96875,59.0273438 C257.265626,59.3945331 257.493489,59.8320287 257.652344,60.3398438 C257.811199,60.8476588 257.890625,61.4010387 257.890625,62 L257.890625,62.4140625 L252.226562,62.4140625 Z M254.421875,59.0078125 C254.08854,59.0078125 253.791668,59.072916 253.53125,59.203125 C253.270832,59.333334 253.048178,59.5078114 252.863281,59.7265625 C252.678384,59.9453136 252.532553,60.1966132 252.425781,60.4804688 C252.31901,60.7643243 252.257813,61.0572902 252.242188,61.359375 L256.46875,61.359375 C256.458333,61.0520818 256.404948,60.7565118 256.308594,60.4726562 C256.212239,60.1888007 256.076824,59.9388032 255.902344,59.7226562 C255.727864,59.5065093 255.516928,59.333334 255.269531,59.203125 C255.022134,59.072916 254.739585,59.0078125 254.421875,59.0078125 Z" id="DWP-response" fill="#0B0C0C"></path>
                <path d="M345.898438,60.8515625 L340,60.8515625 L340,66 L338.625,66 L338.625,54.796875 L340,54.796875 L340,59.6640625 L345.898438,59.6640625 L345.898438,54.796875 L347.28125,54.796875 L347.28125,66 L345.898438,66 L345.898438,60.8515625 Z M350.726562,62.4140625 C350.752604,62.7890644 350.828124,63.1354151 350.953125,63.453125 C351.078126,63.7708349 351.248697,64.0455718 351.464844,64.2773438 C351.680991,64.5091157 351.936196,64.6888014 352.230469,64.8164062 C352.524741,64.9440111 352.851561,65.0078125 353.210938,65.0078125 C353.653648,65.0078125 354.042967,64.9335945 354.378906,64.7851562 C354.714845,64.636718 355.023436,64.450522 355.304688,64.2265625 L355.976562,65.171875 C355.617186,65.4583348 355.201825,65.6940095 354.730469,65.8789062 C354.259112,66.063803 353.731774,66.15625 353.148438,66.15625 C352.57031,66.15625 352.046877,66.0533864 351.578125,65.8476562 C351.109373,65.6419261 350.709637,65.3554706 350.378906,64.9882812 C350.048175,64.6210919 349.794272,64.1835963 349.617188,63.6757812 C349.440103,63.1679662 349.351562,62.6145863 349.351562,62.015625 C349.351562,61.406247 349.438801,60.8476588 349.613281,60.3398438 C349.787761,59.8320287 350.033853,59.3945331 350.351562,59.0273438 C350.669272,58.6601544 351.049477,58.3736989 351.492188,58.1679688 C351.934898,57.9622386 352.427081,57.859375 352.96875,57.859375 C353.494794,57.859375 353.968748,57.9622386 354.390625,58.1679688 C354.812502,58.3736989 355.171874,58.6601544 355.46875,59.0273438 C355.765626,59.3945331 355.993489,59.8320287 356.152344,60.3398438 C356.311199,60.8476588 356.390625,61.4010387 356.390625,62 L356.390625,62.4140625 L350.726562,62.4140625 Z M352.921875,59.0078125 C352.58854,59.0078125 352.291668,59.072916 352.03125,59.203125 C351.770832,59.333334 351.548178,59.5078114 351.363281,59.7265625 C351.178384,59.9453136 351.032553,60.1966132 350.925781,60.4804688 C350.81901,60.7643243 350.757813,61.0572902 350.742188,61.359375 L354.96875,61.359375 C354.958333,61.0520818 354.904948,60.7565118 354.808594,60.4726562 C354.712239,60.1888007 354.576824,59.9388032 354.402344,59.7226562 C354.227864,59.5065093 354.016928,59.333334 353.769531,59.203125 C353.522134,59.072916 353.239585,59.0078125 352.921875,59.0078125 Z M362.757812,65.203125 C362.523436,65.4739597 362.207033,65.7005199 361.808594,65.8828125 C361.410154,66.0651051 360.942711,66.15625 360.40625,66.15625 C360.010415,66.15625 359.643231,66.100261 359.304688,65.9882812 C358.966144,65.8763015 358.671876,65.7161469 358.421875,65.5078125 C358.171874,65.2994781 357.976563,65.0468765 357.835938,64.75 C357.695312,64.4531235 357.625,64.1171894 357.625,63.7421875 C357.625,63.4296859 357.675781,63.1445325 357.777344,62.8867188 C357.878907,62.628905 358.022134,62.4036468 358.207031,62.2109375 C358.391928,62.0182282 358.614582,61.8606777 358.875,61.7382812 C359.135418,61.6158848 359.427082,61.5312502 359.75,61.484375 L362.570312,61.1015625 L362.570312,60.59375 C362.570312,60.2916652 362.523438,60.0377614 362.429688,59.8320312 C362.335937,59.6263011 362.209636,59.4635423 362.050781,59.34375 C361.891926,59.2239577 361.704428,59.1380211 361.488281,59.0859375 C361.272134,59.0338539 361.039064,59.0078125 360.789062,59.0078125 C360.341144,59.0078125 359.923179,59.0703119 359.535156,59.1953125 C359.147133,59.3203131 358.796877,59.466145 358.484375,59.6328125 L357.992188,58.59375 C358.450523,58.333332 358.930987,58.1458339 359.433594,58.03125 C359.9362,57.9166661 360.432289,57.859375 360.921875,57.859375 C361.895838,57.859375 362.63281,58.0794249 363.132812,58.5195312 C363.632815,58.9596376 363.882812,59.6015583 363.882812,60.4453125 L363.882812,64.125 C363.882812,64.3906263 363.934895,64.6132804 364.039062,64.7929688 C364.14323,64.9726571 364.309895,65.1145828 364.539062,65.21875 L363.796875,66.15625 C363.546874,66.0937497 363.332032,65.9830737 363.152344,65.8242188 C362.972655,65.6653638 362.846355,65.4739595 362.773438,65.25 L362.757812,65.203125 Z M360.421875,62.4453125 C360.203124,62.4765627 360.003907,62.520833 359.824219,62.578125 C359.64453,62.635417 359.492188,62.7122391 359.367188,62.8085938 C359.242187,62.9049484 359.144532,63.0234368 359.074219,63.1640625 C359.003906,63.3046882 358.96875,63.4765615 358.96875,63.6796875 C358.96875,63.9140637 359.01302,64.1223949 359.101562,64.3046875 C359.190105,64.4869801 359.309895,64.6406244 359.460938,64.765625 C359.61198,64.8906256 359.787759,64.9856768 359.988281,65.0507812 C360.188803,65.1158857 360.398436,65.1484375 360.617188,65.1484375 C360.86198,65.1484375 361.101561,65.1145837 361.335938,65.046875 C361.570314,64.9791663 361.778645,64.8815111 361.960938,64.7539062 C362.14323,64.6263014 362.290364,64.4713551 362.402344,64.2890625 C362.514323,64.1067699 362.570312,63.8984387 362.570312,63.6640625 L362.570312,62.125 L360.421875,62.4453125 Z M370.34375,59.1875 L370.132812,59.1875 C369.794269,59.1875 369.471356,59.2265621 369.164062,59.3046875 C368.856769,59.3828129 368.585939,59.5234365 368.351562,59.7265625 C368.117186,59.9296885 367.929688,60.2070295 367.789062,60.5585938 C367.648437,60.910158 367.578125,61.3593723 367.578125,61.90625 L367.578125,66 L366.265625,66 L366.265625,58.015625 L367.578125,58.015625 L367.578125,59.28125 C367.677084,59.0468738 367.809895,58.8411467 367.976562,58.6640625 C368.14323,58.4869783 368.33203,58.3398443 368.542969,58.2226562 C368.753907,58.1054682 368.980468,58.0182295 369.222656,57.9609375 C369.464845,57.9036455 369.710936,57.875 369.960938,57.875 L370.34375,57.875 L370.34375,59.1875 Z M373.195312,66 L371.882812,66 L371.882812,58.015625 L373.195312,58.015625 L373.195312,66 Z M371.640625,55.7109375 C371.640625,55.5859369 371.665364,55.4687505 371.714844,55.359375 C371.764323,55.2499995 371.829427,55.1536463 371.910156,55.0703125 C371.990886,54.9869787 372.087239,54.9205732 372.199219,54.8710938 C372.311198,54.8216143 372.429687,54.796875 372.554688,54.796875 C372.679688,54.796875 372.796874,54.8216143 372.90625,54.8710938 C373.015626,54.9205732 373.110677,54.9869787 373.191406,55.0703125 C373.272136,55.1536463 373.337239,55.2499995 373.386719,55.359375 C373.436198,55.4687505 373.460938,55.5859369 373.460938,55.7109375 C373.460938,55.8359381 373.436198,55.9544265 373.386719,56.0664062 C373.337239,56.178386 373.272136,56.2747392 373.191406,56.3554688 C373.110677,56.4361983 373.015626,56.5013018 372.90625,56.5507812 C372.796874,56.6002607 372.679688,56.625 372.554688,56.625 C372.429687,56.625 372.311198,56.6002607 372.199219,56.5507812 C372.087239,56.5013018 371.990886,56.4361983 371.910156,56.3554688 C371.829427,56.2747392 371.764323,56.178386 371.714844,56.0664062 C371.665364,55.9544265 371.640625,55.8359381 371.640625,55.7109375 Z M375.59375,58.015625 L376.90625,58.015625 L376.90625,58.9296875 C377.177085,58.559894 377.511717,58.2890634 377.910156,58.1171875 C378.308596,57.9453116 378.752602,57.859375 379.242188,57.859375 C379.684898,57.859375 380.072915,57.9322909 380.40625,58.078125 C380.739585,58.2239591 381.018228,58.4218738 381.242188,58.671875 C381.466147,58.9218762 381.634114,59.2109359 381.746094,59.5390625 C381.858073,59.8671891 381.914062,60.2135398 381.914062,60.578125 L381.914062,66 L380.601562,66 L380.601562,60.9921875 C380.601562,60.6432274 380.558594,60.3450533 380.472656,60.0976562 C380.386718,59.8502592 380.269532,59.6497404 380.121094,59.4960938 C379.972656,59.3424471 379.798178,59.2304691 379.597656,59.1601562 C379.397134,59.0898434 379.182293,59.0546875 378.953125,59.0546875 C378.703124,59.0546875 378.457032,59.10026 378.214844,59.1914062 C377.972655,59.2825525 377.753907,59.4192699 377.558594,59.6015625 C377.36328,59.7838551 377.20573,60.0130195 377.085938,60.2890625 C376.966145,60.5651055 376.90625,60.8906231 376.90625,61.265625 L376.90625,66 L375.59375,66 L375.59375,58.015625 Z M383.796875,61.5703125 C383.796875,61.0442682 383.872395,60.5546898 384.023438,60.1015625 C384.17448,59.6484352 384.390624,59.2565121 384.671875,58.9257812 C384.953126,58.5950504 385.292967,58.3346364 385.691406,58.1445312 C386.089846,57.9544261 386.536456,57.859375 387.03125,57.859375 C387.468752,57.859375 387.885415,57.9440096 388.28125,58.1132812 C388.677085,58.2825529 389.013019,58.5546856 389.289062,58.9296875 L389.289062,58.015625 L390.601562,58.015625 L390.601562,66 C390.601562,66.4947941 390.501303,66.9101546 390.300781,67.2460938 C390.100259,67.5820329 389.838543,67.8515615 389.515625,68.0546875 C389.192707,68.2578135 388.826825,68.4036454 388.417969,68.4921875 C388.009113,68.5807296 387.593752,68.625 387.171875,68.625 C386.937499,68.625 386.694012,68.6119793 386.441406,68.5859375 C386.188801,68.5598957 385.934897,68.5208336 385.679688,68.46875 C385.424478,68.4166664 385.173178,68.3502608 384.925781,68.2695312 C384.678384,68.1888017 384.442709,68.0937505 384.21875,67.984375 L384.695312,66.8828125 C384.851563,66.9557295 385.015624,67.0273434 385.1875,67.0976562 C385.359376,67.1679691 385.545572,67.2317705 385.746094,67.2890625 C385.946616,67.3463545 386.161457,67.393229 386.390625,67.4296875 C386.619793,67.466146 386.86979,67.484375 387.140625,67.484375 C387.47396,67.484375 387.774738,67.4505212 388.042969,67.3828125 C388.311199,67.3151038 388.536457,67.2096361 388.71875,67.0664062 C388.901043,66.9231764 389.041666,66.7408865 389.140625,66.5195312 C389.239584,66.298176 389.289062,66.0338557 389.289062,65.7265625 L389.289062,64.2109375 C389.013019,64.5859394 388.677085,64.8580721 388.28125,65.0273438 C387.885415,65.1966154 387.468752,65.28125 387.03125,65.28125 C386.536456,65.28125 386.089846,65.1861989 385.691406,64.9960938 C385.292967,64.8059886 384.953126,64.5442725 384.671875,64.2109375 C384.390624,63.8776025 384.17448,63.4856793 384.023438,63.0351562 C383.872395,62.5846332 383.796875,62.0963568 383.796875,61.5703125 Z M389.320312,61.5390625 C389.320312,61.1796857 389.28125,60.8476578 389.203125,60.5429688 C389.125,60.2382797 389.002605,59.9726574 388.835938,59.7460938 C388.66927,59.5195301 388.457033,59.3424486 388.199219,59.2148438 C387.941405,59.0872389 387.632814,59.0234375 387.273438,59.0234375 C386.908852,59.0234375 386.593751,59.088541 386.328125,59.21875 C386.062499,59.348959 385.842449,59.5273426 385.667969,59.7539062 C385.493489,59.9804699 385.364584,60.2473943 385.28125,60.5546875 C385.197916,60.8619807 385.15625,61.1901024 385.15625,61.5390625 L385.15625,61.6015625 C385.15625,61.9505226 385.197916,62.2773422 385.28125,62.5820312 C385.364584,62.8867203 385.493489,63.1523426 385.667969,63.3789062 C385.842449,63.6054699 386.062499,63.7838535 386.328125,63.9140625 C386.593751,64.0442715 386.908852,64.109375 387.273438,64.109375 C387.632814,64.109375 387.941405,64.0455736 388.199219,63.9179688 C388.457033,63.7903639 388.66927,63.6145845 388.835938,63.390625 C389.002605,63.1666655 389.125,62.9010432 389.203125,62.59375 C389.28125,62.2864568 389.320312,61.9557309 389.320312,61.6015625 L389.320312,61.5390625 Z M397.515625,66 L396.203125,66 L396.203125,54.796875 L397.515625,54.796875 L397.515625,58.9296875 C397.750001,58.6015609 398.067706,58.3411468 398.46875,58.1484375 C398.869794,57.9557282 399.330727,57.859375 399.851562,57.859375 C400.36719,57.859375 400.833331,57.9622386 401.25,58.1679688 C401.666669,58.3736989 402.023436,58.6614565 402.320312,59.03125 C402.617189,59.4010435 402.845051,59.8398412 403.003906,60.3476562 C403.162761,60.8554713 403.242188,61.4114553 403.242188,62.015625 C403.242188,62.6197947 403.162761,63.1744766 403.003906,63.6796875 C402.845051,64.1848984 402.617189,64.6210919 402.320312,64.9882812 C402.023436,65.3554706 401.666669,65.6419261 401.25,65.8476562 C400.833331,66.0533864 400.36719,66.15625 399.851562,66.15625 C399.330727,66.15625 398.869794,66.0598968 398.46875,65.8671875 C398.067706,65.6744782 397.750001,65.4140641 397.515625,65.0859375 L397.515625,66 Z M401.882812,61.96875 C401.882812,61.5520813 401.833334,61.1640643 401.734375,60.8046875 C401.635416,60.4453107 401.489584,60.1341159 401.296875,59.8710938 C401.104166,59.6080716 400.865887,59.4010424 400.582031,59.25 C400.298176,59.0989576 399.97396,59.0234375 399.609375,59.0234375 C399.260415,59.0234375 398.954428,59.0833327 398.691406,59.203125 C398.428384,59.3229173 398.208334,59.4869781 398.03125,59.6953125 C397.854166,59.9036469 397.720053,60.1497382 397.628906,60.4335938 C397.53776,60.7174493 397.492188,61.02604 397.492188,61.359375 L397.492188,62.65625 C397.492188,62.989585 397.53776,63.2981757 397.628906,63.5820312 C397.720053,63.8658868 397.854166,64.1119781 398.03125,64.3203125 C398.208334,64.5286469 398.428384,64.6927077 398.691406,64.8125 C398.954428,64.9322923 399.260415,64.9921875 399.609375,64.9921875 C399.97396,64.9921875 400.298176,64.9166674 400.582031,64.765625 C400.865887,64.6145826 401.104166,64.4075534 401.296875,64.1445312 C401.489584,63.8815091 401.635416,63.5703143 401.734375,63.2109375 C401.833334,62.8515607 401.882812,62.4635437 401.882812,62.046875 L401.882812,61.96875 Z M408.375,57.859375 C408.927086,57.859375 409.429685,57.9622386 409.882812,58.1679688 C410.33594,58.3736989 410.722655,58.6601544 411.042969,59.0273438 C411.363283,59.3945331 411.611978,59.8320287 411.789062,60.3398438 C411.966147,60.8476588 412.054688,61.406247 412.054688,62.015625 C412.054688,62.6145863 411.966147,63.1679662 411.789062,63.6757812 C411.611978,64.1835963 411.363283,64.6210919 411.042969,64.9882812 C410.722655,65.3554706 410.33594,65.6419261 409.882812,65.8476562 C409.429685,66.0533864 408.927086,66.15625 408.375,66.15625 C407.822914,66.15625 407.321617,66.0533864 406.871094,65.8476562 C406.420571,65.6419261 406.033856,65.3554706 405.710938,64.9882812 C405.388019,64.6210919 405.138022,64.1835963 404.960938,63.6757812 C404.783853,63.1679662 404.695312,62.6145863 404.695312,62.015625 C404.695312,61.406247 404.783853,60.8476588 404.960938,60.3398438 C405.138022,59.8320287 405.388019,59.3945331 405.710938,59.0273438 C406.033856,58.6601544 406.420571,58.3736989 406.871094,58.1679688 C407.321617,57.9622386 407.822914,57.859375 408.375,57.859375 Z M408.375,65.0078125 C408.75521,65.0078125 409.089842,64.9283862 409.378906,64.7695312 C409.66797,64.6106763 409.910155,64.3958347 410.105469,64.125 C410.300782,63.8541653 410.447916,63.5403664 410.546875,63.1835938 C410.645834,62.8268211 410.695312,62.453127 410.695312,62.0625 L410.695312,61.96875 C410.695312,61.5677063 410.645834,61.1875018 410.546875,60.828125 C410.447916,60.4687482 410.300782,60.1549493 410.105469,59.8867188 C409.910155,59.6184882 409.66797,59.4049487 409.378906,59.2460938 C409.089842,59.0872388 408.75521,59.0078125 408.375,59.0078125 C407.99479,59.0078125 407.660158,59.0872388 407.371094,59.2460938 C407.08203,59.4049487 406.839845,59.6184882 406.644531,59.8867188 C406.449218,60.1549493 406.302084,60.4687482 406.203125,60.828125 C406.104166,61.1875018 406.054688,61.5677063 406.054688,61.96875 L406.054688,62.0625 C406.054688,62.453127 406.104166,62.8268211 406.203125,63.1835938 C406.302084,63.5403664 406.449218,63.8541653 406.644531,64.125 C406.839845,64.3958347 407.08203,64.6106763 407.371094,64.7695312 C407.660158,64.9283862 407.99479,65.0078125 408.375,65.0078125 Z M417.171875,57.859375 C417.723961,57.859375 418.22656,57.9622386 418.679688,58.1679688 C419.132815,58.3736989 419.51953,58.6601544 419.839844,59.0273438 C420.160158,59.3945331 420.408853,59.8320287 420.585938,60.3398438 C420.763022,60.8476588 420.851562,61.406247 420.851562,62.015625 C420.851562,62.6145863 420.763022,63.1679662 420.585938,63.6757812 C420.408853,64.1835963 420.160158,64.6210919 419.839844,64.9882812 C419.51953,65.3554706 419.132815,65.6419261 418.679688,65.8476562 C418.22656,66.0533864 417.723961,66.15625 417.171875,66.15625 C416.619789,66.15625 416.118492,66.0533864 415.667969,65.8476562 C415.217446,65.6419261 414.830731,65.3554706 414.507812,64.9882812 C414.184894,64.6210919 413.934897,64.1835963 413.757812,63.6757812 C413.580728,63.1679662 413.492188,62.6145863 413.492188,62.015625 C413.492188,61.406247 413.580728,60.8476588 413.757812,60.3398438 C413.934897,59.8320287 414.184894,59.3945331 414.507812,59.0273438 C414.830731,58.6601544 415.217446,58.3736989 415.667969,58.1679688 C416.118492,57.9622386 416.619789,57.859375 417.171875,57.859375 Z M417.171875,65.0078125 C417.552085,65.0078125 417.886717,64.9283862 418.175781,64.7695312 C418.464845,64.6106763 418.70703,64.3958347 418.902344,64.125 C419.097657,63.8541653 419.244791,63.5403664 419.34375,63.1835938 C419.442709,62.8268211 419.492188,62.453127 419.492188,62.0625 L419.492188,61.96875 C419.492188,61.5677063 419.442709,61.1875018 419.34375,60.828125 C419.244791,60.4687482 419.097657,60.1549493 418.902344,59.8867188 C418.70703,59.6184882 418.464845,59.4049487 418.175781,59.2460938 C417.886717,59.0872388 417.552085,59.0078125 417.171875,59.0078125 C416.791665,59.0078125 416.457033,59.0872388 416.167969,59.2460938 C415.878905,59.4049487 415.63672,59.6184882 415.441406,59.8867188 C415.246093,60.1549493 415.098959,60.4687482 415,60.828125 C414.901041,61.1875018 414.851562,61.5677063 414.851562,61.96875 L414.851562,62.0625 C414.851562,62.453127 414.901041,62.8268211 415,63.1835938 C415.098959,63.5403664 415.246093,63.8541653 415.441406,64.125 C415.63672,64.3958347 415.878905,64.6106763 416.167969,64.7695312 C416.457033,64.9283862 416.791665,65.0078125 417.171875,65.0078125 Z M424.085938,61.9375 L427.84375,58.015625 L429.492188,58.015625 L426.453125,61.1875 L429.632812,66 L428.03125,66 L425.523438,62.0625 L424.085938,63.5390625 L424.085938,66 L422.773438,66 L422.773438,54.796875 L424.085938,54.796875 L424.085938,61.9375 Z M431.648438,62.4140625 C431.674479,62.7890644 431.749999,63.1354151 431.875,63.453125 C432.000001,63.7708349 432.170572,64.0455718 432.386719,64.2773438 C432.602866,64.5091157 432.858071,64.6888014 433.152344,64.8164062 C433.446616,64.9440111 433.773436,65.0078125 434.132812,65.0078125 C434.575523,65.0078125 434.964842,64.9335945 435.300781,64.7851562 C435.63672,64.636718 435.945311,64.450522 436.226562,64.2265625 L436.898438,65.171875 C436.539061,65.4583348 436.1237,65.6940095 435.652344,65.8789062 C435.180987,66.063803 434.653649,66.15625 434.070312,66.15625 C433.492185,66.15625 432.968752,66.0533864 432.5,65.8476562 C432.031248,65.6419261 431.631512,65.3554706 431.300781,64.9882812 C430.97005,64.6210919 430.716147,64.1835963 430.539062,63.6757812 C430.361978,63.1679662 430.273438,62.6145863 430.273438,62.015625 C430.273438,61.406247 430.360676,60.8476588 430.535156,60.3398438 C430.709636,59.8320287 430.955728,59.3945331 431.273438,59.0273438 C431.591147,58.6601544 431.971352,58.3736989 432.414062,58.1679688 C432.856773,57.9622386 433.348956,57.859375 433.890625,57.859375 C434.416669,57.859375 434.890623,57.9622386 435.3125,58.1679688 C435.734377,58.3736989 436.093749,58.6601544 436.390625,59.0273438 C436.687501,59.3945331 436.915364,59.8320287 437.074219,60.3398438 C437.233074,60.8476588 437.3125,61.4010387 437.3125,62 L437.3125,62.4140625 L431.648438,62.4140625 Z M433.84375,59.0078125 C433.510415,59.0078125 433.213543,59.072916 432.953125,59.203125 C432.692707,59.333334 432.470053,59.5078114 432.285156,59.7265625 C432.100259,59.9453136 431.954428,60.1966132 431.847656,60.4804688 C431.740885,60.7643243 431.679688,61.0572902 431.664062,61.359375 L435.890625,61.359375 C435.880208,61.0520818 435.826823,60.7565118 435.730469,60.4726562 C435.634114,60.1888007 435.498699,59.9388032 435.324219,59.7226562 C435.149739,59.5065093 434.938803,59.333334 434.691406,59.203125 C434.444009,59.072916 434.16146,59.0078125 433.84375,59.0078125 Z M444.398438,65.0859375 C444.164061,65.4140641 443.845054,65.6744782 443.441406,65.8671875 C443.037758,66.0598968 442.578128,66.15625 442.0625,66.15625 C441.546872,66.15625 441.080731,66.0533864 440.664062,65.8476562 C440.247394,65.6419261 439.890626,65.3554706 439.59375,64.9882812 C439.296874,64.6210919 439.069011,64.1848984 438.910156,63.6796875 C438.751301,63.1744766 438.671875,62.6197947 438.671875,62.015625 C438.671875,61.4114553 438.751301,60.8554713 438.910156,60.3476562 C439.069011,59.8398412 439.296874,59.4010435 439.59375,59.03125 C439.890626,58.6614565 440.247394,58.3736989 440.664062,58.1679688 C441.080731,57.9622386 441.546872,57.859375 442.0625,57.859375 C442.578128,57.859375 443.037758,57.9557282 443.441406,58.1484375 C443.845054,58.3411468 444.164061,58.6015609 444.398438,58.9296875 L444.398438,54.796875 L445.710938,54.796875 L445.710938,66 L444.398438,66 L444.398438,65.0859375 Z M440.03125,62.046875 C440.03125,62.4635437 440.080729,62.8515607 440.179688,63.2109375 C440.278646,63.5703143 440.424478,63.8815091 440.617188,64.1445312 C440.809897,64.4075534 441.046874,64.6145826 441.328125,64.765625 C441.609376,64.9166674 441.934894,64.9921875 442.304688,64.9921875 C442.653648,64.9921875 442.959634,64.9322923 443.222656,64.8125 C443.485678,64.6927077 443.705728,64.5286469 443.882812,64.3203125 C444.059897,64.1119781 444.192708,63.8658868 444.28125,63.5820312 C444.369792,63.2981757 444.414062,62.989585 444.414062,62.65625 L444.414062,61.359375 C444.414062,61.02604 444.369792,60.7174493 444.28125,60.4335938 C444.192708,60.1497382 444.059897,59.9036469 443.882812,59.6953125 C443.705728,59.4869781 443.485678,59.3229173 443.222656,59.203125 C442.959634,59.0833327 442.653648,59.0234375 442.304688,59.0234375 C441.934894,59.0234375 441.609376,59.0989576 441.328125,59.25 C441.046874,59.4010424 440.809897,59.6080716 440.617188,59.8710938 C440.424478,60.1341159 440.278646,60.4453107 440.179688,60.8046875 C440.080729,61.1640643 440.03125,61.5520813 440.03125,61.96875 L440.03125,62.046875 Z" id="Hearing-booked" fill="#0B0C0C"></path>
                <path d="M556.351562,61.28125 L551.421875,61.28125 L551.421875,66 L549.15625,66 L549.15625,54.796875 L551.421875,54.796875 L551.421875,59.234375 L556.351562,59.234375 L556.351562,54.796875 L558.625,54.796875 L558.625,66 L556.351562,66 L556.351562,61.28125 Z M562.523438,62.5625 C562.559896,62.8125012 562.639322,63.0416656 562.761719,63.25 C562.884115,63.4583344 563.039062,63.636718 563.226562,63.7851562 C563.414063,63.9335945 563.630207,64.0494787 563.875,64.1328125 C564.119793,64.2161462 564.380207,64.2578125 564.65625,64.2578125 C564.97396,64.2578125 565.317706,64.1966152 565.6875,64.0742188 C566.057294,63.9518223 566.395832,63.7734387 566.703125,63.5390625 L567.742188,65.0546875 C567.351561,65.3828141 566.872399,65.6484365 566.304688,65.8515625 C565.736976,66.0546885 565.132816,66.15625 564.492188,66.15625 C563.91406,66.15625 563.369794,66.0572927 562.859375,65.859375 C562.348956,65.6614573 561.902346,65.3750019 561.519531,65 C561.136717,64.6249981 560.834637,64.1692735 560.613281,63.6328125 C560.391926,63.0963515 560.28125,62.4921909 560.28125,61.8203125 C560.28125,61.2057261 560.378905,60.6328152 560.574219,60.1015625 C560.769532,59.5703098 561.042967,59.109377 561.394531,58.71875 C561.746096,58.328123 562.166664,58.0221365 562.65625,57.8007812 C563.145836,57.579426 563.687497,57.46875 564.28125,57.46875 C564.833336,57.46875 565.346352,57.5690094 565.820312,57.7695312 C566.294273,57.9700531 566.705727,58.2513003 567.054688,58.6132812 C567.403648,58.9752622 567.677082,59.4088516 567.875,59.9140625 C568.072918,60.4192734 568.171875,60.9765595 568.171875,61.5859375 L568.171875,62.5625 L562.523438,62.5625 Z M564.273438,59.34375 C563.809894,59.34375 563.41797,59.4986964 563.097656,59.8085938 C562.777342,60.1184911 562.591146,60.4921853 562.539062,60.9296875 L565.914062,60.9296875 C565.903646,60.486977 565.742189,60.1119807 565.429688,59.8046875 C565.117186,59.4973943 564.731773,59.34375 564.273438,59.34375 Z M572.25,62.6015625 C571.984374,62.6432294 571.770834,62.7356764 571.609375,62.8789062 C571.447916,63.0221361 571.367188,63.2161446 571.367188,63.4609375 C571.367188,63.7317722 571.466145,63.9648428 571.664062,64.1601562 C571.86198,64.3554697 572.153644,64.453125 572.539062,64.453125 C572.945315,64.453125 573.265624,64.3359387 573.5,64.1015625 C573.734376,63.8671863 573.851562,63.5572936 573.851562,63.171875 L573.851562,62.328125 L572.25,62.6015625 Z M574.203125,65.2109375 C574.114583,65.3098963 574.006511,65.415364 573.878906,65.5273438 C573.751301,65.6393235 573.600261,65.740885 573.425781,65.8320312 C573.251301,65.9231775 573.046876,65.9999997 572.8125,66.0625 C572.578124,66.1250003 572.315106,66.15625 572.023438,66.15625 C571.606769,66.15625 571.222658,66.0898444 570.871094,65.9570312 C570.519529,65.8242181 570.210939,65.638022 569.945312,65.3984375 C569.679686,65.158853 569.471355,64.881512 569.320312,64.5664062 C569.16927,64.2513005 569.09375,63.908856 569.09375,63.5390625 C569.09375,62.8671841 569.302081,62.3177105 569.71875,61.890625 C570.135419,61.4635395 570.710934,61.195313 571.445312,61.0859375 L573.851562,60.734375 L573.851562,60.578125 C573.851562,60.2031231 573.73698,59.9062511 573.507812,59.6875 C573.278645,59.4687489 572.906253,59.359375 572.390625,59.359375 C572.177082,59.359375 571.960939,59.3841143 571.742188,59.4335938 C571.523436,59.4830732 571.313803,59.5390622 571.113281,59.6015625 C570.912759,59.6640628 570.726563,59.7356767 570.554688,59.8164062 C570.382812,59.8971358 570.231771,59.9687497 570.101562,60.03125 L569.257812,58.3828125 C569.736982,58.1171862 570.269528,57.8984384 570.855469,57.7265625 C571.441409,57.5546866 572.049476,57.46875 572.679688,57.46875 C573.065106,57.46875 573.454425,57.5091142 573.847656,57.5898438 C574.240887,57.6705733 574.597655,57.8177073 574.917969,58.03125 C575.238283,58.2447927 575.499999,58.5351544 575.703125,58.9023438 C575.906251,59.2695331 576.007812,59.7369763 576.007812,60.3046875 L576.007812,63.7421875 C576.007812,63.9869804 576.071614,64.1679682 576.199219,64.2851562 C576.326824,64.4023443 576.502603,64.5104162 576.726562,64.609375 L575.75,66.15625 C575.354165,66.1145831 575.03646,66.0117196 574.796875,65.8476562 C574.55729,65.6835929 574.359376,65.4713555 574.203125,65.2109375 Z M582.507812,59.7265625 L582.28125,59.7265625 C581.973957,59.7265625 581.680991,59.7578122 581.402344,59.8203125 C581.123697,59.8828128 580.877605,59.9960929 580.664062,60.1601562 C580.45052,60.3242196 580.279949,60.5494777 580.152344,60.8359375 C580.024739,61.1223973 579.960938,61.4895811 579.960938,61.9375 L579.960938,66 L577.804688,66 L577.804688,57.6328125 L579.960938,57.6328125 L579.960938,58.578125 C580.04948,58.4374993 580.164062,58.302084 580.304688,58.171875 C580.445313,58.041666 580.609374,57.9257818 580.796875,57.8242188 C580.984376,57.7226557 581.195311,57.6406253 581.429688,57.578125 C581.664064,57.5156247 581.916665,57.484375 582.1875,57.484375 L582.507812,57.484375 L582.507812,59.7265625 Z M586.007812,66 L583.851562,66 L583.851562,57.6328125 L586.007812,57.6328125 L586.007812,66 Z M583.625,55.4375 C583.625,55.2604158 583.658854,55.0924487 583.726562,54.9335938 C583.794271,54.7747388 583.886718,54.6367193 584.003906,54.5195312 C584.121094,54.4023432 584.257812,54.3098962 584.414062,54.2421875 C584.570313,54.1744788 584.739582,54.140625 584.921875,54.140625 C585.098959,54.140625 585.266926,54.1744788 585.425781,54.2421875 C585.584636,54.3098962 585.722656,54.4023432 585.839844,54.5195312 C585.957032,54.6367193 586.049479,54.7747388 586.117188,54.9335938 C586.184896,55.0924487 586.21875,55.2604158 586.21875,55.4375 C586.21875,55.6197926 586.184896,55.7890617 586.117188,55.9453125 C586.049479,56.1015633 585.957032,56.2382807 585.839844,56.3554688 C585.722656,56.4726568 585.584636,56.5651038 585.425781,56.6328125 C585.266926,56.7005212 585.098959,56.734375 584.921875,56.734375 C584.739582,56.734375 584.570313,56.7005212 584.414062,56.6328125 C584.257812,56.5651038 584.121094,56.4726568 584.003906,56.3554688 C583.886718,56.2382807 583.794271,56.1015633 583.726562,55.9453125 C583.658854,55.7890617 583.625,55.6197926 583.625,55.4375 Z M587.867188,57.6328125 L590.023438,57.6328125 L590.023438,58.3515625 C590.138021,58.2369786 590.266926,58.1263026 590.410156,58.0195312 C590.553386,57.9127599 590.710937,57.8190108 590.882812,57.7382812 C591.054688,57.6575517 591.246093,57.5924482 591.457031,57.5429688 C591.66797,57.4934893 591.90104,57.46875 592.15625,57.46875 C592.609377,57.46875 593.015623,57.542968 593.375,57.6914062 C593.734377,57.8398445 594.037759,58.0442695 594.285156,58.3046875 C594.532553,58.5651055 594.721354,58.8697899 594.851562,59.21875 C594.981771,59.5677101 595.046875,59.9453105 595.046875,60.3515625 L595.046875,66 L592.890625,66 L592.890625,61.1328125 C592.890625,60.835936 592.856771,60.5846364 592.789062,60.3789062 C592.721354,60.1731761 592.628907,60.0065111 592.511719,59.8789062 C592.394531,59.7513014 592.256511,59.6575524 592.097656,59.5976562 C591.938801,59.5377601 591.765626,59.5078125 591.578125,59.5078125 C591.359374,59.5078125 591.154949,59.5468746 590.964844,59.625 C590.774739,59.7031254 590.609376,59.8216138 590.46875,59.9804688 C590.328124,60.1393237 590.21875,60.3385405 590.140625,60.578125 C590.0625,60.8177095 590.023438,61.0989567 590.023438,61.421875 L590.023438,66 L587.867188,66 L587.867188,57.6328125 Z M601.929688,64.515625 C601.736978,64.7500012 601.46745,64.9361972 601.121094,65.0742188 C600.774738,65.2122403 600.39844,65.28125 599.992188,65.28125 C599.429685,65.28125 598.92969,65.1822927 598.492188,64.984375 C598.054685,64.7864573 597.686199,64.5143246 597.386719,64.1679688 C597.087238,63.8216129 596.858074,63.4114607 596.699219,62.9375 C596.540364,62.4635393 596.460938,61.9427112 596.460938,61.375 C596.460938,60.8229139 596.540364,60.305992 596.699219,59.8242188 C596.858074,59.3424455 597.087238,58.9283871 597.386719,58.5820312 C597.686199,58.2356754 598.054685,57.9635427 598.492188,57.765625 C598.92969,57.5677073 599.429685,57.46875 599.992188,57.46875 C600.39844,57.46875 600.774738,57.5390618 601.121094,57.6796875 C601.46745,57.8203132 601.736978,58.0078113 601.929688,58.2421875 L601.929688,57.6328125 L604.09375,57.6328125 L604.09375,65.921875 C604.09375,66.4322942 603.997397,66.8710919 603.804688,67.2382812 C603.611978,67.6054706 603.347658,67.9062488 603.011719,68.140625 C602.67578,68.3750012 602.286461,68.5455724 601.84375,68.6523438 C601.401039,68.7591151 600.92969,68.8125 600.429688,68.8125 C599.820309,68.8125 599.184899,68.7408861 598.523438,68.5976562 C597.861976,68.4544264 597.291669,68.2760427 596.8125,68.0625 L597.421875,66.3203125 C597.567709,66.3828128 597.747395,66.4518225 597.960938,66.5273438 C598.17448,66.602865 598.403645,66.6692705 598.648438,66.7265625 C598.89323,66.7838545 599.149738,66.8320311 599.417969,66.8710938 C599.686199,66.9101564 599.947915,66.9296875 600.203125,66.9296875 C600.427084,66.9296875 600.643228,66.9075523 600.851562,66.8632812 C601.059897,66.8190102 601.243489,66.7460943 601.402344,66.6445312 C601.561199,66.5429682 601.688802,66.4101571 601.785156,66.2460938 C601.881511,66.0820304 601.929688,65.8723971 601.929688,65.6171875 L601.929688,64.515625 Z M598.679688,61.40625 C598.679688,61.682293 598.709635,61.941405 598.769531,62.1835938 C598.829427,62.4257825 598.925781,62.6315096 599.058594,62.8007812 C599.191407,62.9700529 599.361978,63.1028641 599.570312,63.1992188 C599.778647,63.2955734 600.031249,63.34375 600.328125,63.34375 C600.91667,63.34375 601.335936,63.1575539 601.585938,62.7851562 C601.835939,62.4127586 601.960938,61.9531277 601.960938,61.40625 L601.960938,61.34375 C601.960938,61.067707 601.932292,60.809897 601.875,60.5703125 C601.817708,60.330728 601.723959,60.1250009 601.59375,59.953125 C601.463541,59.7812491 601.295574,59.6471359 601.089844,59.5507812 C600.884114,59.4544266 600.63021,59.40625 600.328125,59.40625 C599.744789,59.40625 599.32422,59.591144 599.066406,59.9609375 C598.808592,60.330731 598.679688,60.7916639 598.679688,61.34375 L598.679688,61.40625 Z" id="Hearing" fill="#0B0C0C"></path>
                <path d="M44.5,20.5 L562.000242,20.5" id="Line" stroke="#006435" stroke-width="6" stroke-linecap="square"></path>
                <g id="Group" transform="translate(3.000000, 0.000000)">
                    <circle id="Oval-2" fill="#006435" cx="20.5" cy="20.5" r="20.5"></circle>
                    <polygon id="Path" fill="#FFFFFF" points="16.3374074 23.5619753 12.1128395 19.3374074 9 22.4502469 16.3374074 30.01 31.2345679 15.1128395 28.1217284 12"></polygon>
                    <circle id="Oval-2" fill="#006435" cx="205.5" cy="20.5" r="20.5"></circle>
                    <polygon id="Path" fill="#FFFFFF" points="201.337407 23.5619753 197.11284 19.3374074 194 22.4502469 201.337407 30.01 216.234568 15.1128395 213.121728 12"></polygon>
                    <circle id="Oval-2" fill="#006435" cx="389.5" cy="20.5" r="20.5"></circle>
                    <polygon id="Path" fill="#FFFFFF" points="385.337407 23.5619753 381.11284 19.3374074 378 22.4502469 385.337407 30.01 400.234568 15.1128395 397.121728 12"></polygon>
                    <circle id="Oval-2" fill="#006435" cx="573.5" cy="20.5" r="20.5"></circle>
                    <polygon id="Path" fill="#FFFFFF" points="569.337407 23.5619753 565.11284 19.3374074 562 22.4502469 569.337407 30.01 584.234568 15.1128395 581.121728 12"></polygon>
                </g>
            </g>
        </g>
    </g>
</svg>