<?xml version="1.0" encoding="UTF-8"?>
<svg width="605px" height="69px" viewBox="0 0 605 69" version="1.1" xmlns="http://www.w3.org/2000/svg" xmlns:xlink="http://www.w3.org/1999/xlink">
    <!-- Generator: Sketch 52 (66869) - http://www.bohemiancoding.com/sketch -->
    <title>Group 3</title>
    <desc>Created with Sketch.</desc>
    <g id="Page-2" stroke="none" stroke-width="1" fill="none" fill-rule="evenodd">
        <g id="Appeal-received" transform="translate(-14.000000, -15.000000)">
            <g id="Group-3" transform="translate(14.000000, 15.000000)">
                <path d="M7.73828125,63.921875 L3.58984375,63.921875 L2.95703125,66 L0.55078125,66 L4.21484375,54.796875 L7.19140625,54.796875 L10.9101562,66 L8.37890625,66 L7.73828125,63.921875 Z M4.19921875,61.921875 L7.12890625,61.921875 L5.67578125,57.1875 L5.64453125,57.1875 L4.19921875,61.921875 Z M14.1367188,68.640625 L11.9804688,68.640625 L11.9804688,57.6328125 L14.1367188,57.6328125 L14.1367188,58.3515625 C14.3710949,58.1067696 14.6601545,57.8984384 15.0039062,57.7265625 C15.347658,57.5546866 15.7643205,57.46875 16.2539062,57.46875 C16.8059923,57.46875 17.3072894,57.579426 17.7578125,57.8007812 C18.2083356,58.0221365 18.5950505,58.326821 18.9179688,58.7148438 C19.240887,59.1028665 19.4908845,59.5624973 19.6679688,60.09375 C19.845053,60.6250027 19.9335938,61.2005177 19.9335938,61.8203125 C19.9335938,62.4401073 19.8424488,63.0156223 19.6601562,63.546875 C19.4778637,64.0781277 19.2226579,64.5364564 18.8945312,64.921875 C18.5664046,65.3072936 18.1731794,65.6093739 17.7148438,65.828125 C17.2565081,66.0468761 16.7513048,66.15625 16.1992188,66.15625 C15.9544259,66.15625 15.7317718,66.1341148 15.53125,66.0898438 C15.3307282,66.0455727 15.1471362,65.9843754 14.9804688,65.90625 C14.8138013,65.8281246 14.660157,65.7356776 14.5195312,65.6289062 C14.3789055,65.5221349 14.2513027,65.4062506 14.1367188,65.28125 L14.1367188,68.640625 Z M14.0742188,62.59375 C14.0742188,62.8177095 14.1145829,63.0247386 14.1953125,63.2148438 C14.2760421,63.4049489 14.3919263,63.5703118 14.5429688,63.7109375 C14.6940112,63.8515632 14.8749989,63.9609371 15.0859375,64.0390625 C15.2968761,64.1171879 15.5351549,64.15625 15.8007812,64.15625 C16.1080745,64.15625 16.3802071,64.100261 16.6171875,63.9882812 C16.8541679,63.8763015 17.0533846,63.718751 17.2148438,63.515625 C17.3763029,63.312499 17.4986975,63.071616 17.5820312,62.7929688 C17.665365,62.5143215 17.7070312,62.208335 17.7070312,61.875 L17.7070312,61.7734375 C17.7070312,61.4401025 17.665365,61.1328139 17.5820312,60.8515625 C17.4986975,60.5703111 17.3763029,60.3268239 17.2148438,60.1210938 C17.0533846,59.9153636 16.8541679,59.7552089 16.6171875,59.640625 C16.3802071,59.5260411 16.1080745,59.46875 15.8007812,59.46875 C15.5351549,59.46875 15.2968761,59.5078121 15.0859375,59.5859375 C14.8749989,59.6640629 14.6940112,59.7734368 14.5429688,59.9140625 C14.3919263,60.0546882 14.2760421,60.2213532 14.1953125,60.4140625 C14.1145829,60.6067718 14.0742188,60.815103 14.0742188,61.0390625 L14.0742188,62.59375 Z M23.5273438,68.640625 L21.3710938,68.640625 L21.3710938,57.6328125 L23.5273438,57.6328125 L23.5273438,58.3515625 C23.7617199,58.1067696 24.0507795,57.8984384 24.3945312,57.7265625 C24.738283,57.5546866 25.1549455,57.46875 25.6445312,57.46875 C26.1966173,57.46875 26.6979144,57.579426 27.1484375,57.8007812 C27.5989606,58.0221365 27.9856755,58.326821 28.3085938,58.7148438 C28.631512,59.1028665 28.8815095,59.5624973 29.0585938,60.09375 C29.235678,60.6250027 29.3242188,61.2005177 29.3242188,61.8203125 C29.3242188,62.4401073 29.2330738,63.0156223 29.0507812,63.546875 C28.8684887,64.0781277 28.6132829,64.5364564 28.2851562,64.921875 C27.9570296,65.3072936 27.5638044,65.6093739 27.1054688,65.828125 C26.6471331,66.0468761 26.1419298,66.15625 25.5898438,66.15625 C25.3450509,66.15625 25.1223968,66.1341148 24.921875,66.0898438 C24.7213532,66.0455727 24.5377612,65.9843754 24.3710938,65.90625 C24.2044263,65.8281246 24.050782,65.7356776 23.9101562,65.6289062 C23.7695305,65.5221349 23.6419277,65.4062506 23.5273438,65.28125 L23.5273438,68.640625 Z M23.4648438,62.59375 C23.4648438,62.8177095 23.5052079,63.0247386 23.5859375,63.2148438 C23.6666671,63.4049489 23.7825513,63.5703118 23.9335938,63.7109375 C24.0846362,63.8515632 24.2656239,63.9609371 24.4765625,64.0390625 C24.6875011,64.1171879 24.9257799,64.15625 25.1914062,64.15625 C25.4986995,64.15625 25.7708321,64.100261 26.0078125,63.9882812 C26.2447929,63.8763015 26.4440096,63.718751 26.6054688,63.515625 C26.7669279,63.312499 26.8893225,63.071616 26.9726562,62.7929688 C27.05599,62.5143215 27.0976562,62.208335 27.0976562,61.875 L27.0976562,61.7734375 C27.0976562,61.4401025 27.05599,61.1328139 26.9726562,60.8515625 C26.8893225,60.5703111 26.7669279,60.3268239 26.6054688,60.1210938 C26.4440096,59.9153636 26.2447929,59.7552089 26.0078125,59.640625 C25.7708321,59.5260411 25.4986995,59.46875 25.1914062,59.46875 C24.9257799,59.46875 24.6875011,59.5078121 24.4765625,59.5859375 C24.2656239,59.6640629 24.0846362,59.7734368 23.9335938,59.9140625 C23.7825513,60.0546882 23.6666671,60.2213532 23.5859375,60.4140625 C23.5052079,60.6067718 23.4648438,60.815103 23.4648438,61.0390625 L23.4648438,62.59375 Z M32.5664062,62.5625 C32.6028648,62.8125012 32.6822911,63.0416656 32.8046875,63.25 C32.9270839,63.4583344 33.0820303,63.636718 33.2695312,63.7851562 C33.4570322,63.9335945 33.6731759,64.0494787 33.9179688,64.1328125 C34.1627616,64.2161462 34.4231757,64.2578125 34.6992188,64.2578125 C35.0169287,64.2578125 35.3606752,64.1966152 35.7304688,64.0742188 C36.1002623,63.9518223 36.4388005,63.7734387 36.7460938,63.5390625 L37.7851562,65.0546875 C37.3945293,65.3828141 36.9153674,65.6484365 36.3476562,65.8515625 C35.7799451,66.0546885 35.1757845,66.15625 34.5351562,66.15625 C33.9570284,66.15625 33.412763,66.0572927 32.9023438,65.859375 C32.3919245,65.6614573 31.9453144,65.3750019 31.5625,65 C31.1796856,64.6249981 30.8776053,64.1692735 30.65625,63.6328125 C30.4348947,63.0963515 30.3242188,62.4921909 30.3242188,61.8203125 C30.3242188,61.2057261 30.421874,60.6328152 30.6171875,60.1015625 C30.812501,59.5703098 31.0859357,59.109377 31.4375,58.71875 C31.7890643,58.328123 32.209633,58.0221365 32.6992188,57.8007812 C33.1888045,57.579426 33.7304658,57.46875 34.3242188,57.46875 C34.8763048,57.46875 35.3893205,57.5690094 35.8632812,57.7695312 C36.337242,57.9700531 36.7486962,58.2513003 37.0976562,58.6132812 C37.4466163,58.9752622 37.7200511,59.4088516 37.9179688,59.9140625 C38.1158864,60.4192734 38.2148438,60.9765595 38.2148438,61.5859375 L38.2148438,62.5625 L32.5664062,62.5625 Z M34.3164062,59.34375 C33.8528623,59.34375 33.4609391,59.4986964 33.140625,59.8085938 C32.8203109,60.1184911 32.6341148,60.4921853 32.5820312,60.9296875 L35.9570312,60.9296875 C35.9466145,60.486977 35.7851578,60.1119807 35.4726562,59.8046875 C35.1601547,59.4973943 34.7747419,59.34375 34.3164062,59.34375 Z M42.2929688,62.6015625 C42.0273424,62.6432294 41.8138029,62.7356764 41.6523438,62.8789062 C41.4908846,63.0221361 41.4101562,63.2161446 41.4101562,63.4609375 C41.4101562,63.7317722 41.5091136,63.9648428 41.7070312,64.1601562 C41.9049489,64.3554697 42.1966127,64.453125 42.5820312,64.453125 C42.9882833,64.453125 43.3085926,64.3359387 43.5429688,64.1015625 C43.7773449,63.8671863 43.8945312,63.5572936 43.8945312,63.171875 L43.8945312,62.328125 L42.2929688,62.6015625 Z M44.2460938,65.2109375 C44.1575516,65.3098963 44.0494798,65.415364 43.921875,65.5273438 C43.7942702,65.6393235 43.64323,65.740885 43.46875,65.8320312 C43.29427,65.9231775 43.0898449,65.9999997 42.8554688,66.0625 C42.6210926,66.1250003 42.3580744,66.15625 42.0664062,66.15625 C41.6497375,66.15625 41.2656268,66.0898444 40.9140625,65.9570312 C40.5624982,65.8242181 40.2539076,65.638022 39.9882812,65.3984375 C39.7226549,65.158853 39.5143237,64.881512 39.3632812,64.5664062 C39.2122388,64.2513005 39.1367188,63.908856 39.1367188,63.5390625 C39.1367188,62.8671841 39.34505,62.3177105 39.7617188,61.890625 C40.1783875,61.4635395 40.7539026,61.195313 41.4882812,61.0859375 L43.8945312,60.734375 L43.8945312,60.578125 C43.8945312,60.2031231 43.7799491,59.9062511 43.5507812,59.6875 C43.3216134,59.4687489 42.9492213,59.359375 42.4335938,59.359375 C42.220051,59.359375 42.0039073,59.3841143 41.7851562,59.4335938 C41.5664052,59.4830732 41.3567718,59.5390622 41.15625,59.6015625 C40.9557282,59.6640628 40.7695321,59.7356767 40.5976562,59.8164062 C40.4257804,59.8971358 40.2747402,59.9687497 40.1445312,60.03125 L39.3007812,58.3828125 C39.7799503,58.1171862 40.3124971,57.8984384 40.8984375,57.7265625 C41.4843779,57.5546866 42.0924448,57.46875 42.7226562,57.46875 C43.1080748,57.46875 43.4973939,57.5091142 43.890625,57.5898438 C44.2838561,57.6705733 44.6406234,57.8177073 44.9609375,58.03125 C45.2812516,58.2447927 45.5429677,58.5351544 45.7460938,58.9023438 C45.9492198,59.2695331 46.0507812,59.7369763 46.0507812,60.3046875 L46.0507812,63.7421875 C46.0507812,63.9869804 46.1145827,64.1679682 46.2421875,64.2851562 C46.3697923,64.4023443 46.5455718,64.5104162 46.7695312,64.609375 L45.7929688,66.15625 C45.3971334,66.1145831 45.0794283,66.0117196 44.8398438,65.8476562 C44.6002592,65.6835929 44.4023445,65.4713555 44.2460938,65.2109375 Z M47.8164062,54.796875 L49.9726562,54.796875 L49.9726562,63.7265625 C49.9726562,63.9036467 50.023437,64.039062 50.125,64.1328125 C50.226563,64.226563 50.3893218,64.2734375 50.6132812,64.2734375 C50.7174484,64.2734375 50.8072913,64.2669271 50.8828125,64.2539062 C50.9583337,64.2408854 51.055989,64.2213543 51.1757812,64.1953125 L51.3476562,66.03125 C51.2018222,66.0520834 51.0455738,66.0729166 50.8789062,66.09375 C50.7382805,66.1093751 50.5755218,66.1236979 50.390625,66.1367188 C50.2057282,66.1497396 50.0143239,66.15625 49.8164062,66.15625 C49.509113,66.15625 49.2330741,66.1171879 48.9882812,66.0390625 C48.7434884,65.9609371 48.533855,65.8450529 48.359375,65.6914062 C48.184895,65.5377596 48.0507817,65.3463553 47.9570312,65.1171875 C47.8632808,64.8880197 47.8164062,64.6223973 47.8164062,64.3203125 L47.8164062,54.796875 Z" id="Appeal" fill="#0B0C0C"></path>
                <path d="M169.757812,60.3984375 C169.757812,61.2369834 169.653647,62.0012986 169.445312,62.6914062 C169.236978,63.3815139 168.919273,63.9713517 168.492188,64.4609375 C168.065102,64.9505233 167.529951,65.3294257 166.886719,65.5976562 C166.243486,65.8658868 165.486984,66 164.617188,66 L161.023438,66 L161.023438,54.796875 L164.617188,54.796875 C165.486984,54.796875 166.243486,54.9309882 166.886719,55.1992188 C167.529951,55.4674493 168.065102,55.8463517 168.492188,56.3359375 C168.919273,56.8255233 169.236978,57.4153611 169.445312,58.1054688 C169.653647,58.7955764 169.757812,59.5598916 169.757812,60.3984375 Z M168.28125,60.1796875 C168.28125,59.5963512 168.208334,59.0494817 168.0625,58.5390625 C167.916666,58.0286433 167.694012,57.5846373 167.394531,57.2070312 C167.095051,56.8294252 166.712242,56.5312511 166.246094,56.3125 C165.779946,56.0937489 165.226566,55.984375 164.585938,55.984375 L162.398438,55.984375 L162.398438,64.8125 L164.585938,64.8125 C165.226566,64.8125 165.779946,64.7044282 166.246094,64.4882812 C166.712242,64.2721343 167.095051,63.9752623 167.394531,63.5976562 C167.694012,63.2200502 167.916666,62.7760442 168.0625,62.265625 C168.208334,61.7552058 168.28125,61.2083363 168.28125,60.625 L168.28125,60.1796875 Z M180.8125,64.015625 L180.890625,64.015625 L182.796875,54.796875 L184.203125,54.796875 L181.710938,66 L180.078125,66 L177.695312,56.8515625 L175.320312,66 L173.679688,66 L171.195312,54.796875 L172.585938,54.796875 L174.523438,64.015625 L174.617188,64.015625 L177.054688,54.796875 L178.382812,54.796875 L180.8125,64.015625 Z M186.429688,54.796875 L190.359375,54.796875 C190.885419,54.796875 191.361977,54.8841137 191.789062,55.0585938 C192.216148,55.2330738 192.58203,55.4752589 192.886719,55.7851562 C193.191408,56.0950536 193.42578,56.4661437 193.589844,56.8984375 C193.753907,57.3307313 193.835938,57.8046849 193.835938,58.3203125 C193.835938,58.8411484 193.746095,59.3164041 193.566406,59.7460938 C193.386718,60.1757834 193.135418,60.5442693 192.8125,60.8515625 C192.489582,61.1588557 192.105471,61.3971346 191.660156,61.5664062 C191.214842,61.7356779 190.729169,61.8203125 190.203125,61.8203125 L187.804688,61.8203125 L187.804688,66 L186.429688,66 L186.429688,54.796875 Z M192.375,58.2890625 C192.375,57.9609359 192.322917,57.6562514 192.21875,57.375 C192.114583,57.0937486 191.963543,56.8502614 191.765625,56.6445312 C191.567707,56.4388011 191.326824,56.2773443 191.042969,56.1601562 C190.759113,56.0429682 190.437502,55.984375 190.078125,55.984375 L187.804688,55.984375 L187.804688,60.640625 L190.078125,60.640625 C190.437502,60.640625 190.759113,60.5833339 191.042969,60.46875 C191.326824,60.3541661 191.567707,60.1966156 191.765625,59.9960938 C191.963543,59.7955719 192.114583,59.555991 192.21875,59.2773438 C192.322917,58.9986965 192.375,58.6953141 192.375,58.3671875 L192.375,58.2890625 Z M202.460938,59.1875 L202.25,59.1875 C201.911457,59.1875 201.588543,59.2265621 201.28125,59.3046875 C200.973957,59.3828129 200.703126,59.5234365 200.46875,59.7265625 C200.234374,59.9296885 200.046876,60.2070295 199.90625,60.5585938 C199.765624,60.910158 199.695312,61.3593723 199.695312,61.90625 L199.695312,66 L198.382812,66 L198.382812,58.015625 L199.695312,58.015625 L199.695312,59.28125 C199.794271,59.0468738 199.927082,58.8411467 200.09375,58.6640625 C200.260418,58.4869783 200.449218,58.3398443 200.660156,58.2226562 C200.871095,58.1054682 201.097655,58.0182295 201.339844,57.9609375 C201.582032,57.9036455 201.828124,57.875 202.078125,57.875 L202.460938,57.875 L202.460938,59.1875 Z M204.695312,62.4140625 C204.721354,62.7890644 204.796874,63.1354151 204.921875,63.453125 C205.046876,63.7708349 205.217447,64.0455718 205.433594,64.2773438 C205.649741,64.5091157 205.904946,64.6888014 206.199219,64.8164062 C206.493491,64.9440111 206.820311,65.0078125 207.179688,65.0078125 C207.622398,65.0078125 208.011717,64.9335945 208.347656,64.7851562 C208.683595,64.636718 208.992186,64.450522 209.273438,64.2265625 L209.945312,65.171875 C209.585936,65.4583348 209.170575,65.6940095 208.699219,65.8789062 C208.227862,66.063803 207.700524,66.15625 207.117188,66.15625 C206.53906,66.15625 206.015627,66.0533864 205.546875,65.8476562 C205.078123,65.6419261 204.678387,65.3554706 204.347656,64.9882812 C204.016925,64.6210919 203.763022,64.1835963 203.585938,63.6757812 C203.408853,63.1679662 203.320312,62.6145863 203.320312,62.015625 C203.320312,61.406247 203.407551,60.8476588 203.582031,60.3398438 C203.756511,59.8320287 204.002603,59.3945331 204.320312,59.0273438 C204.638022,58.6601544 205.018227,58.3736989 205.460938,58.1679688 C205.903648,57.9622386 206.395831,57.859375 206.9375,57.859375 C207.463544,57.859375 207.937498,57.9622386 208.359375,58.1679688 C208.781252,58.3736989 209.140624,58.6601544 209.4375,59.0273438 C209.734376,59.3945331 209.962239,59.8320287 210.121094,60.3398438 C210.279949,60.8476588 210.359375,61.4010387 210.359375,62 L210.359375,62.4140625 L204.695312,62.4140625 Z M206.890625,59.0078125 C206.55729,59.0078125 206.260418,59.072916 206,59.203125 C205.739582,59.333334 205.516928,59.5078114 205.332031,59.7265625 C205.147134,59.9453136 205.001303,60.1966132 204.894531,60.4804688 C204.78776,60.7643243 204.726563,61.0572902 204.710938,61.359375 L208.9375,61.359375 C208.927083,61.0520818 208.873698,60.7565118 208.777344,60.4726562 C208.680989,60.1888007 208.545574,59.9388032 208.371094,59.7226562 C208.196614,59.5065093 207.985678,59.333334 207.738281,59.203125 C207.490884,59.072916 207.208335,59.0078125 206.890625,59.0078125 Z M217.53125,63.7890625 C217.53125,64.1640644 217.44922,64.4986964 217.285156,64.7929688 C217.121093,65.0872411 216.903647,65.3359365 216.632812,65.5390625 C216.361978,65.7421885 216.050783,65.8958328 215.699219,66 C215.347654,66.1041672 214.986981,66.15625 214.617188,66.15625 C214.033851,66.15625 213.472659,66.0559906 212.933594,65.8554688 C212.394529,65.6549469 211.916669,65.3671894 211.5,64.9921875 L212.21875,64.0625 C212.343751,64.1718755 212.48828,64.2864577 212.652344,64.40625 C212.816407,64.5260423 212.999999,64.6367182 213.203125,64.7382812 C213.406251,64.8398443 213.624999,64.9231768 213.859375,64.9882812 C214.093751,65.0533857 214.341145,65.0859375 214.601562,65.0859375 C214.815105,65.0859375 215.01953,65.058594 215.214844,65.0039062 C215.410157,64.9492185 215.580728,64.8684901 215.726562,64.7617188 C215.872397,64.6549474 215.988281,64.5273445 216.074219,64.3789062 C216.160157,64.230468 216.203125,64.0625009 216.203125,63.875 C216.203125,63.6666656 216.157553,63.4921882 216.066406,63.3515625 C215.97526,63.2109368 215.851563,63.0911463 215.695312,62.9921875 C215.539062,62.8932287 215.356772,62.807292 215.148438,62.734375 C214.940103,62.661458 214.721355,62.588542 214.492188,62.515625 L213.992188,62.3515625 C213.710936,62.257812 213.440105,62.1510423 213.179688,62.03125 C212.91927,61.9114577 212.688803,61.7643238 212.488281,61.5898438 C212.287759,61.4153637 212.128907,61.2083345 212.011719,60.96875 C211.894531,60.7291655 211.835938,60.44271 211.835938,60.109375 C211.835938,59.8385403 211.893229,59.5690118 212.007812,59.3007812 C212.122396,59.0325507 212.298176,58.7916677 212.535156,58.578125 C212.772137,58.3645823 213.072915,58.1914069 213.4375,58.0585938 C213.802085,57.9257806 214.231768,57.859375 214.726562,57.859375 C215.27344,57.859375 215.779946,57.9505199 216.246094,58.1328125 C216.712242,58.3151051 217.106769,58.5416653 217.429688,58.8125 L216.742188,59.7578125 C216.627604,59.648437 216.492188,59.5442713 216.335938,59.4453125 C216.179687,59.3463537 216.013022,59.259115 215.835938,59.1835938 C215.658853,59.1080725 215.473959,59.0468752 215.28125,59 C215.088541,58.9531248 214.898438,58.9296875 214.710938,58.9296875 C214.424478,58.9296875 214.182293,58.9622393 213.984375,59.0273438 C213.786457,59.0924482 213.627605,59.1770828 213.507812,59.28125 C213.38802,59.3854172 213.300782,59.5026035 213.246094,59.6328125 C213.191406,59.7630215 213.164062,59.8906244 213.164062,60.015625 C213.164062,60.1979176 213.203125,60.3502598 213.28125,60.4726562 C213.359375,60.5950527 213.462239,60.7005204 213.589844,60.7890625 C213.717449,60.8776046 213.86328,60.9531247 214.027344,61.015625 C214.191407,61.0781253 214.361978,61.1406247 214.539062,61.203125 L215.195312,61.421875 C215.507814,61.5260422 215.79427,61.6367182 216.054688,61.7539062 C216.315105,61.8710943 216.54427,62.0052076 216.742188,62.15625 C216.992189,62.3541677 217.186197,62.583332 217.324219,62.84375 C217.46224,63.104168 217.53125,63.419269 217.53125,63.7890625 Z M220.859375,58.015625 L220.859375,58.9296875 C221.093751,58.6015609 221.411456,58.3411468 221.8125,58.1484375 C222.213544,57.9557282 222.674477,57.859375 223.195312,57.859375 C223.71094,57.859375 224.177081,57.9622386 224.59375,58.1679688 C225.010419,58.3736989 225.367186,58.6614565 225.664062,59.03125 C225.960939,59.4010435 226.188801,59.8398412 226.347656,60.3476562 C226.506511,60.8554713 226.585938,61.4114553 226.585938,62.015625 C226.585938,62.6197947 226.506511,63.1744766 226.347656,63.6796875 C226.188801,64.1848984 225.960939,64.6210919 225.664062,64.9882812 C225.367186,65.3554706 225.010419,65.6419261 224.59375,65.8476562 C224.177081,66.0533864 223.71094,66.15625 223.195312,66.15625 C222.674477,66.15625 222.213544,66.0598968 221.8125,65.8671875 C221.411456,65.6744782 221.093751,65.4140641 220.859375,65.0859375 L220.859375,68.4296875 L219.546875,68.4296875 L219.546875,58.015625 L220.859375,58.015625 Z M225.226562,61.96875 C225.226562,61.5520813 225.177084,61.1640643 225.078125,60.8046875 C224.979166,60.4453107 224.833334,60.1341159 224.640625,59.8710938 C224.447916,59.6080716 224.209637,59.4010424 223.925781,59.25 C223.641926,59.0989576 223.31771,59.0234375 222.953125,59.0234375 C222.604165,59.0234375 222.298178,59.0833327 222.035156,59.203125 C221.772134,59.3229173 221.552084,59.4869781 221.375,59.6953125 C221.197916,59.9036469 221.063803,60.1497382 220.972656,60.4335938 C220.88151,60.7174493 220.835938,61.02604 220.835938,61.359375 L220.835938,62.65625 C220.835938,62.989585 220.88151,63.2981757 220.972656,63.5820312 C221.063803,63.8658868 221.197916,64.1119781 221.375,64.3203125 C221.552084,64.5286469 221.772134,64.6927077 222.035156,64.8125 C222.298178,64.9322923 222.604165,64.9921875 222.953125,64.9921875 C223.31771,64.9921875 223.641926,64.9166674 223.925781,64.765625 C224.209637,64.6145826 224.447916,64.4075534 224.640625,64.1445312 C224.833334,63.8815091 224.979166,63.5703143 225.078125,63.2109375 C225.177084,62.8515607 225.226562,62.4635437 225.226562,62.046875 L225.226562,61.96875 Z M231.71875,57.859375 C232.270836,57.859375 232.773435,57.9622386 233.226562,58.1679688 C233.67969,58.3736989 234.066405,58.6601544 234.386719,59.0273438 C234.707033,59.3945331 234.955728,59.8320287 235.132812,60.3398438 C235.309897,60.8476588 235.398438,61.406247 235.398438,62.015625 C235.398438,62.6145863 235.309897,63.1679662 235.132812,63.6757812 C234.955728,64.1835963 234.707033,64.6210919 234.386719,64.9882812 C234.066405,65.3554706 233.67969,65.6419261 233.226562,65.8476562 C232.773435,66.0533864 232.270836,66.15625 231.71875,66.15625 C231.166664,66.15625 230.665367,66.0533864 230.214844,65.8476562 C229.764321,65.6419261 229.377606,65.3554706 229.054688,64.9882812 C228.731769,64.6210919 228.481772,64.1835963 228.304688,63.6757812 C228.127603,63.1679662 228.039062,62.6145863 228.039062,62.015625 C228.039062,61.406247 228.127603,60.8476588 228.304688,60.3398438 C228.481772,59.8320287 228.731769,59.3945331 229.054688,59.0273438 C229.377606,58.6601544 229.764321,58.3736989 230.214844,58.1679688 C230.665367,57.9622386 231.166664,57.859375 231.71875,57.859375 Z M231.71875,65.0078125 C232.09896,65.0078125 232.433592,64.9283862 232.722656,64.7695312 C233.01172,64.6106763 233.253905,64.3958347 233.449219,64.125 C233.644532,63.8541653 233.791666,63.5403664 233.890625,63.1835938 C233.989584,62.8268211 234.039062,62.453127 234.039062,62.0625 L234.039062,61.96875 C234.039062,61.5677063 233.989584,61.1875018 233.890625,60.828125 C233.791666,60.4687482 233.644532,60.1549493 233.449219,59.8867188 C233.253905,59.6184882 233.01172,59.4049487 232.722656,59.2460938 C232.433592,59.0872388 232.09896,59.0078125 231.71875,59.0078125 C231.33854,59.0078125 231.003908,59.0872388 230.714844,59.2460938 C230.42578,59.4049487 230.183595,59.6184882 229.988281,59.8867188 C229.792968,60.1549493 229.645834,60.4687482 229.546875,60.828125 C229.447916,61.1875018 229.398438,61.5677063 229.398438,61.96875 L229.398438,62.0625 C229.398438,62.453127 229.447916,62.8268211 229.546875,63.1835938 C229.645834,63.5403664 229.792968,63.8541653 229.988281,64.125 C230.183595,64.3958347 230.42578,64.6106763 230.714844,64.7695312 C231.003908,64.9283862 231.33854,65.0078125 231.71875,65.0078125 Z M237.320312,58.015625 L238.632812,58.015625 L238.632812,58.9296875 C238.903647,58.559894 239.238279,58.2890634 239.636719,58.1171875 C240.035158,57.9453116 240.479164,57.859375 240.96875,57.859375 C241.411461,57.859375 241.799477,57.9322909 242.132812,58.078125 C242.466148,58.2239591 242.744791,58.4218738 242.96875,58.671875 C243.192709,58.9218762 243.360677,59.2109359 243.472656,59.5390625 C243.584636,59.8671891 243.640625,60.2135398 243.640625,60.578125 L243.640625,66 L242.328125,66 L242.328125,60.9921875 C242.328125,60.6432274 242.285157,60.3450533 242.199219,60.0976562 C242.113281,59.8502592 241.996094,59.6497404 241.847656,59.4960938 C241.699218,59.3424471 241.524741,59.2304691 241.324219,59.1601562 C241.123697,59.0898434 240.908855,59.0546875 240.679688,59.0546875 C240.429686,59.0546875 240.183595,59.10026 239.941406,59.1914062 C239.699218,59.2825525 239.48047,59.4192699 239.285156,59.6015625 C239.089843,59.7838551 238.932292,60.0130195 238.8125,60.2890625 C238.692708,60.5651055 238.632812,60.8906231 238.632812,61.265625 L238.632812,66 L237.320312,66 L237.320312,58.015625 Z M251.320312,63.7890625 C251.320312,64.1640644 251.238282,64.4986964 251.074219,64.7929688 C250.910155,65.0872411 250.69271,65.3359365 250.421875,65.5390625 C250.15104,65.7421885 249.839846,65.8958328 249.488281,66 C249.136717,66.1041672 248.776044,66.15625 248.40625,66.15625 C247.822914,66.15625 247.261721,66.0559906 246.722656,65.8554688 C246.183591,65.6549469 245.705731,65.3671894 245.289062,64.9921875 L246.007812,64.0625 C246.132813,64.1718755 246.277343,64.2864577 246.441406,64.40625 C246.60547,64.5260423 246.789061,64.6367182 246.992188,64.7382812 C247.195314,64.8398443 247.414061,64.9231768 247.648438,64.9882812 C247.882814,65.0533857 248.130207,65.0859375 248.390625,65.0859375 C248.604168,65.0859375 248.808593,65.058594 249.003906,65.0039062 C249.19922,64.9492185 249.369791,64.8684901 249.515625,64.7617188 C249.661459,64.6549474 249.777343,64.5273445 249.863281,64.3789062 C249.949219,64.230468 249.992188,64.0625009 249.992188,63.875 C249.992188,63.6666656 249.946615,63.4921882 249.855469,63.3515625 C249.764322,63.2109368 249.640626,63.0911463 249.484375,62.9921875 C249.328124,62.8932287 249.145834,62.807292 248.9375,62.734375 C248.729166,62.661458 248.510418,62.588542 248.28125,62.515625 L247.78125,62.3515625 C247.499999,62.257812 247.229168,62.1510423 246.96875,62.03125 C246.708332,61.9114577 246.477866,61.7643238 246.277344,61.5898438 C246.076822,61.4153637 245.917969,61.2083345 245.800781,60.96875 C245.683593,60.7291655 245.625,60.44271 245.625,60.109375 C245.625,59.8385403 245.682291,59.5690118 245.796875,59.3007812 C245.911459,59.0325507 246.087238,58.7916677 246.324219,58.578125 C246.561199,58.3645823 246.861977,58.1914069 247.226562,58.0585938 C247.591148,57.9257806 248.020831,57.859375 248.515625,57.859375 C249.062503,57.859375 249.569008,57.9505199 250.035156,58.1328125 C250.501304,58.3151051 250.895832,58.5416653 251.21875,58.8125 L250.53125,59.7578125 C250.416666,59.648437 250.281251,59.5442713 250.125,59.4453125 C249.968749,59.3463537 249.802084,59.259115 249.625,59.1835938 C249.447916,59.1080725 249.263022,59.0468752 249.070312,59 C248.877603,58.9531248 248.687501,58.9296875 248.5,58.9296875 C248.21354,58.9296875 247.971355,58.9622393 247.773438,59.0273438 C247.57552,59.0924482 247.416667,59.1770828 247.296875,59.28125 C247.177083,59.3854172 247.089844,59.5026035 247.035156,59.6328125 C246.980468,59.7630215 246.953125,59.8906244 246.953125,60.015625 C246.953125,60.1979176 246.992187,60.3502598 247.070312,60.4726562 C247.148438,60.5950527 247.251301,60.7005204 247.378906,60.7890625 C247.506511,60.8776046 247.652343,60.9531247 247.816406,61.015625 C247.98047,61.0781253 248.151041,61.1406247 248.328125,61.203125 L248.984375,61.421875 C249.296877,61.5260422 249.583332,61.6367182 249.84375,61.7539062 C250.104168,61.8710943 250.333332,62.0052076 250.53125,62.15625 C250.781251,62.3541677 250.97526,62.583332 251.113281,62.84375 C251.251303,63.104168 251.320312,63.419269 251.320312,63.7890625 Z M254.226562,62.4140625 C254.252604,62.7890644 254.328124,63.1354151 254.453125,63.453125 C254.578126,63.7708349 254.748697,64.0455718 254.964844,64.2773438 C255.180991,64.5091157 255.436196,64.6888014 255.730469,64.8164062 C256.024741,64.9440111 256.351561,65.0078125 256.710938,65.0078125 C257.153648,65.0078125 257.542967,64.9335945 257.878906,64.7851562 C258.214845,64.636718 258.523436,64.450522 258.804688,64.2265625 L259.476562,65.171875 C259.117186,65.4583348 258.701825,65.6940095 258.230469,65.8789062 C257.759112,66.063803 257.231774,66.15625 256.648438,66.15625 C256.07031,66.15625 255.546877,66.0533864 255.078125,65.8476562 C254.609373,65.6419261 254.209637,65.3554706 253.878906,64.9882812 C253.548175,64.6210919 253.294272,64.1835963 253.117188,63.6757812 C252.940103,63.1679662 252.851562,62.6145863 252.851562,62.015625 C252.851562,61.406247 252.938801,60.8476588 253.113281,60.3398438 C253.287761,59.8320287 253.533853,59.3945331 253.851562,59.0273438 C254.169272,58.6601544 254.549477,58.3736989 254.992188,58.1679688 C255.434898,57.9622386 255.927081,57.859375 256.46875,57.859375 C256.994794,57.859375 257.468748,57.9622386 257.890625,58.1679688 C258.312502,58.3736989 258.671874,58.6601544 258.96875,59.0273438 C259.265626,59.3945331 259.493489,59.8320287 259.652344,60.3398438 C259.811199,60.8476588 259.890625,61.4010387 259.890625,62 L259.890625,62.4140625 L254.226562,62.4140625 Z M256.421875,59.0078125 C256.08854,59.0078125 255.791668,59.072916 255.53125,59.203125 C255.270832,59.333334 255.048178,59.5078114 254.863281,59.7265625 C254.678384,59.9453136 254.532553,60.1966132 254.425781,60.4804688 C254.31901,60.7643243 254.257813,61.0572902 254.242188,61.359375 L258.46875,61.359375 C258.458333,61.0520818 258.404948,60.7565118 258.308594,60.4726562 C258.212239,60.1888007 258.076824,59.9388032 257.902344,59.7226562 C257.727864,59.5065093 257.516928,59.333334 257.269531,59.203125 C257.022134,59.072916 256.739585,59.0078125 256.421875,59.0078125 Z" id="DWP-response" fill="#0B0C0C"></path>
                <path d="M347.898438,60.8515625 L342,60.8515625 L342,66 L340.625,66 L340.625,54.796875 L342,54.796875 L342,59.6640625 L347.898438,59.6640625 L347.898438,54.796875 L349.28125,54.796875 L349.28125,66 L347.898438,66 L347.898438,60.8515625 Z M352.726562,62.4140625 C352.752604,62.7890644 352.828124,63.1354151 352.953125,63.453125 C353.078126,63.7708349 353.248697,64.0455718 353.464844,64.2773438 C353.680991,64.5091157 353.936196,64.6888014 354.230469,64.8164062 C354.524741,64.9440111 354.851561,65.0078125 355.210938,65.0078125 C355.653648,65.0078125 356.042967,64.9335945 356.378906,64.7851562 C356.714845,64.636718 357.023436,64.450522 357.304688,64.2265625 L357.976562,65.171875 C357.617186,65.4583348 357.201825,65.6940095 356.730469,65.8789062 C356.259112,66.063803 355.731774,66.15625 355.148438,66.15625 C354.57031,66.15625 354.046877,66.0533864 353.578125,65.8476562 C353.109373,65.6419261 352.709637,65.3554706 352.378906,64.9882812 C352.048175,64.6210919 351.794272,64.1835963 351.617188,63.6757812 C351.440103,63.1679662 351.351562,62.6145863 351.351562,62.015625 C351.351562,61.406247 351.438801,60.8476588 351.613281,60.3398438 C351.787761,59.8320287 352.033853,59.3945331 352.351562,59.0273438 C352.669272,58.6601544 353.049477,58.3736989 353.492188,58.1679688 C353.934898,57.9622386 354.427081,57.859375 354.96875,57.859375 C355.494794,57.859375 355.968748,57.9622386 356.390625,58.1679688 C356.812502,58.3736989 357.171874,58.6601544 357.46875,59.0273438 C357.765626,59.3945331 357.993489,59.8320287 358.152344,60.3398438 C358.311199,60.8476588 358.390625,61.4010387 358.390625,62 L358.390625,62.4140625 L352.726562,62.4140625 Z M354.921875,59.0078125 C354.58854,59.0078125 354.291668,59.072916 354.03125,59.203125 C353.770832,59.333334 353.548178,59.5078114 353.363281,59.7265625 C353.178384,59.9453136 353.032553,60.1966132 352.925781,60.4804688 C352.81901,60.7643243 352.757813,61.0572902 352.742188,61.359375 L356.96875,61.359375 C356.958333,61.0520818 356.904948,60.7565118 356.808594,60.4726562 C356.712239,60.1888007 356.576824,59.9388032 356.402344,59.7226562 C356.227864,59.5065093 356.016928,59.333334 355.769531,59.203125 C355.522134,59.072916 355.239585,59.0078125 354.921875,59.0078125 Z M364.757812,65.203125 C364.523436,65.4739597 364.207033,65.7005199 363.808594,65.8828125 C363.410154,66.0651051 362.942711,66.15625 362.40625,66.15625 C362.010415,66.15625 361.643231,66.100261 361.304688,65.9882812 C360.966144,65.8763015 360.671876,65.7161469 360.421875,65.5078125 C360.171874,65.2994781 359.976563,65.0468765 359.835938,64.75 C359.695312,64.4531235 359.625,64.1171894 359.625,63.7421875 C359.625,63.4296859 359.675781,63.1445325 359.777344,62.8867188 C359.878907,62.628905 360.022134,62.4036468 360.207031,62.2109375 C360.391928,62.0182282 360.614582,61.8606777 360.875,61.7382812 C361.135418,61.6158848 361.427082,61.5312502 361.75,61.484375 L364.570312,61.1015625 L364.570312,60.59375 C364.570312,60.2916652 364.523438,60.0377614 364.429688,59.8320312 C364.335937,59.6263011 364.209636,59.4635423 364.050781,59.34375 C363.891926,59.2239577 363.704428,59.1380211 363.488281,59.0859375 C363.272134,59.0338539 363.039064,59.0078125 362.789062,59.0078125 C362.341144,59.0078125 361.923179,59.0703119 361.535156,59.1953125 C361.147133,59.3203131 360.796877,59.466145 360.484375,59.6328125 L359.992188,58.59375 C360.450523,58.333332 360.930987,58.1458339 361.433594,58.03125 C361.9362,57.9166661 362.432289,57.859375 362.921875,57.859375 C363.895838,57.859375 364.63281,58.0794249 365.132812,58.5195312 C365.632815,58.9596376 365.882812,59.6015583 365.882812,60.4453125 L365.882812,64.125 C365.882812,64.3906263 365.934895,64.6132804 366.039062,64.7929688 C366.14323,64.9726571 366.309895,65.1145828 366.539062,65.21875 L365.796875,66.15625 C365.546874,66.0937497 365.332032,65.9830737 365.152344,65.8242188 C364.972655,65.6653638 364.846355,65.4739595 364.773438,65.25 L364.757812,65.203125 Z M362.421875,62.4453125 C362.203124,62.4765627 362.003907,62.520833 361.824219,62.578125 C361.64453,62.635417 361.492188,62.7122391 361.367188,62.8085938 C361.242187,62.9049484 361.144532,63.0234368 361.074219,63.1640625 C361.003906,63.3046882 360.96875,63.4765615 360.96875,63.6796875 C360.96875,63.9140637 361.01302,64.1223949 361.101562,64.3046875 C361.190105,64.4869801 361.309895,64.6406244 361.460938,64.765625 C361.61198,64.8906256 361.787759,64.9856768 361.988281,65.0507812 C362.188803,65.1158857 362.398436,65.1484375 362.617188,65.1484375 C362.86198,65.1484375 363.101561,65.1145837 363.335938,65.046875 C363.570314,64.9791663 363.778645,64.8815111 363.960938,64.7539062 C364.14323,64.6263014 364.290364,64.4713551 364.402344,64.2890625 C364.514323,64.1067699 364.570312,63.8984387 364.570312,63.6640625 L364.570312,62.125 L362.421875,62.4453125 Z M372.34375,59.1875 L372.132812,59.1875 C371.794269,59.1875 371.471356,59.2265621 371.164062,59.3046875 C370.856769,59.3828129 370.585939,59.5234365 370.351562,59.7265625 C370.117186,59.9296885 369.929688,60.2070295 369.789062,60.5585938 C369.648437,60.910158 369.578125,61.3593723 369.578125,61.90625 L369.578125,66 L368.265625,66 L368.265625,58.015625 L369.578125,58.015625 L369.578125,59.28125 C369.677084,59.0468738 369.809895,58.8411467 369.976562,58.6640625 C370.14323,58.4869783 370.33203,58.3398443 370.542969,58.2226562 C370.753907,58.1054682 370.980468,58.0182295 371.222656,57.9609375 C371.464845,57.9036455 371.710936,57.875 371.960938,57.875 L372.34375,57.875 L372.34375,59.1875 Z M375.195312,66 L373.882812,66 L373.882812,58.015625 L375.195312,58.015625 L375.195312,66 Z M373.640625,55.7109375 C373.640625,55.5859369 373.665364,55.4687505 373.714844,55.359375 C373.764323,55.2499995 373.829427,55.1536463 373.910156,55.0703125 C373.990886,54.9869787 374.087239,54.9205732 374.199219,54.8710938 C374.311198,54.8216143 374.429687,54.796875 374.554688,54.796875 C374.679688,54.796875 374.796874,54.8216143 374.90625,54.8710938 C375.015626,54.9205732 375.110677,54.9869787 375.191406,55.0703125 C375.272136,55.1536463 375.337239,55.2499995 375.386719,55.359375 C375.436198,55.4687505 375.460938,55.5859369 375.460938,55.7109375 C375.460938,55.8359381 375.436198,55.9544265 375.386719,56.0664062 C375.337239,56.178386 375.272136,56.2747392 375.191406,56.3554688 C375.110677,56.4361983 375.015626,56.5013018 374.90625,56.5507812 C374.796874,56.6002607 374.679688,56.625 374.554688,56.625 C374.429687,56.625 374.311198,56.6002607 374.199219,56.5507812 C374.087239,56.5013018 373.990886,56.4361983 373.910156,56.3554688 C373.829427,56.2747392 373.764323,56.178386 373.714844,56.0664062 C373.665364,55.9544265 373.640625,55.8359381 373.640625,55.7109375 Z M377.59375,58.015625 L378.90625,58.015625 L378.90625,58.9296875 C379.177085,58.559894 379.511717,58.2890634 379.910156,58.1171875 C380.308596,57.9453116 380.752602,57.859375 381.242188,57.859375 C381.684898,57.859375 382.072915,57.9322909 382.40625,58.078125 C382.739585,58.2239591 383.018228,58.4218738 383.242188,58.671875 C383.466147,58.9218762 383.634114,59.2109359 383.746094,59.5390625 C383.858073,59.8671891 383.914062,60.2135398 383.914062,60.578125 L383.914062,66 L382.601562,66 L382.601562,60.9921875 C382.601562,60.6432274 382.558594,60.3450533 382.472656,60.0976562 C382.386718,59.8502592 382.269532,59.6497404 382.121094,59.4960938 C381.972656,59.3424471 381.798178,59.2304691 381.597656,59.1601562 C381.397134,59.0898434 381.182293,59.0546875 380.953125,59.0546875 C380.703124,59.0546875 380.457032,59.10026 380.214844,59.1914062 C379.972655,59.2825525 379.753907,59.4192699 379.558594,59.6015625 C379.36328,59.7838551 379.20573,60.0130195 379.085938,60.2890625 C378.966145,60.5651055 378.90625,60.8906231 378.90625,61.265625 L378.90625,66 L377.59375,66 L377.59375,58.015625 Z M385.796875,61.5703125 C385.796875,61.0442682 385.872395,60.5546898 386.023438,60.1015625 C386.17448,59.6484352 386.390624,59.2565121 386.671875,58.9257812 C386.953126,58.5950504 387.292967,58.3346364 387.691406,58.1445312 C388.089846,57.9544261 388.536456,57.859375 389.03125,57.859375 C389.468752,57.859375 389.885415,57.9440096 390.28125,58.1132812 C390.677085,58.2825529 391.013019,58.5546856 391.289062,58.9296875 L391.289062,58.015625 L392.601562,58.015625 L392.601562,66 C392.601562,66.4947941 392.501303,66.9101546 392.300781,67.2460938 C392.100259,67.5820329 391.838543,67.8515615 391.515625,68.0546875 C391.192707,68.2578135 390.826825,68.4036454 390.417969,68.4921875 C390.009113,68.5807296 389.593752,68.625 389.171875,68.625 C388.937499,68.625 388.694012,68.6119793 388.441406,68.5859375 C388.188801,68.5598957 387.934897,68.5208336 387.679688,68.46875 C387.424478,68.4166664 387.173178,68.3502608 386.925781,68.2695312 C386.678384,68.1888017 386.442709,68.0937505 386.21875,67.984375 L386.695312,66.8828125 C386.851563,66.9557295 387.015624,67.0273434 387.1875,67.0976562 C387.359376,67.1679691 387.545572,67.2317705 387.746094,67.2890625 C387.946616,67.3463545 388.161457,67.393229 388.390625,67.4296875 C388.619793,67.466146 388.86979,67.484375 389.140625,67.484375 C389.47396,67.484375 389.774738,67.4505212 390.042969,67.3828125 C390.311199,67.3151038 390.536457,67.2096361 390.71875,67.0664062 C390.901043,66.9231764 391.041666,66.7408865 391.140625,66.5195312 C391.239584,66.298176 391.289062,66.0338557 391.289062,65.7265625 L391.289062,64.2109375 C391.013019,64.5859394 390.677085,64.8580721 390.28125,65.0273438 C389.885415,65.1966154 389.468752,65.28125 389.03125,65.28125 C388.536456,65.28125 388.089846,65.1861989 387.691406,64.9960938 C387.292967,64.8059886 386.953126,64.5442725 386.671875,64.2109375 C386.390624,63.8776025 386.17448,63.4856793 386.023438,63.0351562 C385.872395,62.5846332 385.796875,62.0963568 385.796875,61.5703125 Z M391.320312,61.5390625 C391.320312,61.1796857 391.28125,60.8476578 391.203125,60.5429688 C391.125,60.2382797 391.002605,59.9726574 390.835938,59.7460938 C390.66927,59.5195301 390.457033,59.3424486 390.199219,59.2148438 C389.941405,59.0872389 389.632814,59.0234375 389.273438,59.0234375 C388.908852,59.0234375 388.593751,59.088541 388.328125,59.21875 C388.062499,59.348959 387.842449,59.5273426 387.667969,59.7539062 C387.493489,59.9804699 387.364584,60.2473943 387.28125,60.5546875 C387.197916,60.8619807 387.15625,61.1901024 387.15625,61.5390625 L387.15625,61.6015625 C387.15625,61.9505226 387.197916,62.2773422 387.28125,62.5820312 C387.364584,62.8867203 387.493489,63.1523426 387.667969,63.3789062 C387.842449,63.6054699 388.062499,63.7838535 388.328125,63.9140625 C388.593751,64.0442715 388.908852,64.109375 389.273438,64.109375 C389.632814,64.109375 389.941405,64.0455736 390.199219,63.9179688 C390.457033,63.7903639 390.66927,63.6145845 390.835938,63.390625 C391.002605,63.1666655 391.125,62.9010432 391.203125,62.59375 C391.28125,62.2864568 391.320312,61.9557309 391.320312,61.6015625 L391.320312,61.5390625 Z M399.515625,66 L398.203125,66 L398.203125,54.796875 L399.515625,54.796875 L399.515625,58.9296875 C399.750001,58.6015609 400.067706,58.3411468 400.46875,58.1484375 C400.869794,57.9557282 401.330727,57.859375 401.851562,57.859375 C402.36719,57.859375 402.833331,57.9622386 403.25,58.1679688 C403.666669,58.3736989 404.023436,58.6614565 404.320312,59.03125 C404.617189,59.4010435 404.845051,59.8398412 405.003906,60.3476562 C405.162761,60.8554713 405.242188,61.4114553 405.242188,62.015625 C405.242188,62.6197947 405.162761,63.1744766 405.003906,63.6796875 C404.845051,64.1848984 404.617189,64.6210919 404.320312,64.9882812 C404.023436,65.3554706 403.666669,65.6419261 403.25,65.8476562 C402.833331,66.0533864 402.36719,66.15625 401.851562,66.15625 C401.330727,66.15625 400.869794,66.0598968 400.46875,65.8671875 C400.067706,65.6744782 399.750001,65.4140641 399.515625,65.0859375 L399.515625,66 Z M403.882812,61.96875 C403.882812,61.5520813 403.833334,61.1640643 403.734375,60.8046875 C403.635416,60.4453107 403.489584,60.1341159 403.296875,59.8710938 C403.104166,59.6080716 402.865887,59.4010424 402.582031,59.25 C402.298176,59.0989576 401.97396,59.0234375 401.609375,59.0234375 C401.260415,59.0234375 400.954428,59.0833327 400.691406,59.203125 C400.428384,59.3229173 400.208334,59.4869781 400.03125,59.6953125 C399.854166,59.9036469 399.720053,60.1497382 399.628906,60.4335938 C399.53776,60.7174493 399.492188,61.02604 399.492188,61.359375 L399.492188,62.65625 C399.492188,62.989585 399.53776,63.2981757 399.628906,63.5820312 C399.720053,63.8658868 399.854166,64.1119781 400.03125,64.3203125 C400.208334,64.5286469 400.428384,64.6927077 400.691406,64.8125 C400.954428,64.9322923 401.260415,64.9921875 401.609375,64.9921875 C401.97396,64.9921875 402.298176,64.9166674 402.582031,64.765625 C402.865887,64.6145826 403.104166,64.4075534 403.296875,64.1445312 C403.489584,63.8815091 403.635416,63.5703143 403.734375,63.2109375 C403.833334,62.8515607 403.882812,62.4635437 403.882812,62.046875 L403.882812,61.96875 Z M410.375,57.859375 C410.927086,57.859375 411.429685,57.9622386 411.882812,58.1679688 C412.33594,58.3736989 412.722655,58.6601544 413.042969,59.0273438 C413.363283,59.3945331 413.611978,59.8320287 413.789062,60.3398438 C413.966147,60.8476588 414.054688,61.406247 414.054688,62.015625 C414.054688,62.6145863 413.966147,63.1679662 413.789062,63.6757812 C413.611978,64.1835963 413.363283,64.6210919 413.042969,64.9882812 C412.722655,65.3554706 412.33594,65.6419261 411.882812,65.8476562 C411.429685,66.0533864 410.927086,66.15625 410.375,66.15625 C409.822914,66.15625 409.321617,66.0533864 408.871094,65.8476562 C408.420571,65.6419261 408.033856,65.3554706 407.710938,64.9882812 C407.388019,64.6210919 407.138022,64.1835963 406.960938,63.6757812 C406.783853,63.1679662 406.695312,62.6145863 406.695312,62.015625 C406.695312,61.406247 406.783853,60.8476588 406.960938,60.3398438 C407.138022,59.8320287 407.388019,59.3945331 407.710938,59.0273438 C408.033856,58.6601544 408.420571,58.3736989 408.871094,58.1679688 C409.321617,57.9622386 409.822914,57.859375 410.375,57.859375 Z M410.375,65.0078125 C410.75521,65.0078125 411.089842,64.9283862 411.378906,64.7695312 C411.66797,64.6106763 411.910155,64.3958347 412.105469,64.125 C412.300782,63.8541653 412.447916,63.5403664 412.546875,63.1835938 C412.645834,62.8268211 412.695312,62.453127 412.695312,62.0625 L412.695312,61.96875 C412.695312,61.5677063 412.645834,61.1875018 412.546875,60.828125 C412.447916,60.4687482 412.300782,60.1549493 412.105469,59.8867188 C411.910155,59.6184882 411.66797,59.4049487 411.378906,59.2460938 C411.089842,59.0872388 410.75521,59.0078125 410.375,59.0078125 C409.99479,59.0078125 409.660158,59.0872388 409.371094,59.2460938 C409.08203,59.4049487 408.839845,59.6184882 408.644531,59.8867188 C408.449218,60.1549493 408.302084,60.4687482 408.203125,60.828125 C408.104166,61.1875018 408.054688,61.5677063 408.054688,61.96875 L408.054688,62.0625 C408.054688,62.453127 408.104166,62.8268211 408.203125,63.1835938 C408.302084,63.5403664 408.449218,63.8541653 408.644531,64.125 C408.839845,64.3958347 409.08203,64.6106763 409.371094,64.7695312 C409.660158,64.9283862 409.99479,65.0078125 410.375,65.0078125 Z M419.171875,57.859375 C419.723961,57.859375 420.22656,57.9622386 420.679688,58.1679688 C421.132815,58.3736989 421.51953,58.6601544 421.839844,59.0273438 C422.160158,59.3945331 422.408853,59.8320287 422.585938,60.3398438 C422.763022,60.8476588 422.851562,61.406247 422.851562,62.015625 C422.851562,62.6145863 422.763022,63.1679662 422.585938,63.6757812 C422.408853,64.1835963 422.160158,64.6210919 421.839844,64.9882812 C421.51953,65.3554706 421.132815,65.6419261 420.679688,65.8476562 C420.22656,66.0533864 419.723961,66.15625 419.171875,66.15625 C418.619789,66.15625 418.118492,66.0533864 417.667969,65.8476562 C417.217446,65.6419261 416.830731,65.3554706 416.507812,64.9882812 C416.184894,64.6210919 415.934897,64.1835963 415.757812,63.6757812 C415.580728,63.1679662 415.492188,62.6145863 415.492188,62.015625 C415.492188,61.406247 415.580728,60.8476588 415.757812,60.3398438 C415.934897,59.8320287 416.184894,59.3945331 416.507812,59.0273438 C416.830731,58.6601544 417.217446,58.3736989 417.667969,58.1679688 C418.118492,57.9622386 418.619789,57.859375 419.171875,57.859375 Z M419.171875,65.0078125 C419.552085,65.0078125 419.886717,64.9283862 420.175781,64.7695312 C420.464845,64.6106763 420.70703,64.3958347 420.902344,64.125 C421.097657,63.8541653 421.244791,63.5403664 421.34375,63.1835938 C421.442709,62.8268211 421.492188,62.453127 421.492188,62.0625 L421.492188,61.96875 C421.492188,61.5677063 421.442709,61.1875018 421.34375,60.828125 C421.244791,60.4687482 421.097657,60.1549493 420.902344,59.8867188 C420.70703,59.6184882 420.464845,59.4049487 420.175781,59.2460938 C419.886717,59.0872388 419.552085,59.0078125 419.171875,59.0078125 C418.791665,59.0078125 418.457033,59.0872388 418.167969,59.2460938 C417.878905,59.4049487 417.63672,59.6184882 417.441406,59.8867188 C417.246093,60.1549493 417.098959,60.4687482 417,60.828125 C416.901041,61.1875018 416.851562,61.5677063 416.851562,61.96875 L416.851562,62.0625 C416.851562,62.453127 416.901041,62.8268211 417,63.1835938 C417.098959,63.5403664 417.246093,63.8541653 417.441406,64.125 C417.63672,64.3958347 417.878905,64.6106763 418.167969,64.7695312 C418.457033,64.9283862 418.791665,65.0078125 419.171875,65.0078125 Z M426.085938,61.9375 L429.84375,58.015625 L431.492188,58.015625 L428.453125,61.1875 L431.632812,66 L430.03125,66 L427.523438,62.0625 L426.085938,63.5390625 L426.085938,66 L424.773438,66 L424.773438,54.796875 L426.085938,54.796875 L426.085938,61.9375 Z M433.648438,62.4140625 C433.674479,62.7890644 433.749999,63.1354151 433.875,63.453125 C434.000001,63.7708349 434.170572,64.0455718 434.386719,64.2773438 C434.602866,64.5091157 434.858071,64.6888014 435.152344,64.8164062 C435.446616,64.9440111 435.773436,65.0078125 436.132812,65.0078125 C436.575523,65.0078125 436.964842,64.9335945 437.300781,64.7851562 C437.63672,64.636718 437.945311,64.450522 438.226562,64.2265625 L438.898438,65.171875 C438.539061,65.4583348 438.1237,65.6940095 437.652344,65.8789062 C437.180987,66.063803 436.653649,66.15625 436.070312,66.15625 C435.492185,66.15625 434.968752,66.0533864 434.5,65.8476562 C434.031248,65.6419261 433.631512,65.3554706 433.300781,64.9882812 C432.97005,64.6210919 432.716147,64.1835963 432.539062,63.6757812 C432.361978,63.1679662 432.273438,62.6145863 432.273438,62.015625 C432.273438,61.406247 432.360676,60.8476588 432.535156,60.3398438 C432.709636,59.8320287 432.955728,59.3945331 433.273438,59.0273438 C433.591147,58.6601544 433.971352,58.3736989 434.414062,58.1679688 C434.856773,57.9622386 435.348956,57.859375 435.890625,57.859375 C436.416669,57.859375 436.890623,57.9622386 437.3125,58.1679688 C437.734377,58.3736989 438.093749,58.6601544 438.390625,59.0273438 C438.687501,59.3945331 438.915364,59.8320287 439.074219,60.3398438 C439.233074,60.8476588 439.3125,61.4010387 439.3125,62 L439.3125,62.4140625 L433.648438,62.4140625 Z M435.84375,59.0078125 C435.510415,59.0078125 435.213543,59.072916 434.953125,59.203125 C434.692707,59.333334 434.470053,59.5078114 434.285156,59.7265625 C434.100259,59.9453136 433.954428,60.1966132 433.847656,60.4804688 C433.740885,60.7643243 433.679688,61.0572902 433.664062,61.359375 L437.890625,61.359375 C437.880208,61.0520818 437.826823,60.7565118 437.730469,60.4726562 C437.634114,60.1888007 437.498699,59.9388032 437.324219,59.7226562 C437.149739,59.5065093 436.938803,59.333334 436.691406,59.203125 C436.444009,59.072916 436.16146,59.0078125 435.84375,59.0078125 Z M446.398438,65.0859375 C446.164061,65.4140641 445.845054,65.6744782 445.441406,65.8671875 C445.037758,66.0598968 444.578128,66.15625 444.0625,66.15625 C443.546872,66.15625 443.080731,66.0533864 442.664062,65.8476562 C442.247394,65.6419261 441.890626,65.3554706 441.59375,64.9882812 C441.296874,64.6210919 441.069011,64.1848984 440.910156,63.6796875 C440.751301,63.1744766 440.671875,62.6197947 440.671875,62.015625 C440.671875,61.4114553 440.751301,60.8554713 440.910156,60.3476562 C441.069011,59.8398412 441.296874,59.4010435 441.59375,59.03125 C441.890626,58.6614565 442.247394,58.3736989 442.664062,58.1679688 C443.080731,57.9622386 443.546872,57.859375 444.0625,57.859375 C444.578128,57.859375 445.037758,57.9557282 445.441406,58.1484375 C445.845054,58.3411468 446.164061,58.6015609 446.398438,58.9296875 L446.398438,54.796875 L447.710938,54.796875 L447.710938,66 L446.398438,66 L446.398438,65.0859375 Z M442.03125,62.046875 C442.03125,62.4635437 442.080729,62.8515607 442.179688,63.2109375 C442.278646,63.5703143 442.424478,63.8815091 442.617188,64.1445312 C442.809897,64.4075534 443.046874,64.6145826 443.328125,64.765625 C443.609376,64.9166674 443.934894,64.9921875 444.304688,64.9921875 C444.653648,64.9921875 444.959634,64.9322923 445.222656,64.8125 C445.485678,64.6927077 445.705728,64.5286469 445.882812,64.3203125 C446.059897,64.1119781 446.192708,63.8658868 446.28125,63.5820312 C446.369792,63.2981757 446.414062,62.989585 446.414062,62.65625 L446.414062,61.359375 C446.414062,61.02604 446.369792,60.7174493 446.28125,60.4335938 C446.192708,60.1497382 446.059897,59.9036469 445.882812,59.6953125 C445.705728,59.4869781 445.485678,59.3229173 445.222656,59.203125 C444.959634,59.0833327 444.653648,59.0234375 444.304688,59.0234375 C443.934894,59.0234375 443.609376,59.0989576 443.328125,59.25 C443.046874,59.4010424 442.809897,59.6080716 442.617188,59.8710938 C442.424478,60.1341159 442.278646,60.4453107 442.179688,60.8046875 C442.080729,61.1640643 442.03125,61.5520813 442.03125,61.96875 L442.03125,62.046875 Z" id="Hearing-booked" fill="#0B0C0C"></path>
                <path d="M559.957031,60.8515625 L554.058594,60.8515625 L554.058594,66 L552.683594,66 L552.683594,54.796875 L554.058594,54.796875 L554.058594,59.6640625 L559.957031,59.6640625 L559.957031,54.796875 L561.339844,54.796875 L561.339844,66 L559.957031,66 L559.957031,60.8515625 Z M564.785156,62.4140625 C564.811198,62.7890644 564.886718,63.1354151 565.011719,63.453125 C565.136719,63.7708349 565.307291,64.0455718 565.523438,64.2773438 C565.739584,64.5091157 565.99479,64.6888014 566.289062,64.8164062 C566.583335,64.9440111 566.910154,65.0078125 567.269531,65.0078125 C567.712242,65.0078125 568.101561,64.9335945 568.4375,64.7851562 C568.773439,64.636718 569.08203,64.450522 569.363281,64.2265625 L570.035156,65.171875 C569.675779,65.4583348 569.260419,65.6940095 568.789062,65.8789062 C568.317706,66.063803 567.790368,66.15625 567.207031,66.15625 C566.628903,66.15625 566.105471,66.0533864 565.636719,65.8476562 C565.167966,65.6419261 564.768231,65.3554706 564.4375,64.9882812 C564.106769,64.6210919 563.852865,64.1835963 563.675781,63.6757812 C563.498697,63.1679662 563.410156,62.6145863 563.410156,62.015625 C563.410156,61.406247 563.497395,60.8476588 563.671875,60.3398438 C563.846355,59.8320287 564.092446,59.3945331 564.410156,59.0273438 C564.727866,58.6601544 565.108071,58.3736989 565.550781,58.1679688 C565.993492,57.9622386 566.485674,57.859375 567.027344,57.859375 C567.553388,57.859375 568.027342,57.9622386 568.449219,58.1679688 C568.871096,58.3736989 569.230467,58.6601544 569.527344,59.0273438 C569.82422,59.3945331 570.052083,59.8320287 570.210938,60.3398438 C570.369792,60.8476588 570.449219,61.4010387 570.449219,62 L570.449219,62.4140625 L564.785156,62.4140625 Z M566.980469,59.0078125 C566.647134,59.0078125 566.350262,59.072916 566.089844,59.203125 C565.829426,59.333334 565.606772,59.5078114 565.421875,59.7265625 C565.236978,59.9453136 565.091146,60.1966132 564.984375,60.4804688 C564.877604,60.7643243 564.816406,61.0572902 564.800781,61.359375 L569.027344,61.359375 C569.016927,61.0520818 568.963542,60.7565118 568.867188,60.4726562 C568.770833,60.1888007 568.635418,59.9388032 568.460938,59.7226562 C568.286457,59.5065093 568.075522,59.333334 567.828125,59.203125 C567.580728,59.072916 567.298179,59.0078125 566.980469,59.0078125 Z M576.816406,65.203125 C576.58203,65.4739597 576.265627,65.7005199 575.867188,65.8828125 C575.468748,66.0651051 575.001305,66.15625 574.464844,66.15625 C574.069008,66.15625 573.701825,66.100261 573.363281,65.9882812 C573.024738,65.8763015 572.73047,65.7161469 572.480469,65.5078125 C572.230468,65.2994781 572.035157,65.0468765 571.894531,64.75 C571.753906,64.4531235 571.683594,64.1171894 571.683594,63.7421875 C571.683594,63.4296859 571.734374,63.1445325 571.835938,62.8867188 C571.937501,62.628905 572.080728,62.4036468 572.265625,62.2109375 C572.450522,62.0182282 572.673176,61.8606777 572.933594,61.7382812 C573.194012,61.6158848 573.485675,61.5312502 573.808594,61.484375 L576.628906,61.1015625 L576.628906,60.59375 C576.628906,60.2916652 576.582032,60.0377614 576.488281,59.8320312 C576.394531,59.6263011 576.26823,59.4635423 576.109375,59.34375 C575.95052,59.2239577 575.763022,59.1380211 575.546875,59.0859375 C575.330728,59.0338539 575.097657,59.0078125 574.847656,59.0078125 C574.399737,59.0078125 573.981773,59.0703119 573.59375,59.1953125 C573.205727,59.3203131 572.85547,59.466145 572.542969,59.6328125 L572.050781,58.59375 C572.509117,58.333332 572.989581,58.1458339 573.492188,58.03125 C573.994794,57.9166661 574.490883,57.859375 574.980469,57.859375 C575.954432,57.859375 576.691404,58.0794249 577.191406,58.5195312 C577.691409,58.9596376 577.941406,59.6015583 577.941406,60.4453125 L577.941406,64.125 C577.941406,64.3906263 577.993489,64.6132804 578.097656,64.7929688 C578.201823,64.9726571 578.368488,65.1145828 578.597656,65.21875 L577.855469,66.15625 C577.605468,66.0937497 577.390626,65.9830737 577.210938,65.8242188 C577.031249,65.6653638 576.904948,65.4739595 576.832031,65.25 L576.816406,65.203125 Z M574.480469,62.4453125 C574.261718,62.4765627 574.062501,62.520833 573.882812,62.578125 C573.703124,62.635417 573.550782,62.7122391 573.425781,62.8085938 C573.300781,62.9049484 573.203125,63.0234368 573.132812,63.1640625 C573.0625,63.3046882 573.027344,63.4765615 573.027344,63.6796875 C573.027344,63.9140637 573.071614,64.1223949 573.160156,64.3046875 C573.248698,64.4869801 573.368489,64.6406244 573.519531,64.765625 C573.670574,64.8906256 573.846353,64.9856768 574.046875,65.0507812 C574.247397,65.1158857 574.45703,65.1484375 574.675781,65.1484375 C574.920574,65.1484375 575.160155,65.1145837 575.394531,65.046875 C575.628907,64.9791663 575.837239,64.8815111 576.019531,64.7539062 C576.201824,64.6263014 576.348958,64.4713551 576.460938,64.2890625 C576.572917,64.1067699 576.628906,63.8984387 576.628906,63.6640625 L576.628906,62.125 L574.480469,62.4453125 Z M584.402344,59.1875 L584.191406,59.1875 C583.852863,59.1875 583.529949,59.2265621 583.222656,59.3046875 C582.915363,59.3828129 582.644532,59.5234365 582.410156,59.7265625 C582.17578,59.9296885 581.988282,60.2070295 581.847656,60.5585938 C581.707031,60.910158 581.636719,61.3593723 581.636719,61.90625 L581.636719,66 L580.324219,66 L580.324219,58.015625 L581.636719,58.015625 L581.636719,59.28125 C581.735678,59.0468738 581.868489,58.8411467 582.035156,58.6640625 C582.201824,58.4869783 582.390624,58.3398443 582.601562,58.2226562 C582.812501,58.1054682 583.039061,58.0182295 583.28125,57.9609375 C583.523439,57.9036455 583.76953,57.875 584.019531,57.875 L584.402344,57.875 L584.402344,59.1875 Z M587.253906,66 L585.941406,66 L585.941406,58.015625 L587.253906,58.015625 L587.253906,66 Z M585.699219,55.7109375 C585.699219,55.5859369 585.723958,55.4687505 585.773438,55.359375 C585.822917,55.2499995 585.88802,55.1536463 585.96875,55.0703125 C586.04948,54.9869787 586.145833,54.9205732 586.257812,54.8710938 C586.369792,54.8216143 586.488281,54.796875 586.613281,54.796875 C586.738282,54.796875 586.855468,54.8216143 586.964844,54.8710938 C587.074219,54.9205732 587.16927,54.9869787 587.25,55.0703125 C587.33073,55.1536463 587.395833,55.2499995 587.445312,55.359375 C587.494792,55.4687505 587.519531,55.5859369 587.519531,55.7109375 C587.519531,55.8359381 587.494792,55.9544265 587.445312,56.0664062 C587.395833,56.178386 587.33073,56.2747392 587.25,56.3554688 C587.16927,56.4361983 587.074219,56.5013018 586.964844,56.5507812 C586.855468,56.6002607 586.738282,56.625 586.613281,56.625 C586.488281,56.625 586.369792,56.6002607 586.257812,56.5507812 C586.145833,56.5013018 586.04948,56.4361983 585.96875,56.3554688 C585.88802,56.2747392 585.822917,56.178386 585.773438,56.0664062 C585.723958,55.9544265 585.699219,55.8359381 585.699219,55.7109375 Z M589.652344,58.015625 L590.964844,58.015625 L590.964844,58.9296875 C591.235678,58.559894 591.570311,58.2890634 591.96875,58.1171875 C592.367189,57.9453116 592.811195,57.859375 593.300781,57.859375 C593.743492,57.859375 594.131509,57.9322909 594.464844,58.078125 C594.798179,58.2239591 595.076822,58.4218738 595.300781,58.671875 C595.524741,58.9218762 595.692708,59.2109359 595.804688,59.5390625 C595.916667,59.8671891 595.972656,60.2135398 595.972656,60.578125 L595.972656,66 L594.660156,66 L594.660156,60.9921875 C594.660156,60.6432274 594.617188,60.3450533 594.53125,60.0976562 C594.445312,59.8502592 594.328126,59.6497404 594.179688,59.4960938 C594.031249,59.3424471 593.856772,59.2304691 593.65625,59.1601562 C593.455728,59.0898434 593.240887,59.0546875 593.011719,59.0546875 C592.761718,59.0546875 592.515626,59.10026 592.273438,59.1914062 C592.031249,59.2825525 591.812501,59.4192699 591.617188,59.6015625 C591.421874,59.7838551 591.264324,60.0130195 591.144531,60.2890625 C591.024739,60.5651055 590.964844,60.8906231 590.964844,61.265625 L590.964844,66 L589.652344,66 L589.652344,58.015625 Z M597.855469,61.5703125 C597.855469,61.0442682 597.930989,60.5546898 598.082031,60.1015625 C598.233074,59.6484352 598.449217,59.2565121 598.730469,58.9257812 C599.01172,58.5950504 599.351561,58.3346364 599.75,58.1445312 C600.148439,57.9544261 600.59505,57.859375 601.089844,57.859375 C601.527346,57.859375 601.944008,57.9440096 602.339844,58.1132812 C602.735679,58.2825529 603.071613,58.5546856 603.347656,58.9296875 L603.347656,58.015625 L604.660156,58.015625 L604.660156,66 C604.660156,66.4947941 604.559897,66.9101546 604.359375,67.2460938 C604.158853,67.5820329 603.897137,67.8515615 603.574219,68.0546875 C603.2513,68.2578135 602.885419,68.4036454 602.476562,68.4921875 C602.067706,68.5807296 601.652346,68.625 601.230469,68.625 C600.996093,68.625 600.752605,68.6119793 600.5,68.5859375 C600.247395,68.5598957 599.993491,68.5208336 599.738281,68.46875 C599.483072,68.4166664 599.231772,68.3502608 598.984375,68.2695312 C598.736978,68.1888017 598.501303,68.0937505 598.277344,67.984375 L598.753906,66.8828125 C598.910157,66.9557295 599.074218,67.0273434 599.246094,67.0976562 C599.41797,67.1679691 599.604166,67.2317705 599.804688,67.2890625 C600.005209,67.3463545 600.220051,67.393229 600.449219,67.4296875 C600.678387,67.466146 600.928384,67.484375 601.199219,67.484375 C601.532554,67.484375 601.833332,67.4505212 602.101562,67.3828125 C602.369793,67.3151038 602.595051,67.2096361 602.777344,67.0664062 C602.959636,66.9231764 603.10026,66.7408865 603.199219,66.5195312 C603.298178,66.298176 603.347656,66.0338557 603.347656,65.7265625 L603.347656,64.2109375 C603.071613,64.5859394 602.735679,64.8580721 602.339844,65.0273438 C601.944008,65.1966154 601.527346,65.28125 601.089844,65.28125 C600.59505,65.28125 600.148439,65.1861989 599.75,64.9960938 C599.351561,64.8059886 599.01172,64.5442725 598.730469,64.2109375 C598.449217,63.8776025 598.233074,63.4856793 598.082031,63.0351562 C597.930989,62.5846332 597.855469,62.0963568 597.855469,61.5703125 Z M603.378906,61.5390625 C603.378906,61.1796857 603.339844,60.8476578 603.261719,60.5429688 C603.183593,60.2382797 603.061199,59.9726574 602.894531,59.7460938 C602.727864,59.5195301 602.515626,59.3424486 602.257812,59.2148438 C601.999999,59.0872389 601.691408,59.0234375 601.332031,59.0234375 C600.967446,59.0234375 600.652345,59.088541 600.386719,59.21875 C600.121092,59.348959 599.901043,59.5273426 599.726562,59.7539062 C599.552082,59.9804699 599.423177,60.2473943 599.339844,60.5546875 C599.25651,60.8619807 599.214844,61.1901024 599.214844,61.5390625 L599.214844,61.6015625 C599.214844,61.9505226 599.25651,62.2773422 599.339844,62.5820312 C599.423177,62.8867203 599.552082,63.1523426 599.726562,63.3789062 C599.901043,63.6054699 600.121092,63.7838535 600.386719,63.9140625 C600.652345,64.0442715 600.967446,64.109375 601.332031,64.109375 C601.691408,64.109375 601.999999,64.0455736 602.257812,63.9179688 C602.515626,63.7903639 602.727864,63.6145845 602.894531,63.390625 C603.061199,63.1666655 603.183593,62.9010432 603.261719,62.59375 C603.339844,62.2864568 603.378906,61.9557309 603.378906,61.6015625 L603.378906,61.5390625 Z" id="Hearing" fill="#0B0C0C"></path>
                <g id="Group-2" transform="translate(5.000000, 0.000000)">
                    <g id="Group">
                        <circle id="Oval-2" fill="#006435" cx="20.5" cy="20.5" r="20.5"></circle>
                        <polygon id="Path" fill="#FFFFFF" points="16.3374074 23.5619753 12.1128395 19.3374074 9 22.4502469 16.3374074 30.01 31.2345679 15.1128395 28.1217284 12"></polygon>
                    </g>
                    <path d="M41.5,20.5 L559.000242,20.5" id="Line" stroke="#006435" stroke-width="6" stroke-linecap="square"></path>
                    <g id="Group" transform="translate(184.000000, 0.000000)" fill="#FFFFFF" stroke="#006435" stroke-width="6">
                        <circle id="Oval-2" cx="20.5" cy="20.5" r="17.5"></circle>
                    </g>
                    <g id="Group" transform="translate(369.000000, 0.000000)" fill="#FFFFFF" stroke="#006435" stroke-width="6">
                        <circle id="Oval-2" cx="20.5" cy="20.5" r="17.5"></circle>
                    </g>
                    <g id="Group" transform="translate(553.000000, 0.000000)" fill="#FFFFFF" stroke="#006435" stroke-width="6">
                        <circle id="Oval-2" cx="20.5" cy="20.5" r="17.5"></circle>
                    </g>
                </g>
            </g>
        </g>
    </g>
</svg>