<?xml version="1.0" encoding="UTF-8"?>
<svg width="620px" height="71px" viewBox="0 0 620 71" version="1.1" xmlns="http://www.w3.org/2000/svg" xmlns:xlink="http://www.w3.org/1999/xlink">
    <!-- Generator: Sketch 52 (66869) - http://www.bohemiancoding.com/sketch -->
    <title>Group 2</title>
    <desc>Created with Sketch.</desc>
    <defs>
        <path d="M8.65454102,63.4599609 L3.43139648,63.4599609 L2.50366211,66.6513672 L0.768798828,66.6513672 L4.8972168,53.3476563 L7.25366211,53.3476563 L11.4099121,66.6513672 L9.61010742,66.6513672 L8.65454102,63.4599609 Z M3.83032227,62.0683594 L8.25561523,62.0683594 L6.11254883,54.8134766 L5.96411133,54.8134766 L3.83032227,62.0683594 Z M14.9909668,57.1699219 L14.9909668,58.2553711 C15.2692885,57.8657207 15.6465634,57.556479 16.1228027,57.3276367 C16.5990421,57.0987944 17.1463999,56.984375 17.7648926,56.984375 C18.3772003,56.984375 18.930743,57.1065255 19.4255371,57.3508301 C19.9203313,57.5951347 20.3439924,57.9368468 20.6965332,58.3759766 C21.049074,58.8151064 21.3196605,59.3361786 21.5083008,59.939209 C21.696941,60.5422394 21.7912598,61.2024704 21.7912598,61.9199219 C21.7912598,62.6373734 21.696941,63.2960582 21.5083008,63.8959961 C21.3196605,64.495934 21.049074,65.0139138 20.6965332,65.4499512 C20.3439924,65.8859885 19.9203313,66.2261544 19.4255371,66.470459 C18.930743,66.7147636 18.3772003,66.8369141 17.7648926,66.8369141 C17.1463999,66.8369141 16.5990421,66.7224946 16.1228027,66.4936524 C15.6465634,66.2648101 15.2692885,65.9555684 14.9909668,65.565918 L14.9909668,69.5366211 L13.432373,69.5366211 L13.432373,57.1699219 L14.9909668,57.1699219 Z M20.177002,61.8642578 C20.177002,61.3694637 20.118246,60.9086936 20.0007324,60.4819336 C19.8832188,60.0551737 19.7100435,59.6856298 19.4812012,59.373291 C19.2523589,59.0609522 18.9694027,58.8151051 18.6323242,58.6357422 C18.2952457,58.4563793 17.9102398,58.3666992 17.4772949,58.3666992 C17.0629048,58.3666992 16.6995458,58.4378248 16.387207,58.5800781 C16.0748682,58.7223315 15.813559,58.9171537 15.6032715,59.1645508 C15.392984,59.4119479 15.2337245,59.7041813 15.1254883,60.0412598 C15.0172521,60.3783383 14.9631348,60.7447897 14.9631348,61.140625 L14.9631348,62.6806641 C14.9631348,63.0764994 15.0172521,63.4429508 15.1254883,63.7800293 C15.2337245,64.1171078 15.392984,64.4093412 15.6032715,64.6567383 C15.813559,64.9041354 16.0748682,65.0989576 16.387207,65.2412109 C16.6995458,65.3834643 17.0629048,65.4545899 17.4772949,65.4545899 C17.9102398,65.4545899 18.2952457,65.3649098 18.6323242,65.1855469 C18.9694027,65.006184 19.2523589,64.7603369 19.4812012,64.4479981 C19.7100435,64.1356593 19.8832188,63.7661154 20.0007324,63.3393555 C20.118246,62.9125955 20.177002,62.4518254 20.177002,61.9570313 L20.177002,61.8642578 Z M25.6506348,57.1699219 L25.6506348,58.2553711 C25.9289565,57.8657207 26.3062313,57.556479 26.7824707,57.3276367 C27.2587101,57.0987944 27.8060679,56.984375 28.4245605,56.984375 C29.0368683,56.984375 29.5904109,57.1065255 30.0852051,57.3508301 C30.5799992,57.5951347 31.0036603,57.9368468 31.3562012,58.3759766 C31.708742,58.8151064 31.9793285,59.3361786 32.1679688,59.939209 C32.356609,60.5422394 32.4509277,61.2024704 32.4509277,61.9199219 C32.4509277,62.6373734 32.356609,63.2960582 32.1679688,63.8959961 C31.9793285,64.495934 31.708742,65.0139138 31.3562012,65.4499512 C31.0036603,65.8859885 30.5799992,66.2261544 30.0852051,66.470459 C29.5904109,66.7147636 29.0368683,66.8369141 28.4245605,66.8369141 C27.8060679,66.8369141 27.2587101,66.7224946 26.7824707,66.4936524 C26.3062313,66.2648101 25.9289565,65.9555684 25.6506348,65.565918 L25.6506348,69.5366211 L24.092041,69.5366211 L24.092041,57.1699219 L25.6506348,57.1699219 Z M30.8366699,61.8642578 C30.8366699,61.3694637 30.777914,60.9086936 30.6604004,60.4819336 C30.5428868,60.0551737 30.3697114,59.6856298 30.1408691,59.373291 C29.9120269,59.0609522 29.6290707,58.8151051 29.2919922,58.6357422 C28.9549137,58.4563793 28.5699078,58.3666992 28.1369629,58.3666992 C27.7225728,58.3666992 27.3592138,58.4378248 27.046875,58.5800781 C26.7345362,58.7223315 26.473227,58.9171537 26.2629395,59.1645508 C26.0526519,59.4119479 25.8933925,59.7041813 25.7851563,60.0412598 C25.67692,60.3783383 25.6228027,60.7447897 25.6228027,61.140625 L25.6228027,62.6806641 C25.6228027,63.0764994 25.67692,63.4429508 25.7851563,63.7800293 C25.8933925,64.1171078 26.0526519,64.4093412 26.2629395,64.6567383 C26.473227,64.9041354 26.7345362,65.0989576 27.046875,65.2412109 C27.3592138,65.3834643 27.7225728,65.4545899 28.1369629,65.4545899 C28.5699078,65.4545899 28.9549137,65.3649098 29.2919922,65.1855469 C29.6290707,65.006184 29.9120269,64.7603369 30.1408691,64.4479981 C30.3697114,64.1356593 30.5428868,63.7661154 30.6604004,63.3393555 C30.777914,62.9125955 30.8366699,62.4518254 30.8366699,61.9570313 L30.8366699,61.8642578 Z M35.8093262,62.3930664 C35.8402508,62.8383811 35.9299309,63.2496726 36.0783691,63.6269531 C36.2268074,64.0042337 36.4293607,64.3304837 36.6860352,64.6057129 C36.9427096,64.8809421 37.2457665,65.0943189 37.5952148,65.2458496 C37.9446632,65.3973803 38.3327615,65.4731445 38.7595215,65.4731445 C39.2852403,65.4731445 39.7475566,65.3850107 40.1464844,65.2087402 C40.5454122,65.0324698 40.9118636,64.811362 41.2458496,64.5454102 L42.0437012,65.6679688 C41.6169412,66.0081397 41.1237007,66.2880035 40.5639648,66.5075684 C40.004229,66.7271333 39.3780145,66.8369141 38.6853027,66.8369141 C37.9987759,66.8369141 37.3772,66.7147636 36.8205566,66.470459 C36.2639132,66.2261544 35.7892272,65.8859885 35.3964844,65.4499512 C35.0037415,65.0139138 34.7022309,64.4943878 34.4919434,63.8913574 C34.2816558,63.2883271 34.1765137,62.6311885 34.1765137,61.9199219 C34.1765137,61.1962855 34.2801096,60.532962 34.4873047,59.9299317 C34.6944997,59.3269013 34.9867331,58.8073752 35.3640137,58.3713379 C35.7412942,57.9353006 36.1927871,57.5951347 36.7185059,57.3508301 C37.2442246,57.1065255 37.8286914,56.984375 38.4719238,56.984375 C39.0966014,56.984375 39.6594213,57.1065255 40.1604004,57.3508301 C40.6613795,57.5951347 41.088133,57.9353006 41.4406738,58.3713379 C41.7932147,58.8073752 42.0638011,59.3269013 42.2524414,59.9299317 C42.4410817,60.532962 42.5354004,61.1901006 42.5354004,61.9013672 L42.5354004,62.3930664 L35.8093262,62.3930664 Z M38.4162598,58.3481445 C38.0204245,58.3481445 37.6678889,58.425455 37.3586426,58.5800781 C37.0493962,58.7347013 36.7849946,58.9418932 36.5654297,59.2016602 C36.3458648,59.4614271 36.1726894,59.7598453 36.0458984,60.0969238 C35.9191074,60.4340023 35.8464356,60.7818993 35.8278809,61.140625 L40.8469238,61.140625 C40.834554,60.7757143 40.7711594,60.424725 40.6567383,60.0876465 C40.5423171,59.750568 40.3815115,59.453696 40.1743164,59.1970215 C39.9671214,58.940347 39.7166356,58.7347013 39.4228516,58.5800781 C39.1290675,58.425455 38.7935403,58.3481445 38.4162598,58.3481445 Z M50.0964355,65.7050781 C49.8181138,66.0266943 49.4423852,66.2957346 48.9692383,66.512207 C48.4960914,66.7286795 47.9410025,66.8369141 47.3039551,66.8369141 C46.8339006,66.8369141 46.3978698,66.7704271 45.9958496,66.6374512 C45.5938294,66.5044753 45.2443863,66.3142916 44.9475098,66.0668945 C44.6506333,65.8194975 44.418702,65.519533 44.251709,65.1669922 C44.084716,64.8144514 44.0012207,64.4155296 44.0012207,63.9702149 C44.0012207,63.5991193 44.0615228,63.2604996 44.1821289,62.9543457 C44.302735,62.6481918 44.4728179,62.3806978 44.6923828,62.1518555 C44.9119477,61.9230132 45.1763494,61.735922 45.4855957,61.5905762 C45.794842,61.4452304 46.1411927,61.3447269 46.5246582,61.2890625 L49.8737793,60.8344727 L49.8737793,60.2314453 C49.8737793,59.8727196 49.8181158,59.5712089 49.7067871,59.3269043 C49.5954584,59.0825997 49.4454762,58.8893236 49.2568359,58.7470703 C49.0681957,58.604817 48.8455416,58.5027672 48.5888672,58.440918 C48.3321927,58.3790687 48.0554214,58.3481445 47.7585449,58.3481445 C47.2266412,58.3481445 46.7303083,58.4223626 46.2695313,58.5708008 C45.8087542,58.719239 45.3928241,58.8924144 45.0217285,59.090332 L44.4372559,57.8564453 C44.9815294,57.547199 45.5520803,57.324545 46.1489258,57.1884766 C46.7457712,57.0524082 47.3348767,56.984375 47.9162598,56.984375 C49.0728411,56.984375 49.9479951,57.2456842 50.541748,57.7683106 C51.135501,58.2909369 51.432373,59.0532177 51.432373,60.0551758 L51.432373,64.4248047 C51.432373,64.740236 51.4942214,65.0046376 51.6179199,65.2180176 C51.7416185,65.4313976 51.9395331,65.5999343 52.2116699,65.7236328 L51.3303223,66.8369141 C51.0334458,66.762695 50.7783214,66.6312672 50.5649414,66.442627 C50.3515614,66.2539867 50.2015792,66.0266941 50.1149902,65.7607422 L50.0964355,65.7050781 Z M47.3225098,62.4301758 C47.0627428,62.4672854 46.8261729,62.5198564 46.612793,62.5878906 C46.399413,62.6559248 46.2185066,62.7471511 46.0700684,62.8615723 C45.9216301,62.9759934 45.8056645,63.1166984 45.722168,63.2836914 C45.6386715,63.4506844 45.5969238,63.654784 45.5969238,63.8959961 C45.5969238,64.1743178 45.6494949,64.4217112 45.7546387,64.6381836 C45.8597824,64.854656 46.0020336,65.0371086 46.1813965,65.1855469 C46.3607594,65.3339851 46.5694975,65.4468583 46.8076172,65.5241699 C47.0457369,65.6014815 47.2946764,65.6401367 47.5544434,65.6401367 C47.8451349,65.6401367 48.1296373,65.5999353 48.407959,65.5195313 C48.6862807,65.4391272 48.933674,65.3231616 49.1501465,65.1716309 C49.3666189,65.0201002 49.5413405,64.8361014 49.6743164,64.6196289 C49.8072923,64.4031565 49.8737793,64.1557631 49.8737793,63.8774414 L49.8737793,62.0498047 L47.3225098,62.4301758 Z M54.1970215,53.3476563 L55.7556152,53.3476563 L55.7556152,64.5268555 C55.7556152,64.6814787 55.7695311,64.817545 55.7973633,64.9350586 C55.8251955,65.0525722 55.8731279,65.1515296 55.9411621,65.2319336 C56.0091963,65.3123377 56.103515,65.3726398 56.2241211,65.4128418 C56.3447272,65.4530438 56.4947094,65.4731445 56.6740723,65.4731445 C56.8719899,65.4731445 57.0513501,65.4669597 57.2121582,65.4545899 C57.3729663,65.44222 57.5152175,65.4298503 57.638916,65.4174805 L57.7966309,66.7255859 L57.2585449,66.78125 C57.1039218,66.7936199 56.9338388,66.8059895 56.748291,66.8183594 C56.5627432,66.8307292 56.3864754,66.8369141 56.2194824,66.8369141 C55.9411607,66.8369141 55.6783053,66.8044437 55.4309082,66.739502 C55.1835111,66.6745602 54.9685882,66.5678718 54.7861328,66.4194336 C54.6036775,66.2709954 54.4598801,66.0792655 54.3547363,65.8442383 C54.2495926,65.6092111 54.1970215,65.3216163 54.1970215,64.9814453 L54.1970215,53.3476563 Z" id="path-1"></path>
        <path d="M171.758789,60.2221679 C171.758789,61.2179411 171.624268,62.1255655 171.355224,62.9450683 C171.08618,63.7645711 170.684166,64.4650036 170.149169,65.0463867 C169.614173,65.6277698 168.944665,66.0777165 168.140625,66.3962402 C167.336584,66.7147639 166.396489,66.8740234 165.320312,66.8740234 L160.421875,66.8740234 L160.421875,53.5703125 L165.320312,53.5703125 C166.396489,53.5703125 167.336584,53.7295719 168.140625,54.0480957 C168.944665,54.3666194 169.614173,54.8165661 170.149169,55.3979492 C170.684166,55.9793323 171.08618,56.6797647 171.355224,57.4992675 C171.624268,58.3187703 171.758789,59.2263947 171.758789,60.2221679 Z M168.966308,59.9624023 C168.966308,59.399574 168.896729,58.8754093 168.757568,58.3898925 C168.618407,57.9043758 168.395753,57.4822609 168.089599,57.1235351 C167.783445,56.7648094 167.38607,56.4818532 166.89746,56.2746582 C166.408851,56.0674631 165.8182,55.9638672 165.125488,55.9638672 L163.112304,55.9638672 L163.112304,64.4804687 L165.125488,64.4804687 C165.812015,64.4804687 166.399574,64.3768727 166.888183,64.1696777 C167.376792,63.9624827 167.774168,63.6779803 168.080322,63.3161621 C168.386476,62.9543439 168.610676,62.5291365 168.752929,62.0405273 C168.895183,61.5519181 168.966308,61.0292996 168.966308,60.4726562 L168.966308,59.9624023 Z M184.756347,62.7548828 L184.793457,62.7548828 L186.602539,53.5703125 L189.524902,53.5703125 L186.556152,66.8740234 L183.253418,66.8740234 L181.240234,57.336914 L179.26416,66.8740234 L175.97998,66.8740234 L173.01123,53.5703125 L175.942871,53.5703125 L177.687011,62.7548828 L177.724121,62.7548828 L179.755859,53.5703125 L182.780273,53.5703125 L184.756347,62.7548828 Z M191.389648,53.5703125 L196.705566,53.5703125 C197.392093,53.5703125 198.012122,53.6831857 198.565673,53.9089355 C199.119224,54.1346853 199.587726,54.443927 199.971191,54.8366699 C200.354656,55.2294127 200.649982,55.6948215 200.857177,56.2329101 C201.064372,56.7709987 201.167968,57.3554656 201.167968,57.9863281 C201.167968,58.6171906 201.055095,59.2016574 200.829345,59.7397461 C200.603595,60.2778347 200.285076,60.7432434 199.873779,61.1359863 C199.462481,61.5287291 198.969241,61.8364246 198.394043,62.059082 C197.818844,62.2817394 197.184899,62.3930664 196.492187,62.3930664 L194.080078,62.3930664 L194.080078,66.8740234 L191.389648,66.8740234 L191.389648,53.5703125 Z M198.394043,57.9399414 C198.394043,57.6245101 198.338379,57.3446464 198.22705,57.1003418 C198.115722,56.8560372 197.954916,56.647299 197.744628,56.4741211 C197.534341,56.3009431 197.280763,56.1695154 196.983886,56.0798339 C196.68701,55.9901525 196.353029,55.9453125 195.981933,55.9453125 L194.080078,55.9453125 L194.080078,60.0180664 L195.981933,60.0180664 C196.353029,60.0180664 196.68701,59.9732263 196.983886,59.8835449 C197.280763,59.7938634 197.534341,59.6624357 197.744628,59.4892578 C197.954916,59.3160798 198.115722,59.1073417 198.22705,58.8630371 C198.338379,58.6187325 198.394043,58.3388687 198.394043,58.0234375 L198.394043,57.9399414 Z M211.131835,59.4243164 L210.862793,59.4243164 C210.497882,59.4243164 210.149985,59.4614254 209.819091,59.5356445 C209.488198,59.6098636 209.195964,59.7443838 208.942382,59.9392089 C208.6888,60.1340341 208.486247,60.4015282 208.334716,60.7416992 C208.183186,61.0818702 208.107421,61.5179009 208.107421,62.0498047 L208.107421,66.8740234 L205.546875,66.8740234 L205.546875,56.9379882 L208.107421,56.9379882 L208.107421,58.0605468 C208.212565,57.8935538 208.348632,57.7327481 208.515625,57.578125 C208.682618,57.4235018 208.87744,57.2858892 209.100097,57.1652832 C209.322755,57.0446771 209.57324,56.947266 209.851562,56.8730468 C210.129884,56.7988277 210.429848,56.7617187 210.751464,56.7617187 L211.131835,56.7617187 L211.131835,59.4243164 Z M214.870605,62.7919922 C214.9139,63.0888686 215.008218,63.3610013 215.153564,63.6083984 C215.29891,63.8557955 215.482909,64.067626 215.705566,64.2438964 C215.928223,64.4201669 216.184894,64.5577794 216.475585,64.6567382 C216.766277,64.7556971 217.075519,64.8051757 217.40332,64.8051757 C217.7806,64.8051757 218.188799,64.7325039 218.627929,64.5871582 C219.067059,64.4418124 219.469073,64.2299818 219.833984,63.9516601 L221.067871,65.7514648 C220.604001,66.1411152 220.034996,66.4565417 219.360839,66.6977539 C218.686682,66.938966 217.969242,67.0595703 217.208496,67.0595703 C216.521969,67.0595703 215.875654,66.9420584 215.269531,66.7070312 C214.663408,66.472004 214.133058,66.1318381 213.678466,65.6865234 C213.223874,65.2412087 212.865154,64.7000357 212.602294,64.0629882 C212.339435,63.4259408 212.208007,62.7085 212.208007,61.9106445 C212.208007,61.1808231 212.323973,60.5004914 212.555908,59.8696289 C212.787843,59.2387663 213.112546,58.6914085 213.530029,58.227539 C213.947511,57.7636695 214.446937,57.4003105 215.02832,57.1374511 C215.609703,56.8745917 216.252926,56.743164 216.958007,56.743164 C217.61361,56.743164 218.222816,56.8622221 218.785644,57.1003418 C219.348472,57.3384614 219.837074,57.6724425 220.251464,58.1022949 C220.665854,58.5321473 220.990558,59.0470347 221.225585,59.6469726 C221.460613,60.2469105 221.578125,60.9086878 221.578125,61.6323242 L221.578125,62.7919922 L214.870605,62.7919922 Z M216.94873,58.9697265 C216.398272,58.9697265 215.932863,59.1537253 215.55249,59.5217285 C215.172117,59.8897316 214.951009,60.3334935 214.88916,60.8530273 L218.896972,60.8530273 C218.884602,60.3273085 218.692873,59.8820005 218.321777,59.5170898 C217.950681,59.1521791 217.493004,58.9697265 216.94873,58.9697265 Z M223.916015,63.7011718 C224.280926,64.028973 224.716957,64.3103829 225.224121,64.5454101 C225.731285,64.7804373 226.244626,64.8979492 226.76416,64.8979492 C227.14144,64.8979492 227.438312,64.8252774 227.654785,64.6799316 C227.871257,64.5345858 227.979492,64.3474946 227.979492,64.1186523 C227.979492,63.7290019 227.562015,63.4259451 226.72705,63.2094726 L226.003418,63.0146484 C225.644692,62.9280594 225.282879,62.8090014 224.917968,62.6574707 C224.553058,62.50594 224.21753,62.3064791 223.911377,62.059082 C223.605223,61.8116849 223.357829,61.5101743 223.169189,61.154541 C222.980549,60.7989077 222.88623,60.3613307 222.88623,59.8417968 C222.88623,59.4274067 222.977456,59.0331236 223.159912,58.6589355 C223.342367,58.2847474 223.60213,57.955405 223.939209,57.6708984 C224.276287,57.3863918 224.686032,57.1606453 225.168457,56.9936523 C225.650881,56.8266593 226.188961,56.743164 226.782714,56.743164 C227.630049,56.743164 228.386145,56.876138 229.051025,57.1420898 C229.715905,57.4080417 230.240069,57.7080061 230.623535,58.0419922 L229.287597,59.7490234 C228.972166,59.5201811 228.59953,59.3238126 228.169677,59.1599121 C227.739825,58.9960115 227.308433,58.9140625 226.875488,58.9140625 C226.473468,58.9140625 226.161133,58.9867343 225.938476,59.13208 C225.715819,59.2774258 225.604492,59.4521474 225.604492,59.65625 C225.604492,59.8727224 225.701903,60.047444 225.896728,60.1804199 C226.091553,60.3133958 226.374509,60.4293614 226.745605,60.5283203 L227.821777,60.8344726 C228.848475,61.1251642 229.58447,61.5179011 230.029785,62.0126953 C230.475099,62.5074894 230.697753,63.1321576 230.697753,63.8867187 C230.697753,64.3072937 230.611166,64.7077617 230.437988,65.0881347 C230.26481,65.4685077 230.011232,65.8071274 229.677246,66.1040039 C229.34326,66.4008804 228.928876,66.6343578 228.434082,66.8044433 C227.939287,66.9745288 227.376468,67.0595703 226.745605,67.0595703 C226.263181,67.0595703 225.810142,67.0162764 225.386474,66.9296875 C224.962807,66.8430985 224.57007,66.7240404 224.208252,66.5725097 C223.846433,66.420979 223.520183,66.2493499 223.229492,66.0576172 C222.9388,65.8658844 222.691407,65.6741546 222.487304,65.4824218 L223.916015,63.7011718 Z M234.909668,70.0097656 L232.349121,70.0097656 L232.349121,56.9379882 L234.909668,56.9379882 L234.909668,57.7915039 C235.187989,57.5008123 235.531248,57.253419 235.939453,57.0493164 C236.347658,56.8452138 236.842445,56.743164 237.423828,56.743164 C238.07943,56.743164 238.67472,56.8745917 239.209716,57.1374511 C239.744713,57.4003105 240.203936,57.7621233 240.587402,58.2229004 C240.970867,58.6836774 241.267739,59.229489 241.478027,59.8603515 C241.688314,60.4912141 241.793457,61.1746382 241.793457,61.9106445 C241.793457,62.6466508 241.685222,63.3300749 241.46875,63.9609375 C241.252277,64.5918 240.94922,65.1360654 240.55957,65.59375 C240.169919,66.0514345 239.702965,66.4101549 239.158691,66.6699218 C238.614417,66.9296888 238.014489,67.0595703 237.358886,67.0595703 C237.068195,67.0595703 236.803793,67.0332847 236.565673,66.9807129 C236.327554,66.928141 236.109538,66.8554692 235.911621,66.7626953 C235.713703,66.6699214 235.53125,66.5601406 235.364257,66.4333496 C235.197264,66.3065586 235.045736,66.168946 234.909668,66.0205078 L234.909668,70.0097656 Z M234.835449,62.8291015 C234.835449,63.0950534 234.883381,63.3409005 234.979248,63.5666504 C235.075114,63.7924002 235.212727,63.9887687 235.392089,64.1557617 C235.571452,64.3227547 235.786375,64.4526362 236.036865,64.5454101 C236.287354,64.638184 236.57031,64.6845703 236.885742,64.6845703 C237.250652,64.6845703 237.57381,64.6180833 237.855224,64.4851074 C238.136638,64.3521315 238.373208,64.1650402 238.564941,63.9238281 C238.756674,63.6826159 238.902017,63.3965674 239.000976,63.0656738 C239.099935,62.7347802 239.149414,62.3714212 239.149414,61.9755859 L239.149414,61.8549804 C239.149414,61.4591451 239.099935,61.0942399 239.000976,60.7602539 C238.902017,60.4262678 238.756674,60.1371268 238.564941,59.8928222 C238.373208,59.6485176 238.136638,59.458334 237.855224,59.3222656 C237.57381,59.1861972 237.250652,59.118164 236.885742,59.118164 C236.57031,59.118164 236.287354,59.1645503 236.036865,59.2573242 C235.786375,59.3500981 235.571452,59.4799796 235.392089,59.6469726 C235.212727,59.8139656 235.075114,60.0118803 234.979248,60.2407226 C234.883381,60.4695649 234.835449,60.7169583 234.835449,60.9829101 L234.835449,62.8291015 Z M247.870117,56.743164 C248.606123,56.743164 249.274085,56.8745917 249.874023,57.1374511 C250.473961,57.4003105 250.987302,57.7636695 251.414062,58.227539 C251.840822,58.6914085 252.170164,59.2387663 252.402099,59.8696289 C252.634034,60.5004914 252.75,61.1808231 252.75,61.9106445 C252.75,62.6466508 252.632488,63.3285287 252.39746,63.9562988 C252.162433,64.5840689 251.831545,65.126788 251.404785,65.5844726 C250.978025,66.0421572 250.464684,66.4024238 249.864746,66.6652832 C249.264808,66.9281426 248.599938,67.0595703 247.870117,67.0595703 C247.13411,67.0595703 246.466148,66.9281426 245.86621,66.6652832 C245.266273,66.4024238 244.752931,66.0421572 244.326171,65.5844726 C243.899411,65.126788 243.568523,64.5840689 243.333496,63.9562988 C243.098468,63.3285287 242.980957,62.6466508 242.980957,61.9106445 C242.980957,61.1808231 243.096922,60.5004914 243.328857,59.8696289 C243.560792,59.2387663 243.890134,58.6914085 244.316894,58.227539 C244.743654,57.7636695 245.258541,57.4003105 245.861572,57.1374511 C246.464602,56.8745917 247.13411,56.743164 247.870117,56.743164 Z M247.870117,64.6845703 C248.235027,64.6845703 248.558185,64.6165371 248.839599,64.4804687 C249.121013,64.3444003 249.357583,64.1557629 249.549316,63.9145507 C249.741049,63.6733386 249.886392,63.3841976 249.985351,63.0471191 C250.08431,62.7100406 250.133789,62.3404968 250.133789,61.9384765 L250.133789,61.8735351 C250.133789,61.4715149 250.08431,61.101971 249.985351,60.7648925 C249.886392,60.427814 249.741049,60.1371268 249.549316,59.8928222 C249.357583,59.6485176 249.121013,59.458334 248.839599,59.3222656 C248.558185,59.1861972 248.235027,59.118164 247.870117,59.118164 C247.505206,59.118164 247.182048,59.1861972 246.900634,59.3222656 C246.61922,59.458334 246.38265,59.6485176 246.190918,59.8928222 C245.999185,60.1371268 245.853841,60.427814 245.754882,60.7648925 C245.655924,61.101971 245.606445,61.4715149 245.606445,61.8735351 L245.606445,61.9384765 C245.606445,62.3404968 245.655924,62.7100406 245.754882,63.0471191 C245.853841,63.3841976 245.999185,63.6733386 246.190918,63.9145507 C246.38265,64.1557629 246.61922,64.3444003 246.900634,64.4804687 C247.182048,64.6165371 247.505206,64.6845703 247.870117,64.6845703 Z M254.447753,56.9379882 L257.0083,56.9379882 L257.0083,57.7915039 C257.144369,57.6554355 257.297443,57.5240078 257.467529,57.3972168 C257.637614,57.2704258 257.824706,57.1590987 258.028808,57.0632324 C258.232911,56.967366 258.460203,56.8900556 258.710693,56.8312988 C258.961182,56.772542 259.237954,56.743164 259.541015,56.743164 C260.079104,56.743164 260.561521,56.8312979 260.988281,57.0075683 C261.415041,57.1838387 261.775307,57.4265935 262.069091,57.7358398 C262.362875,58.0450861 262.587076,58.4068989 262.741699,58.821289 C262.896322,59.2356791 262.973632,59.6840796 262.973632,60.1665039 L262.973632,66.8740234 L260.413085,66.8740234 L260.413085,61.0942382 C260.413085,60.7416974 260.372884,60.4432792 260.29248,60.1989746 C260.212076,59.95467 260.102295,59.7567553 259.963134,59.6052246 C259.823973,59.4536939 259.660075,59.3423669 259.471435,59.2712402 C259.282795,59.2001135 259.077149,59.1645507 258.854492,59.1645507 C258.594725,59.1645507 258.35197,59.210937 258.12622,59.3037109 C257.90047,59.3964848 257.704102,59.5371898 257.537109,59.72583 C257.370116,59.9144703 257.240234,60.1510402 257.14746,60.4355468 C257.054687,60.7200535 257.0083,61.0540345 257.0083,61.4375 L257.0083,66.8740234 L254.447753,66.8740234 L254.447753,56.9379882 Z M265.8125,63.7011718 C266.17741,64.028973 266.613441,64.3103829 267.120605,64.5454101 C267.627769,64.7804373 268.14111,64.8979492 268.660644,64.8979492 C269.037925,64.8979492 269.334797,64.8252774 269.551269,64.6799316 C269.767742,64.5345858 269.875976,64.3474946 269.875976,64.1186523 C269.875976,63.7290019 269.4585,63.4259451 268.623535,63.2094726 L267.899902,63.0146484 C267.541176,62.9280594 267.179363,62.8090014 266.814453,62.6574707 C266.449542,62.50594 266.114015,62.3064791 265.807861,62.059082 C265.501707,61.8116849 265.254314,61.5101743 265.065673,61.154541 C264.877033,60.7989077 264.782714,60.3613307 264.782714,59.8417968 C264.782714,59.4274067 264.873941,59.0331236 265.056396,58.6589355 C265.238851,58.2847474 265.498614,57.955405 265.835693,57.6708984 C266.172771,57.3863918 266.582517,57.1606453 267.064941,56.9936523 C267.547365,56.8266593 268.085446,56.743164 268.679199,56.743164 C269.526534,56.743164 270.28263,56.876138 270.947509,57.1420898 C271.612389,57.4080417 272.136554,57.7080061 272.520019,58.0419922 L271.184082,59.7490234 C270.86865,59.5201811 270.496014,59.3238126 270.066162,59.1599121 C269.636309,58.9960115 269.204917,58.9140625 268.771972,58.9140625 C268.369952,58.9140625 268.057618,58.9867343 267.83496,59.13208 C267.612303,59.2774258 267.500976,59.4521474 267.500976,59.65625 C267.500976,59.8727224 267.598387,60.047444 267.793212,60.1804199 C267.988038,60.3133958 268.270994,60.4293614 268.642089,60.5283203 L269.718261,60.8344726 C270.744959,61.1251642 271.480954,61.5179011 271.926269,62.0126953 C272.371584,62.5074894 272.594238,63.1321576 272.594238,63.8867187 C272.594238,64.3072937 272.50765,64.7077617 272.334472,65.0881347 C272.161294,65.4685077 271.907716,65.8071274 271.57373,66.1040039 C271.239744,66.4008804 270.82536,66.6343578 270.330566,66.8044433 C269.835772,66.9745288 269.272952,67.0595703 268.642089,67.0595703 C268.159665,67.0595703 267.706626,67.0162764 267.282959,66.9296875 C266.859291,66.8430985 266.466554,66.7240404 266.104736,66.5725097 C265.742918,66.420979 265.416668,66.2493499 265.125976,66.0576172 C264.835285,65.8658844 264.587891,65.6741546 264.383789,65.4824218 L265.8125,63.7011718 Z M276.388671,62.7919922 C276.431966,63.0888686 276.526285,63.3610013 276.67163,63.6083984 C276.816976,63.8557955 277.000975,64.067626 277.223632,64.2438964 C277.44629,64.4201669 277.70296,64.5577794 277.993652,64.6567382 C278.284343,64.7556971 278.593585,64.8051757 278.921386,64.8051757 C279.298667,64.8051757 279.706866,64.7325039 280.145996,64.5871582 C280.585125,64.4418124 280.98714,64.2299818 281.35205,63.9516601 L282.585937,65.7514648 C282.122068,66.1411152 281.553063,66.4565417 280.878906,66.6977539 C280.204749,66.938966 279.487308,67.0595703 278.726562,67.0595703 C278.040035,67.0595703 277.39372,66.9420584 276.787597,66.7070312 C276.181474,66.472004 275.651125,66.1318381 275.196533,65.6865234 C274.741941,65.2412087 274.38322,64.7000357 274.120361,64.0629882 C273.857502,63.4259408 273.726074,62.7085 273.726074,61.9106445 C273.726074,61.1808231 273.842039,60.5004914 274.073974,59.8696289 C274.305909,59.2387663 274.630613,58.6914085 275.048095,58.227539 C275.465578,57.7636695 275.965003,57.4003105 276.546386,57.1374511 C277.127769,56.8745917 277.770992,56.743164 278.476074,56.743164 C279.131676,56.743164 279.740882,56.8622221 280.30371,57.1003418 C280.866539,57.3384614 281.355141,57.6724425 281.769531,58.1022949 C282.183921,58.5321473 282.508625,59.0470347 282.743652,59.6469726 C282.978679,60.2469105 283.096191,60.9086878 283.096191,61.6323242 L283.096191,62.7919922 L276.388671,62.7919922 Z M278.466796,58.9697265 C277.916338,58.9697265 277.450929,59.1537253 277.070556,59.5217285 C276.690183,59.8897316 276.469075,60.3334935 276.407226,60.8530273 L280.415039,60.8530273 C280.402669,60.3273085 280.210939,59.8820005 279.839843,59.5170898 C279.468748,59.1521791 279.01107,58.9697265 278.466796,58.9697265 Z" id="path-2"></path>
        <path d="M343.001465,53.5703125 L352.121094,53.5703125 L352.121094,55.0361328 L348.382324,55.0361328 L348.382324,66.8740234 L346.740234,66.8740234 L346.740234,55.0361328 L343.001465,55.0361328 L343.001465,53.5703125 Z M357.344238,58.7841797 L357.09375,58.7841797 C356.69173,58.7841797 356.30827,58.8305659 355.943359,58.9233398 C355.578449,59.0161137 355.256837,59.1831042 354.978516,59.4243164 C354.700194,59.6655285 354.47754,59.9948709 354.310547,60.4123535 C354.143554,60.829836 354.060059,61.363278 354.060059,62.0126953 L354.060059,66.8740234 L352.501465,66.8740234 L352.501465,57.3925781 L354.060059,57.3925781 L354.060059,58.8955078 C354.177572,58.6171861 354.335285,58.3728851 354.533203,58.1625976 C354.731121,57.9523101 354.955321,57.7775885 355.20581,57.6384277 C355.4563,57.4992668 355.72534,57.3956709 356.012939,57.3276367 C356.300538,57.2596025 356.592772,57.2255859 356.889648,57.2255859 L357.344238,57.2255859 L357.344238,58.7841797 Z M360.730469,66.8740234 L359.171875,66.8740234 L359.171875,57.3925781 L360.730469,57.3925781 L360.730469,66.8740234 Z M358.884277,54.6557617 C358.884277,54.5073234 358.913655,54.3681647 358.972412,54.2382812 C359.031169,54.1083978 359.108479,53.9939783 359.204346,53.8950195 C359.300212,53.7960607 359.414631,53.717204 359.547607,53.6584472 C359.680583,53.5996904 359.821288,53.5703125 359.969726,53.5703125 C360.118165,53.5703125 360.257324,53.5996904 360.387207,53.6584472 C360.51709,53.717204 360.629964,53.7960607 360.72583,53.8950195 C360.821696,53.9939783 360.899007,54.1083978 360.957764,54.2382812 C361.01652,54.3681647 361.045898,54.5073234 361.045898,54.6557617 C361.045898,54.8041999 361.01652,54.9449049 360.957764,55.0778808 C360.899007,55.2108567 360.821696,55.3252762 360.72583,55.4211425 C360.629964,55.5170089 360.51709,55.5943193 360.387207,55.6530761 C360.257324,55.7118329 360.118165,55.7412109 359.969726,55.7412109 C359.821288,55.7412109 359.680583,55.7118329 359.547607,55.6530761 C359.414631,55.5943193 359.300212,55.5170089 359.204346,55.4211425 C359.108479,55.3252762 359.031169,55.2108567 358.972412,55.0778808 C358.913655,54.9449049 358.884277,54.8041999 358.884277,54.6557617 Z M365.137207,66.8740234 L363.578613,66.8740234 L363.578613,53.5703125 L365.137207,53.5703125 L365.137207,58.4780273 C365.415529,58.0883769 365.792804,57.7791352 366.269043,57.5502929 C366.745282,57.3214506 367.29264,57.2070312 367.911133,57.2070312 C368.52344,57.2070312 369.076983,57.3291817 369.571777,57.5734863 C370.066571,57.8177909 370.490233,58.159503 370.842773,58.5986328 C371.195314,59.0377626 371.465901,59.5588348 371.654541,60.1618652 C371.843181,60.7648956 371.9375,61.4251266 371.9375,62.1425781 C371.9375,62.8600296 371.843181,63.5187144 371.654541,64.1186523 C371.465901,64.7185902 371.195314,65.23657 370.842773,65.6726074 C370.490233,66.1086447 370.066571,66.4488106 369.571777,66.6931152 C369.076983,66.9374198 368.52344,67.0595703 367.911133,67.0595703 C367.29264,67.0595703 366.745282,66.9451508 366.269043,66.7163086 C365.792804,66.4874663 365.415529,66.1782246 365.137207,65.7885742 L365.137207,66.8740234 Z M370.323242,62.086914 C370.323242,61.5921199 370.264486,61.1313498 370.146973,60.7045898 C370.029459,60.2778299 369.856284,59.908286 369.627441,59.5959472 C369.398599,59.2836084 369.115643,59.0377613 368.778564,58.8583984 C368.441486,58.6790355 368.05648,58.5893554 367.623535,58.5893554 C367.209145,58.5893554 366.845786,58.660481 366.533447,58.8027343 C366.221108,58.9449877 365.959799,59.1398099 365.749512,59.387207 C365.539224,59.6346041 365.379965,59.9268375 365.271728,60.263916 C365.163492,60.6009945 365.109375,60.9674459 365.109375,61.3632812 L365.109375,62.9033203 C365.109375,63.2991556 365.163492,63.665607 365.271728,64.0026855 C365.379965,64.339764 365.539224,64.6319974 365.749512,64.8793945 C365.959799,65.1267916 366.221108,65.3216138 366.533447,65.4638672 C366.845786,65.6061205 367.209145,65.6772461 367.623535,65.6772461 C368.05648,65.6772461 368.441486,65.587566 368.778564,65.4082031 C369.115643,65.2288402 369.398599,64.9829931 369.627441,64.6706543 C369.856284,64.3583155 370.029459,63.9887716 370.146973,63.5620117 C370.264486,63.1352517 370.323242,62.6744816 370.323242,62.1796875 L370.323242,62.086914 Z M381.660156,66.8740234 L380.101562,66.8740234 L380.101562,65.7885742 C379.779946,66.227704 379.382571,66.5493153 378.909424,66.7534179 C378.436277,66.9575205 377.90902,67.0595703 377.327637,67.0595703 C376.801918,67.0595703 376.341148,66.9729826 375.945312,66.7998047 C375.549477,66.6266267 375.218589,66.391603 374.952637,66.0947265 C374.686685,65.79785 374.487224,65.4545918 374.354248,65.0649414 C374.221272,64.675291 374.154785,64.2639995 374.154785,63.8310547 L374.154785,57.3925781 L375.713379,57.3925781 L375.713379,63.3393554 C375.713379,63.7599305 375.764404,64.1155584 375.866455,64.40625 C375.968506,64.6969415 376.107665,64.9335114 376.283935,65.1159668 C376.460206,65.2984221 376.667398,65.431396 376.905518,65.5148925 C377.143637,65.5983891 377.398762,65.6401367 377.670898,65.6401367 C377.992515,65.6401367 378.30021,65.5860194 378.593994,65.4777832 C378.887778,65.3695469 379.145995,65.2071951 379.368652,64.9907226 C379.59131,64.7742502 379.769124,64.5021175 379.9021,64.1743164 C380.035075,63.8465153 380.101562,63.4599631 380.101562,63.0146484 L380.101562,57.3925781 L381.660156,57.3925781 L381.660156,66.8740234 Z M384.517578,57.3925781 L386.076172,57.3925781 L386.076172,58.4780273 C386.397788,58.0388975 386.795164,57.7172861 387.26831,57.5131836 C387.741457,57.309081 388.268714,57.2070312 388.850098,57.2070312 C389.375816,57.2070312 389.836586,57.2936189 390.232422,57.4667968 C390.628257,57.6399748 390.959146,57.8749985 391.225098,58.171875 C391.491049,58.4687514 391.69051,58.8120097 391.823486,59.2016601 C391.956462,59.5913105 392.022949,60.002602 392.022949,60.4355468 L392.022949,66.8740234 L390.464355,66.8740234 L390.464355,60.9272461 C390.464355,60.512856 390.413331,60.1587742 390.311279,59.8649902 C390.209228,59.5712062 390.070069,59.3330901 389.893799,59.1506347 C389.717528,58.9681794 389.510336,58.8352055 389.272217,58.7517089 C389.034097,58.6682124 388.778973,58.6264648 388.506836,58.6264648 C388.209959,58.6264648 387.917726,58.6805821 387.630127,58.7888183 C387.342528,58.8970545 387.082765,59.0594064 386.85083,59.2758789 C386.618895,59.4923513 386.431804,59.764484 386.289551,60.0922851 C386.147297,60.4200862 386.076172,60.8066384 386.076172,61.2519531 L386.076172,66.8740234 L384.517578,66.8740234 L384.517578,57.3925781 Z M400.187012,65.9277343 C399.90869,66.2493505 399.532961,66.5183908 399.059814,66.7348632 C398.586667,66.9513357 398.031579,67.0595703 397.394531,67.0595703 C396.924477,67.0595703 396.488446,66.9930833 396.086426,66.8601074 C395.684405,66.7271315 395.334962,66.5369478 395.038086,66.2895507 C394.741209,66.0421537 394.509278,65.7421892 394.342285,65.3896484 C394.175292,65.0371076 394.091797,64.6381858 394.091797,64.1928711 C394.091797,63.8217755 394.152099,63.4831558 394.272705,63.1770019 C394.393311,62.870848 394.563394,62.603354 394.782959,62.3745117 C395.002524,62.1456694 395.266925,61.9585782 395.576172,61.8132324 C395.885418,61.6678866 396.231769,61.5673831 396.615234,61.5117187 L399.964355,61.0571289 L399.964355,60.4541015 C399.964355,60.0953758 399.908692,59.7938651 399.797363,59.5495605 C399.686035,59.3052559 399.536052,59.1119798 399.347412,58.9697265 C399.158772,58.8274732 398.936118,58.7254234 398.679443,58.6635742 C398.422769,58.6017249 398.145998,58.5708007 397.849121,58.5708007 C397.317217,58.5708007 396.820884,58.6450188 396.360107,58.793457 C395.89933,58.9418952 395.4834,59.1150706 395.112305,59.3129882 L394.527832,58.0791015 C395.072106,57.7698552 395.642656,57.5472012 396.239502,57.4111328 C396.836347,57.2750644 397.425453,57.2070312 398.006836,57.2070312 C399.163417,57.2070312 400.038571,57.4683404 400.632324,57.9909668 C401.226077,58.5135931 401.522949,59.2758739 401.522949,60.277832 L401.522949,64.6474609 C401.522949,64.9628922 401.584797,65.2272938 401.708496,65.4406738 C401.832195,65.6540538 402.030109,65.8225905 402.302246,65.946289 L401.420898,67.0595703 C401.124022,66.9853512 400.868897,66.8539234 400.655518,66.6652832 C400.442138,66.4766429 400.292155,66.2493503 400.205566,65.9833984 L400.187012,65.9277343 Z M397.413086,62.652832 C397.153319,62.6899416 396.916749,62.7425126 396.703369,62.8105468 C396.489989,62.878581 396.309083,62.9698073 396.160644,63.0842285 C396.012206,63.1986496 395.896241,63.3393546 395.812744,63.5063476 C395.729248,63.6733406 395.6875,63.8774402 395.6875,64.1186523 C395.6875,64.396974 395.740071,64.6443674 395.845215,64.8608398 C395.950359,65.0773122 396.09261,65.2597648 396.271973,65.4082031 C396.451335,65.5566413 396.660074,65.6695145 396.898193,65.7468261 C397.136313,65.8241377 397.385253,65.8627929 397.645019,65.8627929 C397.935711,65.8627929 398.220213,65.8225915 398.498535,65.7421875 C398.776857,65.6617834 399.02425,65.5458178 399.240723,65.3942871 C399.457195,65.2427564 399.631917,65.0587576 399.764893,64.8422851 C399.897868,64.6258127 399.964355,64.3784193 399.964355,64.1000976 L399.964355,62.2724609 L397.413086,62.652832 Z M404.287598,53.5703125 L405.846191,53.5703125 L405.846191,64.7495117 C405.846191,64.9041349 405.860107,65.0402012 405.887939,65.1577148 C405.915772,65.2752284 405.963704,65.3741858 406.031738,65.4545898 C406.099772,65.5349939 406.194091,65.595296 406.314697,65.635498 C406.435303,65.6757 406.585285,65.6958007 406.764648,65.6958007 C406.962566,65.6958007 407.141926,65.6896159 407.302734,65.6772461 C407.463542,65.6648762 407.605794,65.6525065 407.729492,65.6401367 L407.887207,66.9482422 L407.349121,67.0039062 C407.194498,67.0162761 407.024415,67.0286457 406.838867,67.0410156 C406.653319,67.0533854 406.477052,67.0595703 406.310059,67.0595703 C406.031737,67.0595703 405.768881,67.0270999 405.521484,66.9621582 C405.274087,66.8972164 405.059164,66.790528 404.876709,66.6420898 C404.694254,66.4936516 404.550456,66.3019217 404.445312,66.0668945 C404.340169,65.8318673 404.287598,65.5442725 404.287598,65.2041015 L404.287598,53.5703125 Z M417.507812,58.7841797 L417.257324,58.7841797 C416.855304,58.7841797 416.471844,58.8305659 416.106934,58.9233398 C415.742023,59.0161137 415.420411,59.1831042 415.14209,59.4243164 C414.863768,59.6655285 414.641114,59.9948709 414.474121,60.4123535 C414.307128,60.829836 414.223633,61.363278 414.223633,62.0126953 L414.223633,66.8740234 L412.665039,66.8740234 L412.665039,57.3925781 L414.223633,57.3925781 L414.223633,58.8955078 C414.341146,58.6171861 414.49886,58.3728851 414.696777,58.1625976 C414.894695,57.9523101 415.118895,57.7775885 415.369385,57.6384277 C415.619874,57.4992668 415.888915,57.3956709 416.176514,57.3276367 C416.464113,57.2596025 416.756346,57.2255859 417.053223,57.2255859 L417.507812,57.2255859 L417.507812,58.7841797 Z M420.161133,62.6157226 C420.192057,63.0610373 420.281737,63.4723288 420.430176,63.8496093 C420.578614,64.2268899 420.781167,64.5531399 421.037842,64.8283691 C421.294516,65.1035983 421.597573,65.3169751 421.947021,65.4685058 C422.29647,65.6200365 422.684568,65.6958007 423.111328,65.6958007 C423.637047,65.6958007 424.099363,65.6076669 424.498291,65.4313964 C424.897219,65.255126 425.26367,65.0340182 425.597656,64.7680664 L426.395508,65.890625 C425.968748,66.2307959 425.475507,66.5106597 424.915771,66.7302246 C424.356036,66.9497895 423.729821,67.0595703 423.037109,67.0595703 C422.350582,67.0595703 421.729007,66.9374198 421.172363,66.6931152 C420.61572,66.4488106 420.141034,66.1086447 419.748291,65.6726074 C419.355548,65.23657 419.054037,64.717044 418.84375,64.1140136 C418.633462,63.5109833 418.52832,62.8538447 418.52832,62.1425781 C418.52832,61.4189417 418.631916,60.7556182 418.839111,60.1525879 C419.046306,59.5495575 419.33854,59.0300314 419.71582,58.5939941 C420.093101,58.1579568 420.544594,57.8177909 421.070312,57.5734863 C421.596031,57.3291817 422.180498,57.2070312 422.82373,57.2070312 C423.448408,57.2070312 424.011228,57.3291817 424.512207,57.5734863 C425.013186,57.8177909 425.43994,58.1579568 425.79248,58.5939941 C426.145021,59.0300314 426.415608,59.5495575 426.604248,60.1525879 C426.792888,60.7556182 426.887207,61.4127568 426.887207,62.1240234 L426.887207,62.6157226 L420.161133,62.6157226 Z M422.768066,58.5708007 C422.372231,58.5708007 422.019695,58.6481112 421.710449,58.8027343 C421.401203,58.9573575 421.136801,59.1645494 420.917236,59.4243164 C420.697671,59.6840833 420.524496,59.9825015 420.397705,60.31958 C420.270914,60.6566585 420.198242,61.0045555 420.179687,61.3632812 L425.19873,61.3632812 C425.186361,60.9983705 425.122966,60.6473812 425.008545,60.3103027 C424.894124,59.9732242 424.733318,59.6763522 424.526123,59.4196777 C424.318928,59.1630032 424.068442,58.9573575 423.774658,58.8027343 C423.480874,58.6481112 423.145347,58.5708007 422.768066,58.5708007 Z M430.959961,66.8740234 L427.954101,57.3925781 L429.726074,57.3925781 L431.999023,65.4267578 L434.262695,57.3925781 L436.034668,57.3925781 L433.028809,66.8740234 L430.959961,66.8740234 Z M439.476562,66.8740234 L437.917969,66.8740234 L437.917969,57.3925781 L439.476562,57.3925781 L439.476562,66.8740234 Z M437.630371,54.6557617 C437.630371,54.5073234 437.659749,54.3681647 437.718506,54.2382812 C437.777263,54.1083978 437.854573,53.9939783 437.950439,53.8950195 C438.046306,53.7960607 438.160725,53.717204 438.293701,53.6584472 C438.426677,53.5996904 438.567382,53.5703125 438.71582,53.5703125 C438.864258,53.5703125 439.003417,53.5996904 439.133301,53.6584472 C439.263184,53.717204 439.376057,53.7960607 439.471924,53.8950195 C439.56779,53.9939783 439.645101,54.1083978 439.703857,54.2382812 C439.762614,54.3681647 439.791992,54.5073234 439.791992,54.6557617 C439.791992,54.8041999 439.762614,54.9449049 439.703857,55.0778808 C439.645101,55.2108567 439.56779,55.3252762 439.471924,55.4211425 C439.376057,55.5170089 439.263184,55.5943193 439.133301,55.6530761 C439.003417,55.7118329 438.864258,55.7412109 438.71582,55.7412109 C438.567382,55.7412109 438.426677,55.7118329 438.293701,55.6530761 C438.160725,55.5943193 438.046306,55.5170089 437.950439,55.4211425 C437.854573,55.3252762 437.777263,55.2108567 437.718506,55.0778808 C437.659749,54.9449049 437.630371,54.8041999 437.630371,54.6557617 Z M443.382324,62.6157226 C443.413249,63.0610373 443.502929,63.4723288 443.651367,63.8496093 C443.799805,64.2268899 444.002359,64.5531399 444.259033,64.8283691 C444.515708,65.1035983 444.818764,65.3169751 445.168213,65.4685058 C445.517661,65.6200365 445.90576,65.6958007 446.332519,65.6958007 C446.858238,65.6958007 447.320555,65.6076669 447.719482,65.4313964 C448.11841,65.255126 448.484862,65.0340182 448.818848,64.7680664 L449.616699,65.890625 C449.189939,66.2307959 448.696699,66.5106597 448.136963,66.7302246 C447.577227,66.9497895 446.951013,67.0595703 446.258301,67.0595703 C445.571774,67.0595703 444.950198,66.9374198 444.393555,66.6931152 C443.836911,66.4488106 443.362225,66.1086447 442.969482,65.6726074 C442.57674,65.23657 442.275229,64.717044 442.064941,64.1140136 C441.854654,63.5109833 441.749512,62.8538447 441.749512,62.1425781 C441.749512,61.4189417 441.853108,60.7556182 442.060303,60.1525879 C442.267498,59.5495575 442.559731,59.0300314 442.937012,58.5939941 C443.314292,58.1579568 443.765785,57.8177909 444.291504,57.5734863 C444.817223,57.3291817 445.401689,57.2070312 446.044922,57.2070312 C446.669599,57.2070312 447.232419,57.3291817 447.733398,57.5734863 C448.234377,57.8177909 448.661131,58.1579568 449.013672,58.5939941 C449.366213,59.0300314 449.636799,59.5495575 449.825439,60.1525879 C450.01408,60.7556182 450.108398,61.4127568 450.108398,62.1240234 L450.108398,62.6157226 L443.382324,62.6157226 Z M445.989258,58.5708007 C445.593422,58.5708007 445.240887,58.6481112 444.931641,58.8027343 C444.622394,58.9573575 444.357993,59.1645494 444.138428,59.4243164 C443.918863,59.6840833 443.745687,59.9825015 443.618896,60.31958 C443.492105,60.6566585 443.419434,61.0045555 443.400879,61.3632812 L448.419922,61.3632812 C448.407552,60.9983705 448.344157,60.6473812 448.229736,60.3103027 C448.115315,59.9732242 447.954509,59.6763522 447.747314,59.4196777 C447.540119,59.1630032 447.289634,58.9573575 446.99585,58.8027343 C446.702066,58.6481112 446.366538,58.5708007 445.989258,58.5708007 Z M460.480469,65.027832 L462.196777,57.3925781 L463.848144,57.3925781 L461.528809,66.8740234 L459.53418,66.8740234 L457.613769,59.2758789 L455.65625,66.8740234 L453.73584,66.8740234 L451.435059,57.3925781 L453.114258,57.3925781 L454.765625,65.027832 L456.760254,57.3925781 L458.522949,57.3925781 L460.480469,65.027832 Z" id="path-3"></path>
        <path d="M561.592285,60.2221679 C561.592285,61.2179411 561.468588,62.1255655 561.221191,62.9450683 C560.973794,63.7645711 560.596519,64.4650036 560.089355,65.0463867 C559.582191,65.6277698 558.9467,66.0777165 558.182861,66.3962402 C557.419023,66.7147639 556.520676,66.8740234 555.487793,66.8740234 L551.220215,66.8740234 L551.220215,53.5703125 L555.487793,53.5703125 C556.520676,53.5703125 557.419023,53.7295719 558.182861,54.0480957 C558.9467,54.3666194 559.582191,54.8165661 560.089355,55.3979492 C560.596519,55.9793323 560.973794,56.6797647 561.221191,57.4992675 C561.468588,58.3187703 561.592285,59.2263947 561.592285,60.2221679 Z M559.838867,59.9624023 C559.838867,59.2696905 559.752279,58.6202829 559.579101,58.0141601 C559.405923,57.4080373 559.141522,56.8807802 558.785889,56.432373 C558.430255,55.9839658 557.97567,55.6298841 557.422119,55.3701172 C556.868568,55.1103502 556.211429,54.9804687 555.450683,54.9804687 L552.853027,54.9804687 L552.853027,65.4638672 L555.450683,65.4638672 C556.211429,65.4638672 556.868568,65.3355318 557.422119,65.0788574 C557.97567,64.8221829 558.430255,64.4696474 558.785889,64.0212402 C559.141522,63.572833 559.405923,63.0455759 559.579101,62.4394531 C559.752279,61.8333303 559.838867,61.1839227 559.838867,60.4912109 L559.838867,59.9624023 Z M565.182617,62.6157226 C565.213542,63.0610373 565.303222,63.4723288 565.45166,63.8496093 C565.600098,64.2268899 565.802652,64.5531399 566.059326,64.8283691 C566.316001,65.1035983 566.619057,65.3169751 566.968506,65.4685058 C567.317954,65.6200365 567.706052,65.6958007 568.132812,65.6958007 C568.658531,65.6958007 569.120847,65.6076669 569.519775,65.4313964 C569.918703,65.255126 570.285154,65.0340182 570.61914,64.7680664 L571.416992,65.890625 C570.990232,66.2307959 570.496992,66.5106597 569.937256,66.7302246 C569.37752,66.9497895 568.751305,67.0595703 568.058594,67.0595703 C567.372067,67.0595703 566.750491,66.9374198 566.193848,66.6931152 C565.637204,66.4488106 565.162518,66.1086447 564.769775,65.6726074 C564.377032,65.23657 564.075522,64.717044 563.865234,64.1140136 C563.654947,63.5109833 563.549805,62.8538447 563.549805,62.1425781 C563.549805,61.4189417 563.653401,60.7556182 563.860596,60.1525879 C564.067791,59.5495575 564.360024,59.0300314 564.737305,58.5939941 C565.114585,58.1579568 565.566078,57.8177909 566.091797,57.5734863 C566.617516,57.3291817 567.201982,57.2070312 567.845215,57.2070312 C568.469892,57.2070312 569.032712,57.3291817 569.533691,57.5734863 C570.03467,57.8177909 570.461424,58.1579568 570.813965,58.5939941 C571.166506,59.0300314 571.437092,59.5495575 571.625732,60.1525879 C571.814373,60.7556182 571.908691,61.4127568 571.908691,62.1240234 L571.908691,62.6157226 L565.182617,62.6157226 Z M567.789551,58.5708007 C567.393715,58.5708007 567.04118,58.6481112 566.731933,58.8027343 C566.422687,58.9573575 566.158285,59.1645494 565.938721,59.4243164 C565.719156,59.6840833 565.54598,59.9825015 565.419189,60.31958 C565.292398,60.6566585 565.219727,61.0045555 565.201172,61.3632812 L570.220215,61.3632812 C570.207845,60.9983705 570.14445,60.6473812 570.030029,60.3103027 C569.915608,59.9732242 569.754802,59.6763522 569.547607,59.4196777 C569.340412,59.1630032 569.089926,58.9573575 568.796142,58.8027343 C568.502358,58.6481112 568.166831,58.5708007 567.789551,58.5708007 Z M575.118652,62.1796875 C575.118652,62.6559268 575.177408,63.1074197 575.294922,63.5341797 C575.412435,63.9609396 575.585611,64.3335758 575.814453,64.6520996 C576.043295,64.9706233 576.329344,65.2242015 576.672607,65.4128418 C577.015871,65.601482 577.416339,65.6958007 577.874023,65.6958007 C578.1709,65.6958007 578.444579,65.6540531 578.695068,65.5705566 C578.945558,65.4870601 579.171304,65.3741869 579.372314,65.2319336 C579.573324,65.0896802 579.752685,64.9211435 579.9104,64.7263183 C580.068116,64.5314931 580.205728,64.322755 580.323242,64.1000976 L581.62207,64.8422851 C581.461262,65.1762712 581.255616,65.4808742 581.005127,65.7561035 C580.754637,66.0313327 580.468589,66.2648102 580.146973,66.4565429 C579.825356,66.6482757 579.472821,66.7967117 579.089355,66.9018554 C578.70589,67.0069992 578.300783,67.0595703 577.874023,67.0595703 C577.218421,67.0595703 576.623131,66.9374198 576.088135,66.6931152 C575.553138,66.4488106 575.093915,66.1086447 574.710449,65.6726074 C574.326984,65.23657 574.030112,64.7185902 573.819824,64.1186523 C573.609537,63.5187144 573.504394,62.8600296 573.504394,62.1425781 C573.504394,61.4189417 573.609537,60.7556182 573.819824,60.1525879 C574.030112,59.5495575 574.326984,59.0300314 574.710449,58.5939941 C575.093915,58.1579568 575.553138,57.8177909 576.088135,57.5734863 C576.623131,57.3291817 577.218421,57.2070312 577.874023,57.2070312 C578.300783,57.2070312 578.70589,57.2596023 579.089355,57.3647461 C579.472821,57.4698898 579.825356,57.6183258 580.146973,57.8100586 C580.468589,58.0017913 580.754637,58.2352688 581.005127,58.510498 C581.255616,58.7857273 581.461262,59.0903303 581.62207,59.4243164 L580.323242,60.1665039 C580.205728,59.9438465 580.068116,59.7351084 579.9104,59.5402832 C579.752685,59.345458 579.573324,59.1769212 579.372314,59.0346679 C579.171304,58.8924146 578.945558,58.7795414 578.695068,58.6960449 C578.444579,58.6125484 578.1709,58.5708007 577.874023,58.5708007 C577.416339,58.5708007 577.015871,58.6651195 576.672607,58.8537597 C576.329344,59.0424 576.043295,59.2959782 575.814453,59.6145019 C575.585611,59.9330256 575.412435,60.3056619 575.294922,60.7324218 C575.177408,61.1591818 575.118652,61.6106747 575.118652,62.086914 L575.118652,62.1796875 Z M585.351562,66.8740234 L583.792969,66.8740234 L583.792969,57.3925781 L585.351562,57.3925781 L585.351562,66.8740234 Z M583.505371,54.6557617 C583.505371,54.5073234 583.534749,54.3681647 583.593506,54.2382812 C583.652263,54.1083978 583.729573,53.9939783 583.825439,53.8950195 C583.921306,53.7960607 584.035725,53.717204 584.168701,53.6584472 C584.301677,53.5996904 584.442382,53.5703125 584.59082,53.5703125 C584.739258,53.5703125 584.878417,53.5996904 585.008301,53.6584472 C585.138184,53.717204 585.251057,53.7960607 585.346924,53.8950195 C585.44279,53.9939783 585.5201,54.1083978 585.578857,54.2382812 C585.637614,54.3681647 585.666992,54.5073234 585.666992,54.6557617 C585.666992,54.8041999 585.637614,54.9449049 585.578857,55.0778808 C585.5201,55.2108567 585.44279,55.3252762 585.346924,55.4211425 C585.251057,55.5170089 585.138184,55.5943193 585.008301,55.6530761 C584.878417,55.7118329 584.739258,55.7412109 584.59082,55.7412109 C584.442382,55.7412109 584.301677,55.7118329 584.168701,55.6530761 C584.035725,55.5943193 583.921306,55.5170089 583.825439,55.4211425 C583.729573,55.3252762 583.652263,55.2108567 583.593506,55.0778808 C583.534749,54.9449049 583.505371,54.8041999 583.505371,54.6557617 Z M594.54541,64.2485351 C594.54541,64.6938498 594.447999,65.0912254 594.253174,65.4406738 C594.058349,65.7901222 593.800132,66.085448 593.478515,66.3266601 C593.156899,66.5678723 592.787355,66.7503249 592.369873,66.8740234 C591.95239,66.9977219 591.524091,67.0595703 591.084961,67.0595703 C590.392249,67.0595703 589.725833,66.9405122 589.085693,66.7023925 C588.445553,66.4642729 587.878095,66.1225608 587.383301,65.6772461 L588.236816,64.5732422 C588.385255,64.7031256 588.556884,64.839192 588.751709,64.9814453 C588.946534,65.1236986 589.164549,65.2551263 589.405762,65.3757324 C589.646974,65.4963385 589.906737,65.5952958 590.185058,65.6726074 C590.46338,65.749919 590.75716,65.7885742 591.066406,65.7885742 C591.319988,65.7885742 591.562743,65.7561038 591.794678,65.6911621 C592.026612,65.6262203 592.229166,65.5303554 592.402344,65.4035644 C592.575522,65.2767734 592.713134,65.125245 592.815185,64.9489746 C592.917237,64.7727042 592.968262,64.5732433 592.968262,64.3505859 C592.968262,64.1031888 592.914144,63.8959969 592.805908,63.7290039 C592.697672,63.5620108 592.550782,63.4197597 592.365234,63.3022461 C592.179686,63.1847324 591.963217,63.0826827 591.71582,62.9960937 C591.468423,62.9095047 591.20866,62.8229171 590.936523,62.7363281 L590.342773,62.5415039 C590.008787,62.4301752 589.687176,62.3033861 589.37793,62.1611328 C589.068683,62.0188795 588.795004,61.8441579 588.556885,61.6369629 C588.318765,61.4297678 588.130128,61.1839207 587.990967,60.899414 C587.851806,60.6149074 587.782226,60.2747415 587.782226,59.8789062 C587.782226,59.55729 587.85026,59.2372249 587.986328,58.9187011 C588.122396,58.6001774 588.331135,58.3141288 588.612549,58.0605468 C588.893963,57.8069648 589.251137,57.6013191 589.684082,57.4436035 C590.117027,57.2858878 590.627276,57.2070312 591.214844,57.2070312 C591.864261,57.2070312 592.465736,57.3152658 593.019287,57.5317382 C593.572838,57.7482107 594.041339,58.017251 594.424805,58.3388672 L593.608398,59.4614257 C593.47233,59.3315423 593.311524,59.2078456 593.125976,59.090332 C592.940429,58.9728184 592.742514,58.8692224 592.532226,58.779541 C592.321939,58.6898595 592.102377,58.6171877 591.873535,58.5615234 C591.644693,58.5058591 591.418946,58.4780273 591.196289,58.4780273 C590.856118,58.4780273 590.568523,58.5166825 590.333496,58.5939941 C590.098469,58.6713057 589.909831,58.7718092 589.767578,58.8955078 C589.625325,59.0192063 589.521729,59.1583651 589.456787,59.3129882 C589.391845,59.4676114 589.359375,59.6191398 589.359375,59.7675781 C589.359375,59.9840505 589.405761,60.1649569 589.498535,60.3103027 C589.591309,60.4556485 589.713459,60.5808914 589.86499,60.6860351 C590.016521,60.7911789 590.189696,60.880859 590.384521,60.9550781 C590.579347,61.0292972 590.7819,61.1035152 590.992187,61.1777343 L591.771484,61.4375 C592.14258,61.5611985 592.482746,61.6926262 592.791992,61.8317871 C593.101238,61.9709479 593.373371,62.1302074 593.608398,62.3095703 C593.905275,62.5445975 594.13566,62.8167302 594.29956,63.1259765 C594.463461,63.4352229 594.54541,63.8094053 594.54541,64.2485351 Z M598.497558,66.8740234 L596.938965,66.8740234 L596.938965,57.3925781 L598.497558,57.3925781 L598.497558,66.8740234 Z M596.651367,54.6557617 C596.651367,54.5073234 596.680745,54.3681647 596.739502,54.2382812 C596.798259,54.1083978 596.875569,53.9939783 596.971435,53.8950195 C597.067302,53.7960607 597.181721,53.717204 597.314697,53.6584472 C597.447673,53.5996904 597.588378,53.5703125 597.736816,53.5703125 C597.885255,53.5703125 598.024413,53.5996904 598.154297,53.6584472 C598.28418,53.717204 598.397053,53.7960607 598.49292,53.8950195 C598.588786,53.9939783 598.666097,54.1083978 598.724853,54.2382812 C598.78361,54.3681647 598.812988,54.5073234 598.812988,54.6557617 C598.812988,54.8041999 598.78361,54.9449049 598.724853,55.0778808 C598.666097,55.2108567 598.588786,55.3252762 598.49292,55.4211425 C598.397053,55.5170089 598.28418,55.5943193 598.154297,55.6530761 C598.024413,55.7118329 597.885255,55.7412109 597.736816,55.7412109 C597.588378,55.7412109 597.447673,55.7118329 597.314697,55.6530761 C597.181721,55.5943193 597.067302,55.5170089 596.971435,55.4211425 C596.875569,55.3252762 596.798259,55.2108567 596.739502,55.0778808 C596.680745,54.9449049 596.651367,54.8041999 596.651367,54.6557617 Z M605.140137,57.2070312 C605.795739,57.2070312 606.392575,57.3291817 606.930664,57.5734863 C607.468753,57.8177909 607.927976,58.1579568 608.308349,58.5939941 C608.688722,59.0300314 608.984048,59.5495575 609.194336,60.1525879 C609.404623,60.7556182 609.509765,61.4189417 609.509765,62.1425781 C609.509765,62.8538447 609.404623,63.5109833 609.194336,64.1140136 C608.984048,64.717044 608.688722,65.23657 608.308349,65.6726074 C607.927976,66.1086447 607.468753,66.4488106 606.930664,66.6931152 C606.392575,66.9374198 605.795739,67.0595703 605.140137,67.0595703 C604.484534,67.0595703 603.889244,66.9374198 603.354248,66.6931152 C602.819252,66.4488106 602.360028,66.1086447 601.976562,65.6726074 C601.593097,65.23657 601.296225,64.717044 601.085937,64.1140136 C600.87565,63.5109833 600.770508,62.8538447 600.770508,62.1425781 C600.770508,61.4189417 600.87565,60.7556182 601.085937,60.1525879 C601.296225,59.5495575 601.593097,59.0300314 601.976562,58.5939941 C602.360028,58.1579568 602.819252,57.8177909 603.354248,57.5734863 C603.889244,57.3291817 604.484534,57.2070312 605.140137,57.2070312 Z M605.140137,65.6958007 C605.591636,65.6958007 605.989012,65.601482 606.332275,65.4128418 C606.675539,65.2242015 606.963133,64.9690771 607.195068,64.6474609 C607.427003,64.3258447 607.601725,63.9532085 607.719238,63.529541 C607.836752,63.1058735 607.895508,62.6621117 607.895508,62.1982422 L607.895508,62.086914 C607.895508,61.6106747 607.836752,61.1591818 607.719238,60.7324218 C607.601725,60.3056619 607.427003,59.9330256 607.195068,59.6145019 C606.963133,59.2959782 606.675539,59.0424 606.332275,58.8537597 C605.989012,58.6651195 605.591636,58.5708007 605.140137,58.5708007 C604.688637,58.5708007 604.291261,58.6651195 603.947998,58.8537597 C603.604734,59.0424 603.31714,59.2959782 603.085205,59.6145019 C602.85327,59.9330256 602.678549,60.3056619 602.561035,60.7324218 C602.443521,61.1591818 602.384765,61.6106747 602.384765,62.086914 L602.384765,62.1982422 C602.384765,62.6621117 602.443521,63.1058735 602.561035,63.529541 C602.678549,63.9532085 602.85327,64.3258447 603.085205,64.6474609 C603.31714,64.9690771 603.604734,65.2242015 603.947998,65.4128418 C604.291261,65.601482 604.688637,65.6958007 605.140137,65.6958007 Z M611.791992,57.3925781 L613.350586,57.3925781 L613.350586,58.4780273 C613.672202,58.0388975 614.069578,57.7172861 614.542724,57.5131836 C615.015871,57.309081 615.543128,57.2070312 616.124512,57.2070312 C616.65023,57.2070312 617.111,57.2936189 617.506836,57.4667968 C617.902671,57.6399748 618.23356,57.8749985 618.499512,58.171875 C618.765463,58.4687514 618.964924,58.8120097 619.0979,59.2016601 C619.230876,59.5913105 619.297363,60.002602 619.297363,60.4355468 L619.297363,66.8740234 L617.738769,66.8740234 L617.738769,60.9272461 C617.738769,60.512856 617.687745,60.1587742 617.585693,59.8649902 C617.483642,59.5712062 617.344483,59.3330901 617.168213,59.1506347 C616.991942,58.9681794 616.78475,58.8352055 616.546631,58.7517089 C616.308511,58.6682124 616.053387,58.6264648 615.78125,58.6264648 C615.484373,58.6264648 615.19214,58.6805821 614.904541,58.7888183 C614.616942,58.8970545 614.357179,59.0594064 614.125244,59.2758789 C613.893309,59.4923513 613.706218,59.764484 613.563965,60.0922851 C613.421711,60.4200862 613.350586,60.8066384 613.350586,61.2519531 L613.350586,66.8740234 L611.791992,66.8740234 L611.791992,57.3925781 Z" id="path-4"></path>
    </defs>
    <g id="Page-1" stroke="none" stroke-width="1" fill="none" fill-rule="evenodd">
        <g id="DWP-response" transform="translate(-9.000000, -13.000000)">
            <g id="Group-2" transform="translate(9.000000, 13.000000)">
                <g id="Appeal">
                    <use fill="#000000" xlink:href="#path-1"></use>
                    <use fill="#0B0C0C" xlink:href="#path-1"></use>
                </g>
                <g id="DWP-response">
                    <use fill="#000000" xlink:href="#path-2"></use>
                    <use fill="#0B0C0C" xlink:href="#path-2"></use>
                </g>
                <g id="Tribunal-review">
                    <use fill="#000000" xlink:href="#path-3"></use>
                    <use fill="#0B0C0C" xlink:href="#path-3"></use>
                </g>
                <g id="Decision">
                    <use fill="#000000" xlink:href="#path-4"></use>
                    <use fill="#0B0C0C" xlink:href="#path-4"></use>
                </g>
                <g id="Group" transform="translate(12.000000, -0.000000)">
                    <circle id="Oval-2" fill="#006435" cx="20.5" cy="20.5" r="20.5"></circle>
                    <polygon id="Path" fill="#FFFFFF" points="16.3374074 23.5619753 12.1128395 19.3374074 9 22.4502469 16.3374074 30.01 31.2345679 15.1128395 28.1217284 12"></polygon>
                </g>
                <path d="M53.5,20.5 L571.000242,20.5" id="Line" stroke="#006435" stroke-width="6" stroke-linecap="square"></path>
                <g id="Group" transform="translate(568.000000, 3.000000)" fill="#FFFFFF" stroke="#006435" stroke-width="6">
                    <circle id="Oval-2" cx="17.5" cy="17.5" r="17.5"></circle>
                </g>
                <circle id="Oval-2" stroke="#006435" stroke-width="6" fill="#006435" cx="217.5" cy="20.5" r="17.5"></circle>
                <polygon id="Path" fill="#FFFFFF" points="213.337407 23.5619753 209.11284 19.3374074 206 22.4502469 213.337407 30.01 228.234568 15.1128395 225.121728 12"></polygon>
                <circle id="Oval-2" stroke="#006435" stroke-width="6" fill="#FFFFFF" cx="401.5" cy="20.5" r="17.5"></circle>
            </g>
        </g>
    </g>
</svg>