<?xml version="1.0" encoding="UTF-8"?>
<svg width="620px" height="70px" viewBox="0 0 620 70" version="1.1" xmlns="http://www.w3.org/2000/svg" xmlns:xlink="http://www.w3.org/1999/xlink">
    <!-- Generator: Sketch 52 (66869) - http://www.bohemiancoding.com/sketch -->
    <title>cor-progress-bar-received</title>
    <desc>Created with Sketch.</desc>
    <defs>
        <path d="M8.9050293,64.1835938 L3.97875977,64.1835938 L3.22729492,66.6513672 L0.369873047,66.6513672 L4.72094727,53.3476563 L8.25561523,53.3476563 L12.6716309,66.6513672 L9.66577148,66.6513672 L8.9050293,64.1835938 Z M4.70239258,61.8085938 L8.18139648,61.8085938 L6.45581055,56.1865235 L6.41870117,56.1865235 L4.70239258,61.8085938 Z M16.5031738,69.7871094 L13.942627,69.7871094 L13.942627,56.715332 L16.5031738,56.715332 L16.5031738,57.5688477 C16.7814955,57.2781561 17.1247538,57.0307628 17.532959,56.8266602 C17.9411642,56.6225576 18.4359509,56.5205078 19.017334,56.5205078 C19.6729362,56.5205078 20.2682265,56.6519355 20.8032227,56.9147949 C21.3382188,57.1776543 21.7974427,57.5394671 22.1809082,58.0002442 C22.5643737,58.4610212 22.8612457,59.0068328 23.0715332,59.6376953 C23.2818207,60.2685579 23.3869629,60.951982 23.3869629,61.6879883 C23.3869629,62.4239946 23.2787283,63.1074187 23.0622559,63.7382813 C22.8457834,64.3691438 22.5427266,64.9134092 22.1530762,65.3710938 C21.7634258,65.8287783 21.2964708,66.1874987 20.7521973,66.4472656 C20.2079237,66.7070326 19.6079948,66.8369141 18.9523926,66.8369141 C18.661701,66.8369141 18.3972994,66.8106285 18.1591797,66.7580567 C17.92106,66.7054848 17.7030446,66.632813 17.505127,66.5400391 C17.3072093,66.4472652 17.1247567,66.3374844 16.9577637,66.2106934 C16.7907706,66.0839024 16.6392422,65.9462898 16.5031738,65.7978516 L16.5031738,69.7871094 Z M16.4289551,62.6064453 C16.4289551,62.8723972 16.4768875,63.1182443 16.5727539,63.3439942 C16.6686203,63.569744 16.8062328,63.7661125 16.9855957,63.9331055 C17.1649586,64.1000985 17.3798816,64.22998 17.6303711,64.3227539 C17.8808606,64.4155278 18.1638168,64.4619141 18.479248,64.4619141 C18.8441587,64.4619141 19.1673163,64.3954271 19.4487305,64.2624512 C19.7301446,64.1294753 19.9667145,63.942384 20.1584473,63.7011719 C20.35018,63.4599597 20.4955236,63.1739112 20.5944824,62.8430176 C20.6934413,62.512124 20.7429199,62.148765 20.7429199,61.7529297 L20.7429199,61.6323242 C20.7429199,61.2364889 20.6934413,60.8715837 20.5944824,60.5375977 C20.4955236,60.2036116 20.35018,59.9144706 20.1584473,59.670166 C19.9667145,59.4258614 19.7301446,59.2356778 19.4487305,59.0996094 C19.1673163,58.963541 18.8441587,58.8955078 18.479248,58.8955078 C18.1638168,58.8955078 17.8808606,58.9418941 17.6303711,59.034668 C17.3798816,59.1274419 17.1649586,59.2573234 16.9855957,59.4243164 C16.8062328,59.5913094 16.6686203,59.7892241 16.5727539,60.0180664 C16.4768875,60.2469087 16.4289551,60.4943021 16.4289551,60.7602539 L16.4289551,62.6064453 Z M27.654541,69.7871094 L25.0939941,69.7871094 L25.0939941,56.715332 L27.654541,56.715332 L27.654541,57.5688477 C27.9328627,57.2781561 28.276121,57.0307628 28.6843262,56.8266602 C29.0925313,56.6225576 29.5873181,56.5205078 30.1687012,56.5205078 C30.8243034,56.5205078 31.4195937,56.6519355 31.9545898,56.9147949 C32.489586,57.1776543 32.9488099,57.5394671 33.3322754,58.0002442 C33.7157408,58.4610212 34.0126129,59.0068328 34.2229004,59.6376953 C34.4331879,60.2685579 34.5383301,60.951982 34.5383301,61.6879883 C34.5383301,62.4239946 34.4300955,63.1074187 34.213623,63.7382813 C33.9971506,64.3691438 33.6940937,64.9134092 33.3044434,65.3710938 C32.914793,65.8287783 32.447838,66.1874987 31.9035645,66.4472656 C31.3592909,66.7070326 30.759362,66.8369141 30.1037598,66.8369141 C29.8130682,66.8369141 29.5486666,66.8106285 29.3105469,66.7580567 C29.0724272,66.7054848 28.8544118,66.632813 28.6564941,66.5400391 C28.4585765,66.4472652 28.2761239,66.3374844 28.1091309,66.2106934 C27.9421378,66.0839024 27.7906094,65.9462898 27.654541,65.7978516 L27.654541,69.7871094 Z M27.5803223,62.6064453 C27.5803223,62.8723972 27.6282547,63.1182443 27.7241211,63.3439942 C27.8199875,63.569744 27.9576,63.7661125 28.1369629,63.9331055 C28.3163258,64.1000985 28.5312487,64.22998 28.7817383,64.3227539 C29.0322278,64.4155278 29.315184,64.4619141 29.6306152,64.4619141 C29.9955259,64.4619141 30.3186835,64.3954271 30.6000977,64.2624512 C30.8815118,64.1294753 31.1180817,63.942384 31.3098145,63.7011719 C31.5015472,63.4599597 31.6468908,63.1739112 31.7458496,62.8430176 C31.8448084,62.512124 31.8942871,62.148765 31.8942871,61.7529297 L31.8942871,61.6323242 C31.8942871,61.2364889 31.8448084,60.8715837 31.7458496,60.5375977 C31.6468908,60.2036116 31.5015472,59.9144706 31.3098145,59.670166 C31.1180817,59.4258614 30.8815118,59.2356778 30.6000977,59.0996094 C30.3186835,58.963541 29.9955259,58.8955078 29.6306152,58.8955078 C29.315184,58.8955078 29.0322278,58.9418941 28.7817383,59.034668 C28.5312487,59.1274419 28.3163258,59.2573234 28.1369629,59.4243164 C27.9576,59.5913094 27.8199875,59.7892241 27.7241211,60.0180664 C27.6282547,60.2469087 27.5803223,60.4943021 27.5803223,60.7602539 L27.5803223,62.6064453 Z M38.3884277,62.569336 C38.4317222,62.8662124 38.5260409,63.1383451 38.6713867,63.3857422 C38.8167325,63.6331393 39.0007313,63.8449698 39.2233887,64.0212402 C39.446046,64.1975107 39.7027166,64.3351232 39.9934082,64.434082 C40.2840998,64.5330409 40.5933415,64.5825195 40.9211426,64.5825195 C41.2984231,64.5825195 41.7066222,64.5098477 42.145752,64.364502 C42.5848818,64.2191562 42.986896,64.0073256 43.3518066,63.7290039 L44.5856934,65.5288086 C44.1218239,65.918459 43.5528191,66.2338855 42.8786621,66.4750977 C42.2045051,66.7163098 41.4870644,66.8369141 40.7263184,66.8369141 C40.0397915,66.8369141 39.3934763,66.7194022 38.7873535,66.484375 C38.1812307,66.2493478 37.6508812,65.9091819 37.1962891,65.4638672 C36.7416969,65.0185525 36.3829766,64.4773795 36.1201172,63.840332 C35.8572578,63.2032846 35.7258301,62.4858438 35.7258301,61.6879883 C35.7258301,60.9581669 35.8417957,60.2778352 36.0737305,59.6469727 C36.3056652,59.0161101 36.630369,58.4687523 37.0478516,58.0048828 C37.4653341,57.5410133 37.9647595,57.1776543 38.5461426,56.9147949 C39.1275257,56.6519355 39.7707484,56.5205078 40.4758301,56.5205078 C41.1314323,56.5205078 41.7406385,56.6395659 42.3034668,56.8776856 C42.8662951,57.1158052 43.354897,57.4497863 43.7692871,57.8796387 C44.1836772,58.3094911 44.508381,58.8243785 44.7434082,59.4243164 C44.9784354,60.0242543 45.0959473,60.6860316 45.0959473,61.409668 L45.0959473,62.569336 L38.3884277,62.569336 Z M40.4665527,58.7470703 C39.9160943,58.7470703 39.4506855,58.9310691 39.0703125,59.2990723 C38.6899395,59.6670754 38.4688317,60.1108373 38.4069824,60.6303711 L42.4147949,60.6303711 C42.4024251,60.1046523 42.2106952,59.6593443 41.8395996,59.2944336 C41.468504,58.9295229 41.0108263,58.7470703 40.4665527,58.7470703 Z M49.9387207,62.6157227 C49.6232894,62.6652021 49.3697112,62.7749829 49.1779785,62.9450684 C48.9862458,63.1151539 48.8903809,63.3455389 48.8903809,63.6362305 C48.8903809,63.9578467 49.0078927,64.234618 49.2429199,64.4665527 C49.4779471,64.6984875 49.8242978,64.8144531 50.2819824,64.8144531 C50.7644067,64.8144531 51.144774,64.6752944 51.4230957,64.3969727 C51.7014174,64.118651 51.8405762,63.7506533 51.8405762,63.2929688 L51.8405762,62.2910156 L49.9387207,62.6157227 Z M52.2580566,65.7143555 C52.1529129,65.8318691 52.0245776,65.957112 51.8730469,66.0900879 C51.7215162,66.2230638 51.542156,66.3436681 51.3349609,66.4519043 C51.1277659,66.5601405 50.8850112,66.6513668 50.6066895,66.725586 C50.3283677,66.7998051 50.0160336,66.8369141 49.6696777,66.8369141 C49.1748836,66.8369141 48.7187521,66.7580574 48.3012695,66.6003418 C47.883787,66.4426262 47.5173356,66.2215184 47.2019043,65.9370117 C46.886473,65.6525051 46.6390797,65.3231627 46.4597168,64.9489746 C46.2803539,64.5747866 46.1906738,64.1681337 46.1906738,63.7290039 C46.1906738,62.9311484 46.4380672,62.2786484 46.9328613,61.7714844 C47.4276555,61.2643204 48.1110796,60.9458014 48.9831543,60.815918 L51.8405762,60.3984375 L51.8405762,60.2128906 C51.8405762,59.7675759 51.7045098,59.4150404 51.432373,59.1552735 C51.1602363,58.8955065 50.7180206,58.765625 50.1057129,58.765625 C49.8521309,58.765625 49.5954603,58.795003 49.3356934,58.8537598 C49.0759264,58.9125166 48.8269869,58.9790035 48.5888672,59.0532227 C48.3507475,59.1274418 48.1296397,59.2124833 47.9255371,59.3083496 C47.7214345,59.404216 47.5420743,59.4892575 47.3874512,59.5634766 L46.385498,57.605957 C46.9545113,57.2905258 47.5869106,57.0307628 48.2827148,56.8266602 C48.9785191,56.6225576 49.7005985,56.5205078 50.4489746,56.5205078 C50.9066592,56.5205078 51.3689755,56.5684403 51.8359375,56.6643067 C52.3028995,56.760173 52.7265606,56.9348946 53.1069336,57.1884766 C53.4873066,57.4420586 53.7980945,57.7868631 54.0393066,58.2229004 C54.2805188,58.6589377 54.401123,59.2140266 54.401123,59.8881836 L54.401123,63.9702149 C54.401123,64.2609064 54.4768873,64.4758294 54.628418,64.6149902 C54.7799487,64.7541511 54.9886868,64.8824864 55.2546387,65 L54.0949707,66.8369141 C53.6249163,66.7874347 53.2476414,66.6652842 52.9631348,66.470459 C52.6786281,66.2756338 52.4436044,66.0236018 52.2580566,65.7143555 Z M56.4978027,53.3476563 L59.0583496,53.3476563 L59.0583496,63.9516602 C59.0583496,64.1619477 59.1186517,64.3227534 59.2392578,64.434082 C59.3598639,64.5454107 59.5531399,64.6010742 59.8190918,64.6010742 C59.9427903,64.6010742 60.0494787,64.5933432 60.1391602,64.5778809 C60.2288416,64.5624186 60.3448072,64.5392254 60.4870605,64.5083008 L60.6911621,66.6884766 C60.5179842,66.7132163 60.3324391,66.7379556 60.1345215,66.7626953 C59.9675285,66.7812501 59.7742524,66.7982584 59.5546875,66.8137207 C59.3351226,66.829183 59.10783,66.8369141 58.8728027,66.8369141 C58.5078921,66.8369141 58.1800959,66.7905278 57.8894043,66.6977539 C57.5987127,66.60498 57.3497732,66.4673675 57.1425781,66.2849121 C56.9353831,66.1024568 56.7761236,65.8751641 56.6647949,65.6030274 C56.5534662,65.3308906 56.4978027,65.015464 56.4978027,64.6567383 L56.4978027,53.3476563 Z" id="path-1"></path>
        <path d="M171.22998,60.2221679 C171.22998,61.2179411 171.106283,62.1255655 170.858886,62.9450683 C170.611489,63.7645711 170.234214,64.4650036 169.72705,65.0463867 C169.219886,65.6277698 168.584395,66.0777165 167.820556,66.3962402 C167.056718,66.7147639 166.158371,66.8740234 165.125488,66.8740234 L160.85791,66.8740234 L160.85791,53.5703125 L165.125488,53.5703125 C166.158371,53.5703125 167.056718,53.7295719 167.820556,54.0480957 C168.584395,54.3666194 169.219886,54.8165661 169.72705,55.3979492 C170.234214,55.9793323 170.611489,56.6797647 170.858886,57.4992675 C171.106283,58.3187703 171.22998,59.2263947 171.22998,60.2221679 Z M169.476562,59.9624023 C169.476562,59.2696905 169.389974,58.6202829 169.216796,58.0141601 C169.043618,57.4080373 168.779217,56.8807802 168.423584,56.432373 C168.06795,55.9839658 167.613365,55.6298841 167.059814,55.3701172 C166.506263,55.1103502 165.849124,54.9804687 165.088378,54.9804687 L162.490722,54.9804687 L162.490722,65.4638672 L165.088378,65.4638672 C165.849124,65.4638672 166.506263,65.3355318 167.059814,65.0788574 C167.613365,64.8221829 168.06795,64.4696474 168.423584,64.0212402 C168.779217,63.572833 169.043618,63.0455759 169.216796,62.4394531 C169.389974,61.8333303 169.476562,61.1839227 169.476562,60.4912109 L169.476562,59.9624023 Z M184.357421,64.5175781 L184.450195,64.5175781 L186.713867,53.5703125 L188.383789,53.5703125 L185.424316,66.8740234 L183.485351,66.8740234 L180.655761,56.0102539 L177.835449,66.8740234 L175.887207,66.8740234 L172.937011,53.5703125 L174.588378,53.5703125 L176.88916,64.5175781 L177.000488,64.5175781 L179.895019,53.5703125 L181.472168,53.5703125 L184.357421,64.5175781 Z M191.027832,53.5703125 L195.694335,53.5703125 C196.319013,53.5703125 196.884925,53.6739084 197.392089,53.8811035 C197.899253,54.0882985 198.333738,54.3758933 198.695556,54.7438964 C199.057374,55.1118996 199.335692,55.552569 199.530517,56.0659179 C199.725342,56.5792669 199.822753,57.1420867 199.822753,57.7543945 C199.822753,58.3728872 199.716065,58.9372533 199.502685,59.4475097 C199.289305,59.9577662 198.990887,60.3953432 198.607421,60.7602539 C198.223956,61.1251645 197.767824,61.4081207 197.239013,61.6091308 C196.710202,61.8101409 196.133466,61.9106445 195.508789,61.9106445 L192.660644,61.9106445 L192.660644,66.8740234 L191.027832,66.8740234 L191.027832,53.5703125 Z M198.08789,57.7172851 C198.08789,57.3276347 198.026042,56.9658219 197.902343,56.6318359 C197.778645,56.2978499 197.599285,56.0087089 197.364257,55.7644043 C197.12923,55.5200997 196.843182,55.3283698 196.506103,55.1892089 C196.169025,55.0500481 195.787111,54.9804687 195.360351,54.9804687 L192.660644,54.9804687 L192.660644,60.5097656 L195.360351,60.5097656 C195.787111,60.5097656 196.169025,60.4417324 196.506103,60.305664 C196.843182,60.1695956 197.12923,59.9825044 197.364257,59.7443847 C197.599285,59.506265 197.778645,59.2217627 197.902343,58.8908691 C198.026042,58.5599755 198.08789,58.1997089 198.08789,57.8100586 L198.08789,57.7172851 Z M210.064941,58.7841797 L209.814453,58.7841797 C209.412432,58.7841797 209.028973,58.8305659 208.664062,58.9233398 C208.299151,59.0161137 207.97754,59.1831042 207.699218,59.4243164 C207.420897,59.6655285 207.198243,59.9948709 207.03125,60.4123535 C206.864257,60.829836 206.780761,61.363278 206.780761,62.0126953 L206.780761,66.8740234 L205.222168,66.8740234 L205.222168,57.3925781 L206.780761,57.3925781 L206.780761,58.8955078 C206.898275,58.6171861 207.055988,58.3728851 207.253906,58.1625976 C207.451823,57.9523101 207.676024,57.7775885 207.926513,57.6384277 C208.177003,57.4992668 208.446043,57.3956709 208.733642,57.3276367 C209.021241,57.2596025 209.313475,57.2255859 209.610351,57.2255859 L210.064941,57.2255859 L210.064941,58.7841797 Z M212.718261,62.6157226 C212.749186,63.0610373 212.838866,63.4723288 212.987304,63.8496093 C213.135742,64.2268899 213.338296,64.5531399 213.59497,64.8283691 C213.851645,65.1035983 214.154702,65.3169751 214.50415,65.4685058 C214.853598,65.6200365 215.241697,65.6958007 215.668457,65.6958007 C216.194175,65.6958007 216.656492,65.6076669 217.055419,65.4313964 C217.454347,65.255126 217.820799,65.0340182 218.154785,64.7680664 L218.952636,65.890625 C218.525876,66.2307959 218.032636,66.5106597 217.4729,66.7302246 C216.913164,66.9497895 216.28695,67.0595703 215.594238,67.0595703 C214.907711,67.0595703 214.286135,66.9374198 213.729492,66.6931152 C213.172848,66.4488106 212.698162,66.1086447 212.305419,65.6726074 C211.912677,65.23657 211.611166,64.717044 211.400878,64.1140136 C211.190591,63.5109833 211.085449,62.8538447 211.085449,62.1425781 C211.085449,61.4189417 211.189045,60.7556182 211.39624,60.1525879 C211.603435,59.5495575 211.895668,59.0300314 212.272949,58.5939941 C212.650229,58.1579568 213.101722,57.8177909 213.627441,57.5734863 C214.15316,57.3291817 214.737627,57.2070312 215.380859,57.2070312 C216.005537,57.2070312 216.568356,57.3291817 217.069335,57.5734863 C217.570315,57.8177909 217.997068,58.1579568 218.349609,58.5939941 C218.70215,59.0300314 218.972736,59.5495575 219.161377,60.1525879 C219.350017,60.7556182 219.444335,61.4127568 219.444335,62.1240234 L219.444335,62.6157226 L212.718261,62.6157226 Z M215.325195,58.5708007 C214.92936,58.5708007 214.576824,58.6481112 214.267578,58.8027343 C213.958331,58.9573575 213.69393,59.1645494 213.474365,59.4243164 C213.2548,59.6840833 213.081625,59.9825015 212.954834,60.31958 C212.828043,60.6566585 212.755371,61.0045555 212.736816,61.3632812 L217.755859,61.3632812 C217.743489,60.9983705 217.680095,60.6473812 217.565673,60.3103027 C217.451252,59.9732242 217.290447,59.6763522 217.083252,59.4196777 C216.876056,59.1630032 216.625571,58.9573575 216.331787,58.8027343 C216.038003,58.6481112 215.702475,58.5708007 215.325195,58.5708007 Z M227.960937,64.2485351 C227.960937,64.6938498 227.863526,65.0912254 227.668701,65.4406738 C227.473876,65.7901222 227.215659,66.085448 226.894043,66.3266601 C226.572426,66.5678723 226.202883,66.7503249 225.7854,66.8740234 C225.367917,66.9977219 224.939618,67.0595703 224.500488,67.0595703 C223.807776,67.0595703 223.14136,66.9405122 222.50122,66.7023925 C221.86108,66.4642729 221.293622,66.1225608 220.798828,65.6772461 L221.652343,64.5732422 C221.800782,64.7031256 221.972411,64.839192 222.167236,64.9814453 C222.362061,65.1236986 222.580076,65.2551263 222.821289,65.3757324 C223.062501,65.4963385 223.322264,65.5952958 223.600585,65.6726074 C223.878907,65.749919 224.172687,65.7885742 224.481933,65.7885742 C224.735515,65.7885742 224.97827,65.7561038 225.210205,65.6911621 C225.442139,65.6262203 225.644693,65.5303554 225.817871,65.4035644 C225.991049,65.2767734 226.128661,65.125245 226.230712,64.9489746 C226.332764,64.7727042 226.383789,64.5732433 226.383789,64.3505859 C226.383789,64.1031888 226.329671,63.8959969 226.221435,63.7290039 C226.113199,63.5620108 225.966309,63.4197597 225.780761,63.3022461 C225.595213,63.1847324 225.378744,63.0826827 225.131347,62.9960937 C224.88395,62.9095047 224.624187,62.8229171 224.35205,62.7363281 L223.7583,62.5415039 C223.424314,62.4301752 223.102703,62.3033861 222.793457,62.1611328 C222.48421,62.0188795 222.210531,61.8441579 221.972412,61.6369629 C221.734292,61.4297678 221.545655,61.1839207 221.406494,60.899414 C221.267333,60.6149074 221.197753,60.2747415 221.197753,59.8789062 C221.197753,59.55729 221.265787,59.2372249 221.401855,58.9187011 C221.537923,58.6001774 221.746662,58.3141288 222.028076,58.0605468 C222.30949,57.8069648 222.666664,57.6013191 223.099609,57.4436035 C223.532554,57.2858878 224.042803,57.2070312 224.630371,57.2070312 C225.279788,57.2070312 225.881263,57.3152658 226.434814,57.5317382 C226.988365,57.7482107 227.456866,58.017251 227.840332,58.3388672 L227.023925,59.4614257 C226.887857,59.3315423 226.727051,59.2078456 226.541503,59.090332 C226.355956,58.9728184 226.158041,58.8692224 225.947753,58.779541 C225.737466,58.6898595 225.517904,58.6171877 225.289062,58.5615234 C225.06022,58.5058591 224.834473,58.4780273 224.611816,58.4780273 C224.271645,58.4780273 223.98405,58.5166825 223.749023,58.5939941 C223.513996,58.6713057 223.325358,58.7718092 223.183105,58.8955078 C223.040852,59.0192063 222.937256,59.1583651 222.872314,59.3129882 C222.807372,59.4676114 222.774902,59.6191398 222.774902,59.7675781 C222.774902,59.9840505 222.821288,60.1649569 222.914062,60.3103027 C223.006836,60.4556485 223.128986,60.5808914 223.280517,60.6860351 C223.432048,60.7911789 223.605223,60.880859 223.800048,60.9550781 C223.994874,61.0292972 224.197427,61.1035152 224.407714,61.1777343 L225.187011,61.4375 C225.558107,61.5611985 225.898273,61.6926262 226.207519,61.8317871 C226.516765,61.9709479 226.788898,62.1302074 227.023925,62.3095703 C227.320802,62.5445975 227.551187,62.8167302 227.715087,63.1259765 C227.878988,63.4352229 227.960937,63.8094053 227.960937,64.2485351 Z M231.913085,57.3925781 L231.913085,58.4780273 C232.191407,58.0883769 232.568682,57.7791352 233.044921,57.5502929 C233.521161,57.3214506 234.068519,57.2070312 234.687011,57.2070312 C235.299319,57.2070312 235.852862,57.3291817 236.347656,57.5734863 C236.84245,57.8177909 237.266111,58.159503 237.618652,58.5986328 C237.971193,59.0377626 238.241779,59.5588348 238.430419,60.1618652 C238.61906,60.7648956 238.713378,61.4251266 238.713378,62.1425781 C238.713378,62.8600296 238.61906,63.5187144 238.430419,64.1186523 C238.241779,64.7185902 237.971193,65.23657 237.618652,65.6726074 C237.266111,66.1086447 236.84245,66.4488106 236.347656,66.6931152 C235.852862,66.9374198 235.299319,67.0595703 234.687011,67.0595703 C234.068519,67.0595703 233.521161,66.9451508 233.044921,66.7163086 C232.568682,66.4874663 232.191407,66.1782246 231.913085,65.7885742 L231.913085,69.7592773 L230.354492,69.7592773 L230.354492,57.3925781 L231.913085,57.3925781 Z M237.099121,62.086914 C237.099121,61.5921199 237.040365,61.1313498 236.922851,60.7045898 C236.805338,60.2778299 236.632162,59.908286 236.40332,59.5959472 C236.174478,59.2836084 235.891521,59.0377613 235.554443,58.8583984 C235.217364,58.6790355 234.832358,58.5893554 234.399414,58.5893554 C233.985024,58.5893554 233.621665,58.660481 233.309326,58.8027343 C232.996987,58.9449877 232.735678,59.1398099 232.52539,59.387207 C232.315103,59.6346041 232.155843,59.9268375 232.047607,60.263916 C231.939371,60.6009945 231.885253,60.9674459 231.885253,61.3632812 L231.885253,62.9033203 C231.885253,63.2991556 231.939371,63.665607 232.047607,64.0026855 C232.155843,64.339764 232.315103,64.6319974 232.52539,64.8793945 C232.735678,65.1267916 232.996987,65.3216138 233.309326,65.4638672 C233.621665,65.6061205 233.985024,65.6772461 234.399414,65.6772461 C234.832358,65.6772461 235.217364,65.587566 235.554443,65.4082031 C235.891521,65.2288402 236.174478,64.9829931 236.40332,64.6706543 C236.632162,64.3583155 236.805338,63.9887716 236.922851,63.5620117 C237.040365,63.1352517 237.099121,62.6744816 237.099121,62.1796875 L237.099121,62.086914 Z M244.808593,57.2070312 C245.464196,57.2070312 246.061032,57.3291817 246.599121,57.5734863 C247.137209,57.8177909 247.596433,58.1579568 247.976806,58.5939941 C248.357179,59.0300314 248.652505,59.5495575 248.862793,60.1525879 C249.07308,60.7556182 249.178222,61.4189417 249.178222,62.1425781 C249.178222,62.8538447 249.07308,63.5109833 248.862793,64.1140136 C248.652505,64.717044 248.357179,65.23657 247.976806,65.6726074 C247.596433,66.1086447 247.137209,66.4488106 246.599121,66.6931152 C246.061032,66.9374198 245.464196,67.0595703 244.808593,67.0595703 C244.152991,67.0595703 243.557701,66.9374198 243.022705,66.6931152 C242.487708,66.4488106 242.028485,66.1086447 241.645019,65.6726074 C241.261554,65.23657 240.964682,64.717044 240.754394,64.1140136 C240.544107,63.5109833 240.438964,62.8538447 240.438964,62.1425781 C240.438964,61.4189417 240.544107,60.7556182 240.754394,60.1525879 C240.964682,59.5495575 241.261554,59.0300314 241.645019,58.5939941 C242.028485,58.1579568 242.487708,57.8177909 243.022705,57.5734863 C243.557701,57.3291817 244.152991,57.2070312 244.808593,57.2070312 Z M244.808593,65.6958007 C245.260093,65.6958007 245.657469,65.601482 246.000732,65.4128418 C246.343995,65.2242015 246.63159,64.9690771 246.863525,64.6474609 C247.09546,64.3258447 247.270181,63.9532085 247.387695,63.529541 C247.505208,63.1058735 247.563964,62.6621117 247.563964,62.1982422 L247.563964,62.086914 C247.563964,61.6106747 247.505208,61.1591818 247.387695,60.7324218 C247.270181,60.3056619 247.09546,59.9330256 246.863525,59.6145019 C246.63159,59.2959782 246.343995,59.0424 246.000732,58.8537597 C245.657469,58.6651195 245.260093,58.5708007 244.808593,58.5708007 C244.357094,58.5708007 243.959718,58.6651195 243.616455,58.8537597 C243.273191,59.0424 242.985596,59.2959782 242.753662,59.6145019 C242.521727,59.9330256 242.347005,60.3056619 242.229492,60.7324218 C242.111978,61.1591818 242.053222,61.6106747 242.053222,62.086914 L242.053222,62.1982422 C242.053222,62.6621117 242.111978,63.1058735 242.229492,63.529541 C242.347005,63.9532085 242.521727,64.3258447 242.753662,64.6474609 C242.985596,64.9690771 243.273191,65.2242015 243.616455,65.4128418 C243.959718,65.601482 244.357094,65.6958007 244.808593,65.6958007 Z M251.460449,57.3925781 L253.019043,57.3925781 L253.019043,58.4780273 C253.340659,58.0388975 253.738034,57.7172861 254.211181,57.5131836 C254.684328,57.309081 255.211585,57.2070312 255.792968,57.2070312 C256.318687,57.2070312 256.779457,57.2936189 257.175293,57.4667968 C257.571128,57.6399748 257.902016,57.8749985 258.167968,58.171875 C258.43392,58.4687514 258.633381,58.8120097 258.766357,59.2016601 C258.899333,59.5913105 258.96582,60.002602 258.96582,60.4355468 L258.96582,66.8740234 L257.407226,66.8740234 L257.407226,60.9272461 C257.407226,60.512856 257.356201,60.1587742 257.25415,59.8649902 C257.152099,59.5712062 257.01294,59.3330901 256.836669,59.1506347 C256.660399,58.9681794 256.453207,58.8352055 256.215087,58.7517089 C255.976968,58.6682124 255.721843,58.6264648 255.449707,58.6264648 C255.15283,58.6264648 254.860597,58.6805821 254.572998,58.7888183 C254.285399,58.8970545 254.025635,59.0594064 253.793701,59.2758789 C253.561766,59.4923513 253.374675,59.764484 253.232421,60.0922851 C253.090168,60.4200862 253.019043,60.8066384 253.019043,61.2519531 L253.019043,66.8740234 L251.460449,66.8740234 L251.460449,57.3925781 Z M268.085449,64.2485351 C268.085449,64.6938498 267.988038,65.0912254 267.793212,65.4406738 C267.598387,65.7901222 267.34017,66.085448 267.018554,66.3266601 C266.696938,66.5678723 266.327394,66.7503249 265.909912,66.8740234 C265.492429,66.9977219 265.064129,67.0595703 264.625,67.0595703 C263.932288,67.0595703 263.265872,66.9405122 262.625732,66.7023925 C261.985592,66.4642729 261.418134,66.1225608 260.923339,65.6772461 L261.776855,64.5732422 C261.925293,64.7031256 262.096922,64.839192 262.291748,64.9814453 C262.486573,65.1236986 262.704588,65.2551263 262.9458,65.3757324 C263.187012,65.4963385 263.446776,65.5952958 263.725097,65.6726074 C264.003419,65.749919 264.297199,65.7885742 264.606445,65.7885742 C264.860027,65.7885742 265.102782,65.7561038 265.334716,65.6911621 C265.566651,65.6262203 265.769204,65.5303554 265.942382,65.4035644 C266.11556,65.2767734 266.253173,65.125245 266.355224,64.9489746 C266.457275,64.7727042 266.5083,64.5732433 266.5083,64.3505859 C266.5083,64.1031888 266.454183,63.8959969 266.345947,63.7290039 C266.237711,63.5620108 266.090821,63.4197597 265.905273,63.3022461 C265.719725,63.1847324 265.503256,63.0826827 265.255859,62.9960937 C265.008462,62.9095047 264.748699,62.8229171 264.476562,62.7363281 L263.882812,62.5415039 C263.548826,62.4301752 263.227215,62.3033861 262.917968,62.1611328 C262.608722,62.0188795 262.335043,61.8441579 262.096923,61.6369629 C261.858804,61.4297678 261.670166,61.1839207 261.531005,60.899414 C261.391845,60.6149074 261.322265,60.2747415 261.322265,59.8789062 C261.322265,59.55729 261.390298,59.2372249 261.526367,58.9187011 C261.662435,58.6001774 261.871173,58.3141288 262.152587,58.0605468 C262.434002,57.8069648 262.791176,57.6013191 263.224121,57.4436035 C263.657066,57.2858878 264.167314,57.2070312 264.754882,57.2070312 C265.4043,57.2070312 266.005775,57.3152658 266.559326,57.5317382 C267.112877,57.7482107 267.581378,58.017251 267.964843,58.3388672 L267.148437,59.4614257 C267.012369,59.3315423 266.851563,59.2078456 266.666015,59.090332 C266.480467,58.9728184 266.282553,58.8692224 266.072265,58.779541 C265.861978,58.6898595 265.642416,58.6171877 265.413574,58.5615234 C265.184731,58.5058591 264.958985,58.4780273 264.736328,58.4780273 C264.396157,58.4780273 264.108562,58.5166825 263.873535,58.5939941 C263.638508,58.6713057 263.44987,58.7718092 263.307617,58.8955078 C263.165363,59.0192063 263.061767,59.1583651 262.996826,59.3129882 C262.931884,59.4676114 262.899414,59.6191398 262.899414,59.7675781 C262.899414,59.9840505 262.9458,60.1649569 263.038574,60.3103027 C263.131348,60.4556485 263.253498,60.5808914 263.405029,60.6860351 C263.55656,60.7911789 263.729735,60.880859 263.92456,60.9550781 C264.119385,61.0292972 264.321939,61.1035152 264.532226,61.1777343 L265.311523,61.4375 C265.682619,61.5611985 266.022784,61.6926262 266.332031,61.8317871 C266.641277,61.9709479 266.91341,62.1302074 267.148437,62.3095703 C267.445314,62.5445975 267.675699,62.8167302 267.839599,63.1259765 C268.0035,63.4352229 268.085449,63.8094053 268.085449,64.2485351 Z M271.536621,62.6157226 C271.567545,63.0610373 271.657225,63.4723288 271.805664,63.8496093 C271.954102,64.2268899 272.156655,64.5531399 272.41333,64.8283691 C272.670004,65.1035983 272.973061,65.3169751 273.322509,65.4685058 C273.671958,65.6200365 274.060056,65.6958007 274.486816,65.6958007 C275.012535,65.6958007 275.474851,65.6076669 275.873779,65.4313964 C276.272707,65.255126 276.639158,65.0340182 276.973144,64.7680664 L277.770996,65.890625 C277.344236,66.2307959 276.850995,66.5106597 276.291259,66.7302246 C275.731523,66.9497895 275.105309,67.0595703 274.412597,67.0595703 C273.72607,67.0595703 273.104495,66.9374198 272.547851,66.6931152 C271.991208,66.4488106 271.516522,66.1086447 271.123779,65.6726074 C270.731036,65.23657 270.429525,64.717044 270.219238,64.1140136 C270.00895,63.5109833 269.903808,62.8538447 269.903808,62.1425781 C269.903808,61.4189417 270.007404,60.7556182 270.214599,60.1525879 C270.421794,59.5495575 270.714028,59.0300314 271.091308,58.5939941 C271.468589,58.1579568 271.920082,57.8177909 272.4458,57.5734863 C272.971519,57.3291817 273.555986,57.2070312 274.199218,57.2070312 C274.823896,57.2070312 275.386716,57.3291817 275.887695,57.5734863 C276.388674,57.8177909 276.815427,58.1579568 277.167968,58.5939941 C277.520509,59.0300314 277.791096,59.5495575 277.979736,60.1525879 C278.168376,60.7556182 278.262695,61.4127568 278.262695,62.1240234 L278.262695,62.6157226 L271.536621,62.6157226 Z M274.143554,58.5708007 C273.747719,58.5708007 273.395183,58.6481112 273.085937,58.8027343 C272.776691,58.9573575 272.512289,59.1645494 272.292724,59.4243164 C272.073159,59.6840833 271.899984,59.9825015 271.773193,60.31958 C271.646402,60.6566585 271.57373,61.0045555 271.555175,61.3632812 L276.574218,61.3632812 C276.561848,60.9983705 276.498454,60.6473812 276.384033,60.3103027 C276.269612,59.9732242 276.108806,59.6763522 275.901611,59.4196777 C275.694416,59.1630032 275.44393,58.9573575 275.150146,58.8027343 C274.856362,58.6481112 274.520835,58.5708007 274.143554,58.5708007 Z" id="path-2"></path>
        <path d="M343.001465,53.5703125 L352.121094,53.5703125 L352.121094,55.0361328 L348.382324,55.0361328 L348.382324,66.8740234 L346.740234,66.8740234 L346.740234,55.0361328 L343.001465,55.0361328 L343.001465,53.5703125 Z M357.344238,58.7841797 L357.09375,58.7841797 C356.69173,58.7841797 356.30827,58.8305659 355.943359,58.9233398 C355.578449,59.0161137 355.256837,59.1831042 354.978516,59.4243164 C354.700194,59.6655285 354.47754,59.9948709 354.310547,60.4123535 C354.143554,60.829836 354.060059,61.363278 354.060059,62.0126953 L354.060059,66.8740234 L352.501465,66.8740234 L352.501465,57.3925781 L354.060059,57.3925781 L354.060059,58.8955078 C354.177572,58.6171861 354.335285,58.3728851 354.533203,58.1625976 C354.731121,57.9523101 354.955321,57.7775885 355.20581,57.6384277 C355.4563,57.4992668 355.72534,57.3956709 356.012939,57.3276367 C356.300538,57.2596025 356.592772,57.2255859 356.889648,57.2255859 L357.344238,57.2255859 L357.344238,58.7841797 Z M360.730469,66.8740234 L359.171875,66.8740234 L359.171875,57.3925781 L360.730469,57.3925781 L360.730469,66.8740234 Z M358.884277,54.6557617 C358.884277,54.5073234 358.913655,54.3681647 358.972412,54.2382812 C359.031169,54.1083978 359.108479,53.9939783 359.204346,53.8950195 C359.300212,53.7960607 359.414631,53.717204 359.547607,53.6584472 C359.680583,53.5996904 359.821288,53.5703125 359.969726,53.5703125 C360.118165,53.5703125 360.257324,53.5996904 360.387207,53.6584472 C360.51709,53.717204 360.629964,53.7960607 360.72583,53.8950195 C360.821696,53.9939783 360.899007,54.1083978 360.957764,54.2382812 C361.01652,54.3681647 361.045898,54.5073234 361.045898,54.6557617 C361.045898,54.8041999 361.01652,54.9449049 360.957764,55.0778808 C360.899007,55.2108567 360.821696,55.3252762 360.72583,55.4211425 C360.629964,55.5170089 360.51709,55.5943193 360.387207,55.6530761 C360.257324,55.7118329 360.118165,55.7412109 359.969726,55.7412109 C359.821288,55.7412109 359.680583,55.7118329 359.547607,55.6530761 C359.414631,55.5943193 359.300212,55.5170089 359.204346,55.4211425 C359.108479,55.3252762 359.031169,55.2108567 358.972412,55.0778808 C358.913655,54.9449049 358.884277,54.8041999 358.884277,54.6557617 Z M365.137207,66.8740234 L363.578613,66.8740234 L363.578613,53.5703125 L365.137207,53.5703125 L365.137207,58.4780273 C365.415529,58.0883769 365.792804,57.7791352 366.269043,57.5502929 C366.745282,57.3214506 367.29264,57.2070312 367.911133,57.2070312 C368.52344,57.2070312 369.076983,57.3291817 369.571777,57.5734863 C370.066571,57.8177909 370.490233,58.159503 370.842773,58.5986328 C371.195314,59.0377626 371.465901,59.5588348 371.654541,60.1618652 C371.843181,60.7648956 371.9375,61.4251266 371.9375,62.1425781 C371.9375,62.8600296 371.843181,63.5187144 371.654541,64.1186523 C371.465901,64.7185902 371.195314,65.23657 370.842773,65.6726074 C370.490233,66.1086447 370.066571,66.4488106 369.571777,66.6931152 C369.076983,66.9374198 368.52344,67.0595703 367.911133,67.0595703 C367.29264,67.0595703 366.745282,66.9451508 366.269043,66.7163086 C365.792804,66.4874663 365.415529,66.1782246 365.137207,65.7885742 L365.137207,66.8740234 Z M370.323242,62.086914 C370.323242,61.5921199 370.264486,61.1313498 370.146973,60.7045898 C370.029459,60.2778299 369.856284,59.908286 369.627441,59.5959472 C369.398599,59.2836084 369.115643,59.0377613 368.778564,58.8583984 C368.441486,58.6790355 368.05648,58.5893554 367.623535,58.5893554 C367.209145,58.5893554 366.845786,58.660481 366.533447,58.8027343 C366.221108,58.9449877 365.959799,59.1398099 365.749512,59.387207 C365.539224,59.6346041 365.379965,59.9268375 365.271728,60.263916 C365.163492,60.6009945 365.109375,60.9674459 365.109375,61.3632812 L365.109375,62.9033203 C365.109375,63.2991556 365.163492,63.665607 365.271728,64.0026855 C365.379965,64.339764 365.539224,64.6319974 365.749512,64.8793945 C365.959799,65.1267916 366.221108,65.3216138 366.533447,65.4638672 C366.845786,65.6061205 367.209145,65.6772461 367.623535,65.6772461 C368.05648,65.6772461 368.441486,65.587566 368.778564,65.4082031 C369.115643,65.2288402 369.398599,64.9829931 369.627441,64.6706543 C369.856284,64.3583155 370.029459,63.9887716 370.146973,63.5620117 C370.264486,63.1352517 370.323242,62.6744816 370.323242,62.1796875 L370.323242,62.086914 Z M381.660156,66.8740234 L380.101562,66.8740234 L380.101562,65.7885742 C379.779946,66.227704 379.382571,66.5493153 378.909424,66.7534179 C378.436277,66.9575205 377.90902,67.0595703 377.327637,67.0595703 C376.801918,67.0595703 376.341148,66.9729826 375.945312,66.7998047 C375.549477,66.6266267 375.218589,66.391603 374.952637,66.0947265 C374.686685,65.79785 374.487224,65.4545918 374.354248,65.0649414 C374.221272,64.675291 374.154785,64.2639995 374.154785,63.8310547 L374.154785,57.3925781 L375.713379,57.3925781 L375.713379,63.3393554 C375.713379,63.7599305 375.764404,64.1155584 375.866455,64.40625 C375.968506,64.6969415 376.107665,64.9335114 376.283935,65.1159668 C376.460206,65.2984221 376.667398,65.431396 376.905518,65.5148925 C377.143637,65.5983891 377.398762,65.6401367 377.670898,65.6401367 C377.992515,65.6401367 378.30021,65.5860194 378.593994,65.4777832 C378.887778,65.3695469 379.145995,65.2071951 379.368652,64.9907226 C379.59131,64.7742502 379.769124,64.5021175 379.9021,64.1743164 C380.035075,63.8465153 380.101562,63.4599631 380.101562,63.0146484 L380.101562,57.3925781 L381.660156,57.3925781 L381.660156,66.8740234 Z M384.517578,57.3925781 L386.076172,57.3925781 L386.076172,58.4780273 C386.397788,58.0388975 386.795164,57.7172861 387.26831,57.5131836 C387.741457,57.309081 388.268714,57.2070312 388.850098,57.2070312 C389.375816,57.2070312 389.836586,57.2936189 390.232422,57.4667968 C390.628257,57.6399748 390.959146,57.8749985 391.225098,58.171875 C391.491049,58.4687514 391.69051,58.8120097 391.823486,59.2016601 C391.956462,59.5913105 392.022949,60.002602 392.022949,60.4355468 L392.022949,66.8740234 L390.464355,66.8740234 L390.464355,60.9272461 C390.464355,60.512856 390.413331,60.1587742 390.311279,59.8649902 C390.209228,59.5712062 390.070069,59.3330901 389.893799,59.1506347 C389.717528,58.9681794 389.510336,58.8352055 389.272217,58.7517089 C389.034097,58.6682124 388.778973,58.6264648 388.506836,58.6264648 C388.209959,58.6264648 387.917726,58.6805821 387.630127,58.7888183 C387.342528,58.8970545 387.082765,59.0594064 386.85083,59.2758789 C386.618895,59.4923513 386.431804,59.764484 386.289551,60.0922851 C386.147297,60.4200862 386.076172,60.8066384 386.076172,61.2519531 L386.076172,66.8740234 L384.517578,66.8740234 L384.517578,57.3925781 Z M400.187012,65.9277343 C399.90869,66.2493505 399.532961,66.5183908 399.059814,66.7348632 C398.586667,66.9513357 398.031579,67.0595703 397.394531,67.0595703 C396.924477,67.0595703 396.488446,66.9930833 396.086426,66.8601074 C395.684405,66.7271315 395.334962,66.5369478 395.038086,66.2895507 C394.741209,66.0421537 394.509278,65.7421892 394.342285,65.3896484 C394.175292,65.0371076 394.091797,64.6381858 394.091797,64.1928711 C394.091797,63.8217755 394.152099,63.4831558 394.272705,63.1770019 C394.393311,62.870848 394.563394,62.603354 394.782959,62.3745117 C395.002524,62.1456694 395.266925,61.9585782 395.576172,61.8132324 C395.885418,61.6678866 396.231769,61.5673831 396.615234,61.5117187 L399.964355,61.0571289 L399.964355,60.4541015 C399.964355,60.0953758 399.908692,59.7938651 399.797363,59.5495605 C399.686035,59.3052559 399.536052,59.1119798 399.347412,58.9697265 C399.158772,58.8274732 398.936118,58.7254234 398.679443,58.6635742 C398.422769,58.6017249 398.145998,58.5708007 397.849121,58.5708007 C397.317217,58.5708007 396.820884,58.6450188 396.360107,58.793457 C395.89933,58.9418952 395.4834,59.1150706 395.112305,59.3129882 L394.527832,58.0791015 C395.072106,57.7698552 395.642656,57.5472012 396.239502,57.4111328 C396.836347,57.2750644 397.425453,57.2070312 398.006836,57.2070312 C399.163417,57.2070312 400.038571,57.4683404 400.632324,57.9909668 C401.226077,58.5135931 401.522949,59.2758739 401.522949,60.277832 L401.522949,64.6474609 C401.522949,64.9628922 401.584797,65.2272938 401.708496,65.4406738 C401.832195,65.6540538 402.030109,65.8225905 402.302246,65.946289 L401.420898,67.0595703 C401.124022,66.9853512 400.868897,66.8539234 400.655518,66.6652832 C400.442138,66.4766429 400.292155,66.2493503 400.205566,65.9833984 L400.187012,65.9277343 Z M397.413086,62.652832 C397.153319,62.6899416 396.916749,62.7425126 396.703369,62.8105468 C396.489989,62.878581 396.309083,62.9698073 396.160644,63.0842285 C396.012206,63.1986496 395.896241,63.3393546 395.812744,63.5063476 C395.729248,63.6733406 395.6875,63.8774402 395.6875,64.1186523 C395.6875,64.396974 395.740071,64.6443674 395.845215,64.8608398 C395.950359,65.0773122 396.09261,65.2597648 396.271973,65.4082031 C396.451335,65.5566413 396.660074,65.6695145 396.898193,65.7468261 C397.136313,65.8241377 397.385253,65.8627929 397.645019,65.8627929 C397.935711,65.8627929 398.220213,65.8225915 398.498535,65.7421875 C398.776857,65.6617834 399.02425,65.5458178 399.240723,65.3942871 C399.457195,65.2427564 399.631917,65.0587576 399.764893,64.8422851 C399.897868,64.6258127 399.964355,64.3784193 399.964355,64.1000976 L399.964355,62.2724609 L397.413086,62.652832 Z M404.287598,53.5703125 L405.846191,53.5703125 L405.846191,64.7495117 C405.846191,64.9041349 405.860107,65.0402012 405.887939,65.1577148 C405.915772,65.2752284 405.963704,65.3741858 406.031738,65.4545898 C406.099772,65.5349939 406.194091,65.595296 406.314697,65.635498 C406.435303,65.6757 406.585285,65.6958007 406.764648,65.6958007 C406.962566,65.6958007 407.141926,65.6896159 407.302734,65.6772461 C407.463542,65.6648762 407.605794,65.6525065 407.729492,65.6401367 L407.887207,66.9482422 L407.349121,67.0039062 C407.194498,67.0162761 407.024415,67.0286457 406.838867,67.0410156 C406.653319,67.0533854 406.477052,67.0595703 406.310059,67.0595703 C406.031737,67.0595703 405.768881,67.0270999 405.521484,66.9621582 C405.274087,66.8972164 405.059164,66.790528 404.876709,66.6420898 C404.694254,66.4936516 404.550456,66.3019217 404.445312,66.0668945 C404.340169,65.8318673 404.287598,65.5442725 404.287598,65.2041015 L404.287598,53.5703125 Z M417.507812,58.7841797 L417.257324,58.7841797 C416.855304,58.7841797 416.471844,58.8305659 416.106934,58.9233398 C415.742023,59.0161137 415.420411,59.1831042 415.14209,59.4243164 C414.863768,59.6655285 414.641114,59.9948709 414.474121,60.4123535 C414.307128,60.829836 414.223633,61.363278 414.223633,62.0126953 L414.223633,66.8740234 L412.665039,66.8740234 L412.665039,57.3925781 L414.223633,57.3925781 L414.223633,58.8955078 C414.341146,58.6171861 414.49886,58.3728851 414.696777,58.1625976 C414.894695,57.9523101 415.118895,57.7775885 415.369385,57.6384277 C415.619874,57.4992668 415.888915,57.3956709 416.176514,57.3276367 C416.464113,57.2596025 416.756346,57.2255859 417.053223,57.2255859 L417.507812,57.2255859 L417.507812,58.7841797 Z M420.161133,62.6157226 C420.192057,63.0610373 420.281737,63.4723288 420.430176,63.8496093 C420.578614,64.2268899 420.781167,64.5531399 421.037842,64.8283691 C421.294516,65.1035983 421.597573,65.3169751 421.947021,65.4685058 C422.29647,65.6200365 422.684568,65.6958007 423.111328,65.6958007 C423.637047,65.6958007 424.099363,65.6076669 424.498291,65.4313964 C424.897219,65.255126 425.26367,65.0340182 425.597656,64.7680664 L426.395508,65.890625 C425.968748,66.2307959 425.475507,66.5106597 424.915771,66.7302246 C424.356036,66.9497895 423.729821,67.0595703 423.037109,67.0595703 C422.350582,67.0595703 421.729007,66.9374198 421.172363,66.6931152 C420.61572,66.4488106 420.141034,66.1086447 419.748291,65.6726074 C419.355548,65.23657 419.054037,64.717044 418.84375,64.1140136 C418.633462,63.5109833 418.52832,62.8538447 418.52832,62.1425781 C418.52832,61.4189417 418.631916,60.7556182 418.839111,60.1525879 C419.046306,59.5495575 419.33854,59.0300314 419.71582,58.5939941 C420.093101,58.1579568 420.544594,57.8177909 421.070312,57.5734863 C421.596031,57.3291817 422.180498,57.2070312 422.82373,57.2070312 C423.448408,57.2070312 424.011228,57.3291817 424.512207,57.5734863 C425.013186,57.8177909 425.43994,58.1579568 425.79248,58.5939941 C426.145021,59.0300314 426.415608,59.5495575 426.604248,60.1525879 C426.792888,60.7556182 426.887207,61.4127568 426.887207,62.1240234 L426.887207,62.6157226 L420.161133,62.6157226 Z M422.768066,58.5708007 C422.372231,58.5708007 422.019695,58.6481112 421.710449,58.8027343 C421.401203,58.9573575 421.136801,59.1645494 420.917236,59.4243164 C420.697671,59.6840833 420.524496,59.9825015 420.397705,60.31958 C420.270914,60.6566585 420.198242,61.0045555 420.179687,61.3632812 L425.19873,61.3632812 C425.186361,60.9983705 425.122966,60.6473812 425.008545,60.3103027 C424.894124,59.9732242 424.733318,59.6763522 424.526123,59.4196777 C424.318928,59.1630032 424.068442,58.9573575 423.774658,58.8027343 C423.480874,58.6481112 423.145347,58.5708007 422.768066,58.5708007 Z M430.959961,66.8740234 L427.954101,57.3925781 L429.726074,57.3925781 L431.999023,65.4267578 L434.262695,57.3925781 L436.034668,57.3925781 L433.028809,66.8740234 L430.959961,66.8740234 Z M439.476562,66.8740234 L437.917969,66.8740234 L437.917969,57.3925781 L439.476562,57.3925781 L439.476562,66.8740234 Z M437.630371,54.6557617 C437.630371,54.5073234 437.659749,54.3681647 437.718506,54.2382812 C437.777263,54.1083978 437.854573,53.9939783 437.950439,53.8950195 C438.046306,53.7960607 438.160725,53.717204 438.293701,53.6584472 C438.426677,53.5996904 438.567382,53.5703125 438.71582,53.5703125 C438.864258,53.5703125 439.003417,53.5996904 439.133301,53.6584472 C439.263184,53.717204 439.376057,53.7960607 439.471924,53.8950195 C439.56779,53.9939783 439.645101,54.1083978 439.703857,54.2382812 C439.762614,54.3681647 439.791992,54.5073234 439.791992,54.6557617 C439.791992,54.8041999 439.762614,54.9449049 439.703857,55.0778808 C439.645101,55.2108567 439.56779,55.3252762 439.471924,55.4211425 C439.376057,55.5170089 439.263184,55.5943193 439.133301,55.6530761 C439.003417,55.7118329 438.864258,55.7412109 438.71582,55.7412109 C438.567382,55.7412109 438.426677,55.7118329 438.293701,55.6530761 C438.160725,55.5943193 438.046306,55.5170089 437.950439,55.4211425 C437.854573,55.3252762 437.777263,55.2108567 437.718506,55.0778808 C437.659749,54.9449049 437.630371,54.8041999 437.630371,54.6557617 Z M443.382324,62.6157226 C443.413249,63.0610373 443.502929,63.4723288 443.651367,63.8496093 C443.799805,64.2268899 444.002359,64.5531399 444.259033,64.8283691 C444.515708,65.1035983 444.818764,65.3169751 445.168213,65.4685058 C445.517661,65.6200365 445.90576,65.6958007 446.332519,65.6958007 C446.858238,65.6958007 447.320555,65.6076669 447.719482,65.4313964 C448.11841,65.255126 448.484862,65.0340182 448.818848,64.7680664 L449.616699,65.890625 C449.189939,66.2307959 448.696699,66.5106597 448.136963,66.7302246 C447.577227,66.9497895 446.951013,67.0595703 446.258301,67.0595703 C445.571774,67.0595703 444.950198,66.9374198 444.393555,66.6931152 C443.836911,66.4488106 443.362225,66.1086447 442.969482,65.6726074 C442.57674,65.23657 442.275229,64.717044 442.064941,64.1140136 C441.854654,63.5109833 441.749512,62.8538447 441.749512,62.1425781 C441.749512,61.4189417 441.853108,60.7556182 442.060303,60.1525879 C442.267498,59.5495575 442.559731,59.0300314 442.937012,58.5939941 C443.314292,58.1579568 443.765785,57.8177909 444.291504,57.5734863 C444.817223,57.3291817 445.401689,57.2070312 446.044922,57.2070312 C446.669599,57.2070312 447.232419,57.3291817 447.733398,57.5734863 C448.234377,57.8177909 448.661131,58.1579568 449.013672,58.5939941 C449.366213,59.0300314 449.636799,59.5495575 449.825439,60.1525879 C450.01408,60.7556182 450.108398,61.4127568 450.108398,62.1240234 L450.108398,62.6157226 L443.382324,62.6157226 Z M445.989258,58.5708007 C445.593422,58.5708007 445.240887,58.6481112 444.931641,58.8027343 C444.622394,58.9573575 444.357993,59.1645494 444.138428,59.4243164 C443.918863,59.6840833 443.745687,59.9825015 443.618896,60.31958 C443.492105,60.6566585 443.419434,61.0045555 443.400879,61.3632812 L448.419922,61.3632812 C448.407552,60.9983705 448.344157,60.6473812 448.229736,60.3103027 C448.115315,59.9732242 447.954509,59.6763522 447.747314,59.4196777 C447.540119,59.1630032 447.289634,58.9573575 446.99585,58.8027343 C446.702066,58.6481112 446.366538,58.5708007 445.989258,58.5708007 Z M460.480469,65.027832 L462.196777,57.3925781 L463.848144,57.3925781 L461.528809,66.8740234 L459.53418,66.8740234 L457.613769,59.2758789 L455.65625,66.8740234 L453.73584,66.8740234 L451.435059,57.3925781 L453.114258,57.3925781 L454.765625,65.027832 L456.760254,57.3925781 L458.522949,57.3925781 L460.480469,65.027832 Z" id="path-3"></path>
        <path d="M561.592285,60.2221679 C561.592285,61.2179411 561.468588,62.1255655 561.221191,62.9450683 C560.973794,63.7645711 560.596519,64.4650036 560.089355,65.0463867 C559.582191,65.6277698 558.9467,66.0777165 558.182861,66.3962402 C557.419023,66.7147639 556.520676,66.8740234 555.487793,66.8740234 L551.220215,66.8740234 L551.220215,53.5703125 L555.487793,53.5703125 C556.520676,53.5703125 557.419023,53.7295719 558.182861,54.0480957 C558.9467,54.3666194 559.582191,54.8165661 560.089355,55.3979492 C560.596519,55.9793323 560.973794,56.6797647 561.221191,57.4992675 C561.468588,58.3187703 561.592285,59.2263947 561.592285,60.2221679 Z M559.838867,59.9624023 C559.838867,59.2696905 559.752279,58.6202829 559.579101,58.0141601 C559.405923,57.4080373 559.141522,56.8807802 558.785889,56.432373 C558.430255,55.9839658 557.97567,55.6298841 557.422119,55.3701172 C556.868568,55.1103502 556.211429,54.9804687 555.450683,54.9804687 L552.853027,54.9804687 L552.853027,65.4638672 L555.450683,65.4638672 C556.211429,65.4638672 556.868568,65.3355318 557.422119,65.0788574 C557.97567,64.8221829 558.430255,64.4696474 558.785889,64.0212402 C559.141522,63.572833 559.405923,63.0455759 559.579101,62.4394531 C559.752279,61.8333303 559.838867,61.1839227 559.838867,60.4912109 L559.838867,59.9624023 Z M565.182617,62.6157226 C565.213542,63.0610373 565.303222,63.4723288 565.45166,63.8496093 C565.600098,64.2268899 565.802652,64.5531399 566.059326,64.8283691 C566.316001,65.1035983 566.619057,65.3169751 566.968506,65.4685058 C567.317954,65.6200365 567.706052,65.6958007 568.132812,65.6958007 C568.658531,65.6958007 569.120847,65.6076669 569.519775,65.4313964 C569.918703,65.255126 570.285154,65.0340182 570.61914,64.7680664 L571.416992,65.890625 C570.990232,66.2307959 570.496992,66.5106597 569.937256,66.7302246 C569.37752,66.9497895 568.751305,67.0595703 568.058594,67.0595703 C567.372067,67.0595703 566.750491,66.9374198 566.193848,66.6931152 C565.637204,66.4488106 565.162518,66.1086447 564.769775,65.6726074 C564.377032,65.23657 564.075522,64.717044 563.865234,64.1140136 C563.654947,63.5109833 563.549805,62.8538447 563.549805,62.1425781 C563.549805,61.4189417 563.653401,60.7556182 563.860596,60.1525879 C564.067791,59.5495575 564.360024,59.0300314 564.737305,58.5939941 C565.114585,58.1579568 565.566078,57.8177909 566.091797,57.5734863 C566.617516,57.3291817 567.201982,57.2070312 567.845215,57.2070312 C568.469892,57.2070312 569.032712,57.3291817 569.533691,57.5734863 C570.03467,57.8177909 570.461424,58.1579568 570.813965,58.5939941 C571.166506,59.0300314 571.437092,59.5495575 571.625732,60.1525879 C571.814373,60.7556182 571.908691,61.4127568 571.908691,62.1240234 L571.908691,62.6157226 L565.182617,62.6157226 Z M567.789551,58.5708007 C567.393715,58.5708007 567.04118,58.6481112 566.731933,58.8027343 C566.422687,58.9573575 566.158285,59.1645494 565.938721,59.4243164 C565.719156,59.6840833 565.54598,59.9825015 565.419189,60.31958 C565.292398,60.6566585 565.219727,61.0045555 565.201172,61.3632812 L570.220215,61.3632812 C570.207845,60.9983705 570.14445,60.6473812 570.030029,60.3103027 C569.915608,59.9732242 569.754802,59.6763522 569.547607,59.4196777 C569.340412,59.1630032 569.089926,58.9573575 568.796142,58.8027343 C568.502358,58.6481112 568.166831,58.5708007 567.789551,58.5708007 Z M575.118652,62.1796875 C575.118652,62.6559268 575.177408,63.1074197 575.294922,63.5341797 C575.412435,63.9609396 575.585611,64.3335758 575.814453,64.6520996 C576.043295,64.9706233 576.329344,65.2242015 576.672607,65.4128418 C577.015871,65.601482 577.416339,65.6958007 577.874023,65.6958007 C578.1709,65.6958007 578.444579,65.6540531 578.695068,65.5705566 C578.945558,65.4870601 579.171304,65.3741869 579.372314,65.2319336 C579.573324,65.0896802 579.752685,64.9211435 579.9104,64.7263183 C580.068116,64.5314931 580.205728,64.322755 580.323242,64.1000976 L581.62207,64.8422851 C581.461262,65.1762712 581.255616,65.4808742 581.005127,65.7561035 C580.754637,66.0313327 580.468589,66.2648102 580.146973,66.4565429 C579.825356,66.6482757 579.472821,66.7967117 579.089355,66.9018554 C578.70589,67.0069992 578.300783,67.0595703 577.874023,67.0595703 C577.218421,67.0595703 576.623131,66.9374198 576.088135,66.6931152 C575.553138,66.4488106 575.093915,66.1086447 574.710449,65.6726074 C574.326984,65.23657 574.030112,64.7185902 573.819824,64.1186523 C573.609537,63.5187144 573.504394,62.8600296 573.504394,62.1425781 C573.504394,61.4189417 573.609537,60.7556182 573.819824,60.1525879 C574.030112,59.5495575 574.326984,59.0300314 574.710449,58.5939941 C575.093915,58.1579568 575.553138,57.8177909 576.088135,57.5734863 C576.623131,57.3291817 577.218421,57.2070312 577.874023,57.2070312 C578.300783,57.2070312 578.70589,57.2596023 579.089355,57.3647461 C579.472821,57.4698898 579.825356,57.6183258 580.146973,57.8100586 C580.468589,58.0017913 580.754637,58.2352688 581.005127,58.510498 C581.255616,58.7857273 581.461262,59.0903303 581.62207,59.4243164 L580.323242,60.1665039 C580.205728,59.9438465 580.068116,59.7351084 579.9104,59.5402832 C579.752685,59.345458 579.573324,59.1769212 579.372314,59.0346679 C579.171304,58.8924146 578.945558,58.7795414 578.695068,58.6960449 C578.444579,58.6125484 578.1709,58.5708007 577.874023,58.5708007 C577.416339,58.5708007 577.015871,58.6651195 576.672607,58.8537597 C576.329344,59.0424 576.043295,59.2959782 575.814453,59.6145019 C575.585611,59.9330256 575.412435,60.3056619 575.294922,60.7324218 C575.177408,61.1591818 575.118652,61.6106747 575.118652,62.086914 L575.118652,62.1796875 Z M585.351562,66.8740234 L583.792969,66.8740234 L583.792969,57.3925781 L585.351562,57.3925781 L585.351562,66.8740234 Z M583.505371,54.6557617 C583.505371,54.5073234 583.534749,54.3681647 583.593506,54.2382812 C583.652263,54.1083978 583.729573,53.9939783 583.825439,53.8950195 C583.921306,53.7960607 584.035725,53.717204 584.168701,53.6584472 C584.301677,53.5996904 584.442382,53.5703125 584.59082,53.5703125 C584.739258,53.5703125 584.878417,53.5996904 585.008301,53.6584472 C585.138184,53.717204 585.251057,53.7960607 585.346924,53.8950195 C585.44279,53.9939783 585.5201,54.1083978 585.578857,54.2382812 C585.637614,54.3681647 585.666992,54.5073234 585.666992,54.6557617 C585.666992,54.8041999 585.637614,54.9449049 585.578857,55.0778808 C585.5201,55.2108567 585.44279,55.3252762 585.346924,55.4211425 C585.251057,55.5170089 585.138184,55.5943193 585.008301,55.6530761 C584.878417,55.7118329 584.739258,55.7412109 584.59082,55.7412109 C584.442382,55.7412109 584.301677,55.7118329 584.168701,55.6530761 C584.035725,55.5943193 583.921306,55.5170089 583.825439,55.4211425 C583.729573,55.3252762 583.652263,55.2108567 583.593506,55.0778808 C583.534749,54.9449049 583.505371,54.8041999 583.505371,54.6557617 Z M594.54541,64.2485351 C594.54541,64.6938498 594.447999,65.0912254 594.253174,65.4406738 C594.058349,65.7901222 593.800132,66.085448 593.478515,66.3266601 C593.156899,66.5678723 592.787355,66.7503249 592.369873,66.8740234 C591.95239,66.9977219 591.524091,67.0595703 591.084961,67.0595703 C590.392249,67.0595703 589.725833,66.9405122 589.085693,66.7023925 C588.445553,66.4642729 587.878095,66.1225608 587.383301,65.6772461 L588.236816,64.5732422 C588.385255,64.7031256 588.556884,64.839192 588.751709,64.9814453 C588.946534,65.1236986 589.164549,65.2551263 589.405762,65.3757324 C589.646974,65.4963385 589.906737,65.5952958 590.185058,65.6726074 C590.46338,65.749919 590.75716,65.7885742 591.066406,65.7885742 C591.319988,65.7885742 591.562743,65.7561038 591.794678,65.6911621 C592.026612,65.6262203 592.229166,65.5303554 592.402344,65.4035644 C592.575522,65.2767734 592.713134,65.125245 592.815185,64.9489746 C592.917237,64.7727042 592.968262,64.5732433 592.968262,64.3505859 C592.968262,64.1031888 592.914144,63.8959969 592.805908,63.7290039 C592.697672,63.5620108 592.550782,63.4197597 592.365234,63.3022461 C592.179686,63.1847324 591.963217,63.0826827 591.71582,62.9960937 C591.468423,62.9095047 591.20866,62.8229171 590.936523,62.7363281 L590.342773,62.5415039 C590.008787,62.4301752 589.687176,62.3033861 589.37793,62.1611328 C589.068683,62.0188795 588.795004,61.8441579 588.556885,61.6369629 C588.318765,61.4297678 588.130128,61.1839207 587.990967,60.899414 C587.851806,60.6149074 587.782226,60.2747415 587.782226,59.8789062 C587.782226,59.55729 587.85026,59.2372249 587.986328,58.9187011 C588.122396,58.6001774 588.331135,58.3141288 588.612549,58.0605468 C588.893963,57.8069648 589.251137,57.6013191 589.684082,57.4436035 C590.117027,57.2858878 590.627276,57.2070312 591.214844,57.2070312 C591.864261,57.2070312 592.465736,57.3152658 593.019287,57.5317382 C593.572838,57.7482107 594.041339,58.017251 594.424805,58.3388672 L593.608398,59.4614257 C593.47233,59.3315423 593.311524,59.2078456 593.125976,59.090332 C592.940429,58.9728184 592.742514,58.8692224 592.532226,58.779541 C592.321939,58.6898595 592.102377,58.6171877 591.873535,58.5615234 C591.644693,58.5058591 591.418946,58.4780273 591.196289,58.4780273 C590.856118,58.4780273 590.568523,58.5166825 590.333496,58.5939941 C590.098469,58.6713057 589.909831,58.7718092 589.767578,58.8955078 C589.625325,59.0192063 589.521729,59.1583651 589.456787,59.3129882 C589.391845,59.4676114 589.359375,59.6191398 589.359375,59.7675781 C589.359375,59.9840505 589.405761,60.1649569 589.498535,60.3103027 C589.591309,60.4556485 589.713459,60.5808914 589.86499,60.6860351 C590.016521,60.7911789 590.189696,60.880859 590.384521,60.9550781 C590.579347,61.0292972 590.7819,61.1035152 590.992187,61.1777343 L591.771484,61.4375 C592.14258,61.5611985 592.482746,61.6926262 592.791992,61.8317871 C593.101238,61.9709479 593.373371,62.1302074 593.608398,62.3095703 C593.905275,62.5445975 594.13566,62.8167302 594.29956,63.1259765 C594.463461,63.4352229 594.54541,63.8094053 594.54541,64.2485351 Z M598.497558,66.8740234 L596.938965,66.8740234 L596.938965,57.3925781 L598.497558,57.3925781 L598.497558,66.8740234 Z M596.651367,54.6557617 C596.651367,54.5073234 596.680745,54.3681647 596.739502,54.2382812 C596.798259,54.1083978 596.875569,53.9939783 596.971435,53.8950195 C597.067302,53.7960607 597.181721,53.717204 597.314697,53.6584472 C597.447673,53.5996904 597.588378,53.5703125 597.736816,53.5703125 C597.885255,53.5703125 598.024413,53.5996904 598.154297,53.6584472 C598.28418,53.717204 598.397053,53.7960607 598.49292,53.8950195 C598.588786,53.9939783 598.666097,54.1083978 598.724853,54.2382812 C598.78361,54.3681647 598.812988,54.5073234 598.812988,54.6557617 C598.812988,54.8041999 598.78361,54.9449049 598.724853,55.0778808 C598.666097,55.2108567 598.588786,55.3252762 598.49292,55.4211425 C598.397053,55.5170089 598.28418,55.5943193 598.154297,55.6530761 C598.024413,55.7118329 597.885255,55.7412109 597.736816,55.7412109 C597.588378,55.7412109 597.447673,55.7118329 597.314697,55.6530761 C597.181721,55.5943193 597.067302,55.5170089 596.971435,55.4211425 C596.875569,55.3252762 596.798259,55.2108567 596.739502,55.0778808 C596.680745,54.9449049 596.651367,54.8041999 596.651367,54.6557617 Z M605.140137,57.2070312 C605.795739,57.2070312 606.392575,57.3291817 606.930664,57.5734863 C607.468753,57.8177909 607.927976,58.1579568 608.308349,58.5939941 C608.688722,59.0300314 608.984048,59.5495575 609.194336,60.1525879 C609.404623,60.7556182 609.509765,61.4189417 609.509765,62.1425781 C609.509765,62.8538447 609.404623,63.5109833 609.194336,64.1140136 C608.984048,64.717044 608.688722,65.23657 608.308349,65.6726074 C607.927976,66.1086447 607.468753,66.4488106 606.930664,66.6931152 C606.392575,66.9374198 605.795739,67.0595703 605.140137,67.0595703 C604.484534,67.0595703 603.889244,66.9374198 603.354248,66.6931152 C602.819252,66.4488106 602.360028,66.1086447 601.976562,65.6726074 C601.593097,65.23657 601.296225,64.717044 601.085937,64.1140136 C600.87565,63.5109833 600.770508,62.8538447 600.770508,62.1425781 C600.770508,61.4189417 600.87565,60.7556182 601.085937,60.1525879 C601.296225,59.5495575 601.593097,59.0300314 601.976562,58.5939941 C602.360028,58.1579568 602.819252,57.8177909 603.354248,57.5734863 C603.889244,57.3291817 604.484534,57.2070312 605.140137,57.2070312 Z M605.140137,65.6958007 C605.591636,65.6958007 605.989012,65.601482 606.332275,65.4128418 C606.675539,65.2242015 606.963133,64.9690771 607.195068,64.6474609 C607.427003,64.3258447 607.601725,63.9532085 607.719238,63.529541 C607.836752,63.1058735 607.895508,62.6621117 607.895508,62.1982422 L607.895508,62.086914 C607.895508,61.6106747 607.836752,61.1591818 607.719238,60.7324218 C607.601725,60.3056619 607.427003,59.9330256 607.195068,59.6145019 C606.963133,59.2959782 606.675539,59.0424 606.332275,58.8537597 C605.989012,58.6651195 605.591636,58.5708007 605.140137,58.5708007 C604.688637,58.5708007 604.291261,58.6651195 603.947998,58.8537597 C603.604734,59.0424 603.31714,59.2959782 603.085205,59.6145019 C602.85327,59.9330256 602.678549,60.3056619 602.561035,60.7324218 C602.443521,61.1591818 602.384765,61.6106747 602.384765,62.086914 L602.384765,62.1982422 C602.384765,62.6621117 602.443521,63.1058735 602.561035,63.529541 C602.678549,63.9532085 602.85327,64.3258447 603.085205,64.6474609 C603.31714,64.9690771 603.604734,65.2242015 603.947998,65.4128418 C604.291261,65.601482 604.688637,65.6958007 605.140137,65.6958007 Z M611.791992,57.3925781 L613.350586,57.3925781 L613.350586,58.4780273 C613.672202,58.0388975 614.069578,57.7172861 614.542724,57.5131836 C615.015871,57.309081 615.543128,57.2070312 616.124512,57.2070312 C616.65023,57.2070312 617.111,57.2936189 617.506836,57.4667968 C617.902671,57.6399748 618.23356,57.8749985 618.499512,58.171875 C618.765463,58.4687514 618.964924,58.8120097 619.0979,59.2016601 C619.230876,59.5913105 619.297363,60.002602 619.297363,60.4355468 L619.297363,66.8740234 L617.738769,66.8740234 L617.738769,60.9272461 C617.738769,60.512856 617.687745,60.1587742 617.585693,59.8649902 C617.483642,59.5712062 617.344483,59.3330901 617.168213,59.1506347 C616.991942,58.9681794 616.78475,58.8352055 616.546631,58.7517089 C616.308511,58.6682124 616.053387,58.6264648 615.78125,58.6264648 C615.484373,58.6264648 615.19214,58.6805821 614.904541,58.7888183 C614.616942,58.8970545 614.357179,59.0594064 614.125244,59.2758789 C613.893309,59.4923513 613.706218,59.764484 613.563965,60.0922851 C613.421711,60.4200862 613.350586,60.8066384 613.350586,61.2519531 L613.350586,66.8740234 L611.791992,66.8740234 L611.791992,57.3925781 Z" id="path-4"></path>
    </defs>
    <g id="Page-1" stroke="none" stroke-width="1" fill="none" fill-rule="evenodd">
        <g id="Appeal-received" transform="translate(-9.000000, -13.000000)">
            <g id="cor-progress-bar-received" transform="translate(9.000000, 13.000000)">
                <g id="Group-3">
                    <g id="Appeal">
                        <use fill="#000000" xlink:href="#path-1"></use>
                        <use fill="#0B0C0C" xlink:href="#path-1"></use>
                    </g>
                    <g id="DWP-response">
                        <use fill="#000000" xlink:href="#path-2"></use>
                        <use fill="#0B0C0C" xlink:href="#path-2"></use>
                    </g>
                    <g id="Tribunal-review">
                        <use fill="#000000" xlink:href="#path-3"></use>
                        <use fill="#0B0C0C" xlink:href="#path-3"></use>
                    </g>
                    <g id="Decision">
                        <use fill="#000000" xlink:href="#path-4"></use>
                        <use fill="#0B0C0C" xlink:href="#path-4"></use>
                    </g>
                    <g id="Group-2" transform="translate(12.000000, 0.000000)">
                        <g id="Group">
                            <circle id="Oval-2" fill="#006435" cx="20.5" cy="20.5" r="20.5"></circle>
                            <polygon id="Path" fill="#FFFFFF" points="16.3374074 23.5619753 12.1128395 19.3374074 9 22.4502469 16.3374074 30.01 31.2345679 15.1128395 28.1217284 12"></polygon>
                        </g>
                        <path d="M41.5,20.5 L559.000242,20.5" id="Line" stroke="#006435" stroke-width="6" stroke-linecap="square"></path>
                        <g id="Group" transform="translate(556.000000, 3.000000)" fill="#FFFFFF" stroke="#006435" stroke-width="6">
                            <circle id="Oval-2" cx="17.5" cy="17.5" r="17.5"></circle>
                        </g>
                    </g>
                </g>
                <circle id="Oval-2" stroke="#006435" stroke-width="6" fill="#FFFFFF" cx="217.5" cy="20.5" r="17.5"></circle>
                <circle id="Oval-2" stroke="#006435" stroke-width="6" fill="#FFFFFF" cx="401.5" cy="20.5" r="17.5"></circle>
            </g>
        </g>
    </g>
</svg>