<?xml version="1.0" encoding="UTF-8"?>
<svg width="620px" height="70px" viewBox="0 0 620 70" version="1.1" xmlns="http://www.w3.org/2000/svg" xmlns:xlink="http://www.w3.org/1999/xlink">
    <!-- Generator: Sketch 52 (66869) - http://www.bohemiancoding.com/sketch -->
    <title>Group 2</title>
    <desc>Created with Sketch.</desc>
    <defs>
        <path d="M8.65454102,63.4599609 L3.43139648,63.4599609 L2.50366211,66.6513672 L0.768798828,66.6513672 L4.8972168,53.3476563 L7.25366211,53.3476563 L11.4099121,66.6513672 L9.61010742,66.6513672 L8.65454102,63.4599609 Z M3.83032227,62.0683594 L8.25561523,62.0683594 L6.11254883,54.8134766 L5.96411133,54.8134766 L3.83032227,62.0683594 Z M14.9909668,57.1699219 L14.9909668,58.2553711 C15.2692885,57.8657207 15.6465634,57.556479 16.1228027,57.3276367 C16.5990421,57.0987944 17.1463999,56.984375 17.7648926,56.984375 C18.3772003,56.984375 18.930743,57.1065255 19.4255371,57.3508301 C19.9203313,57.5951347 20.3439924,57.9368468 20.6965332,58.3759766 C21.049074,58.8151064 21.3196605,59.3361786 21.5083008,59.939209 C21.696941,60.5422394 21.7912598,61.2024704 21.7912598,61.9199219 C21.7912598,62.6373734 21.696941,63.2960582 21.5083008,63.8959961 C21.3196605,64.495934 21.049074,65.0139138 20.6965332,65.4499512 C20.3439924,65.8859885 19.9203313,66.2261544 19.4255371,66.470459 C18.930743,66.7147636 18.3772003,66.8369141 17.7648926,66.8369141 C17.1463999,66.8369141 16.5990421,66.7224946 16.1228027,66.4936524 C15.6465634,66.2648101 15.2692885,65.9555684 14.9909668,65.565918 L14.9909668,69.5366211 L13.432373,69.5366211 L13.432373,57.1699219 L14.9909668,57.1699219 Z M20.177002,61.8642578 C20.177002,61.3694637 20.118246,60.9086936 20.0007324,60.4819336 C19.8832188,60.0551737 19.7100435,59.6856298 19.4812012,59.373291 C19.2523589,59.0609522 18.9694027,58.8151051 18.6323242,58.6357422 C18.2952457,58.4563793 17.9102398,58.3666992 17.4772949,58.3666992 C17.0629048,58.3666992 16.6995458,58.4378248 16.387207,58.5800781 C16.0748682,58.7223315 15.813559,58.9171537 15.6032715,59.1645508 C15.392984,59.4119479 15.2337245,59.7041813 15.1254883,60.0412598 C15.0172521,60.3783383 14.9631348,60.7447897 14.9631348,61.140625 L14.9631348,62.6806641 C14.9631348,63.0764994 15.0172521,63.4429508 15.1254883,63.7800293 C15.2337245,64.1171078 15.392984,64.4093412 15.6032715,64.6567383 C15.813559,64.9041354 16.0748682,65.0989576 16.387207,65.2412109 C16.6995458,65.3834643 17.0629048,65.4545899 17.4772949,65.4545899 C17.9102398,65.4545899 18.2952457,65.3649098 18.6323242,65.1855469 C18.9694027,65.006184 19.2523589,64.7603369 19.4812012,64.4479981 C19.7100435,64.1356593 19.8832188,63.7661154 20.0007324,63.3393555 C20.118246,62.9125955 20.177002,62.4518254 20.177002,61.9570313 L20.177002,61.8642578 Z M25.6506348,57.1699219 L25.6506348,58.2553711 C25.9289565,57.8657207 26.3062313,57.556479 26.7824707,57.3276367 C27.2587101,57.0987944 27.8060679,56.984375 28.4245605,56.984375 C29.0368683,56.984375 29.5904109,57.1065255 30.0852051,57.3508301 C30.5799992,57.5951347 31.0036603,57.9368468 31.3562012,58.3759766 C31.708742,58.8151064 31.9793285,59.3361786 32.1679688,59.939209 C32.356609,60.5422394 32.4509277,61.2024704 32.4509277,61.9199219 C32.4509277,62.6373734 32.356609,63.2960582 32.1679688,63.8959961 C31.9793285,64.495934 31.708742,65.0139138 31.3562012,65.4499512 C31.0036603,65.8859885 30.5799992,66.2261544 30.0852051,66.470459 C29.5904109,66.7147636 29.0368683,66.8369141 28.4245605,66.8369141 C27.8060679,66.8369141 27.2587101,66.7224946 26.7824707,66.4936524 C26.3062313,66.2648101 25.9289565,65.9555684 25.6506348,65.565918 L25.6506348,69.5366211 L24.092041,69.5366211 L24.092041,57.1699219 L25.6506348,57.1699219 Z M30.8366699,61.8642578 C30.8366699,61.3694637 30.777914,60.9086936 30.6604004,60.4819336 C30.5428868,60.0551737 30.3697114,59.6856298 30.1408691,59.373291 C29.9120269,59.0609522 29.6290707,58.8151051 29.2919922,58.6357422 C28.9549137,58.4563793 28.5699078,58.3666992 28.1369629,58.3666992 C27.7225728,58.3666992 27.3592138,58.4378248 27.046875,58.5800781 C26.7345362,58.7223315 26.473227,58.9171537 26.2629395,59.1645508 C26.0526519,59.4119479 25.8933925,59.7041813 25.7851563,60.0412598 C25.67692,60.3783383 25.6228027,60.7447897 25.6228027,61.140625 L25.6228027,62.6806641 C25.6228027,63.0764994 25.67692,63.4429508 25.7851563,63.7800293 C25.8933925,64.1171078 26.0526519,64.4093412 26.2629395,64.6567383 C26.473227,64.9041354 26.7345362,65.0989576 27.046875,65.2412109 C27.3592138,65.3834643 27.7225728,65.4545899 28.1369629,65.4545899 C28.5699078,65.4545899 28.9549137,65.3649098 29.2919922,65.1855469 C29.6290707,65.006184 29.9120269,64.7603369 30.1408691,64.4479981 C30.3697114,64.1356593 30.5428868,63.7661154 30.6604004,63.3393555 C30.777914,62.9125955 30.8366699,62.4518254 30.8366699,61.9570313 L30.8366699,61.8642578 Z M35.8093262,62.3930664 C35.8402508,62.8383811 35.9299309,63.2496726 36.0783691,63.6269531 C36.2268074,64.0042337 36.4293607,64.3304837 36.6860352,64.6057129 C36.9427096,64.8809421 37.2457665,65.0943189 37.5952148,65.2458496 C37.9446632,65.3973803 38.3327615,65.4731445 38.7595215,65.4731445 C39.2852403,65.4731445 39.7475566,65.3850107 40.1464844,65.2087402 C40.5454122,65.0324698 40.9118636,64.811362 41.2458496,64.5454102 L42.0437012,65.6679688 C41.6169412,66.0081397 41.1237007,66.2880035 40.5639648,66.5075684 C40.004229,66.7271333 39.3780145,66.8369141 38.6853027,66.8369141 C37.9987759,66.8369141 37.3772,66.7147636 36.8205566,66.470459 C36.2639132,66.2261544 35.7892272,65.8859885 35.3964844,65.4499512 C35.0037415,65.0139138 34.7022309,64.4943878 34.4919434,63.8913574 C34.2816558,63.2883271 34.1765137,62.6311885 34.1765137,61.9199219 C34.1765137,61.1962855 34.2801096,60.532962 34.4873047,59.9299317 C34.6944997,59.3269013 34.9867331,58.8073752 35.3640137,58.3713379 C35.7412942,57.9353006 36.1927871,57.5951347 36.7185059,57.3508301 C37.2442246,57.1065255 37.8286914,56.984375 38.4719238,56.984375 C39.0966014,56.984375 39.6594213,57.1065255 40.1604004,57.3508301 C40.6613795,57.5951347 41.088133,57.9353006 41.4406738,58.3713379 C41.7932147,58.8073752 42.0638011,59.3269013 42.2524414,59.9299317 C42.4410817,60.532962 42.5354004,61.1901006 42.5354004,61.9013672 L42.5354004,62.3930664 L35.8093262,62.3930664 Z M38.4162598,58.3481445 C38.0204245,58.3481445 37.6678889,58.425455 37.3586426,58.5800781 C37.0493962,58.7347013 36.7849946,58.9418932 36.5654297,59.2016602 C36.3458648,59.4614271 36.1726894,59.7598453 36.0458984,60.0969238 C35.9191074,60.4340023 35.8464356,60.7818993 35.8278809,61.140625 L40.8469238,61.140625 C40.834554,60.7757143 40.7711594,60.424725 40.6567383,60.0876465 C40.5423171,59.750568 40.3815115,59.453696 40.1743164,59.1970215 C39.9671214,58.940347 39.7166356,58.7347013 39.4228516,58.5800781 C39.1290675,58.425455 38.7935403,58.3481445 38.4162598,58.3481445 Z M50.0964355,65.7050781 C49.8181138,66.0266943 49.4423852,66.2957346 48.9692383,66.512207 C48.4960914,66.7286795 47.9410025,66.8369141 47.3039551,66.8369141 C46.8339006,66.8369141 46.3978698,66.7704271 45.9958496,66.6374512 C45.5938294,66.5044753 45.2443863,66.3142916 44.9475098,66.0668945 C44.6506333,65.8194975 44.418702,65.519533 44.251709,65.1669922 C44.084716,64.8144514 44.0012207,64.4155296 44.0012207,63.9702149 C44.0012207,63.5991193 44.0615228,63.2604996 44.1821289,62.9543457 C44.302735,62.6481918 44.4728179,62.3806978 44.6923828,62.1518555 C44.9119477,61.9230132 45.1763494,61.735922 45.4855957,61.5905762 C45.794842,61.4452304 46.1411927,61.3447269 46.5246582,61.2890625 L49.8737793,60.8344727 L49.8737793,60.2314453 C49.8737793,59.8727196 49.8181158,59.5712089 49.7067871,59.3269043 C49.5954584,59.0825997 49.4454762,58.8893236 49.2568359,58.7470703 C49.0681957,58.604817 48.8455416,58.5027672 48.5888672,58.440918 C48.3321927,58.3790687 48.0554214,58.3481445 47.7585449,58.3481445 C47.2266412,58.3481445 46.7303083,58.4223626 46.2695313,58.5708008 C45.8087542,58.719239 45.3928241,58.8924144 45.0217285,59.090332 L44.4372559,57.8564453 C44.9815294,57.547199 45.5520803,57.324545 46.1489258,57.1884766 C46.7457712,57.0524082 47.3348767,56.984375 47.9162598,56.984375 C49.0728411,56.984375 49.9479951,57.2456842 50.541748,57.7683106 C51.135501,58.2909369 51.432373,59.0532177 51.432373,60.0551758 L51.432373,64.4248047 C51.432373,64.740236 51.4942214,65.0046376 51.6179199,65.2180176 C51.7416185,65.4313976 51.9395331,65.5999343 52.2116699,65.7236328 L51.3303223,66.8369141 C51.0334458,66.762695 50.7783214,66.6312672 50.5649414,66.442627 C50.3515614,66.2539867 50.2015792,66.0266941 50.1149902,65.7607422 L50.0964355,65.7050781 Z M47.3225098,62.4301758 C47.0627428,62.4672854 46.8261729,62.5198564 46.612793,62.5878906 C46.399413,62.6559248 46.2185066,62.7471511 46.0700684,62.8615723 C45.9216301,62.9759934 45.8056645,63.1166984 45.722168,63.2836914 C45.6386715,63.4506844 45.5969238,63.654784 45.5969238,63.8959961 C45.5969238,64.1743178 45.6494949,64.4217112 45.7546387,64.6381836 C45.8597824,64.854656 46.0020336,65.0371086 46.1813965,65.1855469 C46.3607594,65.3339851 46.5694975,65.4468583 46.8076172,65.5241699 C47.0457369,65.6014815 47.2946764,65.6401367 47.5544434,65.6401367 C47.8451349,65.6401367 48.1296373,65.5999353 48.407959,65.5195313 C48.6862807,65.4391272 48.933674,65.3231616 49.1501465,65.1716309 C49.3666189,65.0201002 49.5413405,64.8361014 49.6743164,64.6196289 C49.8072923,64.4031565 49.8737793,64.1557631 49.8737793,63.8774414 L49.8737793,62.0498047 L47.3225098,62.4301758 Z M54.1970215,53.3476563 L55.7556152,53.3476563 L55.7556152,64.5268555 C55.7556152,64.6814787 55.7695311,64.817545 55.7973633,64.9350586 C55.8251955,65.0525722 55.8731279,65.1515296 55.9411621,65.2319336 C56.0091963,65.3123377 56.103515,65.3726398 56.2241211,65.4128418 C56.3447272,65.4530438 56.4947094,65.4731445 56.6740723,65.4731445 C56.8719899,65.4731445 57.0513501,65.4669597 57.2121582,65.4545899 C57.3729663,65.44222 57.5152175,65.4298503 57.638916,65.4174805 L57.7966309,66.7255859 L57.2585449,66.78125 C57.1039218,66.7936199 56.9338388,66.8059895 56.748291,66.8183594 C56.5627432,66.8307292 56.3864754,66.8369141 56.2194824,66.8369141 C55.9411607,66.8369141 55.6783053,66.8044437 55.4309082,66.739502 C55.1835111,66.6745602 54.9685882,66.5678718 54.7861328,66.4194336 C54.6036775,66.2709954 54.4598801,66.0792655 54.3547363,65.8442383 C54.2495926,65.6092111 54.1970215,65.3216163 54.1970215,64.9814453 L54.1970215,53.3476563 Z" id="path-1"></path>
        <path d="M171.22998,60.2221679 C171.22998,61.2179411 171.106283,62.1255655 170.858886,62.9450683 C170.611489,63.7645711 170.234214,64.4650036 169.72705,65.0463867 C169.219886,65.6277698 168.584395,66.0777165 167.820556,66.3962402 C167.056718,66.7147639 166.158371,66.8740234 165.125488,66.8740234 L160.85791,66.8740234 L160.85791,53.5703125 L165.125488,53.5703125 C166.158371,53.5703125 167.056718,53.7295719 167.820556,54.0480957 C168.584395,54.3666194 169.219886,54.8165661 169.72705,55.3979492 C170.234214,55.9793323 170.611489,56.6797647 170.858886,57.4992675 C171.106283,58.3187703 171.22998,59.2263947 171.22998,60.2221679 Z M169.476562,59.9624023 C169.476562,59.2696905 169.389974,58.6202829 169.216796,58.0141601 C169.043618,57.4080373 168.779217,56.8807802 168.423584,56.432373 C168.06795,55.9839658 167.613365,55.6298841 167.059814,55.3701172 C166.506263,55.1103502 165.849124,54.9804687 165.088378,54.9804687 L162.490722,54.9804687 L162.490722,65.4638672 L165.088378,65.4638672 C165.849124,65.4638672 166.506263,65.3355318 167.059814,65.0788574 C167.613365,64.8221829 168.06795,64.4696474 168.423584,64.0212402 C168.779217,63.572833 169.043618,63.0455759 169.216796,62.4394531 C169.389974,61.8333303 169.476562,61.1839227 169.476562,60.4912109 L169.476562,59.9624023 Z M184.357421,64.5175781 L184.450195,64.5175781 L186.713867,53.5703125 L188.383789,53.5703125 L185.424316,66.8740234 L183.485351,66.8740234 L180.655761,56.0102539 L177.835449,66.8740234 L175.887207,66.8740234 L172.937011,53.5703125 L174.588378,53.5703125 L176.88916,64.5175781 L177.000488,64.5175781 L179.895019,53.5703125 L181.472168,53.5703125 L184.357421,64.5175781 Z M191.027832,53.5703125 L195.694335,53.5703125 C196.319013,53.5703125 196.884925,53.6739084 197.392089,53.8811035 C197.899253,54.0882985 198.333738,54.3758933 198.695556,54.7438964 C199.057374,55.1118996 199.335692,55.552569 199.530517,56.0659179 C199.725342,56.5792669 199.822753,57.1420867 199.822753,57.7543945 C199.822753,58.3728872 199.716065,58.9372533 199.502685,59.4475097 C199.289305,59.9577662 198.990887,60.3953432 198.607421,60.7602539 C198.223956,61.1251645 197.767824,61.4081207 197.239013,61.6091308 C196.710202,61.8101409 196.133466,61.9106445 195.508789,61.9106445 L192.660644,61.9106445 L192.660644,66.8740234 L191.027832,66.8740234 L191.027832,53.5703125 Z M198.08789,57.7172851 C198.08789,57.3276347 198.026042,56.9658219 197.902343,56.6318359 C197.778645,56.2978499 197.599285,56.0087089 197.364257,55.7644043 C197.12923,55.5200997 196.843182,55.3283698 196.506103,55.1892089 C196.169025,55.0500481 195.787111,54.9804687 195.360351,54.9804687 L192.660644,54.9804687 L192.660644,60.5097656 L195.360351,60.5097656 C195.787111,60.5097656 196.169025,60.4417324 196.506103,60.305664 C196.843182,60.1695956 197.12923,59.9825044 197.364257,59.7443847 C197.599285,59.506265 197.778645,59.2217627 197.902343,58.8908691 C198.026042,58.5599755 198.08789,58.1997089 198.08789,57.8100586 L198.08789,57.7172851 Z M210.064941,58.7841797 L209.814453,58.7841797 C209.412432,58.7841797 209.028973,58.8305659 208.664062,58.9233398 C208.299151,59.0161137 207.97754,59.1831042 207.699218,59.4243164 C207.420897,59.6655285 207.198243,59.9948709 207.03125,60.4123535 C206.864257,60.829836 206.780761,61.363278 206.780761,62.0126953 L206.780761,66.8740234 L205.222168,66.8740234 L205.222168,57.3925781 L206.780761,57.3925781 L206.780761,58.8955078 C206.898275,58.6171861 207.055988,58.3728851 207.253906,58.1625976 C207.451823,57.9523101 207.676024,57.7775885 207.926513,57.6384277 C208.177003,57.4992668 208.446043,57.3956709 208.733642,57.3276367 C209.021241,57.2596025 209.313475,57.2255859 209.610351,57.2255859 L210.064941,57.2255859 L210.064941,58.7841797 Z M212.718261,62.6157226 C212.749186,63.0610373 212.838866,63.4723288 212.987304,63.8496093 C213.135742,64.2268899 213.338296,64.5531399 213.59497,64.8283691 C213.851645,65.1035983 214.154702,65.3169751 214.50415,65.4685058 C214.853598,65.6200365 215.241697,65.6958007 215.668457,65.6958007 C216.194175,65.6958007 216.656492,65.6076669 217.055419,65.4313964 C217.454347,65.255126 217.820799,65.0340182 218.154785,64.7680664 L218.952636,65.890625 C218.525876,66.2307959 218.032636,66.5106597 217.4729,66.7302246 C216.913164,66.9497895 216.28695,67.0595703 215.594238,67.0595703 C214.907711,67.0595703 214.286135,66.9374198 213.729492,66.6931152 C213.172848,66.4488106 212.698162,66.1086447 212.305419,65.6726074 C211.912677,65.23657 211.611166,64.717044 211.400878,64.1140136 C211.190591,63.5109833 211.085449,62.8538447 211.085449,62.1425781 C211.085449,61.4189417 211.189045,60.7556182 211.39624,60.1525879 C211.603435,59.5495575 211.895668,59.0300314 212.272949,58.5939941 C212.650229,58.1579568 213.101722,57.8177909 213.627441,57.5734863 C214.15316,57.3291817 214.737627,57.2070312 215.380859,57.2070312 C216.005537,57.2070312 216.568356,57.3291817 217.069335,57.5734863 C217.570315,57.8177909 217.997068,58.1579568 218.349609,58.5939941 C218.70215,59.0300314 218.972736,59.5495575 219.161377,60.1525879 C219.350017,60.7556182 219.444335,61.4127568 219.444335,62.1240234 L219.444335,62.6157226 L212.718261,62.6157226 Z M215.325195,58.5708007 C214.92936,58.5708007 214.576824,58.6481112 214.267578,58.8027343 C213.958331,58.9573575 213.69393,59.1645494 213.474365,59.4243164 C213.2548,59.6840833 213.081625,59.9825015 212.954834,60.31958 C212.828043,60.6566585 212.755371,61.0045555 212.736816,61.3632812 L217.755859,61.3632812 C217.743489,60.9983705 217.680095,60.6473812 217.565673,60.3103027 C217.451252,59.9732242 217.290447,59.6763522 217.083252,59.4196777 C216.876056,59.1630032 216.625571,58.9573575 216.331787,58.8027343 C216.038003,58.6481112 215.702475,58.5708007 215.325195,58.5708007 Z M227.960937,64.2485351 C227.960937,64.6938498 227.863526,65.0912254 227.668701,65.4406738 C227.473876,65.7901222 227.215659,66.085448 226.894043,66.3266601 C226.572426,66.5678723 226.202883,66.7503249 225.7854,66.8740234 C225.367917,66.9977219 224.939618,67.0595703 224.500488,67.0595703 C223.807776,67.0595703 223.14136,66.9405122 222.50122,66.7023925 C221.86108,66.4642729 221.293622,66.1225608 220.798828,65.6772461 L221.652343,64.5732422 C221.800782,64.7031256 221.972411,64.839192 222.167236,64.9814453 C222.362061,65.1236986 222.580076,65.2551263 222.821289,65.3757324 C223.062501,65.4963385 223.322264,65.5952958 223.600585,65.6726074 C223.878907,65.749919 224.172687,65.7885742 224.481933,65.7885742 C224.735515,65.7885742 224.97827,65.7561038 225.210205,65.6911621 C225.442139,65.6262203 225.644693,65.5303554 225.817871,65.4035644 C225.991049,65.2767734 226.128661,65.125245 226.230712,64.9489746 C226.332764,64.7727042 226.383789,64.5732433 226.383789,64.3505859 C226.383789,64.1031888 226.329671,63.8959969 226.221435,63.7290039 C226.113199,63.5620108 225.966309,63.4197597 225.780761,63.3022461 C225.595213,63.1847324 225.378744,63.0826827 225.131347,62.9960937 C224.88395,62.9095047 224.624187,62.8229171 224.35205,62.7363281 L223.7583,62.5415039 C223.424314,62.4301752 223.102703,62.3033861 222.793457,62.1611328 C222.48421,62.0188795 222.210531,61.8441579 221.972412,61.6369629 C221.734292,61.4297678 221.545655,61.1839207 221.406494,60.899414 C221.267333,60.6149074 221.197753,60.2747415 221.197753,59.8789062 C221.197753,59.55729 221.265787,59.2372249 221.401855,58.9187011 C221.537923,58.6001774 221.746662,58.3141288 222.028076,58.0605468 C222.30949,57.8069648 222.666664,57.6013191 223.099609,57.4436035 C223.532554,57.2858878 224.042803,57.2070312 224.630371,57.2070312 C225.279788,57.2070312 225.881263,57.3152658 226.434814,57.5317382 C226.988365,57.7482107 227.456866,58.017251 227.840332,58.3388672 L227.023925,59.4614257 C226.887857,59.3315423 226.727051,59.2078456 226.541503,59.090332 C226.355956,58.9728184 226.158041,58.8692224 225.947753,58.779541 C225.737466,58.6898595 225.517904,58.6171877 225.289062,58.5615234 C225.06022,58.5058591 224.834473,58.4780273 224.611816,58.4780273 C224.271645,58.4780273 223.98405,58.5166825 223.749023,58.5939941 C223.513996,58.6713057 223.325358,58.7718092 223.183105,58.8955078 C223.040852,59.0192063 222.937256,59.1583651 222.872314,59.3129882 C222.807372,59.4676114 222.774902,59.6191398 222.774902,59.7675781 C222.774902,59.9840505 222.821288,60.1649569 222.914062,60.3103027 C223.006836,60.4556485 223.128986,60.5808914 223.280517,60.6860351 C223.432048,60.7911789 223.605223,60.880859 223.800048,60.9550781 C223.994874,61.0292972 224.197427,61.1035152 224.407714,61.1777343 L225.187011,61.4375 C225.558107,61.5611985 225.898273,61.6926262 226.207519,61.8317871 C226.516765,61.9709479 226.788898,62.1302074 227.023925,62.3095703 C227.320802,62.5445975 227.551187,62.8167302 227.715087,63.1259765 C227.878988,63.4352229 227.960937,63.8094053 227.960937,64.2485351 Z M231.913085,57.3925781 L231.913085,58.4780273 C232.191407,58.0883769 232.568682,57.7791352 233.044921,57.5502929 C233.521161,57.3214506 234.068519,57.2070312 234.687011,57.2070312 C235.299319,57.2070312 235.852862,57.3291817 236.347656,57.5734863 C236.84245,57.8177909 237.266111,58.159503 237.618652,58.5986328 C237.971193,59.0377626 238.241779,59.5588348 238.430419,60.1618652 C238.61906,60.7648956 238.713378,61.4251266 238.713378,62.1425781 C238.713378,62.8600296 238.61906,63.5187144 238.430419,64.1186523 C238.241779,64.7185902 237.971193,65.23657 237.618652,65.6726074 C237.266111,66.1086447 236.84245,66.4488106 236.347656,66.6931152 C235.852862,66.9374198 235.299319,67.0595703 234.687011,67.0595703 C234.068519,67.0595703 233.521161,66.9451508 233.044921,66.7163086 C232.568682,66.4874663 232.191407,66.1782246 231.913085,65.7885742 L231.913085,69.7592773 L230.354492,69.7592773 L230.354492,57.3925781 L231.913085,57.3925781 Z M237.099121,62.086914 C237.099121,61.5921199 237.040365,61.1313498 236.922851,60.7045898 C236.805338,60.2778299 236.632162,59.908286 236.40332,59.5959472 C236.174478,59.2836084 235.891521,59.0377613 235.554443,58.8583984 C235.217364,58.6790355 234.832358,58.5893554 234.399414,58.5893554 C233.985024,58.5893554 233.621665,58.660481 233.309326,58.8027343 C232.996987,58.9449877 232.735678,59.1398099 232.52539,59.387207 C232.315103,59.6346041 232.155843,59.9268375 232.047607,60.263916 C231.939371,60.6009945 231.885253,60.9674459 231.885253,61.3632812 L231.885253,62.9033203 C231.885253,63.2991556 231.939371,63.665607 232.047607,64.0026855 C232.155843,64.339764 232.315103,64.6319974 232.52539,64.8793945 C232.735678,65.1267916 232.996987,65.3216138 233.309326,65.4638672 C233.621665,65.6061205 233.985024,65.6772461 234.399414,65.6772461 C234.832358,65.6772461 235.217364,65.587566 235.554443,65.4082031 C235.891521,65.2288402 236.174478,64.9829931 236.40332,64.6706543 C236.632162,64.3583155 236.805338,63.9887716 236.922851,63.5620117 C237.040365,63.1352517 237.099121,62.6744816 237.099121,62.1796875 L237.099121,62.086914 Z M244.808593,57.2070312 C245.464196,57.2070312 246.061032,57.3291817 246.599121,57.5734863 C247.137209,57.8177909 247.596433,58.1579568 247.976806,58.5939941 C248.357179,59.0300314 248.652505,59.5495575 248.862793,60.1525879 C249.07308,60.7556182 249.178222,61.4189417 249.178222,62.1425781 C249.178222,62.8538447 249.07308,63.5109833 248.862793,64.1140136 C248.652505,64.717044 248.357179,65.23657 247.976806,65.6726074 C247.596433,66.1086447 247.137209,66.4488106 246.599121,66.6931152 C246.061032,66.9374198 245.464196,67.0595703 244.808593,67.0595703 C244.152991,67.0595703 243.557701,66.9374198 243.022705,66.6931152 C242.487708,66.4488106 242.028485,66.1086447 241.645019,65.6726074 C241.261554,65.23657 240.964682,64.717044 240.754394,64.1140136 C240.544107,63.5109833 240.438964,62.8538447 240.438964,62.1425781 C240.438964,61.4189417 240.544107,60.7556182 240.754394,60.1525879 C240.964682,59.5495575 241.261554,59.0300314 241.645019,58.5939941 C242.028485,58.1579568 242.487708,57.8177909 243.022705,57.5734863 C243.557701,57.3291817 244.152991,57.2070312 244.808593,57.2070312 Z M244.808593,65.6958007 C245.260093,65.6958007 245.657469,65.601482 246.000732,65.4128418 C246.343995,65.2242015 246.63159,64.9690771 246.863525,64.6474609 C247.09546,64.3258447 247.270181,63.9532085 247.387695,63.529541 C247.505208,63.1058735 247.563964,62.6621117 247.563964,62.1982422 L247.563964,62.086914 C247.563964,61.6106747 247.505208,61.1591818 247.387695,60.7324218 C247.270181,60.3056619 247.09546,59.9330256 246.863525,59.6145019 C246.63159,59.2959782 246.343995,59.0424 246.000732,58.8537597 C245.657469,58.6651195 245.260093,58.5708007 244.808593,58.5708007 C244.357094,58.5708007 243.959718,58.6651195 243.616455,58.8537597 C243.273191,59.0424 242.985596,59.2959782 242.753662,59.6145019 C242.521727,59.9330256 242.347005,60.3056619 242.229492,60.7324218 C242.111978,61.1591818 242.053222,61.6106747 242.053222,62.086914 L242.053222,62.1982422 C242.053222,62.6621117 242.111978,63.1058735 242.229492,63.529541 C242.347005,63.9532085 242.521727,64.3258447 242.753662,64.6474609 C242.985596,64.9690771 243.273191,65.2242015 243.616455,65.4128418 C243.959718,65.601482 244.357094,65.6958007 244.808593,65.6958007 Z M251.460449,57.3925781 L253.019043,57.3925781 L253.019043,58.4780273 C253.340659,58.0388975 253.738034,57.7172861 254.211181,57.5131836 C254.684328,57.309081 255.211585,57.2070312 255.792968,57.2070312 C256.318687,57.2070312 256.779457,57.2936189 257.175293,57.4667968 C257.571128,57.6399748 257.902016,57.8749985 258.167968,58.171875 C258.43392,58.4687514 258.633381,58.8120097 258.766357,59.2016601 C258.899333,59.5913105 258.96582,60.002602 258.96582,60.4355468 L258.96582,66.8740234 L257.407226,66.8740234 L257.407226,60.9272461 C257.407226,60.512856 257.356201,60.1587742 257.25415,59.8649902 C257.152099,59.5712062 257.01294,59.3330901 256.836669,59.1506347 C256.660399,58.9681794 256.453207,58.8352055 256.215087,58.7517089 C255.976968,58.6682124 255.721843,58.6264648 255.449707,58.6264648 C255.15283,58.6264648 254.860597,58.6805821 254.572998,58.7888183 C254.285399,58.8970545 254.025635,59.0594064 253.793701,59.2758789 C253.561766,59.4923513 253.374675,59.764484 253.232421,60.0922851 C253.090168,60.4200862 253.019043,60.8066384 253.019043,61.2519531 L253.019043,66.8740234 L251.460449,66.8740234 L251.460449,57.3925781 Z M268.085449,64.2485351 C268.085449,64.6938498 267.988038,65.0912254 267.793212,65.4406738 C267.598387,65.7901222 267.34017,66.085448 267.018554,66.3266601 C266.696938,66.5678723 266.327394,66.7503249 265.909912,66.8740234 C265.492429,66.9977219 265.064129,67.0595703 264.625,67.0595703 C263.932288,67.0595703 263.265872,66.9405122 262.625732,66.7023925 C261.985592,66.4642729 261.418134,66.1225608 260.923339,65.6772461 L261.776855,64.5732422 C261.925293,64.7031256 262.096922,64.839192 262.291748,64.9814453 C262.486573,65.1236986 262.704588,65.2551263 262.9458,65.3757324 C263.187012,65.4963385 263.446776,65.5952958 263.725097,65.6726074 C264.003419,65.749919 264.297199,65.7885742 264.606445,65.7885742 C264.860027,65.7885742 265.102782,65.7561038 265.334716,65.6911621 C265.566651,65.6262203 265.769204,65.5303554 265.942382,65.4035644 C266.11556,65.2767734 266.253173,65.125245 266.355224,64.9489746 C266.457275,64.7727042 266.5083,64.5732433 266.5083,64.3505859 C266.5083,64.1031888 266.454183,63.8959969 266.345947,63.7290039 C266.237711,63.5620108 266.090821,63.4197597 265.905273,63.3022461 C265.719725,63.1847324 265.503256,63.0826827 265.255859,62.9960937 C265.008462,62.9095047 264.748699,62.8229171 264.476562,62.7363281 L263.882812,62.5415039 C263.548826,62.4301752 263.227215,62.3033861 262.917968,62.1611328 C262.608722,62.0188795 262.335043,61.8441579 262.096923,61.6369629 C261.858804,61.4297678 261.670166,61.1839207 261.531005,60.899414 C261.391845,60.6149074 261.322265,60.2747415 261.322265,59.8789062 C261.322265,59.55729 261.390298,59.2372249 261.526367,58.9187011 C261.662435,58.6001774 261.871173,58.3141288 262.152587,58.0605468 C262.434002,57.8069648 262.791176,57.6013191 263.224121,57.4436035 C263.657066,57.2858878 264.167314,57.2070312 264.754882,57.2070312 C265.4043,57.2070312 266.005775,57.3152658 266.559326,57.5317382 C267.112877,57.7482107 267.581378,58.017251 267.964843,58.3388672 L267.148437,59.4614257 C267.012369,59.3315423 266.851563,59.2078456 266.666015,59.090332 C266.480467,58.9728184 266.282553,58.8692224 266.072265,58.779541 C265.861978,58.6898595 265.642416,58.6171877 265.413574,58.5615234 C265.184731,58.5058591 264.958985,58.4780273 264.736328,58.4780273 C264.396157,58.4780273 264.108562,58.5166825 263.873535,58.5939941 C263.638508,58.6713057 263.44987,58.7718092 263.307617,58.8955078 C263.165363,59.0192063 263.061767,59.1583651 262.996826,59.3129882 C262.931884,59.4676114 262.899414,59.6191398 262.899414,59.7675781 C262.899414,59.9840505 262.9458,60.1649569 263.038574,60.3103027 C263.131348,60.4556485 263.253498,60.5808914 263.405029,60.6860351 C263.55656,60.7911789 263.729735,60.880859 263.92456,60.9550781 C264.119385,61.0292972 264.321939,61.1035152 264.532226,61.1777343 L265.311523,61.4375 C265.682619,61.5611985 266.022784,61.6926262 266.332031,61.8317871 C266.641277,61.9709479 266.91341,62.1302074 267.148437,62.3095703 C267.445314,62.5445975 267.675699,62.8167302 267.839599,63.1259765 C268.0035,63.4352229 268.085449,63.8094053 268.085449,64.2485351 Z M271.536621,62.6157226 C271.567545,63.0610373 271.657225,63.4723288 271.805664,63.8496093 C271.954102,64.2268899 272.156655,64.5531399 272.41333,64.8283691 C272.670004,65.1035983 272.973061,65.3169751 273.322509,65.4685058 C273.671958,65.6200365 274.060056,65.6958007 274.486816,65.6958007 C275.012535,65.6958007 275.474851,65.6076669 275.873779,65.4313964 C276.272707,65.255126 276.639158,65.0340182 276.973144,64.7680664 L277.770996,65.890625 C277.344236,66.2307959 276.850995,66.5106597 276.291259,66.7302246 C275.731523,66.9497895 275.105309,67.0595703 274.412597,67.0595703 C273.72607,67.0595703 273.104495,66.9374198 272.547851,66.6931152 C271.991208,66.4488106 271.516522,66.1086447 271.123779,65.6726074 C270.731036,65.23657 270.429525,64.717044 270.219238,64.1140136 C270.00895,63.5109833 269.903808,62.8538447 269.903808,62.1425781 C269.903808,61.4189417 270.007404,60.7556182 270.214599,60.1525879 C270.421794,59.5495575 270.714028,59.0300314 271.091308,58.5939941 C271.468589,58.1579568 271.920082,57.8177909 272.4458,57.5734863 C272.971519,57.3291817 273.555986,57.2070312 274.199218,57.2070312 C274.823896,57.2070312 275.386716,57.3291817 275.887695,57.5734863 C276.388674,57.8177909 276.815427,58.1579568 277.167968,58.5939941 C277.520509,59.0300314 277.791096,59.5495575 277.979736,60.1525879 C278.168376,60.7556182 278.262695,61.4127568 278.262695,62.1240234 L278.262695,62.6157226 L271.536621,62.6157226 Z M274.143554,58.5708007 C273.747719,58.5708007 273.395183,58.6481112 273.085937,58.8027343 C272.776691,58.9573575 272.512289,59.1645494 272.292724,59.4243164 C272.073159,59.6840833 271.899984,59.9825015 271.773193,60.31958 C271.646402,60.6566585 271.57373,61.0045555 271.555175,61.3632812 L276.574218,61.3632812 C276.561848,60.9983705 276.498454,60.6473812 276.384033,60.3103027 C276.269612,59.9732242 276.108806,59.6763522 275.901611,59.4196777 C275.694416,59.1630032 275.44393,58.9573575 275.150146,58.8027343 C274.856362,58.6481112 274.520835,58.5708007 274.143554,58.5708007 Z" id="path-2"></path>
        <path d="M339.287598,53.6962891 L349.427734,53.6962891 L349.427734,56.1918945 L345.70752,56.1918945 L345.70752,67 L343.007812,67 L343.007812,56.1918945 L339.287598,56.1918945 L339.287598,53.6962891 Z M355.355957,59.550293 L355.086914,59.550293 C354.722003,59.550293 354.374106,59.587402 354.043213,59.6616211 C353.712319,59.7358402 353.420086,59.8703604 353.166504,60.0651855 C352.912922,60.2600107 352.710369,60.5275048 352.558838,60.8676758 C352.407307,61.2078468 352.331543,61.6438775 352.331543,62.1757812 L352.331543,67 L349.770996,67 L349.770996,57.0639648 L352.331543,57.0639648 L352.331543,58.1865234 C352.436687,58.0195304 352.572753,57.8587247 352.739746,57.7041016 C352.906739,57.5494784 353.101561,57.4118658 353.324219,57.2912598 C353.546876,57.1706537 353.797362,57.0732426 354.075684,56.9990234 C354.354005,56.9248043 354.65397,56.8876953 354.975586,56.8876953 L355.355957,56.8876953 L355.355957,59.550293 Z M359.512207,67 L356.95166,67 L356.95166,57.0639648 L359.512207,57.0639648 L359.512207,67 Z M356.682617,54.4570312 C356.682617,54.2467437 356.722819,54.0472828 356.803223,53.8586426 C356.883627,53.6700023 356.993408,53.5061042 357.132568,53.3669434 C357.271729,53.2277825 357.434081,53.1180017 357.619629,53.0375977 C357.805177,52.9571936 358.006184,52.9169922 358.222656,52.9169922 C358.432944,52.9169922 358.632405,52.9571936 358.821045,53.0375977 C359.009685,53.1180017 359.173583,53.2277825 359.312744,53.3669434 C359.451905,53.5061042 359.561686,53.6700023 359.64209,53.8586426 C359.722494,54.0472828 359.762695,54.2467437 359.762695,54.4570312 C359.762695,54.6735037 359.722494,54.8745108 359.64209,55.0600586 C359.561686,55.2456064 359.451905,55.4079583 359.312744,55.5471191 C359.173583,55.68628 359.009685,55.7960608 358.821045,55.8764648 C358.632405,55.9568689 358.432944,55.9970703 358.222656,55.9970703 C358.006184,55.9970703 357.805177,55.9568689 357.619629,55.8764648 C357.434081,55.7960608 357.271729,55.68628 357.132568,55.5471191 C356.993408,55.4079583 356.883627,55.2456064 356.803223,55.0600586 C356.722819,54.8745108 356.682617,54.6735037 356.682617,54.4570312 Z M371.164551,62.0366211 C371.164551,62.7726274 371.056316,63.4560515 370.839844,64.0869141 C370.623371,64.7177766 370.320314,65.262042 369.930664,65.7197266 C369.541014,66.1774111 369.074059,66.5361315 368.529785,66.7958984 C367.985512,67.0556654 367.385583,67.1855469 366.72998,67.1855469 C366.439289,67.1855469 366.174887,67.1592613 365.936768,67.1066895 C365.698648,67.0541176 365.480633,66.9814458 365.282715,66.8886719 C365.084797,66.795898 364.902345,66.6861172 364.735352,66.5593262 C364.568359,66.4325352 364.41683,66.2949226 364.280762,66.1464844 L364.280762,67 L361.720215,67 L361.720215,53.6962891 L364.280762,53.6962891 L364.280762,57.9174805 C364.559083,57.6267889 364.902342,57.3793956 365.310547,57.175293 C365.718752,56.9711904 366.213539,56.8691406 366.794922,56.8691406 C367.450524,56.8691406 368.045814,57.0005683 368.580811,57.2634277 C369.115807,57.5262871 369.575031,57.8880999 369.958496,58.348877 C370.341962,58.809654 370.638834,59.3554656 370.849121,59.9863281 C371.059409,60.6171907 371.164551,61.3006148 371.164551,62.0366211 Z M364.206543,62.9550781 C364.206543,63.22103 364.254475,63.4668771 364.350342,63.692627 C364.446208,63.9183768 364.583821,64.1147453 364.763184,64.2817383 C364.942546,64.4487313 365.157469,64.5786128 365.407959,64.6713867 C365.658449,64.7641606 365.941405,64.8105469 366.256836,64.8105469 C366.621747,64.8105469 366.944904,64.7440599 367.226318,64.611084 C367.507733,64.4781081 367.744302,64.2910168 367.936035,64.0498047 C368.127768,63.8085925 368.273111,63.522544 368.37207,63.1916504 C368.471029,62.8607568 368.520508,62.4973978 368.520508,62.1015625 L368.520508,61.980957 C368.520508,61.5851217 368.471029,61.2202165 368.37207,60.8862305 C368.273111,60.5522444 368.127768,60.2631034 367.936035,60.0187988 C367.744302,59.7744942 367.507733,59.5843106 367.226318,59.4482422 C366.944904,59.3121738 366.621747,59.2441406 366.256836,59.2441406 C365.941405,59.2441406 365.658449,59.2905269 365.407959,59.3833008 C365.157469,59.4760747 364.942546,59.6059562 364.763184,59.7729492 C364.583821,59.9399422 364.446208,60.1378569 364.350342,60.3666992 C364.254475,60.5955415 364.206543,60.8429349 364.206543,61.1088867 L364.206543,62.9550781 Z M381.323242,67 L378.762695,67 L378.762695,66.1464844 C378.620442,66.2825528 378.465821,66.4139805 378.298828,66.5407715 C378.131835,66.6675625 377.94629,66.7788895 377.742188,66.8747559 C377.538085,66.9706222 377.310792,67.0463864 377.060303,67.1020508 C376.809813,67.1577151 376.533042,67.1855469 376.22998,67.1855469 C375.691892,67.1855469 375.209475,67.097413 374.782715,66.9211426 C374.355955,66.7448722 373.995688,66.5036636 373.701904,66.1975098 C373.40812,65.8913559 373.18392,65.5310893 373.029297,65.1166992 C372.874674,64.7023091 372.797363,64.2539087 372.797363,63.7714844 L372.797363,57.0639648 L375.35791,57.0639648 L375.35791,62.8344727 C375.35791,63.1870135 375.396565,63.4869779 375.473877,63.734375 C375.551189,63.9817721 375.659423,64.181233 375.798584,64.3327637 C375.937745,64.4842944 376.103189,64.5956214 376.294922,64.666748 C376.486655,64.7378747 376.693847,64.7734375 376.916504,64.7734375 C377.176271,64.7734375 377.419026,64.7270512 377.644775,64.6342773 C377.870525,64.5415034 378.066894,64.4007985 378.233887,64.2121582 C378.40088,64.0235179 378.530761,63.786948 378.623535,63.5024414 C378.716309,63.2179348 378.762695,62.8839537 378.762695,62.5004883 L378.762695,57.0639648 L381.323242,57.0639648 L381.323242,67 Z M383.53125,57.0639648 L386.091797,57.0639648 L386.091797,57.9174805 C386.227865,57.7814121 386.38094,57.6499844 386.551025,57.5231934 C386.721111,57.3964024 386.908202,57.2850753 387.112305,57.189209 C387.316407,57.0933426 387.5437,57.0160322 387.794189,56.9572754 C388.044679,56.8985186 388.32145,56.8691406 388.624512,56.8691406 C389.1626,56.8691406 389.645017,56.9572745 390.071777,57.1335449 C390.498537,57.3098153 390.858804,57.5525701 391.152588,57.8618164 C391.446372,58.1710627 391.670572,58.5328755 391.825195,58.9472656 C391.979818,59.3616557 392.057129,59.8100562 392.057129,60.2924805 L392.057129,67 L389.496582,67 L389.496582,61.2202148 C389.496582,60.867674 389.456381,60.5692558 389.375977,60.3249512 C389.295573,60.0806466 389.185792,59.8827319 389.046631,59.7312012 C388.90747,59.5796705 388.743572,59.4683435 388.554932,59.3972168 C388.366291,59.3260901 388.160646,59.2905273 387.937988,59.2905273 C387.678221,59.2905273 387.435467,59.3369136 387.209717,59.4296875 C386.983967,59.5224614 386.787598,59.6631664 386.620605,59.8518066 C386.453612,60.0404469 386.323731,60.2770168 386.230957,60.5615234 C386.138183,60.8460301 386.091797,61.1800111 386.091797,61.5634766 L386.091797,67 L383.53125,67 L383.53125,57.0639648 Z M397.400879,62.9643555 C397.085448,63.0138349 396.831869,63.1236157 396.640137,63.2937012 C396.448404,63.4637867 396.352539,63.6941717 396.352539,63.9848633 C396.352539,64.3064795 396.470051,64.5832508 396.705078,64.8151855 C396.940105,65.0471203 397.286456,65.1630859 397.744141,65.1630859 C398.226565,65.1630859 398.606932,65.0239272 398.885254,64.7456055 C399.163576,64.4672838 399.302734,64.0992861 399.302734,63.6416016 L399.302734,62.6396484 L397.400879,62.9643555 Z M399.720215,66.0629883 C399.615071,66.1805019 399.486736,66.3057448 399.335205,66.4387207 C399.183674,66.5716966 399.004314,66.6923009 398.797119,66.8005371 C398.589924,66.9087733 398.347169,66.9999996 398.068848,67.0742188 C397.790526,67.1484379 397.478192,67.1855469 397.131836,67.1855469 C396.637042,67.1855469 396.18091,67.1066902 395.763428,66.9489746 C395.345945,66.791259 394.979494,66.5701512 394.664062,66.2856445 C394.348631,66.0011379 394.101238,65.6717955 393.921875,65.2976074 C393.742512,64.9234194 393.652832,64.5167665 393.652832,64.0776367 C393.652832,63.2797812 393.900225,62.6272812 394.39502,62.1201172 C394.889814,61.6129532 395.573238,61.2944342 396.445312,61.1645508 L399.302734,60.7470703 L399.302734,60.5615234 C399.302734,60.1162087 399.166668,59.7636732 398.894531,59.5039062 C398.622394,59.2441393 398.180179,59.1142578 397.567871,59.1142578 C397.314289,59.1142578 397.057618,59.1436358 396.797852,59.2023926 C396.538085,59.2611494 396.289145,59.3276363 396.051025,59.4018555 C395.812906,59.4760746 395.591798,59.5611161 395.387695,59.6569824 C395.183593,59.7528488 395.004233,59.8378903 394.849609,59.9121094 L393.847656,57.9545898 C394.41667,57.6391586 395.049069,57.3793956 395.744873,57.175293 C396.440677,56.9711904 397.162757,56.8691406 397.911133,56.8691406 C398.368817,56.8691406 398.831134,56.9170731 399.298096,57.0129395 C399.765058,57.1088058 400.188719,57.2835274 400.569092,57.5371094 C400.949465,57.7906914 401.260253,58.1354959 401.501465,58.5715332 C401.742677,59.0075705 401.863281,59.5626594 401.863281,60.2368164 L401.863281,64.3188477 C401.863281,64.6095392 401.939045,64.8244622 402.090576,64.963623 C402.242107,65.1027839 402.450845,65.2311192 402.716797,65.3486328 L401.557129,67.1855469 C401.087074,67.1360675 400.7098,67.013917 400.425293,66.8190918 C400.140786,66.6242666 399.905763,66.3722346 399.720215,66.0629883 Z M403.959961,53.6962891 L406.520508,53.6962891 L406.520508,64.300293 C406.520508,64.5105805 406.58081,64.6713862 406.701416,64.7827148 C406.822022,64.8940435 407.015298,64.949707 407.28125,64.949707 C407.404949,64.949707 407.511637,64.941976 407.601318,64.9265137 C407.691,64.9110514 407.806965,64.8878582 407.949219,64.8569336 L408.15332,67.0371094 C407.980142,67.0618491 407.794597,67.0865884 407.59668,67.1113281 C407.429687,67.1298829 407.236411,67.1468912 407.016846,67.1623535 C406.797281,67.1778158 406.569988,67.1855469 406.334961,67.1855469 C405.97005,67.1855469 405.642254,67.1391606 405.351562,67.0463867 C405.060871,66.9536128 404.811931,66.8160003 404.604736,66.6335449 C404.397541,66.4510896 404.238282,66.2237969 404.126953,65.9516602 C404.015624,65.6795234 403.959961,65.3640968 403.959961,65.0053711 L403.959961,53.6962891 Z M418.117188,59.550293 L417.848145,59.550293 C417.483234,59.550293 417.135337,59.587402 416.804443,59.6616211 C416.47355,59.7358402 416.181316,59.8703604 415.927734,60.0651855 C415.674152,60.2600107 415.471599,60.5275048 415.320068,60.8676758 C415.168538,61.2078468 415.092773,61.6438775 415.092773,62.1757812 L415.092773,67 L412.532227,67 L412.532227,57.0639648 L415.092773,57.0639648 L415.092773,58.1865234 C415.197917,58.0195304 415.333984,57.8587247 415.500977,57.7041016 C415.66797,57.5494784 415.862792,57.4118658 416.085449,57.2912598 C416.308107,57.1706537 416.558592,57.0732426 416.836914,56.9990234 C417.115236,56.9248043 417.4152,56.8876953 417.736816,56.8876953 L418.117188,56.8876953 L418.117188,59.550293 Z M421.855957,62.9179688 C421.899252,63.2148452 421.99357,63.4869779 422.138916,63.734375 C422.284262,63.9817721 422.468261,64.1936026 422.690918,64.369873 C422.913575,64.5461435 423.170246,64.683756 423.460938,64.7827148 C423.751629,64.8816737 424.060871,64.9311523 424.388672,64.9311523 C424.765952,64.9311523 425.174151,64.8584805 425.613281,64.7131348 C426.052411,64.567789 426.454425,64.3559584 426.819336,64.0776367 L428.053223,65.8774414 C427.589353,66.2670918 427.020348,66.5825183 426.346191,66.8237305 C425.672034,67.0649426 424.954594,67.1855469 424.193848,67.1855469 C423.507321,67.1855469 422.861006,67.068035 422.254883,66.8330078 C421.64876,66.5979806 421.11841,66.2578147 420.663818,65.8125 C420.209226,65.3671853 419.850506,64.8260123 419.587646,64.1889648 C419.324787,63.5519174 419.193359,62.8344766 419.193359,62.0366211 C419.193359,61.3067997 419.309325,60.626468 419.54126,59.9956055 C419.773195,59.3647429 420.097898,58.8173851 420.515381,58.3535156 C420.932863,57.8896461 421.432289,57.5262871 422.013672,57.2634277 C422.595055,57.0005683 423.238278,56.8691406 423.943359,56.8691406 C424.598962,56.8691406 425.208168,56.9881987 425.770996,57.2263184 C426.333824,57.464438 426.822426,57.7984191 427.236816,58.2282715 C427.651206,58.6581239 427.97591,59.1730113 428.210938,59.7729492 C428.445965,60.3728871 428.563477,61.0346644 428.563477,61.7583008 L428.563477,62.9179688 L421.855957,62.9179688 Z M423.934082,59.0957031 C423.383624,59.0957031 422.918215,59.2797019 422.537842,59.6477051 C422.157469,60.0157082 421.936361,60.4594701 421.874512,60.9790039 L425.882324,60.9790039 C425.869954,60.4532851 425.678225,60.0079771 425.307129,59.6430664 C424.936033,59.2781557 424.478356,59.0957031 423.934082,59.0957031 Z M432.302246,67 L429.259277,57.0639648 L432.116699,57.0639648 L433.897949,63.9013672 L435.725586,57.0639648 L438.536621,57.0639648 L435.512207,67 L432.302246,67 Z M442.368164,67 L439.807617,67 L439.807617,57.0639648 L442.368164,57.0639648 L442.368164,67 Z M439.538574,54.4570312 C439.538574,54.2467437 439.578776,54.0472828 439.65918,53.8586426 C439.739584,53.6700023 439.849365,53.5061042 439.988525,53.3669434 C440.127686,53.2277825 440.290038,53.1180017 440.475586,53.0375977 C440.661134,52.9571936 440.862141,52.9169922 441.078613,52.9169922 C441.288901,52.9169922 441.488362,52.9571936 441.677002,53.0375977 C441.865642,53.1180017 442.02954,53.2277825 442.168701,53.3669434 C442.307862,53.5061042 442.417643,53.6700023 442.498047,53.8586426 C442.578451,54.0472828 442.618652,54.2467437 442.618652,54.4570312 C442.618652,54.6735037 442.578451,54.8745108 442.498047,55.0600586 C442.417643,55.2456064 442.307862,55.4079583 442.168701,55.5471191 C442.02954,55.68628 441.865642,55.7960608 441.677002,55.8764648 C441.488362,55.9568689 441.288901,55.9970703 441.078613,55.9970703 C440.862141,55.9970703 440.661134,55.9568689 440.475586,55.8764648 C440.290038,55.7960608 440.127686,55.68628 439.988525,55.5471191 C439.849365,55.4079583 439.739584,55.2456064 439.65918,55.0600586 C439.578776,54.8745108 439.538574,54.6735037 439.538574,54.4570312 Z M446.719238,62.9179688 C446.762533,63.2148452 446.856851,63.4869779 447.002197,63.734375 C447.147543,63.9817721 447.331542,64.1936026 447.554199,64.369873 C447.776857,64.5461435 448.033527,64.683756 448.324219,64.7827148 C448.61491,64.8816737 448.924152,64.9311523 449.251953,64.9311523 C449.629234,64.9311523 450.037433,64.8584805 450.476562,64.7131348 C450.915692,64.567789 451.317707,64.3559584 451.682617,64.0776367 L452.916504,65.8774414 C452.452634,66.2670918 451.88363,66.5825183 451.209473,66.8237305 C450.535316,67.0649426 449.817875,67.1855469 449.057129,67.1855469 C448.370602,67.1855469 447.724287,67.068035 447.118164,66.8330078 C446.512041,66.5979806 445.981692,66.2578147 445.5271,65.8125 C445.072507,65.3671853 444.713787,64.8260123 444.450928,64.1889648 C444.188068,63.5519174 444.056641,62.8344766 444.056641,62.0366211 C444.056641,61.3067997 444.172606,60.626468 444.404541,59.9956055 C444.636476,59.3647429 444.96118,58.8173851 445.378662,58.3535156 C445.796145,57.8896461 446.29557,57.5262871 446.876953,57.2634277 C447.458336,57.0005683 448.101559,56.8691406 448.806641,56.8691406 C449.462243,56.8691406 450.071449,56.9881987 450.634277,57.2263184 C451.197106,57.464438 451.685708,57.7984191 452.100098,58.2282715 C452.514488,58.6581239 452.839192,59.1730113 453.074219,59.7729492 C453.309246,60.3728871 453.426758,61.0346644 453.426758,61.7583008 L453.426758,62.9179688 L446.719238,62.9179688 Z M448.797363,59.0957031 C448.246905,59.0957031 447.781496,59.2797019 447.401123,59.6477051 C447.02075,60.0157082 446.799642,60.4594701 446.737793,60.9790039 L450.745605,60.9790039 C450.733236,60.4532851 450.541506,60.0079771 450.17041,59.6430664 C449.799315,59.2781557 449.341637,59.0957031 448.797363,59.0957031 Z M464.067871,63.7529297 L465.283203,57.0639648 L467.992188,57.0639648 L465.700684,67 L462.657715,67 L461.17334,60.5429688 L459.596191,67 L456.599609,67 L454.298828,57.0639648 L457.091309,57.0639648 L458.269531,63.7529297 L459.995117,57.0639648 L462.444336,57.0639648 L464.067871,63.7529297 Z" id="path-3"></path>
        <path d="M561.592285,60.2221679 C561.592285,61.2179411 561.468588,62.1255655 561.221191,62.9450683 C560.973794,63.7645711 560.596519,64.4650036 560.089355,65.0463867 C559.582191,65.6277698 558.9467,66.0777165 558.182861,66.3962402 C557.419023,66.7147639 556.520676,66.8740234 555.487793,66.8740234 L551.220215,66.8740234 L551.220215,53.5703125 L555.487793,53.5703125 C556.520676,53.5703125 557.419023,53.7295719 558.182861,54.0480957 C558.9467,54.3666194 559.582191,54.8165661 560.089355,55.3979492 C560.596519,55.9793323 560.973794,56.6797647 561.221191,57.4992675 C561.468588,58.3187703 561.592285,59.2263947 561.592285,60.2221679 Z M559.838867,59.9624023 C559.838867,59.2696905 559.752279,58.6202829 559.579101,58.0141601 C559.405923,57.4080373 559.141522,56.8807802 558.785889,56.432373 C558.430255,55.9839658 557.97567,55.6298841 557.422119,55.3701172 C556.868568,55.1103502 556.211429,54.9804687 555.450683,54.9804687 L552.853027,54.9804687 L552.853027,65.4638672 L555.450683,65.4638672 C556.211429,65.4638672 556.868568,65.3355318 557.422119,65.0788574 C557.97567,64.8221829 558.430255,64.4696474 558.785889,64.0212402 C559.141522,63.572833 559.405923,63.0455759 559.579101,62.4394531 C559.752279,61.8333303 559.838867,61.1839227 559.838867,60.4912109 L559.838867,59.9624023 Z M565.182617,62.6157226 C565.213542,63.0610373 565.303222,63.4723288 565.45166,63.8496093 C565.600098,64.2268899 565.802652,64.5531399 566.059326,64.8283691 C566.316001,65.1035983 566.619057,65.3169751 566.968506,65.4685058 C567.317954,65.6200365 567.706052,65.6958007 568.132812,65.6958007 C568.658531,65.6958007 569.120847,65.6076669 569.519775,65.4313964 C569.918703,65.255126 570.285154,65.0340182 570.61914,64.7680664 L571.416992,65.890625 C570.990232,66.2307959 570.496992,66.5106597 569.937256,66.7302246 C569.37752,66.9497895 568.751305,67.0595703 568.058594,67.0595703 C567.372067,67.0595703 566.750491,66.9374198 566.193848,66.6931152 C565.637204,66.4488106 565.162518,66.1086447 564.769775,65.6726074 C564.377032,65.23657 564.075522,64.717044 563.865234,64.1140136 C563.654947,63.5109833 563.549805,62.8538447 563.549805,62.1425781 C563.549805,61.4189417 563.653401,60.7556182 563.860596,60.1525879 C564.067791,59.5495575 564.360024,59.0300314 564.737305,58.5939941 C565.114585,58.1579568 565.566078,57.8177909 566.091797,57.5734863 C566.617516,57.3291817 567.201982,57.2070312 567.845215,57.2070312 C568.469892,57.2070312 569.032712,57.3291817 569.533691,57.5734863 C570.03467,57.8177909 570.461424,58.1579568 570.813965,58.5939941 C571.166506,59.0300314 571.437092,59.5495575 571.625732,60.1525879 C571.814373,60.7556182 571.908691,61.4127568 571.908691,62.1240234 L571.908691,62.6157226 L565.182617,62.6157226 Z M567.789551,58.5708007 C567.393715,58.5708007 567.04118,58.6481112 566.731933,58.8027343 C566.422687,58.9573575 566.158285,59.1645494 565.938721,59.4243164 C565.719156,59.6840833 565.54598,59.9825015 565.419189,60.31958 C565.292398,60.6566585 565.219727,61.0045555 565.201172,61.3632812 L570.220215,61.3632812 C570.207845,60.9983705 570.14445,60.6473812 570.030029,60.3103027 C569.915608,59.9732242 569.754802,59.6763522 569.547607,59.4196777 C569.340412,59.1630032 569.089926,58.9573575 568.796142,58.8027343 C568.502358,58.6481112 568.166831,58.5708007 567.789551,58.5708007 Z M575.118652,62.1796875 C575.118652,62.6559268 575.177408,63.1074197 575.294922,63.5341797 C575.412435,63.9609396 575.585611,64.3335758 575.814453,64.6520996 C576.043295,64.9706233 576.329344,65.2242015 576.672607,65.4128418 C577.015871,65.601482 577.416339,65.6958007 577.874023,65.6958007 C578.1709,65.6958007 578.444579,65.6540531 578.695068,65.5705566 C578.945558,65.4870601 579.171304,65.3741869 579.372314,65.2319336 C579.573324,65.0896802 579.752685,64.9211435 579.9104,64.7263183 C580.068116,64.5314931 580.205728,64.322755 580.323242,64.1000976 L581.62207,64.8422851 C581.461262,65.1762712 581.255616,65.4808742 581.005127,65.7561035 C580.754637,66.0313327 580.468589,66.2648102 580.146973,66.4565429 C579.825356,66.6482757 579.472821,66.7967117 579.089355,66.9018554 C578.70589,67.0069992 578.300783,67.0595703 577.874023,67.0595703 C577.218421,67.0595703 576.623131,66.9374198 576.088135,66.6931152 C575.553138,66.4488106 575.093915,66.1086447 574.710449,65.6726074 C574.326984,65.23657 574.030112,64.7185902 573.819824,64.1186523 C573.609537,63.5187144 573.504394,62.8600296 573.504394,62.1425781 C573.504394,61.4189417 573.609537,60.7556182 573.819824,60.1525879 C574.030112,59.5495575 574.326984,59.0300314 574.710449,58.5939941 C575.093915,58.1579568 575.553138,57.8177909 576.088135,57.5734863 C576.623131,57.3291817 577.218421,57.2070312 577.874023,57.2070312 C578.300783,57.2070312 578.70589,57.2596023 579.089355,57.3647461 C579.472821,57.4698898 579.825356,57.6183258 580.146973,57.8100586 C580.468589,58.0017913 580.754637,58.2352688 581.005127,58.510498 C581.255616,58.7857273 581.461262,59.0903303 581.62207,59.4243164 L580.323242,60.1665039 C580.205728,59.9438465 580.068116,59.7351084 579.9104,59.5402832 C579.752685,59.345458 579.573324,59.1769212 579.372314,59.0346679 C579.171304,58.8924146 578.945558,58.7795414 578.695068,58.6960449 C578.444579,58.6125484 578.1709,58.5708007 577.874023,58.5708007 C577.416339,58.5708007 577.015871,58.6651195 576.672607,58.8537597 C576.329344,59.0424 576.043295,59.2959782 575.814453,59.6145019 C575.585611,59.9330256 575.412435,60.3056619 575.294922,60.7324218 C575.177408,61.1591818 575.118652,61.6106747 575.118652,62.086914 L575.118652,62.1796875 Z M585.351562,66.8740234 L583.792969,66.8740234 L583.792969,57.3925781 L585.351562,57.3925781 L585.351562,66.8740234 Z M583.505371,54.6557617 C583.505371,54.5073234 583.534749,54.3681647 583.593506,54.2382812 C583.652263,54.1083978 583.729573,53.9939783 583.825439,53.8950195 C583.921306,53.7960607 584.035725,53.717204 584.168701,53.6584472 C584.301677,53.5996904 584.442382,53.5703125 584.59082,53.5703125 C584.739258,53.5703125 584.878417,53.5996904 585.008301,53.6584472 C585.138184,53.717204 585.251057,53.7960607 585.346924,53.8950195 C585.44279,53.9939783 585.5201,54.1083978 585.578857,54.2382812 C585.637614,54.3681647 585.666992,54.5073234 585.666992,54.6557617 C585.666992,54.8041999 585.637614,54.9449049 585.578857,55.0778808 C585.5201,55.2108567 585.44279,55.3252762 585.346924,55.4211425 C585.251057,55.5170089 585.138184,55.5943193 585.008301,55.6530761 C584.878417,55.7118329 584.739258,55.7412109 584.59082,55.7412109 C584.442382,55.7412109 584.301677,55.7118329 584.168701,55.6530761 C584.035725,55.5943193 583.921306,55.5170089 583.825439,55.4211425 C583.729573,55.3252762 583.652263,55.2108567 583.593506,55.0778808 C583.534749,54.9449049 583.505371,54.8041999 583.505371,54.6557617 Z M594.54541,64.2485351 C594.54541,64.6938498 594.447999,65.0912254 594.253174,65.4406738 C594.058349,65.7901222 593.800132,66.085448 593.478515,66.3266601 C593.156899,66.5678723 592.787355,66.7503249 592.369873,66.8740234 C591.95239,66.9977219 591.524091,67.0595703 591.084961,67.0595703 C590.392249,67.0595703 589.725833,66.9405122 589.085693,66.7023925 C588.445553,66.4642729 587.878095,66.1225608 587.383301,65.6772461 L588.236816,64.5732422 C588.385255,64.7031256 588.556884,64.839192 588.751709,64.9814453 C588.946534,65.1236986 589.164549,65.2551263 589.405762,65.3757324 C589.646974,65.4963385 589.906737,65.5952958 590.185058,65.6726074 C590.46338,65.749919 590.75716,65.7885742 591.066406,65.7885742 C591.319988,65.7885742 591.562743,65.7561038 591.794678,65.6911621 C592.026612,65.6262203 592.229166,65.5303554 592.402344,65.4035644 C592.575522,65.2767734 592.713134,65.125245 592.815185,64.9489746 C592.917237,64.7727042 592.968262,64.5732433 592.968262,64.3505859 C592.968262,64.1031888 592.914144,63.8959969 592.805908,63.7290039 C592.697672,63.5620108 592.550782,63.4197597 592.365234,63.3022461 C592.179686,63.1847324 591.963217,63.0826827 591.71582,62.9960937 C591.468423,62.9095047 591.20866,62.8229171 590.936523,62.7363281 L590.342773,62.5415039 C590.008787,62.4301752 589.687176,62.3033861 589.37793,62.1611328 C589.068683,62.0188795 588.795004,61.8441579 588.556885,61.6369629 C588.318765,61.4297678 588.130128,61.1839207 587.990967,60.899414 C587.851806,60.6149074 587.782226,60.2747415 587.782226,59.8789062 C587.782226,59.55729 587.85026,59.2372249 587.986328,58.9187011 C588.122396,58.6001774 588.331135,58.3141288 588.612549,58.0605468 C588.893963,57.8069648 589.251137,57.6013191 589.684082,57.4436035 C590.117027,57.2858878 590.627276,57.2070312 591.214844,57.2070312 C591.864261,57.2070312 592.465736,57.3152658 593.019287,57.5317382 C593.572838,57.7482107 594.041339,58.017251 594.424805,58.3388672 L593.608398,59.4614257 C593.47233,59.3315423 593.311524,59.2078456 593.125976,59.090332 C592.940429,58.9728184 592.742514,58.8692224 592.532226,58.779541 C592.321939,58.6898595 592.102377,58.6171877 591.873535,58.5615234 C591.644693,58.5058591 591.418946,58.4780273 591.196289,58.4780273 C590.856118,58.4780273 590.568523,58.5166825 590.333496,58.5939941 C590.098469,58.6713057 589.909831,58.7718092 589.767578,58.8955078 C589.625325,59.0192063 589.521729,59.1583651 589.456787,59.3129882 C589.391845,59.4676114 589.359375,59.6191398 589.359375,59.7675781 C589.359375,59.9840505 589.405761,60.1649569 589.498535,60.3103027 C589.591309,60.4556485 589.713459,60.5808914 589.86499,60.6860351 C590.016521,60.7911789 590.189696,60.880859 590.384521,60.9550781 C590.579347,61.0292972 590.7819,61.1035152 590.992187,61.1777343 L591.771484,61.4375 C592.14258,61.5611985 592.482746,61.6926262 592.791992,61.8317871 C593.101238,61.9709479 593.373371,62.1302074 593.608398,62.3095703 C593.905275,62.5445975 594.13566,62.8167302 594.29956,63.1259765 C594.463461,63.4352229 594.54541,63.8094053 594.54541,64.2485351 Z M598.497558,66.8740234 L596.938965,66.8740234 L596.938965,57.3925781 L598.497558,57.3925781 L598.497558,66.8740234 Z M596.651367,54.6557617 C596.651367,54.5073234 596.680745,54.3681647 596.739502,54.2382812 C596.798259,54.1083978 596.875569,53.9939783 596.971435,53.8950195 C597.067302,53.7960607 597.181721,53.717204 597.314697,53.6584472 C597.447673,53.5996904 597.588378,53.5703125 597.736816,53.5703125 C597.885255,53.5703125 598.024413,53.5996904 598.154297,53.6584472 C598.28418,53.717204 598.397053,53.7960607 598.49292,53.8950195 C598.588786,53.9939783 598.666097,54.1083978 598.724853,54.2382812 C598.78361,54.3681647 598.812988,54.5073234 598.812988,54.6557617 C598.812988,54.8041999 598.78361,54.9449049 598.724853,55.0778808 C598.666097,55.2108567 598.588786,55.3252762 598.49292,55.4211425 C598.397053,55.5170089 598.28418,55.5943193 598.154297,55.6530761 C598.024413,55.7118329 597.885255,55.7412109 597.736816,55.7412109 C597.588378,55.7412109 597.447673,55.7118329 597.314697,55.6530761 C597.181721,55.5943193 597.067302,55.5170089 596.971435,55.4211425 C596.875569,55.3252762 596.798259,55.2108567 596.739502,55.0778808 C596.680745,54.9449049 596.651367,54.8041999 596.651367,54.6557617 Z M605.140137,57.2070312 C605.795739,57.2070312 606.392575,57.3291817 606.930664,57.5734863 C607.468753,57.8177909 607.927976,58.1579568 608.308349,58.5939941 C608.688722,59.0300314 608.984048,59.5495575 609.194336,60.1525879 C609.404623,60.7556182 609.509765,61.4189417 609.509765,62.1425781 C609.509765,62.8538447 609.404623,63.5109833 609.194336,64.1140136 C608.984048,64.717044 608.688722,65.23657 608.308349,65.6726074 C607.927976,66.1086447 607.468753,66.4488106 606.930664,66.6931152 C606.392575,66.9374198 605.795739,67.0595703 605.140137,67.0595703 C604.484534,67.0595703 603.889244,66.9374198 603.354248,66.6931152 C602.819252,66.4488106 602.360028,66.1086447 601.976562,65.6726074 C601.593097,65.23657 601.296225,64.717044 601.085937,64.1140136 C600.87565,63.5109833 600.770508,62.8538447 600.770508,62.1425781 C600.770508,61.4189417 600.87565,60.7556182 601.085937,60.1525879 C601.296225,59.5495575 601.593097,59.0300314 601.976562,58.5939941 C602.360028,58.1579568 602.819252,57.8177909 603.354248,57.5734863 C603.889244,57.3291817 604.484534,57.2070312 605.140137,57.2070312 Z M605.140137,65.6958007 C605.591636,65.6958007 605.989012,65.601482 606.332275,65.4128418 C606.675539,65.2242015 606.963133,64.9690771 607.195068,64.6474609 C607.427003,64.3258447 607.601725,63.9532085 607.719238,63.529541 C607.836752,63.1058735 607.895508,62.6621117 607.895508,62.1982422 L607.895508,62.086914 C607.895508,61.6106747 607.836752,61.1591818 607.719238,60.7324218 C607.601725,60.3056619 607.427003,59.9330256 607.195068,59.6145019 C606.963133,59.2959782 606.675539,59.0424 606.332275,58.8537597 C605.989012,58.6651195 605.591636,58.5708007 605.140137,58.5708007 C604.688637,58.5708007 604.291261,58.6651195 603.947998,58.8537597 C603.604734,59.0424 603.31714,59.2959782 603.085205,59.6145019 C602.85327,59.9330256 602.678549,60.3056619 602.561035,60.7324218 C602.443521,61.1591818 602.384765,61.6106747 602.384765,62.086914 L602.384765,62.1982422 C602.384765,62.6621117 602.443521,63.1058735 602.561035,63.529541 C602.678549,63.9532085 602.85327,64.3258447 603.085205,64.6474609 C603.31714,64.9690771 603.604734,65.2242015 603.947998,65.4128418 C604.291261,65.601482 604.688637,65.6958007 605.140137,65.6958007 Z M611.791992,57.3925781 L613.350586,57.3925781 L613.350586,58.4780273 C613.672202,58.0388975 614.069578,57.7172861 614.542724,57.5131836 C615.015871,57.309081 615.543128,57.2070312 616.124512,57.2070312 C616.65023,57.2070312 617.111,57.2936189 617.506836,57.4667968 C617.902671,57.6399748 618.23356,57.8749985 618.499512,58.171875 C618.765463,58.4687514 618.964924,58.8120097 619.0979,59.2016601 C619.230876,59.5913105 619.297363,60.002602 619.297363,60.4355468 L619.297363,66.8740234 L617.738769,66.8740234 L617.738769,60.9272461 C617.738769,60.512856 617.687745,60.1587742 617.585693,59.8649902 C617.483642,59.5712062 617.344483,59.3330901 617.168213,59.1506347 C616.991942,58.9681794 616.78475,58.8352055 616.546631,58.7517089 C616.308511,58.6682124 616.053387,58.6264648 615.78125,58.6264648 C615.484373,58.6264648 615.19214,58.6805821 614.904541,58.7888183 C614.616942,58.8970545 614.357179,59.0594064 614.125244,59.2758789 C613.893309,59.4923513 613.706218,59.764484 613.563965,60.0922851 C613.421711,60.4200862 613.350586,60.8066384 613.350586,61.2519531 L613.350586,66.8740234 L611.791992,66.8740234 L611.791992,57.3925781 Z" id="path-4"></path>
    </defs>
    <g id="Page-1" stroke="none" stroke-width="1" fill="none" fill-rule="evenodd">
        <g id="Tribunal-view" transform="translate(-9.000000, -13.000000)">
            <g id="Group-2" transform="translate(9.000000, 13.000000)">
                <g id="Appeal">
                    <use fill="#000000" xlink:href="#path-1"></use>
                    <use fill="#0B0C0C" xlink:href="#path-1"></use>
                </g>
                <g id="DWP-response">
                    <use fill="#000000" xlink:href="#path-2"></use>
                    <use fill="#0B0C0C" xlink:href="#path-2"></use>
                </g>
                <g id="Tribunal-review">
                    <use fill="#000000" xlink:href="#path-3"></use>
                    <use fill="#0B0C0C" xlink:href="#path-3"></use>
                </g>
                <g id="Decision">
                    <use fill="#000000" xlink:href="#path-4"></use>
                    <use fill="#0B0C0C" xlink:href="#path-4"></use>
                </g>
                <g id="Group" transform="translate(12.000000, -0.000000)">
                    <circle id="Oval-2" fill="#006435" cx="20.5" cy="20.5" r="20.5"></circle>
                    <polygon id="Path" fill="#FFFFFF" points="16.3374074 23.5619753 12.1128395 19.3374074 9 22.4502469 16.3374074 30.01 31.2345679 15.1128395 28.1217284 12"></polygon>
                </g>
                <path d="M53.5,20.5 L571.000242,20.5" id="Line" stroke="#006435" stroke-width="6" stroke-linecap="square"></path>
                <g id="Group" transform="translate(568.000000, 3.000000)" fill="#FFFFFF" stroke="#006435" stroke-width="6">
                    <circle id="Oval-2" cx="17.5" cy="17.5" r="17.5"></circle>
                </g>
                <circle id="Oval-2" stroke="#006435" stroke-width="6" fill="#006435" cx="217.5" cy="20.5" r="17.5"></circle>
                <polygon id="Path" fill="#FFFFFF" points="213.337407 23.5619753 209.11284 19.3374074 206 22.4502469 213.337407 30.01 228.234568 15.1128395 225.121728 12"></polygon>
                <circle id="Oval-2" stroke="#006435" stroke-width="6" fill="#006435" cx="401.5" cy="20.5" r="17.5"></circle>
            </g>
        </g>
    </g>
</svg>