<?xml version="1.0" encoding="UTF-8"?>
<svg width="603px" height="69px" viewBox="0 0 603 69" version="1.1" xmlns="http://www.w3.org/2000/svg" xmlns:xlink="http://www.w3.org/1999/xlink">
    <!-- Generator: Sketch 52 (66869) - http://www.bohemiancoding.com/sketch -->
    <title>Group 3</title>
    <desc>Created with Sketch.</desc>
    <g id="Page-2" stroke="none" stroke-width="1" fill="none" fill-rule="evenodd">
        <g id="Hearing-booked" transform="translate(-16.000000, -15.000000)">
            <g id="Group-3" transform="translate(16.000000, 15.000000)">
                <path d="M6.8515625,63.3125 L2.453125,63.3125 L1.671875,66 L0.2109375,66 L3.6875,54.796875 L5.671875,54.796875 L9.171875,66 L7.65625,66 L6.8515625,63.3125 Z M2.7890625,62.140625 L6.515625,62.140625 L4.7109375,56.03125 L4.5859375,56.03125 L2.7890625,62.140625 Z M12.1875,58.015625 L12.1875,58.9296875 C12.4218762,58.6015609 12.7395813,58.3411468 13.140625,58.1484375 C13.5416687,57.9557282 14.0026016,57.859375 14.5234375,57.859375 C15.0390651,57.859375 15.5052063,57.9622386 15.921875,58.1679688 C16.3385437,58.3736989 16.695311,58.6614565 16.9921875,59.03125 C17.289064,59.4010435 17.5169263,59.8398412 17.6757812,60.3476562 C17.8346362,60.8554713 17.9140625,61.4114553 17.9140625,62.015625 C17.9140625,62.6197947 17.8346362,63.1744766 17.6757812,63.6796875 C17.5169263,64.1848984 17.289064,64.6210919 16.9921875,64.9882812 C16.695311,65.3554706 16.3385437,65.6419261 15.921875,65.8476562 C15.5052063,66.0533864 15.0390651,66.15625 14.5234375,66.15625 C14.0026016,66.15625 13.5416687,66.0598968 13.140625,65.8671875 C12.7395813,65.6744782 12.4218762,65.4140641 12.1875,65.0859375 L12.1875,68.4296875 L10.875,68.4296875 L10.875,58.015625 L12.1875,58.015625 Z M16.5546875,61.96875 C16.5546875,61.5520813 16.5052088,61.1640643 16.40625,60.8046875 C16.3072912,60.4453107 16.1614593,60.1341159 15.96875,59.8710938 C15.7760407,59.6080716 15.5377618,59.4010424 15.2539062,59.25 C14.9700507,59.0989576 14.6458352,59.0234375 14.28125,59.0234375 C13.9322899,59.0234375 13.6263034,59.0833327 13.3632812,59.203125 C13.1002591,59.3229173 12.8802092,59.4869781 12.703125,59.6953125 C12.5260408,59.9036469 12.3919275,60.1497382 12.3007812,60.4335938 C12.209635,60.7174493 12.1640625,61.02604 12.1640625,61.359375 L12.1640625,62.65625 C12.1640625,62.989585 12.209635,63.2981757 12.3007812,63.5820312 C12.3919275,63.8658868 12.5260408,64.1119781 12.703125,64.3203125 C12.8802092,64.5286469 13.1002591,64.6927077 13.3632812,64.8125 C13.6263034,64.9322923 13.9322899,64.9921875 14.28125,64.9921875 C14.6458352,64.9921875 14.9700507,64.9166674 15.2539062,64.765625 C15.5377618,64.6145826 15.7760407,64.4075534 15.96875,64.1445312 C16.1614593,63.8815091 16.3072912,63.5703143 16.40625,63.2109375 C16.5052088,62.8515607 16.5546875,62.4635437 16.5546875,62.046875 L16.5546875,61.96875 Z M21.1640625,58.015625 L21.1640625,58.9296875 C21.3984387,58.6015609 21.7161438,58.3411468 22.1171875,58.1484375 C22.5182312,57.9557282 22.9791641,57.859375 23.5,57.859375 C24.0156276,57.859375 24.4817688,57.9622386 24.8984375,58.1679688 C25.3151062,58.3736989 25.6718735,58.6614565 25.96875,59.03125 C26.2656265,59.4010435 26.4934888,59.8398412 26.6523438,60.3476562 C26.8111987,60.8554713 26.890625,61.4114553 26.890625,62.015625 C26.890625,62.6197947 26.8111987,63.1744766 26.6523438,63.6796875 C26.4934888,64.1848984 26.2656265,64.6210919 25.96875,64.9882812 C25.6718735,65.3554706 25.3151062,65.6419261 24.8984375,65.8476562 C24.4817688,66.0533864 24.0156276,66.15625 23.5,66.15625 C22.9791641,66.15625 22.5182312,66.0598968 22.1171875,65.8671875 C21.7161438,65.6744782 21.3984387,65.4140641 21.1640625,65.0859375 L21.1640625,68.4296875 L19.8515625,68.4296875 L19.8515625,58.015625 L21.1640625,58.015625 Z M25.53125,61.96875 C25.53125,61.5520813 25.4817713,61.1640643 25.3828125,60.8046875 C25.2838537,60.4453107 25.1380218,60.1341159 24.9453125,59.8710938 C24.7526032,59.6080716 24.5143243,59.4010424 24.2304688,59.25 C23.9466132,59.0989576 23.6223977,59.0234375 23.2578125,59.0234375 C22.9088524,59.0234375 22.6028659,59.0833327 22.3398438,59.203125 C22.0768216,59.3229173 21.8567717,59.4869781 21.6796875,59.6953125 C21.5026033,59.9036469 21.36849,60.1497382 21.2773438,60.4335938 C21.1861975,60.7174493 21.140625,61.02604 21.140625,61.359375 L21.140625,62.65625 C21.140625,62.989585 21.1861975,63.2981757 21.2773438,63.5820312 C21.36849,63.8658868 21.5026033,64.1119781 21.6796875,64.3203125 C21.8567717,64.5286469 22.0768216,64.6927077 22.3398438,64.8125 C22.6028659,64.9322923 22.9088524,64.9921875 23.2578125,64.9921875 C23.6223977,64.9921875 23.9466132,64.9166674 24.2304688,64.765625 C24.5143243,64.6145826 24.7526032,64.4075534 24.9453125,64.1445312 C25.1380218,63.8815091 25.2838537,63.5703143 25.3828125,63.2109375 C25.4817713,62.8515607 25.53125,62.4635437 25.53125,62.046875 L25.53125,61.96875 Z M29.71875,62.4140625 C29.7447918,62.7890644 29.8203119,63.1354151 29.9453125,63.453125 C30.0703131,63.7708349 30.2408843,64.0455718 30.4570312,64.2773438 C30.6731782,64.5091157 30.9283839,64.6888014 31.2226562,64.8164062 C31.5169286,64.9440111 31.8437482,65.0078125 32.203125,65.0078125 C32.6458355,65.0078125 33.0351546,64.9335945 33.3710938,64.7851562 C33.7070329,64.636718 34.0156236,64.450522 34.296875,64.2265625 L34.96875,65.171875 C34.6093732,65.4583348 34.1940128,65.6940095 33.7226562,65.8789062 C33.2512997,66.063803 32.7239613,66.15625 32.140625,66.15625 C31.5624971,66.15625 31.0390648,66.0533864 30.5703125,65.8476562 C30.1015602,65.6419261 29.7018246,65.3554706 29.3710938,64.9882812 C29.0403629,64.6210919 28.7864592,64.1835963 28.609375,63.6757812 C28.4322908,63.1679662 28.34375,62.6145863 28.34375,62.015625 C28.34375,61.406247 28.4309887,60.8476588 28.6054688,60.3398438 C28.7799488,59.8320287 29.0260401,59.3945331 29.34375,59.0273438 C29.6614599,58.6601544 30.0416645,58.3736989 30.484375,58.1679688 C30.9270855,57.9622386 31.4192681,57.859375 31.9609375,57.859375 C32.4869818,57.859375 32.9609354,57.9622386 33.3828125,58.1679688 C33.8046896,58.3736989 34.164061,58.6601544 34.4609375,59.0273438 C34.757814,59.3945331 34.9856763,59.8320287 35.1445312,60.3398438 C35.3033862,60.8476588 35.3828125,61.4010387 35.3828125,62 L35.3828125,62.4140625 L29.71875,62.4140625 Z M31.9140625,59.0078125 C31.5807275,59.0078125 31.2838555,59.072916 31.0234375,59.203125 C30.7630195,59.333334 30.5403655,59.5078114 30.3554688,59.7265625 C30.170572,59.9453136 30.0247401,60.1966132 29.9179688,60.4804688 C29.8111974,60.7643243 29.7500001,61.0572902 29.734375,61.359375 L33.9609375,61.359375 C33.9505208,61.0520818 33.8971359,60.7565118 33.8007812,60.4726562 C33.7044266,60.1888007 33.5690113,59.9388032 33.3945312,59.7226562 C33.2200512,59.5065093 33.0091158,59.333334 32.7617188,59.203125 C32.5143217,59.072916 32.2317724,59.0078125 31.9140625,59.0078125 Z M41.75,65.203125 C41.5156238,65.4739597 41.1992207,65.7005199 40.8007812,65.8828125 C40.4023418,66.0651051 39.9348985,66.15625 39.3984375,66.15625 C39.0026022,66.15625 38.6354184,66.100261 38.296875,65.9882812 C37.9583316,65.8763015 37.6640637,65.7161469 37.4140625,65.5078125 C37.1640612,65.2994781 36.9687507,65.0468765 36.828125,64.75 C36.6874993,64.4531235 36.6171875,64.1171894 36.6171875,63.7421875 C36.6171875,63.4296859 36.6679682,63.1445325 36.7695312,62.8867188 C36.8710943,62.628905 37.014322,62.4036468 37.1992188,62.2109375 C37.3841155,62.0182282 37.6067695,61.8606777 37.8671875,61.7382812 C38.1276055,61.6158848 38.4192692,61.5312502 38.7421875,61.484375 L41.5625,61.1015625 L41.5625,60.59375 C41.5625,60.2916652 41.5156255,60.0377614 41.421875,59.8320312 C41.3281245,59.6263011 41.2018237,59.4635423 41.0429688,59.34375 C40.8841138,59.2239577 40.6966157,59.1380211 40.4804688,59.0859375 C40.2643218,59.0338539 40.0312512,59.0078125 39.78125,59.0078125 C39.3333311,59.0078125 38.9153665,59.0703119 38.5273438,59.1953125 C38.139321,59.3203131 37.7890641,59.466145 37.4765625,59.6328125 L36.984375,58.59375 C37.4427106,58.333332 37.9231746,58.1458339 38.4257812,58.03125 C38.9283879,57.9166661 39.4244767,57.859375 39.9140625,57.859375 C40.8880257,57.859375 41.6249975,58.0794249 42.125,58.5195312 C42.6250025,58.9596376 42.875,59.6015583 42.875,60.4453125 L42.875,64.125 C42.875,64.3906263 42.9270828,64.6132804 43.03125,64.7929688 C43.1354172,64.9726571 43.3020822,65.1145828 43.53125,65.21875 L42.7890625,66.15625 C42.5390613,66.0937497 42.3242196,65.9830737 42.1445312,65.8242188 C41.9648429,65.6653638 41.838542,65.4739595 41.765625,65.25 L41.75,65.203125 Z M39.4140625,62.4453125 C39.1953114,62.4765627 38.9960946,62.520833 38.8164062,62.578125 C38.6367179,62.635417 38.4843756,62.7122391 38.359375,62.8085938 C38.2343744,62.9049484 38.1367191,63.0234368 38.0664062,63.1640625 C37.9960934,63.3046882 37.9609375,63.4765615 37.9609375,63.6796875 C37.9609375,63.9140637 38.0052079,64.1223949 38.09375,64.3046875 C38.1822921,64.4869801 38.3020826,64.6406244 38.453125,64.765625 C38.6041674,64.8906256 38.7799469,64.9856768 38.9804688,65.0507812 C39.1809906,65.1158857 39.3906239,65.1484375 39.609375,65.1484375 C39.8541679,65.1484375 40.0937488,65.1145837 40.328125,65.046875 C40.5625012,64.9791663 40.7708324,64.8815111 40.953125,64.7539062 C41.1354176,64.6263014 41.2825515,64.4713551 41.3945312,64.2890625 C41.506511,64.1067699 41.5625,63.8984387 41.5625,63.6640625 L41.5625,62.125 L39.4140625,62.4453125 Z M45.203125,54.796875 L46.515625,54.796875 L46.515625,64.2109375 C46.515625,64.3411465 46.5273436,64.4557287 46.5507812,64.5546875 C46.5742189,64.6536463 46.614583,64.7369788 46.671875,64.8046875 C46.729167,64.8723962 46.8085932,64.9231769 46.9101562,64.9570312 C47.0117193,64.9908856 47.1380201,65.0078125 47.2890625,65.0078125 C47.45573,65.0078125 47.6067702,65.0026042 47.7421875,64.9921875 C47.8776048,64.9817708 47.9973953,64.9713542 48.1015625,64.9609375 L48.234375,66.0625 L47.78125,66.109375 C47.651041,66.1197917 47.5078133,66.1302083 47.3515625,66.140625 C47.1953117,66.1510417 47.0468757,66.15625 46.90625,66.15625 C46.6718738,66.15625 46.4505219,66.1289065 46.2421875,66.0742188 C46.0338531,66.019531 45.8528654,65.9296881 45.6992188,65.8046875 C45.5455721,65.6796869 45.4244796,65.5182302 45.3359375,65.3203125 C45.2473954,65.1223948 45.203125,64.8802098 45.203125,64.59375 L45.203125,54.796875 Z" id="Appeal" fill="#0B0C0C"></path>
                <path d="M167.757812,60.3984375 C167.757812,61.2369834 167.653647,62.0012986 167.445312,62.6914062 C167.236978,63.3815139 166.919273,63.9713517 166.492188,64.4609375 C166.065102,64.9505233 165.529951,65.3294257 164.886719,65.5976562 C164.243486,65.8658868 163.486984,66 162.617188,66 L159.023438,66 L159.023438,54.796875 L162.617188,54.796875 C163.486984,54.796875 164.243486,54.9309882 164.886719,55.1992188 C165.529951,55.4674493 166.065102,55.8463517 166.492188,56.3359375 C166.919273,56.8255233 167.236978,57.4153611 167.445312,58.1054688 C167.653647,58.7955764 167.757812,59.5598916 167.757812,60.3984375 Z M166.28125,60.1796875 C166.28125,59.5963512 166.208334,59.0494817 166.0625,58.5390625 C165.916666,58.0286433 165.694012,57.5846373 165.394531,57.2070312 C165.095051,56.8294252 164.712242,56.5312511 164.246094,56.3125 C163.779946,56.0937489 163.226566,55.984375 162.585938,55.984375 L160.398438,55.984375 L160.398438,64.8125 L162.585938,64.8125 C163.226566,64.8125 163.779946,64.7044282 164.246094,64.4882812 C164.712242,64.2721343 165.095051,63.9752623 165.394531,63.5976562 C165.694012,63.2200502 165.916666,62.7760442 166.0625,62.265625 C166.208334,61.7552058 166.28125,61.2083363 166.28125,60.625 L166.28125,60.1796875 Z M178.8125,64.015625 L178.890625,64.015625 L180.796875,54.796875 L182.203125,54.796875 L179.710938,66 L178.078125,66 L175.695312,56.8515625 L173.320312,66 L171.679688,66 L169.195312,54.796875 L170.585938,54.796875 L172.523438,64.015625 L172.617188,64.015625 L175.054688,54.796875 L176.382812,54.796875 L178.8125,64.015625 Z M184.429688,54.796875 L188.359375,54.796875 C188.885419,54.796875 189.361977,54.8841137 189.789062,55.0585938 C190.216148,55.2330738 190.58203,55.4752589 190.886719,55.7851562 C191.191408,56.0950536 191.42578,56.4661437 191.589844,56.8984375 C191.753907,57.3307313 191.835938,57.8046849 191.835938,58.3203125 C191.835938,58.8411484 191.746095,59.3164041 191.566406,59.7460938 C191.386718,60.1757834 191.135418,60.5442693 190.8125,60.8515625 C190.489582,61.1588557 190.105471,61.3971346 189.660156,61.5664062 C189.214842,61.7356779 188.729169,61.8203125 188.203125,61.8203125 L185.804688,61.8203125 L185.804688,66 L184.429688,66 L184.429688,54.796875 Z M190.375,58.2890625 C190.375,57.9609359 190.322917,57.6562514 190.21875,57.375 C190.114583,57.0937486 189.963543,56.8502614 189.765625,56.6445312 C189.567707,56.4388011 189.326824,56.2773443 189.042969,56.1601562 C188.759113,56.0429682 188.437502,55.984375 188.078125,55.984375 L185.804688,55.984375 L185.804688,60.640625 L188.078125,60.640625 C188.437502,60.640625 188.759113,60.5833339 189.042969,60.46875 C189.326824,60.3541661 189.567707,60.1966156 189.765625,59.9960938 C189.963543,59.7955719 190.114583,59.555991 190.21875,59.2773438 C190.322917,58.9986965 190.375,58.6953141 190.375,58.3671875 L190.375,58.2890625 Z M200.460938,59.1875 L200.25,59.1875 C199.911457,59.1875 199.588543,59.2265621 199.28125,59.3046875 C198.973957,59.3828129 198.703126,59.5234365 198.46875,59.7265625 C198.234374,59.9296885 198.046876,60.2070295 197.90625,60.5585938 C197.765624,60.910158 197.695312,61.3593723 197.695312,61.90625 L197.695312,66 L196.382812,66 L196.382812,58.015625 L197.695312,58.015625 L197.695312,59.28125 C197.794271,59.0468738 197.927082,58.8411467 198.09375,58.6640625 C198.260418,58.4869783 198.449218,58.3398443 198.660156,58.2226562 C198.871095,58.1054682 199.097655,58.0182295 199.339844,57.9609375 C199.582032,57.9036455 199.828124,57.875 200.078125,57.875 L200.460938,57.875 L200.460938,59.1875 Z M202.695312,62.4140625 C202.721354,62.7890644 202.796874,63.1354151 202.921875,63.453125 C203.046876,63.7708349 203.217447,64.0455718 203.433594,64.2773438 C203.649741,64.5091157 203.904946,64.6888014 204.199219,64.8164062 C204.493491,64.9440111 204.820311,65.0078125 205.179688,65.0078125 C205.622398,65.0078125 206.011717,64.9335945 206.347656,64.7851562 C206.683595,64.636718 206.992186,64.450522 207.273438,64.2265625 L207.945312,65.171875 C207.585936,65.4583348 207.170575,65.6940095 206.699219,65.8789062 C206.227862,66.063803 205.700524,66.15625 205.117188,66.15625 C204.53906,66.15625 204.015627,66.0533864 203.546875,65.8476562 C203.078123,65.6419261 202.678387,65.3554706 202.347656,64.9882812 C202.016925,64.6210919 201.763022,64.1835963 201.585938,63.6757812 C201.408853,63.1679662 201.320312,62.6145863 201.320312,62.015625 C201.320312,61.406247 201.407551,60.8476588 201.582031,60.3398438 C201.756511,59.8320287 202.002603,59.3945331 202.320312,59.0273438 C202.638022,58.6601544 203.018227,58.3736989 203.460938,58.1679688 C203.903648,57.9622386 204.395831,57.859375 204.9375,57.859375 C205.463544,57.859375 205.937498,57.9622386 206.359375,58.1679688 C206.781252,58.3736989 207.140624,58.6601544 207.4375,59.0273438 C207.734376,59.3945331 207.962239,59.8320287 208.121094,60.3398438 C208.279949,60.8476588 208.359375,61.4010387 208.359375,62 L208.359375,62.4140625 L202.695312,62.4140625 Z M204.890625,59.0078125 C204.55729,59.0078125 204.260418,59.072916 204,59.203125 C203.739582,59.333334 203.516928,59.5078114 203.332031,59.7265625 C203.147134,59.9453136 203.001303,60.1966132 202.894531,60.4804688 C202.78776,60.7643243 202.726563,61.0572902 202.710938,61.359375 L206.9375,61.359375 C206.927083,61.0520818 206.873698,60.7565118 206.777344,60.4726562 C206.680989,60.1888007 206.545574,59.9388032 206.371094,59.7226562 C206.196614,59.5065093 205.985678,59.333334 205.738281,59.203125 C205.490884,59.072916 205.208335,59.0078125 204.890625,59.0078125 Z M215.53125,63.7890625 C215.53125,64.1640644 215.44922,64.4986964 215.285156,64.7929688 C215.121093,65.0872411 214.903647,65.3359365 214.632812,65.5390625 C214.361978,65.7421885 214.050783,65.8958328 213.699219,66 C213.347654,66.1041672 212.986981,66.15625 212.617188,66.15625 C212.033851,66.15625 211.472659,66.0559906 210.933594,65.8554688 C210.394529,65.6549469 209.916669,65.3671894 209.5,64.9921875 L210.21875,64.0625 C210.343751,64.1718755 210.48828,64.2864577 210.652344,64.40625 C210.816407,64.5260423 210.999999,64.6367182 211.203125,64.7382812 C211.406251,64.8398443 211.624999,64.9231768 211.859375,64.9882812 C212.093751,65.0533857 212.341145,65.0859375 212.601562,65.0859375 C212.815105,65.0859375 213.01953,65.058594 213.214844,65.0039062 C213.410157,64.9492185 213.580728,64.8684901 213.726562,64.7617188 C213.872397,64.6549474 213.988281,64.5273445 214.074219,64.3789062 C214.160157,64.230468 214.203125,64.0625009 214.203125,63.875 C214.203125,63.6666656 214.157553,63.4921882 214.066406,63.3515625 C213.97526,63.2109368 213.851563,63.0911463 213.695312,62.9921875 C213.539062,62.8932287 213.356772,62.807292 213.148438,62.734375 C212.940103,62.661458 212.721355,62.588542 212.492188,62.515625 L211.992188,62.3515625 C211.710936,62.257812 211.440105,62.1510423 211.179688,62.03125 C210.91927,61.9114577 210.688803,61.7643238 210.488281,61.5898438 C210.287759,61.4153637 210.128907,61.2083345 210.011719,60.96875 C209.894531,60.7291655 209.835938,60.44271 209.835938,60.109375 C209.835938,59.8385403 209.893229,59.5690118 210.007812,59.3007812 C210.122396,59.0325507 210.298176,58.7916677 210.535156,58.578125 C210.772137,58.3645823 211.072915,58.1914069 211.4375,58.0585938 C211.802085,57.9257806 212.231768,57.859375 212.726562,57.859375 C213.27344,57.859375 213.779946,57.9505199 214.246094,58.1328125 C214.712242,58.3151051 215.106769,58.5416653 215.429688,58.8125 L214.742188,59.7578125 C214.627604,59.648437 214.492188,59.5442713 214.335938,59.4453125 C214.179687,59.3463537 214.013022,59.259115 213.835938,59.1835938 C213.658853,59.1080725 213.473959,59.0468752 213.28125,59 C213.088541,58.9531248 212.898438,58.9296875 212.710938,58.9296875 C212.424478,58.9296875 212.182293,58.9622393 211.984375,59.0273438 C211.786457,59.0924482 211.627605,59.1770828 211.507812,59.28125 C211.38802,59.3854172 211.300782,59.5026035 211.246094,59.6328125 C211.191406,59.7630215 211.164062,59.8906244 211.164062,60.015625 C211.164062,60.1979176 211.203125,60.3502598 211.28125,60.4726562 C211.359375,60.5950527 211.462239,60.7005204 211.589844,60.7890625 C211.717449,60.8776046 211.86328,60.9531247 212.027344,61.015625 C212.191407,61.0781253 212.361978,61.1406247 212.539062,61.203125 L213.195312,61.421875 C213.507814,61.5260422 213.79427,61.6367182 214.054688,61.7539062 C214.315105,61.8710943 214.54427,62.0052076 214.742188,62.15625 C214.992189,62.3541677 215.186197,62.583332 215.324219,62.84375 C215.46224,63.104168 215.53125,63.419269 215.53125,63.7890625 Z M218.859375,58.015625 L218.859375,58.9296875 C219.093751,58.6015609 219.411456,58.3411468 219.8125,58.1484375 C220.213544,57.9557282 220.674477,57.859375 221.195312,57.859375 C221.71094,57.859375 222.177081,57.9622386 222.59375,58.1679688 C223.010419,58.3736989 223.367186,58.6614565 223.664062,59.03125 C223.960939,59.4010435 224.188801,59.8398412 224.347656,60.3476562 C224.506511,60.8554713 224.585938,61.4114553 224.585938,62.015625 C224.585938,62.6197947 224.506511,63.1744766 224.347656,63.6796875 C224.188801,64.1848984 223.960939,64.6210919 223.664062,64.9882812 C223.367186,65.3554706 223.010419,65.6419261 222.59375,65.8476562 C222.177081,66.0533864 221.71094,66.15625 221.195312,66.15625 C220.674477,66.15625 220.213544,66.0598968 219.8125,65.8671875 C219.411456,65.6744782 219.093751,65.4140641 218.859375,65.0859375 L218.859375,68.4296875 L217.546875,68.4296875 L217.546875,58.015625 L218.859375,58.015625 Z M223.226562,61.96875 C223.226562,61.5520813 223.177084,61.1640643 223.078125,60.8046875 C222.979166,60.4453107 222.833334,60.1341159 222.640625,59.8710938 C222.447916,59.6080716 222.209637,59.4010424 221.925781,59.25 C221.641926,59.0989576 221.31771,59.0234375 220.953125,59.0234375 C220.604165,59.0234375 220.298178,59.0833327 220.035156,59.203125 C219.772134,59.3229173 219.552084,59.4869781 219.375,59.6953125 C219.197916,59.9036469 219.063803,60.1497382 218.972656,60.4335938 C218.88151,60.7174493 218.835938,61.02604 218.835938,61.359375 L218.835938,62.65625 C218.835938,62.989585 218.88151,63.2981757 218.972656,63.5820312 C219.063803,63.8658868 219.197916,64.1119781 219.375,64.3203125 C219.552084,64.5286469 219.772134,64.6927077 220.035156,64.8125 C220.298178,64.9322923 220.604165,64.9921875 220.953125,64.9921875 C221.31771,64.9921875 221.641926,64.9166674 221.925781,64.765625 C222.209637,64.6145826 222.447916,64.4075534 222.640625,64.1445312 C222.833334,63.8815091 222.979166,63.5703143 223.078125,63.2109375 C223.177084,62.8515607 223.226562,62.4635437 223.226562,62.046875 L223.226562,61.96875 Z M229.71875,57.859375 C230.270836,57.859375 230.773435,57.9622386 231.226562,58.1679688 C231.67969,58.3736989 232.066405,58.6601544 232.386719,59.0273438 C232.707033,59.3945331 232.955728,59.8320287 233.132812,60.3398438 C233.309897,60.8476588 233.398438,61.406247 233.398438,62.015625 C233.398438,62.6145863 233.309897,63.1679662 233.132812,63.6757812 C232.955728,64.1835963 232.707033,64.6210919 232.386719,64.9882812 C232.066405,65.3554706 231.67969,65.6419261 231.226562,65.8476562 C230.773435,66.0533864 230.270836,66.15625 229.71875,66.15625 C229.166664,66.15625 228.665367,66.0533864 228.214844,65.8476562 C227.764321,65.6419261 227.377606,65.3554706 227.054688,64.9882812 C226.731769,64.6210919 226.481772,64.1835963 226.304688,63.6757812 C226.127603,63.1679662 226.039062,62.6145863 226.039062,62.015625 C226.039062,61.406247 226.127603,60.8476588 226.304688,60.3398438 C226.481772,59.8320287 226.731769,59.3945331 227.054688,59.0273438 C227.377606,58.6601544 227.764321,58.3736989 228.214844,58.1679688 C228.665367,57.9622386 229.166664,57.859375 229.71875,57.859375 Z M229.71875,65.0078125 C230.09896,65.0078125 230.433592,64.9283862 230.722656,64.7695312 C231.01172,64.6106763 231.253905,64.3958347 231.449219,64.125 C231.644532,63.8541653 231.791666,63.5403664 231.890625,63.1835938 C231.989584,62.8268211 232.039062,62.453127 232.039062,62.0625 L232.039062,61.96875 C232.039062,61.5677063 231.989584,61.1875018 231.890625,60.828125 C231.791666,60.4687482 231.644532,60.1549493 231.449219,59.8867188 C231.253905,59.6184882 231.01172,59.4049487 230.722656,59.2460938 C230.433592,59.0872388 230.09896,59.0078125 229.71875,59.0078125 C229.33854,59.0078125 229.003908,59.0872388 228.714844,59.2460938 C228.42578,59.4049487 228.183595,59.6184882 227.988281,59.8867188 C227.792968,60.1549493 227.645834,60.4687482 227.546875,60.828125 C227.447916,61.1875018 227.398438,61.5677063 227.398438,61.96875 L227.398438,62.0625 C227.398438,62.453127 227.447916,62.8268211 227.546875,63.1835938 C227.645834,63.5403664 227.792968,63.8541653 227.988281,64.125 C228.183595,64.3958347 228.42578,64.6106763 228.714844,64.7695312 C229.003908,64.9283862 229.33854,65.0078125 229.71875,65.0078125 Z M235.320312,58.015625 L236.632812,58.015625 L236.632812,58.9296875 C236.903647,58.559894 237.238279,58.2890634 237.636719,58.1171875 C238.035158,57.9453116 238.479164,57.859375 238.96875,57.859375 C239.411461,57.859375 239.799477,57.9322909 240.132812,58.078125 C240.466148,58.2239591 240.744791,58.4218738 240.96875,58.671875 C241.192709,58.9218762 241.360677,59.2109359 241.472656,59.5390625 C241.584636,59.8671891 241.640625,60.2135398 241.640625,60.578125 L241.640625,66 L240.328125,66 L240.328125,60.9921875 C240.328125,60.6432274 240.285157,60.3450533 240.199219,60.0976562 C240.113281,59.8502592 239.996094,59.6497404 239.847656,59.4960938 C239.699218,59.3424471 239.524741,59.2304691 239.324219,59.1601562 C239.123697,59.0898434 238.908855,59.0546875 238.679688,59.0546875 C238.429686,59.0546875 238.183595,59.10026 237.941406,59.1914062 C237.699218,59.2825525 237.48047,59.4192699 237.285156,59.6015625 C237.089843,59.7838551 236.932292,60.0130195 236.8125,60.2890625 C236.692708,60.5651055 236.632812,60.8906231 236.632812,61.265625 L236.632812,66 L235.320312,66 L235.320312,58.015625 Z M249.320312,63.7890625 C249.320312,64.1640644 249.238282,64.4986964 249.074219,64.7929688 C248.910155,65.0872411 248.69271,65.3359365 248.421875,65.5390625 C248.15104,65.7421885 247.839846,65.8958328 247.488281,66 C247.136717,66.1041672 246.776044,66.15625 246.40625,66.15625 C245.822914,66.15625 245.261721,66.0559906 244.722656,65.8554688 C244.183591,65.6549469 243.705731,65.3671894 243.289062,64.9921875 L244.007812,64.0625 C244.132813,64.1718755 244.277343,64.2864577 244.441406,64.40625 C244.60547,64.5260423 244.789061,64.6367182 244.992188,64.7382812 C245.195314,64.8398443 245.414061,64.9231768 245.648438,64.9882812 C245.882814,65.0533857 246.130207,65.0859375 246.390625,65.0859375 C246.604168,65.0859375 246.808593,65.058594 247.003906,65.0039062 C247.19922,64.9492185 247.369791,64.8684901 247.515625,64.7617188 C247.661459,64.6549474 247.777343,64.5273445 247.863281,64.3789062 C247.949219,64.230468 247.992188,64.0625009 247.992188,63.875 C247.992188,63.6666656 247.946615,63.4921882 247.855469,63.3515625 C247.764322,63.2109368 247.640626,63.0911463 247.484375,62.9921875 C247.328124,62.8932287 247.145834,62.807292 246.9375,62.734375 C246.729166,62.661458 246.510418,62.588542 246.28125,62.515625 L245.78125,62.3515625 C245.499999,62.257812 245.229168,62.1510423 244.96875,62.03125 C244.708332,61.9114577 244.477866,61.7643238 244.277344,61.5898438 C244.076822,61.4153637 243.917969,61.2083345 243.800781,60.96875 C243.683593,60.7291655 243.625,60.44271 243.625,60.109375 C243.625,59.8385403 243.682291,59.5690118 243.796875,59.3007812 C243.911459,59.0325507 244.087238,58.7916677 244.324219,58.578125 C244.561199,58.3645823 244.861977,58.1914069 245.226562,58.0585938 C245.591148,57.9257806 246.020831,57.859375 246.515625,57.859375 C247.062503,57.859375 247.569008,57.9505199 248.035156,58.1328125 C248.501304,58.3151051 248.895832,58.5416653 249.21875,58.8125 L248.53125,59.7578125 C248.416666,59.648437 248.281251,59.5442713 248.125,59.4453125 C247.968749,59.3463537 247.802084,59.259115 247.625,59.1835938 C247.447916,59.1080725 247.263022,59.0468752 247.070312,59 C246.877603,58.9531248 246.687501,58.9296875 246.5,58.9296875 C246.21354,58.9296875 245.971355,58.9622393 245.773438,59.0273438 C245.57552,59.0924482 245.416667,59.1770828 245.296875,59.28125 C245.177083,59.3854172 245.089844,59.5026035 245.035156,59.6328125 C244.980468,59.7630215 244.953125,59.8906244 244.953125,60.015625 C244.953125,60.1979176 244.992187,60.3502598 245.070312,60.4726562 C245.148438,60.5950527 245.251301,60.7005204 245.378906,60.7890625 C245.506511,60.8776046 245.652343,60.9531247 245.816406,61.015625 C245.98047,61.0781253 246.151041,61.1406247 246.328125,61.203125 L246.984375,61.421875 C247.296877,61.5260422 247.583332,61.6367182 247.84375,61.7539062 C248.104168,61.8710943 248.333332,62.0052076 248.53125,62.15625 C248.781251,62.3541677 248.97526,62.583332 249.113281,62.84375 C249.251303,63.104168 249.320312,63.419269 249.320312,63.7890625 Z M252.226562,62.4140625 C252.252604,62.7890644 252.328124,63.1354151 252.453125,63.453125 C252.578126,63.7708349 252.748697,64.0455718 252.964844,64.2773438 C253.180991,64.5091157 253.436196,64.6888014 253.730469,64.8164062 C254.024741,64.9440111 254.351561,65.0078125 254.710938,65.0078125 C255.153648,65.0078125 255.542967,64.9335945 255.878906,64.7851562 C256.214845,64.636718 256.523436,64.450522 256.804688,64.2265625 L257.476562,65.171875 C257.117186,65.4583348 256.701825,65.6940095 256.230469,65.8789062 C255.759112,66.063803 255.231774,66.15625 254.648438,66.15625 C254.07031,66.15625 253.546877,66.0533864 253.078125,65.8476562 C252.609373,65.6419261 252.209637,65.3554706 251.878906,64.9882812 C251.548175,64.6210919 251.294272,64.1835963 251.117188,63.6757812 C250.940103,63.1679662 250.851562,62.6145863 250.851562,62.015625 C250.851562,61.406247 250.938801,60.8476588 251.113281,60.3398438 C251.287761,59.8320287 251.533853,59.3945331 251.851562,59.0273438 C252.169272,58.6601544 252.549477,58.3736989 252.992188,58.1679688 C253.434898,57.9622386 253.927081,57.859375 254.46875,57.859375 C254.994794,57.859375 255.468748,57.9622386 255.890625,58.1679688 C256.312502,58.3736989 256.671874,58.6601544 256.96875,59.0273438 C257.265626,59.3945331 257.493489,59.8320287 257.652344,60.3398438 C257.811199,60.8476588 257.890625,61.4010387 257.890625,62 L257.890625,62.4140625 L252.226562,62.4140625 Z M254.421875,59.0078125 C254.08854,59.0078125 253.791668,59.072916 253.53125,59.203125 C253.270832,59.333334 253.048178,59.5078114 252.863281,59.7265625 C252.678384,59.9453136 252.532553,60.1966132 252.425781,60.4804688 C252.31901,60.7643243 252.257813,61.0572902 252.242188,61.359375 L256.46875,61.359375 C256.458333,61.0520818 256.404948,60.7565118 256.308594,60.4726562 C256.212239,60.1888007 256.076824,59.9388032 255.902344,59.7226562 C255.727864,59.5065093 255.516928,59.333334 255.269531,59.203125 C255.022134,59.072916 254.739585,59.0078125 254.421875,59.0078125 Z" id="DWP-response" fill="#0B0C0C"></path>
                <path d="M343.296875,61.28125 L338.367188,61.28125 L338.367188,66 L336.101562,66 L336.101562,54.796875 L338.367188,54.796875 L338.367188,59.234375 L343.296875,59.234375 L343.296875,54.796875 L345.570312,54.796875 L345.570312,66 L343.296875,66 L343.296875,61.28125 Z M349.46875,62.5625 C349.505209,62.8125012 349.584635,63.0416656 349.707031,63.25 C349.829428,63.4583344 349.984374,63.636718 350.171875,63.7851562 C350.359376,63.9335945 350.57552,64.0494787 350.820312,64.1328125 C351.065105,64.2161462 351.325519,64.2578125 351.601562,64.2578125 C351.919272,64.2578125 352.263019,64.1966152 352.632812,64.0742188 C353.002606,63.9518223 353.341144,63.7734387 353.648438,63.5390625 L354.6875,65.0546875 C354.296873,65.3828141 353.817711,65.6484365 353.25,65.8515625 C352.682289,66.0546885 352.078128,66.15625 351.4375,66.15625 C350.859372,66.15625 350.315107,66.0572927 349.804688,65.859375 C349.294268,65.6614573 348.847658,65.3750019 348.464844,65 C348.082029,64.6249981 347.779949,64.1692735 347.558594,63.6328125 C347.337238,63.0963515 347.226562,62.4921909 347.226562,61.8203125 C347.226562,61.2057261 347.324218,60.6328152 347.519531,60.1015625 C347.714845,59.5703098 347.988279,59.109377 348.339844,58.71875 C348.691408,58.328123 349.111977,58.0221365 349.601562,57.8007812 C350.091148,57.579426 350.63281,57.46875 351.226562,57.46875 C351.778649,57.46875 352.291664,57.5690094 352.765625,57.7695312 C353.239586,57.9700531 353.65104,58.2513003 354,58.6132812 C354.34896,58.9752622 354.622395,59.4088516 354.820312,59.9140625 C355.01823,60.4192734 355.117188,60.9765595 355.117188,61.5859375 L355.117188,62.5625 L349.46875,62.5625 Z M351.21875,59.34375 C350.755206,59.34375 350.363283,59.4986964 350.042969,59.8085938 C349.722655,60.1184911 349.536459,60.4921853 349.484375,60.9296875 L352.859375,60.9296875 C352.848958,60.486977 352.687502,60.1119807 352.375,59.8046875 C352.062498,59.4973943 351.677086,59.34375 351.21875,59.34375 Z M359.195312,62.6015625 C358.929686,62.6432294 358.716147,62.7356764 358.554688,62.8789062 C358.393228,63.0221361 358.3125,63.2161446 358.3125,63.4609375 C358.3125,63.7317722 358.411457,63.9648428 358.609375,64.1601562 C358.807293,64.3554697 359.098956,64.453125 359.484375,64.453125 C359.890627,64.453125 360.210936,64.3359387 360.445312,64.1015625 C360.679689,63.8671863 360.796875,63.5572936 360.796875,63.171875 L360.796875,62.328125 L359.195312,62.6015625 Z M361.148438,65.2109375 C361.059895,65.3098963 360.951824,65.415364 360.824219,65.5273438 C360.696614,65.6393235 360.545574,65.740885 360.371094,65.8320312 C360.196614,65.9231775 359.992189,65.9999997 359.757812,66.0625 C359.523436,66.1250003 359.260418,66.15625 358.96875,66.15625 C358.552081,66.15625 358.167971,66.0898444 357.816406,65.9570312 C357.464842,65.8242181 357.156251,65.638022 356.890625,65.3984375 C356.624999,65.158853 356.416667,64.881512 356.265625,64.5664062 C356.114583,64.2513005 356.039062,63.908856 356.039062,63.5390625 C356.039062,62.8671841 356.247394,62.3177105 356.664062,61.890625 C357.080731,61.4635395 357.656246,61.195313 358.390625,61.0859375 L360.796875,60.734375 L360.796875,60.578125 C360.796875,60.2031231 360.682293,59.9062511 360.453125,59.6875 C360.223957,59.4687489 359.851565,59.359375 359.335938,59.359375 C359.122395,59.359375 358.906251,59.3841143 358.6875,59.4335938 C358.468749,59.4830732 358.259116,59.5390622 358.058594,59.6015625 C357.858072,59.6640628 357.671876,59.7356767 357.5,59.8164062 C357.328124,59.8971358 357.177084,59.9687497 357.046875,60.03125 L356.203125,58.3828125 C356.682294,58.1171862 357.214841,57.8984384 357.800781,57.7265625 C358.386722,57.5546866 358.994789,57.46875 359.625,57.46875 C360.010419,57.46875 360.399738,57.5091142 360.792969,57.5898438 C361.1862,57.6705733 361.542967,57.8177073 361.863281,58.03125 C362.183595,58.2447927 362.445311,58.5351544 362.648438,58.9023438 C362.851564,59.2695331 362.953125,59.7369763 362.953125,60.3046875 L362.953125,63.7421875 C362.953125,63.9869804 363.016926,64.1679682 363.144531,64.2851562 C363.272136,64.4023443 363.447916,64.5104162 363.671875,64.609375 L362.695312,66.15625 C362.299477,66.1145831 361.981772,66.0117196 361.742188,65.8476562 C361.502603,65.6835929 361.304688,65.4713555 361.148438,65.2109375 Z M369.453125,59.7265625 L369.226562,59.7265625 C368.919269,59.7265625 368.626303,59.7578122 368.347656,59.8203125 C368.069009,59.8828128 367.822918,59.9960929 367.609375,60.1601562 C367.395832,60.3242196 367.225261,60.5494777 367.097656,60.8359375 C366.970051,61.1223973 366.90625,61.4895811 366.90625,61.9375 L366.90625,66 L364.75,66 L364.75,57.6328125 L366.90625,57.6328125 L366.90625,58.578125 C366.994792,58.4374993 367.109374,58.302084 367.25,58.171875 C367.390626,58.041666 367.554687,57.9257818 367.742188,57.8242188 C367.929688,57.7226557 368.140624,57.6406253 368.375,57.578125 C368.609376,57.5156247 368.861978,57.484375 369.132812,57.484375 L369.453125,57.484375 L369.453125,59.7265625 Z M372.953125,66 L370.796875,66 L370.796875,57.6328125 L372.953125,57.6328125 L372.953125,66 Z M370.570312,55.4375 C370.570312,55.2604158 370.604166,55.0924487 370.671875,54.9335938 C370.739584,54.7747388 370.832031,54.6367193 370.949219,54.5195312 C371.066407,54.4023432 371.203124,54.3098962 371.359375,54.2421875 C371.515626,54.1744788 371.684895,54.140625 371.867188,54.140625 C372.044272,54.140625 372.212239,54.1744788 372.371094,54.2421875 C372.529949,54.3098962 372.667968,54.4023432 372.785156,54.5195312 C372.902344,54.6367193 372.994791,54.7747388 373.0625,54.9335938 C373.130209,55.0924487 373.164062,55.2604158 373.164062,55.4375 C373.164062,55.6197926 373.130209,55.7890617 373.0625,55.9453125 C372.994791,56.1015633 372.902344,56.2382807 372.785156,56.3554688 C372.667968,56.4726568 372.529949,56.5651038 372.371094,56.6328125 C372.212239,56.7005212 372.044272,56.734375 371.867188,56.734375 C371.684895,56.734375 371.515626,56.7005212 371.359375,56.6328125 C371.203124,56.5651038 371.066407,56.4726568 370.949219,56.3554688 C370.832031,56.2382807 370.739584,56.1015633 370.671875,55.9453125 C370.604166,55.7890617 370.570312,55.6197926 370.570312,55.4375 Z M374.8125,57.6328125 L376.96875,57.6328125 L376.96875,58.3515625 C377.083334,58.2369786 377.212239,58.1263026 377.355469,58.0195312 C377.498699,57.9127599 377.656249,57.8190108 377.828125,57.7382812 C378.000001,57.6575517 378.191405,57.5924482 378.402344,57.5429688 C378.613282,57.4934893 378.846353,57.46875 379.101562,57.46875 C379.55469,57.46875 379.960936,57.542968 380.320312,57.6914062 C380.679689,57.8398445 380.983072,58.0442695 381.230469,58.3046875 C381.477866,58.5651055 381.666666,58.8697899 381.796875,59.21875 C381.927084,59.5677101 381.992188,59.9453105 381.992188,60.3515625 L381.992188,66 L379.835938,66 L379.835938,61.1328125 C379.835938,60.835936 379.802084,60.5846364 379.734375,60.3789062 C379.666666,60.1731761 379.574219,60.0065111 379.457031,59.8789062 C379.339843,59.7513014 379.201824,59.6575524 379.042969,59.5976562 C378.884114,59.5377601 378.710938,59.5078125 378.523438,59.5078125 C378.304686,59.5078125 378.100261,59.5468746 377.910156,59.625 C377.720051,59.7031254 377.554688,59.8216138 377.414062,59.9804688 C377.273437,60.1393237 377.164063,60.3385405 377.085938,60.578125 C377.007812,60.8177095 376.96875,61.0989567 376.96875,61.421875 L376.96875,66 L374.8125,66 L374.8125,57.6328125 Z M388.875,64.515625 C388.682291,64.7500012 388.412762,64.9361972 388.066406,65.0742188 C387.72005,65.2122403 387.343752,65.28125 386.9375,65.28125 C386.374997,65.28125 385.875002,65.1822927 385.4375,64.984375 C384.999998,64.7864573 384.631512,64.5143246 384.332031,64.1679688 C384.032551,63.8216129 383.803386,63.4114607 383.644531,62.9375 C383.485676,62.4635393 383.40625,61.9427112 383.40625,61.375 C383.40625,60.8229139 383.485676,60.305992 383.644531,59.8242188 C383.803386,59.3424455 384.032551,58.9283871 384.332031,58.5820312 C384.631512,58.2356754 384.999998,57.9635427 385.4375,57.765625 C385.875002,57.5677073 386.374997,57.46875 386.9375,57.46875 C387.343752,57.46875 387.72005,57.5390618 388.066406,57.6796875 C388.412762,57.8203132 388.682291,58.0078113 388.875,58.2421875 L388.875,57.6328125 L391.039062,57.6328125 L391.039062,65.921875 C391.039062,66.4322942 390.942709,66.8710919 390.75,67.2382812 C390.557291,67.6054706 390.29297,67.9062488 389.957031,68.140625 C389.621092,68.3750012 389.231773,68.5455724 388.789062,68.6523438 C388.346352,68.7591151 387.875002,68.8125 387.375,68.8125 C386.765622,68.8125 386.130212,68.7408861 385.46875,68.5976562 C384.807288,68.4544264 384.236982,68.2760427 383.757812,68.0625 L384.367188,66.3203125 C384.513022,66.3828128 384.692707,66.4518225 384.90625,66.5273438 C385.119793,66.602865 385.348957,66.6692705 385.59375,66.7265625 C385.838543,66.7838545 386.095051,66.8320311 386.363281,66.8710938 C386.631512,66.9101564 386.893228,66.9296875 387.148438,66.9296875 C387.372397,66.9296875 387.588541,66.9075523 387.796875,66.8632812 C388.005209,66.8190102 388.188801,66.7460943 388.347656,66.6445312 C388.506511,66.5429682 388.634114,66.4101571 388.730469,66.2460938 C388.826823,66.0820304 388.875,65.8723971 388.875,65.6171875 L388.875,64.515625 Z M385.625,61.40625 C385.625,61.682293 385.654948,61.941405 385.714844,62.1835938 C385.77474,62.4257825 385.871093,62.6315096 386.003906,62.8007812 C386.136719,62.9700529 386.307291,63.1028641 386.515625,63.1992188 C386.723959,63.2955734 386.976561,63.34375 387.273438,63.34375 C387.861982,63.34375 388.281249,63.1575539 388.53125,62.7851562 C388.781251,62.4127586 388.90625,61.9531277 388.90625,61.40625 L388.90625,61.34375 C388.90625,61.067707 388.877604,60.809897 388.820312,60.5703125 C388.763021,60.330728 388.669271,60.1250009 388.539062,59.953125 C388.408854,59.7812491 388.240886,59.6471359 388.035156,59.5507812 C387.829426,59.4544266 387.575522,59.40625 387.273438,59.40625 C386.690101,59.40625 386.269533,59.591144 386.011719,59.9609375 C385.753905,60.330731 385.625,60.7916639 385.625,61.34375 L385.625,61.40625 Z M403.726562,61.8203125 C403.726562,62.4401073 403.635418,63.0156223 403.453125,63.546875 C403.270832,64.0781277 403.015627,64.5364564 402.6875,64.921875 C402.359373,65.3072936 401.966148,65.6093739 401.507812,65.828125 C401.049477,66.0468761 400.544274,66.15625 399.992188,66.15625 C399.747395,66.15625 399.524741,66.1341148 399.324219,66.0898438 C399.123697,66.0455727 398.940105,65.9843754 398.773438,65.90625 C398.60677,65.8281246 398.453126,65.7356776 398.3125,65.6289062 C398.171874,65.5221349 398.044271,65.4062506 397.929688,65.28125 L397.929688,66 L395.773438,66 L395.773438,54.796875 L397.929688,54.796875 L397.929688,58.3515625 C398.164064,58.1067696 398.453123,57.8984384 398.796875,57.7265625 C399.140627,57.5546866 399.557289,57.46875 400.046875,57.46875 C400.598961,57.46875 401.100258,57.579426 401.550781,57.8007812 C402.001304,58.0221365 402.388019,58.326821 402.710938,58.7148438 C403.033856,59.1028665 403.283853,59.5624973 403.460938,60.09375 C403.638022,60.6250027 403.726562,61.2005177 403.726562,61.8203125 Z M397.867188,62.59375 C397.867188,62.8177095 397.907552,63.0247386 397.988281,63.2148438 C398.069011,63.4049489 398.184895,63.5703118 398.335938,63.7109375 C398.48698,63.8515632 398.667968,63.9609371 398.878906,64.0390625 C399.089845,64.1171879 399.328124,64.15625 399.59375,64.15625 C399.901043,64.15625 400.173176,64.100261 400.410156,63.9882812 C400.647137,63.8763015 400.846353,63.718751 401.007812,63.515625 C401.169272,63.312499 401.291666,63.071616 401.375,62.7929688 C401.458334,62.5143215 401.5,62.208335 401.5,61.875 L401.5,61.7734375 C401.5,61.4401025 401.458334,61.1328139 401.375,60.8515625 C401.291666,60.5703111 401.169272,60.3268239 401.007812,60.1210938 C400.846353,59.9153636 400.647137,59.7552089 400.410156,59.640625 C400.173176,59.5260411 399.901043,59.46875 399.59375,59.46875 C399.328124,59.46875 399.089845,59.5078121 398.878906,59.5859375 C398.667968,59.6640629 398.48698,59.7734368 398.335938,59.9140625 C398.184895,60.0546882 398.069011,60.2213532 397.988281,60.4140625 C397.907552,60.6067718 397.867188,60.815103 397.867188,61.0390625 L397.867188,62.59375 Z M408.84375,57.46875 C409.463545,57.46875 410.026039,57.579426 410.53125,57.8007812 C411.036461,58.0221365 411.468748,58.328123 411.828125,58.71875 C412.187502,59.109377 412.464843,59.5703098 412.660156,60.1015625 C412.85547,60.6328152 412.953125,61.2057261 412.953125,61.8203125 C412.953125,62.4401073 412.854168,63.0143203 412.65625,63.5429688 C412.458332,64.0716172 412.179689,64.5286439 411.820312,64.9140625 C411.460936,65.2994811 411.028648,65.6028635 410.523438,65.8242188 C410.018227,66.045574 409.458336,66.15625 408.84375,66.15625 C408.223955,66.15625 407.661461,66.045574 407.15625,65.8242188 C406.651039,65.6028635 406.218752,65.2994811 405.859375,64.9140625 C405.499998,64.5286439 405.221355,64.0716172 405.023438,63.5429688 C404.82552,63.0143203 404.726562,62.4401073 404.726562,61.8203125 C404.726562,61.2057261 404.824218,60.6328152 405.019531,60.1015625 C405.214845,59.5703098 405.492186,59.109377 405.851562,58.71875 C406.210939,58.328123 406.644529,58.0221365 407.152344,57.8007812 C407.660159,57.579426 408.223955,57.46875 408.84375,57.46875 Z M408.84375,64.15625 C409.151043,64.15625 409.423176,64.0989589 409.660156,63.984375 C409.897137,63.8697911 410.096353,63.7109385 410.257812,63.5078125 C410.419272,63.3046865 410.541666,63.0611993 410.625,62.7773438 C410.708334,62.4934882 410.75,62.1822934 410.75,61.84375 L410.75,61.7890625 C410.75,61.4505191 410.708334,61.1393243 410.625,60.8554688 C410.541666,60.5716132 410.419272,60.3268239 410.257812,60.1210938 C410.096353,59.9153636 409.897137,59.7552089 409.660156,59.640625 C409.423176,59.5260411 409.151043,59.46875 408.84375,59.46875 C408.536457,59.46875 408.264324,59.5260411 408.027344,59.640625 C407.790363,59.7552089 407.591147,59.9153636 407.429688,60.1210938 C407.268228,60.3268239 407.145834,60.5716132 407.0625,60.8554688 C406.979166,61.1393243 406.9375,61.4505191 406.9375,61.7890625 L406.9375,61.84375 C406.9375,62.1822934 406.979166,62.4934882 407.0625,62.7773438 C407.145834,63.0611993 407.268228,63.3046865 407.429688,63.5078125 C407.591147,63.7109385 407.790363,63.8697911 408.027344,63.984375 C408.264324,64.0989589 408.536457,64.15625 408.84375,64.15625 Z M418.0625,57.46875 C418.682295,57.46875 419.244789,57.579426 419.75,57.8007812 C420.255211,58.0221365 420.687498,58.328123 421.046875,58.71875 C421.406252,59.109377 421.683593,59.5703098 421.878906,60.1015625 C422.07422,60.6328152 422.171875,61.2057261 422.171875,61.8203125 C422.171875,62.4401073 422.072918,63.0143203 421.875,63.5429688 C421.677082,64.0716172 421.398439,64.5286439 421.039062,64.9140625 C420.679686,65.2994811 420.247398,65.6028635 419.742188,65.8242188 C419.236977,66.045574 418.677086,66.15625 418.0625,66.15625 C417.442705,66.15625 416.880211,66.045574 416.375,65.8242188 C415.869789,65.6028635 415.437502,65.2994811 415.078125,64.9140625 C414.718748,64.5286439 414.440105,64.0716172 414.242188,63.5429688 C414.04427,63.0143203 413.945312,62.4401073 413.945312,61.8203125 C413.945312,61.2057261 414.042968,60.6328152 414.238281,60.1015625 C414.433595,59.5703098 414.710936,59.109377 415.070312,58.71875 C415.429689,58.328123 415.863279,58.0221365 416.371094,57.8007812 C416.878909,57.579426 417.442705,57.46875 418.0625,57.46875 Z M418.0625,64.15625 C418.369793,64.15625 418.641926,64.0989589 418.878906,63.984375 C419.115887,63.8697911 419.315103,63.7109385 419.476562,63.5078125 C419.638022,63.3046865 419.760416,63.0611993 419.84375,62.7773438 C419.927084,62.4934882 419.96875,62.1822934 419.96875,61.84375 L419.96875,61.7890625 C419.96875,61.4505191 419.927084,61.1393243 419.84375,60.8554688 C419.760416,60.5716132 419.638022,60.3268239 419.476562,60.1210938 C419.315103,59.9153636 419.115887,59.7552089 418.878906,59.640625 C418.641926,59.5260411 418.369793,59.46875 418.0625,59.46875 C417.755207,59.46875 417.483074,59.5260411 417.246094,59.640625 C417.009113,59.7552089 416.809897,59.9153636 416.648438,60.1210938 C416.486978,60.3268239 416.364584,60.5716132 416.28125,60.8554688 C416.197916,61.1393243 416.15625,61.4505191 416.15625,61.7890625 L416.15625,61.84375 C416.15625,62.1822934 416.197916,62.4934882 416.28125,62.7773438 C416.364584,63.0611993 416.486978,63.3046865 416.648438,63.5078125 C416.809897,63.7109385 417.009113,63.8697911 417.246094,63.984375 C417.483074,64.0989589 417.755207,64.15625 418.0625,64.15625 Z M425.757812,60.9140625 L428.546875,57.6328125 L431.234375,57.6328125 L428.210938,61.0546875 L431.320312,66 L428.726562,66 L426.640625,62.59375 L425.757812,63.5546875 L425.757812,66 L423.601562,66 L423.601562,54.796875 L425.757812,54.796875 L425.757812,60.9140625 Z M433.585938,62.5625 C433.622396,62.8125012 433.701822,63.0416656 433.824219,63.25 C433.946615,63.4583344 434.101562,63.636718 434.289062,63.7851562 C434.476563,63.9335945 434.692707,64.0494787 434.9375,64.1328125 C435.182293,64.2161462 435.442707,64.2578125 435.71875,64.2578125 C436.03646,64.2578125 436.380206,64.1966152 436.75,64.0742188 C437.119794,63.9518223 437.458332,63.7734387 437.765625,63.5390625 L438.804688,65.0546875 C438.414061,65.3828141 437.934899,65.6484365 437.367188,65.8515625 C436.799476,66.0546885 436.195316,66.15625 435.554688,66.15625 C434.97656,66.15625 434.432294,66.0572927 433.921875,65.859375 C433.411456,65.6614573 432.964846,65.3750019 432.582031,65 C432.199217,64.6249981 431.897137,64.1692735 431.675781,63.6328125 C431.454426,63.0963515 431.34375,62.4921909 431.34375,61.8203125 C431.34375,61.2057261 431.441405,60.6328152 431.636719,60.1015625 C431.832032,59.5703098 432.105467,59.109377 432.457031,58.71875 C432.808596,58.328123 433.229164,58.0221365 433.71875,57.8007812 C434.208336,57.579426 434.749997,57.46875 435.34375,57.46875 C435.895836,57.46875 436.408852,57.5690094 436.882812,57.7695312 C437.356773,57.9700531 437.768227,58.2513003 438.117188,58.6132812 C438.466148,58.9752622 438.739582,59.4088516 438.9375,59.9140625 C439.135418,60.4192734 439.234375,60.9765595 439.234375,61.5859375 L439.234375,62.5625 L433.585938,62.5625 Z M435.335938,59.34375 C434.872394,59.34375 434.48047,59.4986964 434.160156,59.8085938 C433.839842,60.1184911 433.653646,60.4921853 433.601562,60.9296875 L436.976562,60.9296875 C436.966146,60.486977 436.804689,60.1119807 436.492188,59.8046875 C436.179686,59.4973943 435.794273,59.34375 435.335938,59.34375 Z M445.984375,66 L445.984375,65.28125 C445.869791,65.4062506 445.74349,65.5221349 445.605469,65.6289062 C445.467447,65.7356776 445.313803,65.8281246 445.144531,65.90625 C444.97526,65.9843754 444.790366,66.0455727 444.589844,66.0898438 C444.389322,66.1341148 444.166668,66.15625 443.921875,66.15625 C443.369789,66.15625 442.864586,66.0468761 442.40625,65.828125 C441.947914,65.6093739 441.554689,65.3072936 441.226562,64.921875 C440.898436,64.5364564 440.644532,64.0781277 440.464844,63.546875 C440.285155,63.0156223 440.195312,62.4401073 440.195312,61.8203125 C440.195312,61.2005177 440.283853,60.6250027 440.460938,60.09375 C440.638022,59.5624973 440.886717,59.1028665 441.207031,58.7148438 C441.527345,58.326821 441.91406,58.0221365 442.367188,57.8007812 C442.820315,57.579426 443.322914,57.46875 443.875,57.46875 C444.364586,57.46875 444.779946,57.5533846 445.121094,57.7226562 C445.462241,57.8919279 445.749999,58.1015613 445.984375,58.3515625 L445.984375,54.796875 L448.140625,54.796875 L448.140625,66 L445.984375,66 Z M446.046875,61.0390625 C446.046875,60.815103 446.006511,60.6067718 445.925781,60.4140625 C445.845052,60.2213532 445.729167,60.0546882 445.578125,59.9140625 C445.427083,59.7734368 445.246095,59.6640629 445.035156,59.5859375 C444.824218,59.5078121 444.585939,59.46875 444.320312,59.46875 C444.013019,59.46875 443.740887,59.5260411 443.503906,59.640625 C443.266926,59.7552089 443.067709,59.9153636 442.90625,60.1210938 C442.744791,60.3268239 442.622396,60.5703111 442.539062,60.8515625 C442.455729,61.1328139 442.414062,61.4401025 442.414062,61.7734375 L442.414062,61.875 C442.414062,62.208335 442.455729,62.5143215 442.539062,62.7929688 C442.622396,63.071616 442.744791,63.312499 442.90625,63.515625 C443.067709,63.718751 443.266926,63.8763015 443.503906,63.9882812 C443.740887,64.100261 444.013019,64.15625 444.320312,64.15625 C444.585939,64.15625 444.824218,64.1171879 445.035156,64.0390625 C445.246095,63.9609371 445.427083,63.8515632 445.578125,63.7109375 C445.729167,63.5703118 445.845052,63.4049489 445.925781,63.2148438 C446.006511,63.0247386 446.046875,62.8177095 446.046875,62.59375 L446.046875,61.0390625 Z" id="Hearing-booked" fill="#0B0C0C"></path>
                <path d="M557.957031,60.8515625 L552.058594,60.8515625 L552.058594,66 L550.683594,66 L550.683594,54.796875 L552.058594,54.796875 L552.058594,59.6640625 L557.957031,59.6640625 L557.957031,54.796875 L559.339844,54.796875 L559.339844,66 L557.957031,66 L557.957031,60.8515625 Z M562.785156,62.4140625 C562.811198,62.7890644 562.886718,63.1354151 563.011719,63.453125 C563.136719,63.7708349 563.307291,64.0455718 563.523438,64.2773438 C563.739584,64.5091157 563.99479,64.6888014 564.289062,64.8164062 C564.583335,64.9440111 564.910154,65.0078125 565.269531,65.0078125 C565.712242,65.0078125 566.101561,64.9335945 566.4375,64.7851562 C566.773439,64.636718 567.08203,64.450522 567.363281,64.2265625 L568.035156,65.171875 C567.675779,65.4583348 567.260419,65.6940095 566.789062,65.8789062 C566.317706,66.063803 565.790368,66.15625 565.207031,66.15625 C564.628903,66.15625 564.105471,66.0533864 563.636719,65.8476562 C563.167966,65.6419261 562.768231,65.3554706 562.4375,64.9882812 C562.106769,64.6210919 561.852865,64.1835963 561.675781,63.6757812 C561.498697,63.1679662 561.410156,62.6145863 561.410156,62.015625 C561.410156,61.406247 561.497395,60.8476588 561.671875,60.3398438 C561.846355,59.8320287 562.092446,59.3945331 562.410156,59.0273438 C562.727866,58.6601544 563.108071,58.3736989 563.550781,58.1679688 C563.993492,57.9622386 564.485674,57.859375 565.027344,57.859375 C565.553388,57.859375 566.027342,57.9622386 566.449219,58.1679688 C566.871096,58.3736989 567.230467,58.6601544 567.527344,59.0273438 C567.82422,59.3945331 568.052083,59.8320287 568.210938,60.3398438 C568.369792,60.8476588 568.449219,61.4010387 568.449219,62 L568.449219,62.4140625 L562.785156,62.4140625 Z M564.980469,59.0078125 C564.647134,59.0078125 564.350262,59.072916 564.089844,59.203125 C563.829426,59.333334 563.606772,59.5078114 563.421875,59.7265625 C563.236978,59.9453136 563.091146,60.1966132 562.984375,60.4804688 C562.877604,60.7643243 562.816406,61.0572902 562.800781,61.359375 L567.027344,61.359375 C567.016927,61.0520818 566.963542,60.7565118 566.867188,60.4726562 C566.770833,60.1888007 566.635418,59.9388032 566.460938,59.7226562 C566.286457,59.5065093 566.075522,59.333334 565.828125,59.203125 C565.580728,59.072916 565.298179,59.0078125 564.980469,59.0078125 Z M574.816406,65.203125 C574.58203,65.4739597 574.265627,65.7005199 573.867188,65.8828125 C573.468748,66.0651051 573.001305,66.15625 572.464844,66.15625 C572.069008,66.15625 571.701825,66.100261 571.363281,65.9882812 C571.024738,65.8763015 570.73047,65.7161469 570.480469,65.5078125 C570.230468,65.2994781 570.035157,65.0468765 569.894531,64.75 C569.753906,64.4531235 569.683594,64.1171894 569.683594,63.7421875 C569.683594,63.4296859 569.734374,63.1445325 569.835938,62.8867188 C569.937501,62.628905 570.080728,62.4036468 570.265625,62.2109375 C570.450522,62.0182282 570.673176,61.8606777 570.933594,61.7382812 C571.194012,61.6158848 571.485675,61.5312502 571.808594,61.484375 L574.628906,61.1015625 L574.628906,60.59375 C574.628906,60.2916652 574.582032,60.0377614 574.488281,59.8320312 C574.394531,59.6263011 574.26823,59.4635423 574.109375,59.34375 C573.95052,59.2239577 573.763022,59.1380211 573.546875,59.0859375 C573.330728,59.0338539 573.097657,59.0078125 572.847656,59.0078125 C572.399737,59.0078125 571.981773,59.0703119 571.59375,59.1953125 C571.205727,59.3203131 570.85547,59.466145 570.542969,59.6328125 L570.050781,58.59375 C570.509117,58.333332 570.989581,58.1458339 571.492188,58.03125 C571.994794,57.9166661 572.490883,57.859375 572.980469,57.859375 C573.954432,57.859375 574.691404,58.0794249 575.191406,58.5195312 C575.691409,58.9596376 575.941406,59.6015583 575.941406,60.4453125 L575.941406,64.125 C575.941406,64.3906263 575.993489,64.6132804 576.097656,64.7929688 C576.201823,64.9726571 576.368488,65.1145828 576.597656,65.21875 L575.855469,66.15625 C575.605468,66.0937497 575.390626,65.9830737 575.210938,65.8242188 C575.031249,65.6653638 574.904948,65.4739595 574.832031,65.25 L574.816406,65.203125 Z M572.480469,62.4453125 C572.261718,62.4765627 572.062501,62.520833 571.882812,62.578125 C571.703124,62.635417 571.550782,62.7122391 571.425781,62.8085938 C571.300781,62.9049484 571.203125,63.0234368 571.132812,63.1640625 C571.0625,63.3046882 571.027344,63.4765615 571.027344,63.6796875 C571.027344,63.9140637 571.071614,64.1223949 571.160156,64.3046875 C571.248698,64.4869801 571.368489,64.6406244 571.519531,64.765625 C571.670574,64.8906256 571.846353,64.9856768 572.046875,65.0507812 C572.247397,65.1158857 572.45703,65.1484375 572.675781,65.1484375 C572.920574,65.1484375 573.160155,65.1145837 573.394531,65.046875 C573.628907,64.9791663 573.837239,64.8815111 574.019531,64.7539062 C574.201824,64.6263014 574.348958,64.4713551 574.460938,64.2890625 C574.572917,64.1067699 574.628906,63.8984387 574.628906,63.6640625 L574.628906,62.125 L572.480469,62.4453125 Z M582.402344,59.1875 L582.191406,59.1875 C581.852863,59.1875 581.529949,59.2265621 581.222656,59.3046875 C580.915363,59.3828129 580.644532,59.5234365 580.410156,59.7265625 C580.17578,59.9296885 579.988282,60.2070295 579.847656,60.5585938 C579.707031,60.910158 579.636719,61.3593723 579.636719,61.90625 L579.636719,66 L578.324219,66 L578.324219,58.015625 L579.636719,58.015625 L579.636719,59.28125 C579.735678,59.0468738 579.868489,58.8411467 580.035156,58.6640625 C580.201824,58.4869783 580.390624,58.3398443 580.601562,58.2226562 C580.812501,58.1054682 581.039061,58.0182295 581.28125,57.9609375 C581.523439,57.9036455 581.76953,57.875 582.019531,57.875 L582.402344,57.875 L582.402344,59.1875 Z M585.253906,66 L583.941406,66 L583.941406,58.015625 L585.253906,58.015625 L585.253906,66 Z M583.699219,55.7109375 C583.699219,55.5859369 583.723958,55.4687505 583.773438,55.359375 C583.822917,55.2499995 583.88802,55.1536463 583.96875,55.0703125 C584.04948,54.9869787 584.145833,54.9205732 584.257812,54.8710938 C584.369792,54.8216143 584.488281,54.796875 584.613281,54.796875 C584.738282,54.796875 584.855468,54.8216143 584.964844,54.8710938 C585.074219,54.9205732 585.16927,54.9869787 585.25,55.0703125 C585.33073,55.1536463 585.395833,55.2499995 585.445312,55.359375 C585.494792,55.4687505 585.519531,55.5859369 585.519531,55.7109375 C585.519531,55.8359381 585.494792,55.9544265 585.445312,56.0664062 C585.395833,56.178386 585.33073,56.2747392 585.25,56.3554688 C585.16927,56.4361983 585.074219,56.5013018 584.964844,56.5507812 C584.855468,56.6002607 584.738282,56.625 584.613281,56.625 C584.488281,56.625 584.369792,56.6002607 584.257812,56.5507812 C584.145833,56.5013018 584.04948,56.4361983 583.96875,56.3554688 C583.88802,56.2747392 583.822917,56.178386 583.773438,56.0664062 C583.723958,55.9544265 583.699219,55.8359381 583.699219,55.7109375 Z M587.652344,58.015625 L588.964844,58.015625 L588.964844,58.9296875 C589.235678,58.559894 589.570311,58.2890634 589.96875,58.1171875 C590.367189,57.9453116 590.811195,57.859375 591.300781,57.859375 C591.743492,57.859375 592.131509,57.9322909 592.464844,58.078125 C592.798179,58.2239591 593.076822,58.4218738 593.300781,58.671875 C593.524741,58.9218762 593.692708,59.2109359 593.804688,59.5390625 C593.916667,59.8671891 593.972656,60.2135398 593.972656,60.578125 L593.972656,66 L592.660156,66 L592.660156,60.9921875 C592.660156,60.6432274 592.617188,60.3450533 592.53125,60.0976562 C592.445312,59.8502592 592.328126,59.6497404 592.179688,59.4960938 C592.031249,59.3424471 591.856772,59.2304691 591.65625,59.1601562 C591.455728,59.0898434 591.240887,59.0546875 591.011719,59.0546875 C590.761718,59.0546875 590.515626,59.10026 590.273438,59.1914062 C590.031249,59.2825525 589.812501,59.4192699 589.617188,59.6015625 C589.421874,59.7838551 589.264324,60.0130195 589.144531,60.2890625 C589.024739,60.5651055 588.964844,60.8906231 588.964844,61.265625 L588.964844,66 L587.652344,66 L587.652344,58.015625 Z M595.855469,61.5703125 C595.855469,61.0442682 595.930989,60.5546898 596.082031,60.1015625 C596.233074,59.6484352 596.449217,59.2565121 596.730469,58.9257812 C597.01172,58.5950504 597.351561,58.3346364 597.75,58.1445312 C598.148439,57.9544261 598.59505,57.859375 599.089844,57.859375 C599.527346,57.859375 599.944008,57.9440096 600.339844,58.1132812 C600.735679,58.2825529 601.071613,58.5546856 601.347656,58.9296875 L601.347656,58.015625 L602.660156,58.015625 L602.660156,66 C602.660156,66.4947941 602.559897,66.9101546 602.359375,67.2460938 C602.158853,67.5820329 601.897137,67.8515615 601.574219,68.0546875 C601.2513,68.2578135 600.885419,68.4036454 600.476562,68.4921875 C600.067706,68.5807296 599.652346,68.625 599.230469,68.625 C598.996093,68.625 598.752605,68.6119793 598.5,68.5859375 C598.247395,68.5598957 597.993491,68.5208336 597.738281,68.46875 C597.483072,68.4166664 597.231772,68.3502608 596.984375,68.2695312 C596.736978,68.1888017 596.501303,68.0937505 596.277344,67.984375 L596.753906,66.8828125 C596.910157,66.9557295 597.074218,67.0273434 597.246094,67.0976562 C597.41797,67.1679691 597.604166,67.2317705 597.804688,67.2890625 C598.005209,67.3463545 598.220051,67.393229 598.449219,67.4296875 C598.678387,67.466146 598.928384,67.484375 599.199219,67.484375 C599.532554,67.484375 599.833332,67.4505212 600.101562,67.3828125 C600.369793,67.3151038 600.595051,67.2096361 600.777344,67.0664062 C600.959636,66.9231764 601.10026,66.7408865 601.199219,66.5195312 C601.298178,66.298176 601.347656,66.0338557 601.347656,65.7265625 L601.347656,64.2109375 C601.071613,64.5859394 600.735679,64.8580721 600.339844,65.0273438 C599.944008,65.1966154 599.527346,65.28125 599.089844,65.28125 C598.59505,65.28125 598.148439,65.1861989 597.75,64.9960938 C597.351561,64.8059886 597.01172,64.5442725 596.730469,64.2109375 C596.449217,63.8776025 596.233074,63.4856793 596.082031,63.0351562 C595.930989,62.5846332 595.855469,62.0963568 595.855469,61.5703125 Z M601.378906,61.5390625 C601.378906,61.1796857 601.339844,60.8476578 601.261719,60.5429688 C601.183593,60.2382797 601.061199,59.9726574 600.894531,59.7460938 C600.727864,59.5195301 600.515626,59.3424486 600.257812,59.2148438 C599.999999,59.0872389 599.691408,59.0234375 599.332031,59.0234375 C598.967446,59.0234375 598.652345,59.088541 598.386719,59.21875 C598.121092,59.348959 597.901043,59.5273426 597.726562,59.7539062 C597.552082,59.9804699 597.423177,60.2473943 597.339844,60.5546875 C597.25651,60.8619807 597.214844,61.1901024 597.214844,61.5390625 L597.214844,61.6015625 C597.214844,61.9505226 597.25651,62.2773422 597.339844,62.5820312 C597.423177,62.8867203 597.552082,63.1523426 597.726562,63.3789062 C597.901043,63.6054699 598.121092,63.7838535 598.386719,63.9140625 C598.652345,64.0442715 598.967446,64.109375 599.332031,64.109375 C599.691408,64.109375 599.999999,64.0455736 600.257812,63.9179688 C600.515626,63.7903639 600.727864,63.6145845 600.894531,63.390625 C601.061199,63.1666655 601.183593,62.9010432 601.261719,62.59375 C601.339844,62.2864568 601.378906,61.9557309 601.378906,61.6015625 L601.378906,61.5390625 Z" id="Hearing" fill="#0B0C0C"></path>
                <g id="Group-2" transform="translate(3.000000, 0.000000)">
                    <g id="Group">
                        <circle id="Oval-2" fill="#006435" cx="20.5" cy="20.5" r="20.5"></circle>
                        <polygon id="Path" fill="#FFFFFF" points="16.3374074 23.5619753 12.1128395 19.3374074 9 22.4502469 16.3374074 30.01 31.2345679 15.1128395 28.1217284 12"></polygon>
                    </g>
                    <path d="M41.5,20.5 L559.000242,20.5" id="Line" stroke="#006435" stroke-width="6" stroke-linecap="square"></path>
                    <g id="Group" transform="translate(553.000000, 0.000000)" fill="#FFFFFF" stroke="#006435" stroke-width="6">
                        <circle id="Oval-2" cx="20.5" cy="20.5" r="17.5"></circle>
                    </g>
                    <g id="Group" transform="translate(185.000000, 0.000000)">
                        <circle id="Oval-2" fill="#006435" cx="20.5" cy="20.5" r="20.5"></circle>
                        <polygon id="Path" fill="#FFFFFF" points="16.3374074 23.5619753 12.1128395 19.3374074 9 22.4502469 16.3374074 30.01 31.2345679 15.1128395 28.1217284 12"></polygon>
                    </g>
                    <g id="Group" transform="translate(369.000000, 0.000000)">
                        <circle id="Oval-2" fill="#006435" cx="20.5" cy="20.5" r="20.5"></circle>
                        <polygon id="Path" fill="#FFFFFF" points="16.3374074 23.5619753 12.1128395 19.3374074 9 22.4502469 16.3374074 30.01 31.2345679 15.1128395 28.1217284 12"></polygon>
                    </g>
                </g>
            </g>
        </g>
    </g>
</svg>