<?xml version="1.0" encoding="UTF-8"?>
<svg width="603px" height="69px" viewBox="0 0 603 69" version="1.1" xmlns="http://www.w3.org/2000/svg" xmlns:xlink="http://www.w3.org/1999/xlink">
    <!-- Generator: Sketch 52 (66869) - http://www.bohemiancoding.com/sketch -->
    <title>Group 3</title>
    <desc>Created with Sketch.</desc>
    <g id="Page-2" stroke="none" stroke-width="1" fill="none" fill-rule="evenodd">
        <g id="DWP-response" transform="translate(-16.000000, -15.000000)">
            <g id="Group-3" transform="translate(16.000000, 15.000000)">
                <path d="M6.8515625,63.3125 L2.453125,63.3125 L1.671875,66 L0.2109375,66 L3.6875,54.796875 L5.671875,54.796875 L9.171875,66 L7.65625,66 L6.8515625,63.3125 Z M2.7890625,62.140625 L6.515625,62.140625 L4.7109375,56.03125 L4.5859375,56.03125 L2.7890625,62.140625 Z M12.1875,58.015625 L12.1875,58.9296875 C12.4218762,58.6015609 12.7395813,58.3411468 13.140625,58.1484375 C13.5416687,57.9557282 14.0026016,57.859375 14.5234375,57.859375 C15.0390651,57.859375 15.5052063,57.9622386 15.921875,58.1679688 C16.3385437,58.3736989 16.695311,58.6614565 16.9921875,59.03125 C17.289064,59.4010435 17.5169263,59.8398412 17.6757812,60.3476562 C17.8346362,60.8554713 17.9140625,61.4114553 17.9140625,62.015625 C17.9140625,62.6197947 17.8346362,63.1744766 17.6757812,63.6796875 C17.5169263,64.1848984 17.289064,64.6210919 16.9921875,64.9882812 C16.695311,65.3554706 16.3385437,65.6419261 15.921875,65.8476562 C15.5052063,66.0533864 15.0390651,66.15625 14.5234375,66.15625 C14.0026016,66.15625 13.5416687,66.0598968 13.140625,65.8671875 C12.7395813,65.6744782 12.4218762,65.4140641 12.1875,65.0859375 L12.1875,68.4296875 L10.875,68.4296875 L10.875,58.015625 L12.1875,58.015625 Z M16.5546875,61.96875 C16.5546875,61.5520813 16.5052088,61.1640643 16.40625,60.8046875 C16.3072912,60.4453107 16.1614593,60.1341159 15.96875,59.8710938 C15.7760407,59.6080716 15.5377618,59.4010424 15.2539062,59.25 C14.9700507,59.0989576 14.6458352,59.0234375 14.28125,59.0234375 C13.9322899,59.0234375 13.6263034,59.0833327 13.3632812,59.203125 C13.1002591,59.3229173 12.8802092,59.4869781 12.703125,59.6953125 C12.5260408,59.9036469 12.3919275,60.1497382 12.3007812,60.4335938 C12.209635,60.7174493 12.1640625,61.02604 12.1640625,61.359375 L12.1640625,62.65625 C12.1640625,62.989585 12.209635,63.2981757 12.3007812,63.5820312 C12.3919275,63.8658868 12.5260408,64.1119781 12.703125,64.3203125 C12.8802092,64.5286469 13.1002591,64.6927077 13.3632812,64.8125 C13.6263034,64.9322923 13.9322899,64.9921875 14.28125,64.9921875 C14.6458352,64.9921875 14.9700507,64.9166674 15.2539062,64.765625 C15.5377618,64.6145826 15.7760407,64.4075534 15.96875,64.1445312 C16.1614593,63.8815091 16.3072912,63.5703143 16.40625,63.2109375 C16.5052088,62.8515607 16.5546875,62.4635437 16.5546875,62.046875 L16.5546875,61.96875 Z M21.1640625,58.015625 L21.1640625,58.9296875 C21.3984387,58.6015609 21.7161438,58.3411468 22.1171875,58.1484375 C22.5182312,57.9557282 22.9791641,57.859375 23.5,57.859375 C24.0156276,57.859375 24.4817688,57.9622386 24.8984375,58.1679688 C25.3151062,58.3736989 25.6718735,58.6614565 25.96875,59.03125 C26.2656265,59.4010435 26.4934888,59.8398412 26.6523438,60.3476562 C26.8111987,60.8554713 26.890625,61.4114553 26.890625,62.015625 C26.890625,62.6197947 26.8111987,63.1744766 26.6523438,63.6796875 C26.4934888,64.1848984 26.2656265,64.6210919 25.96875,64.9882812 C25.6718735,65.3554706 25.3151062,65.6419261 24.8984375,65.8476562 C24.4817688,66.0533864 24.0156276,66.15625 23.5,66.15625 C22.9791641,66.15625 22.5182312,66.0598968 22.1171875,65.8671875 C21.7161438,65.6744782 21.3984387,65.4140641 21.1640625,65.0859375 L21.1640625,68.4296875 L19.8515625,68.4296875 L19.8515625,58.015625 L21.1640625,58.015625 Z M25.53125,61.96875 C25.53125,61.5520813 25.4817713,61.1640643 25.3828125,60.8046875 C25.2838537,60.4453107 25.1380218,60.1341159 24.9453125,59.8710938 C24.7526032,59.6080716 24.5143243,59.4010424 24.2304688,59.25 C23.9466132,59.0989576 23.6223977,59.0234375 23.2578125,59.0234375 C22.9088524,59.0234375 22.6028659,59.0833327 22.3398438,59.203125 C22.0768216,59.3229173 21.8567717,59.4869781 21.6796875,59.6953125 C21.5026033,59.9036469 21.36849,60.1497382 21.2773438,60.4335938 C21.1861975,60.7174493 21.140625,61.02604 21.140625,61.359375 L21.140625,62.65625 C21.140625,62.989585 21.1861975,63.2981757 21.2773438,63.5820312 C21.36849,63.8658868 21.5026033,64.1119781 21.6796875,64.3203125 C21.8567717,64.5286469 22.0768216,64.6927077 22.3398438,64.8125 C22.6028659,64.9322923 22.9088524,64.9921875 23.2578125,64.9921875 C23.6223977,64.9921875 23.9466132,64.9166674 24.2304688,64.765625 C24.5143243,64.6145826 24.7526032,64.4075534 24.9453125,64.1445312 C25.1380218,63.8815091 25.2838537,63.5703143 25.3828125,63.2109375 C25.4817713,62.8515607 25.53125,62.4635437 25.53125,62.046875 L25.53125,61.96875 Z M29.71875,62.4140625 C29.7447918,62.7890644 29.8203119,63.1354151 29.9453125,63.453125 C30.0703131,63.7708349 30.2408843,64.0455718 30.4570312,64.2773438 C30.6731782,64.5091157 30.9283839,64.6888014 31.2226562,64.8164062 C31.5169286,64.9440111 31.8437482,65.0078125 32.203125,65.0078125 C32.6458355,65.0078125 33.0351546,64.9335945 33.3710938,64.7851562 C33.7070329,64.636718 34.0156236,64.450522 34.296875,64.2265625 L34.96875,65.171875 C34.6093732,65.4583348 34.1940128,65.6940095 33.7226562,65.8789062 C33.2512997,66.063803 32.7239613,66.15625 32.140625,66.15625 C31.5624971,66.15625 31.0390648,66.0533864 30.5703125,65.8476562 C30.1015602,65.6419261 29.7018246,65.3554706 29.3710938,64.9882812 C29.0403629,64.6210919 28.7864592,64.1835963 28.609375,63.6757812 C28.4322908,63.1679662 28.34375,62.6145863 28.34375,62.015625 C28.34375,61.406247 28.4309887,60.8476588 28.6054688,60.3398438 C28.7799488,59.8320287 29.0260401,59.3945331 29.34375,59.0273438 C29.6614599,58.6601544 30.0416645,58.3736989 30.484375,58.1679688 C30.9270855,57.9622386 31.4192681,57.859375 31.9609375,57.859375 C32.4869818,57.859375 32.9609354,57.9622386 33.3828125,58.1679688 C33.8046896,58.3736989 34.164061,58.6601544 34.4609375,59.0273438 C34.757814,59.3945331 34.9856763,59.8320287 35.1445312,60.3398438 C35.3033862,60.8476588 35.3828125,61.4010387 35.3828125,62 L35.3828125,62.4140625 L29.71875,62.4140625 Z M31.9140625,59.0078125 C31.5807275,59.0078125 31.2838555,59.072916 31.0234375,59.203125 C30.7630195,59.333334 30.5403655,59.5078114 30.3554688,59.7265625 C30.170572,59.9453136 30.0247401,60.1966132 29.9179688,60.4804688 C29.8111974,60.7643243 29.7500001,61.0572902 29.734375,61.359375 L33.9609375,61.359375 C33.9505208,61.0520818 33.8971359,60.7565118 33.8007812,60.4726562 C33.7044266,60.1888007 33.5690113,59.9388032 33.3945312,59.7226562 C33.2200512,59.5065093 33.0091158,59.333334 32.7617188,59.203125 C32.5143217,59.072916 32.2317724,59.0078125 31.9140625,59.0078125 Z M41.75,65.203125 C41.5156238,65.4739597 41.1992207,65.7005199 40.8007812,65.8828125 C40.4023418,66.0651051 39.9348985,66.15625 39.3984375,66.15625 C39.0026022,66.15625 38.6354184,66.100261 38.296875,65.9882812 C37.9583316,65.8763015 37.6640637,65.7161469 37.4140625,65.5078125 C37.1640612,65.2994781 36.9687507,65.0468765 36.828125,64.75 C36.6874993,64.4531235 36.6171875,64.1171894 36.6171875,63.7421875 C36.6171875,63.4296859 36.6679682,63.1445325 36.7695312,62.8867188 C36.8710943,62.628905 37.014322,62.4036468 37.1992188,62.2109375 C37.3841155,62.0182282 37.6067695,61.8606777 37.8671875,61.7382812 C38.1276055,61.6158848 38.4192692,61.5312502 38.7421875,61.484375 L41.5625,61.1015625 L41.5625,60.59375 C41.5625,60.2916652 41.5156255,60.0377614 41.421875,59.8320312 C41.3281245,59.6263011 41.2018237,59.4635423 41.0429688,59.34375 C40.8841138,59.2239577 40.6966157,59.1380211 40.4804688,59.0859375 C40.2643218,59.0338539 40.0312512,59.0078125 39.78125,59.0078125 C39.3333311,59.0078125 38.9153665,59.0703119 38.5273438,59.1953125 C38.139321,59.3203131 37.7890641,59.466145 37.4765625,59.6328125 L36.984375,58.59375 C37.4427106,58.333332 37.9231746,58.1458339 38.4257812,58.03125 C38.9283879,57.9166661 39.4244767,57.859375 39.9140625,57.859375 C40.8880257,57.859375 41.6249975,58.0794249 42.125,58.5195312 C42.6250025,58.9596376 42.875,59.6015583 42.875,60.4453125 L42.875,64.125 C42.875,64.3906263 42.9270828,64.6132804 43.03125,64.7929688 C43.1354172,64.9726571 43.3020822,65.1145828 43.53125,65.21875 L42.7890625,66.15625 C42.5390613,66.0937497 42.3242196,65.9830737 42.1445312,65.8242188 C41.9648429,65.6653638 41.838542,65.4739595 41.765625,65.25 L41.75,65.203125 Z M39.4140625,62.4453125 C39.1953114,62.4765627 38.9960946,62.520833 38.8164062,62.578125 C38.6367179,62.635417 38.4843756,62.7122391 38.359375,62.8085938 C38.2343744,62.9049484 38.1367191,63.0234368 38.0664062,63.1640625 C37.9960934,63.3046882 37.9609375,63.4765615 37.9609375,63.6796875 C37.9609375,63.9140637 38.0052079,64.1223949 38.09375,64.3046875 C38.1822921,64.4869801 38.3020826,64.6406244 38.453125,64.765625 C38.6041674,64.8906256 38.7799469,64.9856768 38.9804688,65.0507812 C39.1809906,65.1158857 39.3906239,65.1484375 39.609375,65.1484375 C39.8541679,65.1484375 40.0937488,65.1145837 40.328125,65.046875 C40.5625012,64.9791663 40.7708324,64.8815111 40.953125,64.7539062 C41.1354176,64.6263014 41.2825515,64.4713551 41.3945312,64.2890625 C41.506511,64.1067699 41.5625,63.8984387 41.5625,63.6640625 L41.5625,62.125 L39.4140625,62.4453125 Z M45.203125,54.796875 L46.515625,54.796875 L46.515625,64.2109375 C46.515625,64.3411465 46.5273436,64.4557287 46.5507812,64.5546875 C46.5742189,64.6536463 46.614583,64.7369788 46.671875,64.8046875 C46.729167,64.8723962 46.8085932,64.9231769 46.9101562,64.9570312 C47.0117193,64.9908856 47.1380201,65.0078125 47.2890625,65.0078125 C47.45573,65.0078125 47.6067702,65.0026042 47.7421875,64.9921875 C47.8776048,64.9817708 47.9973953,64.9713542 48.1015625,64.9609375 L48.234375,66.0625 L47.78125,66.109375 C47.651041,66.1197917 47.5078133,66.1302083 47.3515625,66.140625 C47.1953117,66.1510417 47.0468757,66.15625 46.90625,66.15625 C46.6718738,66.15625 46.4505219,66.1289065 46.2421875,66.0742188 C46.0338531,66.019531 45.8528654,65.9296881 45.6992188,65.8046875 C45.5455721,65.6796869 45.4244796,65.5182302 45.3359375,65.3203125 C45.2473954,65.1223948 45.203125,64.8802098 45.203125,64.59375 L45.203125,54.796875 Z" id="Appeal" fill="#0B0C0C"></path>
                <path d="M166.257812,60.3984375 C166.257812,61.2369834 166.144532,62.0012986 165.917969,62.6914062 C165.691405,63.3815139 165.352867,63.9713517 164.902344,64.4609375 C164.451821,64.9505233 163.888024,65.3294257 163.210938,65.5976562 C162.533851,65.8658868 161.742192,66 160.835938,66 L156.710938,66 L156.710938,54.796875 L160.835938,54.796875 C161.742192,54.796875 162.533851,54.9309882 163.210938,55.1992188 C163.888024,55.4674493 164.451821,55.8463517 164.902344,56.3359375 C165.352867,56.8255233 165.691405,57.4153611 165.917969,58.1054688 C166.144532,58.7955764 166.257812,59.5598916 166.257812,60.3984375 Z M163.90625,60.1796875 C163.90625,59.7057268 163.847657,59.264325 163.730469,58.8554688 C163.613281,58.4466125 163.425783,58.0911473 163.167969,57.7890625 C162.910155,57.4869777 162.575523,57.2486988 162.164062,57.0742188 C161.752602,56.8997387 161.255211,56.8125 160.671875,56.8125 L158.976562,56.8125 L158.976562,63.984375 L160.671875,63.984375 C161.250003,63.984375 161.74479,63.8971363 162.15625,63.7226562 C162.56771,63.5481762 162.902342,63.3085953 163.160156,63.0039062 C163.41797,62.6992172 163.60677,62.3411479 163.726562,61.9296875 C163.846355,61.5182271 163.90625,61.0781273 163.90625,60.609375 L163.90625,60.1796875 Z M177.203125,62.53125 L177.234375,62.53125 L178.757812,54.796875 L181.21875,54.796875 L178.71875,66 L175.9375,66 L174.242188,57.96875 L172.578125,66 L169.8125,66 L167.3125,54.796875 L169.78125,54.796875 L171.25,62.53125 L171.28125,62.53125 L172.992188,54.796875 L175.539062,54.796875 L177.203125,62.53125 Z M182.789062,54.796875 L187.265625,54.796875 C187.843753,54.796875 188.365883,54.8919261 188.832031,55.0820312 C189.298179,55.2721364 189.692707,55.5325504 190.015625,55.8632812 C190.338543,56.1940121 190.587239,56.5859352 190.761719,57.0390625 C190.936199,57.4921898 191.023438,57.9843723 191.023438,58.515625 C191.023438,59.0468777 190.928386,59.5390602 190.738281,59.9921875 C190.548176,60.4453148 190.27995,60.8372379 189.933594,61.1679688 C189.587238,61.4986996 189.171877,61.7578116 188.6875,61.9453125 C188.203123,62.1328134 187.669274,62.2265625 187.085938,62.2265625 L185.054688,62.2265625 L185.054688,66 L182.789062,66 L182.789062,54.796875 Z M188.6875,58.4765625 C188.6875,58.2109362 188.640625,57.9752614 188.546875,57.7695312 C188.453125,57.5638011 188.317709,57.3880216 188.140625,57.2421875 C187.963541,57.0963534 187.750001,56.9856775 187.5,56.9101562 C187.249999,56.834635 186.968752,56.796875 186.65625,56.796875 L185.054688,56.796875 L185.054688,60.2265625 L186.65625,60.2265625 C186.968752,60.2265625 187.249999,60.1888025 187.5,60.1132812 C187.750001,60.03776 187.963541,59.9270841 188.140625,59.78125 C188.317709,59.6354159 188.453125,59.4596364 188.546875,59.2539062 C188.640625,59.0481761 188.6875,58.8125013 188.6875,58.546875 L188.6875,58.4765625 Z M199.414062,59.7265625 L199.1875,59.7265625 C198.880207,59.7265625 198.587241,59.7578122 198.308594,59.8203125 C198.029947,59.8828128 197.783855,59.9960929 197.570312,60.1601562 C197.35677,60.3242196 197.186199,60.5494777 197.058594,60.8359375 C196.930989,61.1223973 196.867188,61.4895811 196.867188,61.9375 L196.867188,66 L194.710938,66 L194.710938,57.6328125 L196.867188,57.6328125 L196.867188,58.578125 C196.95573,58.4374993 197.070312,58.302084 197.210938,58.171875 C197.351563,58.041666 197.515624,57.9257818 197.703125,57.8242188 C197.890626,57.7226557 198.101561,57.6406253 198.335938,57.578125 C198.570314,57.5156247 198.822915,57.484375 199.09375,57.484375 L199.414062,57.484375 L199.414062,59.7265625 Z M202.5625,62.5625 C202.598959,62.8125012 202.678385,63.0416656 202.800781,63.25 C202.923178,63.4583344 203.078124,63.636718 203.265625,63.7851562 C203.453126,63.9335945 203.66927,64.0494787 203.914062,64.1328125 C204.158855,64.2161462 204.419269,64.2578125 204.695312,64.2578125 C205.013022,64.2578125 205.356769,64.1966152 205.726562,64.0742188 C206.096356,63.9518223 206.434894,63.7734387 206.742188,63.5390625 L207.78125,65.0546875 C207.390623,65.3828141 206.911461,65.6484365 206.34375,65.8515625 C205.776039,66.0546885 205.171878,66.15625 204.53125,66.15625 C203.953122,66.15625 203.408857,66.0572927 202.898438,65.859375 C202.388018,65.6614573 201.941408,65.3750019 201.558594,65 C201.175779,64.6249981 200.873699,64.1692735 200.652344,63.6328125 C200.430988,63.0963515 200.320312,62.4921909 200.320312,61.8203125 C200.320312,61.2057261 200.417968,60.6328152 200.613281,60.1015625 C200.808595,59.5703098 201.082029,59.109377 201.433594,58.71875 C201.785158,58.328123 202.205727,58.0221365 202.695312,57.8007812 C203.184898,57.579426 203.72656,57.46875 204.320312,57.46875 C204.872399,57.46875 205.385414,57.5690094 205.859375,57.7695312 C206.333336,57.9700531 206.74479,58.2513003 207.09375,58.6132812 C207.44271,58.9752622 207.716145,59.4088516 207.914062,59.9140625 C208.11198,60.4192734 208.210938,60.9765595 208.210938,61.5859375 L208.210938,62.5625 L202.5625,62.5625 Z M204.3125,59.34375 C203.848956,59.34375 203.457033,59.4986964 203.136719,59.8085938 C202.816405,60.1184911 202.630209,60.4921853 202.578125,60.9296875 L205.953125,60.9296875 C205.942708,60.486977 205.781252,60.1119807 205.46875,59.8046875 C205.156248,59.4973943 204.770836,59.34375 204.3125,59.34375 Z M210.179688,63.328125 C210.486981,63.604168 210.854165,63.8411448 211.28125,64.0390625 C211.708335,64.2369802 212.140623,64.3359375 212.578125,64.3359375 C212.895835,64.3359375 213.145832,64.2747402 213.328125,64.1523438 C213.510418,64.0299473 213.601562,63.8723968 213.601562,63.6796875 C213.601562,63.3515609 213.250004,63.0963551 212.546875,62.9140625 L211.9375,62.75 C211.635415,62.677083 211.330731,62.5768236 211.023438,62.4492188 C210.716144,62.3216139 210.433595,62.1536469 210.175781,61.9453125 C209.917967,61.7369781 209.709636,61.4830744 209.550781,61.1835938 C209.391926,60.8841131 209.3125,60.5156272 209.3125,60.078125 C209.3125,59.7291649 209.389322,59.397137 209.542969,59.0820312 C209.696615,58.7669255 209.915363,58.4895845 210.199219,58.25 C210.483074,58.0104155 210.828123,57.8203132 211.234375,57.6796875 C211.640627,57.5390618 212.093748,57.46875 212.59375,57.46875 C213.307295,57.46875 213.944008,57.580728 214.503906,57.8046875 C215.063805,58.028647 215.505207,58.2812486 215.828125,58.5625 L214.703125,60 C214.437499,59.8072907 214.1237,59.6419278 213.761719,59.5039062 C213.399738,59.3658847 213.03646,59.296875 212.671875,59.296875 C212.333332,59.296875 212.070313,59.3580723 211.882812,59.4804688 C211.695312,59.6028652 211.601562,59.7499991 211.601562,59.921875 C211.601562,60.1041676 211.683593,60.2513015 211.847656,60.3632812 C212.01172,60.475261 212.249998,60.5729162 212.5625,60.65625 L213.46875,60.9140625 C214.333338,61.1588554 214.953123,61.4895813 215.328125,61.90625 C215.703127,62.3229187 215.890625,62.8489552 215.890625,63.484375 C215.890625,63.8385434 215.817709,64.1757796 215.671875,64.4960938 C215.526041,64.8164079 215.312501,65.1015613 215.03125,65.3515625 C214.749999,65.6015637 214.401044,65.7981764 213.984375,65.9414062 C213.567706,66.0846361 213.093753,66.15625 212.5625,66.15625 C212.156248,66.15625 211.774741,66.119792 211.417969,66.046875 C211.061196,65.973958 210.73047,65.8736986 210.425781,65.7460938 C210.121092,65.6184889 209.846355,65.4739591 209.601562,65.3125 C209.35677,65.1510409 209.148438,64.9895841 208.976562,64.828125 L210.179688,63.328125 Z M219.4375,68.640625 L217.28125,68.640625 L217.28125,57.6328125 L219.4375,57.6328125 L219.4375,58.3515625 C219.671876,58.1067696 219.960936,57.8984384 220.304688,57.7265625 C220.648439,57.5546866 221.065102,57.46875 221.554688,57.46875 C222.106774,57.46875 222.608071,57.579426 223.058594,57.8007812 C223.509117,58.0221365 223.895832,58.326821 224.21875,58.7148438 C224.541668,59.1028665 224.791666,59.5624973 224.96875,60.09375 C225.145834,60.6250027 225.234375,61.2005177 225.234375,61.8203125 C225.234375,62.4401073 225.14323,63.0156223 224.960938,63.546875 C224.778645,64.0781277 224.523439,64.5364564 224.195312,64.921875 C223.867186,65.3072936 223.473961,65.6093739 223.015625,65.828125 C222.557289,66.0468761 222.052086,66.15625 221.5,66.15625 C221.255207,66.15625 221.032553,66.1341148 220.832031,66.0898438 C220.631509,66.0455727 220.447918,65.9843754 220.28125,65.90625 C220.114582,65.8281246 219.960938,65.7356776 219.820312,65.6289062 C219.679687,65.5221349 219.552084,65.4062506 219.4375,65.28125 L219.4375,68.640625 Z M219.375,62.59375 C219.375,62.8177095 219.415364,63.0247386 219.496094,63.2148438 C219.576823,63.4049489 219.692708,63.5703118 219.84375,63.7109375 C219.994792,63.8515632 220.17578,63.9609371 220.386719,64.0390625 C220.597657,64.1171879 220.835936,64.15625 221.101562,64.15625 C221.408856,64.15625 221.680988,64.100261 221.917969,63.9882812 C222.154949,63.8763015 222.354166,63.718751 222.515625,63.515625 C222.677084,63.312499 222.799479,63.071616 222.882812,62.7929688 C222.966146,62.5143215 223.007812,62.208335 223.007812,61.875 L223.007812,61.7734375 C223.007812,61.4401025 222.966146,61.1328139 222.882812,60.8515625 C222.799479,60.5703111 222.677084,60.3268239 222.515625,60.1210938 C222.354166,59.9153636 222.154949,59.7552089 221.917969,59.640625 C221.680988,59.5260411 221.408856,59.46875 221.101562,59.46875 C220.835936,59.46875 220.597657,59.5078121 220.386719,59.5859375 C220.17578,59.6640629 219.994792,59.7734368 219.84375,59.9140625 C219.692708,60.0546882 219.576823,60.2213532 219.496094,60.4140625 C219.415364,60.6067718 219.375,60.815103 219.375,61.0390625 L219.375,62.59375 Z M230.351562,57.46875 C230.971357,57.46875 231.533852,57.579426 232.039062,57.8007812 C232.544273,58.0221365 232.976561,58.328123 233.335938,58.71875 C233.695314,59.109377 233.972655,59.5703098 234.167969,60.1015625 C234.363282,60.6328152 234.460938,61.2057261 234.460938,61.8203125 C234.460938,62.4401073 234.36198,63.0143203 234.164062,63.5429688 C233.966145,64.0716172 233.687502,64.5286439 233.328125,64.9140625 C232.968748,65.2994811 232.536461,65.6028635 232.03125,65.8242188 C231.526039,66.045574 230.966149,66.15625 230.351562,66.15625 C229.731768,66.15625 229.169273,66.045574 228.664062,65.8242188 C228.158852,65.6028635 227.726564,65.2994811 227.367188,64.9140625 C227.007811,64.5286439 226.729168,64.0716172 226.53125,63.5429688 C226.333332,63.0143203 226.234375,62.4401073 226.234375,61.8203125 C226.234375,61.2057261 226.33203,60.6328152 226.527344,60.1015625 C226.722657,59.5703098 226.999998,59.109377 227.359375,58.71875 C227.718752,58.328123 228.152341,58.0221365 228.660156,57.8007812 C229.167971,57.579426 229.731768,57.46875 230.351562,57.46875 Z M230.351562,64.15625 C230.658856,64.15625 230.930988,64.0989589 231.167969,63.984375 C231.404949,63.8697911 231.604166,63.7109385 231.765625,63.5078125 C231.927084,63.3046865 232.049479,63.0611993 232.132812,62.7773438 C232.216146,62.4934882 232.257812,62.1822934 232.257812,61.84375 L232.257812,61.7890625 C232.257812,61.4505191 232.216146,61.1393243 232.132812,60.8554688 C232.049479,60.5716132 231.927084,60.3268239 231.765625,60.1210938 C231.604166,59.9153636 231.404949,59.7552089 231.167969,59.640625 C230.930988,59.5260411 230.658856,59.46875 230.351562,59.46875 C230.044269,59.46875 229.772137,59.5260411 229.535156,59.640625 C229.298176,59.7552089 229.098959,59.9153636 228.9375,60.1210938 C228.776041,60.3268239 228.653646,60.5716132 228.570312,60.8554688 C228.486979,61.1393243 228.445312,61.4505191 228.445312,61.7890625 L228.445312,61.84375 C228.445312,62.1822934 228.486979,62.4934882 228.570312,62.7773438 C228.653646,63.0611993 228.776041,63.3046865 228.9375,63.5078125 C229.098959,63.7109385 229.298176,63.8697911 229.535156,63.984375 C229.772137,64.0989589 230.044269,64.15625 230.351562,64.15625 Z M235.890625,57.6328125 L238.046875,57.6328125 L238.046875,58.3515625 C238.161459,58.2369786 238.290364,58.1263026 238.433594,58.0195312 C238.576824,57.9127599 238.734374,57.8190108 238.90625,57.7382812 C239.078126,57.6575517 239.26953,57.5924482 239.480469,57.5429688 C239.691407,57.4934893 239.924478,57.46875 240.179688,57.46875 C240.632815,57.46875 241.039061,57.542968 241.398438,57.6914062 C241.757814,57.8398445 242.061197,58.0442695 242.308594,58.3046875 C242.555991,58.5651055 242.744791,58.8697899 242.875,59.21875 C243.005209,59.5677101 243.070312,59.9453105 243.070312,60.3515625 L243.070312,66 L240.914062,66 L240.914062,61.1328125 C240.914062,60.835936 240.880209,60.5846364 240.8125,60.3789062 C240.744791,60.1731761 240.652344,60.0065111 240.535156,59.8789062 C240.417968,59.7513014 240.279949,59.6575524 240.121094,59.5976562 C239.962239,59.5377601 239.789063,59.5078125 239.601562,59.5078125 C239.382811,59.5078125 239.178386,59.5468746 238.988281,59.625 C238.798176,59.7031254 238.632813,59.8216138 238.492188,59.9804688 C238.351562,60.1393237 238.242188,60.3385405 238.164062,60.578125 C238.085937,60.8177095 238.046875,61.0989567 238.046875,61.421875 L238.046875,66 L235.890625,66 L235.890625,57.6328125 Z M245.460938,63.328125 C245.768231,63.604168 246.135415,63.8411448 246.5625,64.0390625 C246.989585,64.2369802 247.421873,64.3359375 247.859375,64.3359375 C248.177085,64.3359375 248.427082,64.2747402 248.609375,64.1523438 C248.791668,64.0299473 248.882812,63.8723968 248.882812,63.6796875 C248.882812,63.3515609 248.531254,63.0963551 247.828125,62.9140625 L247.21875,62.75 C246.916665,62.677083 246.611981,62.5768236 246.304688,62.4492188 C245.997394,62.3216139 245.714845,62.1536469 245.457031,61.9453125 C245.199217,61.7369781 244.990886,61.4830744 244.832031,61.1835938 C244.673176,60.8841131 244.59375,60.5156272 244.59375,60.078125 C244.59375,59.7291649 244.670572,59.397137 244.824219,59.0820312 C244.977865,58.7669255 245.196613,58.4895845 245.480469,58.25 C245.764324,58.0104155 246.109373,57.8203132 246.515625,57.6796875 C246.921877,57.5390618 247.374998,57.46875 247.875,57.46875 C248.588545,57.46875 249.225258,57.580728 249.785156,57.8046875 C250.345055,58.028647 250.786457,58.2812486 251.109375,58.5625 L249.984375,60 C249.718749,59.8072907 249.40495,59.6419278 249.042969,59.5039062 C248.680988,59.3658847 248.31771,59.296875 247.953125,59.296875 C247.614582,59.296875 247.351563,59.3580723 247.164062,59.4804688 C246.976562,59.6028652 246.882812,59.7499991 246.882812,59.921875 C246.882812,60.1041676 246.964843,60.2513015 247.128906,60.3632812 C247.29297,60.475261 247.531248,60.5729162 247.84375,60.65625 L248.75,60.9140625 C249.614588,61.1588554 250.234373,61.4895813 250.609375,61.90625 C250.984377,62.3229187 251.171875,62.8489552 251.171875,63.484375 C251.171875,63.8385434 251.098959,64.1757796 250.953125,64.4960938 C250.807291,64.8164079 250.593751,65.1015613 250.3125,65.3515625 C250.031249,65.6015637 249.682294,65.7981764 249.265625,65.9414062 C248.848956,66.0846361 248.375003,66.15625 247.84375,66.15625 C247.437498,66.15625 247.055991,66.119792 246.699219,66.046875 C246.342446,65.973958 246.01172,65.8736986 245.707031,65.7460938 C245.402342,65.6184889 245.127605,65.4739591 244.882812,65.3125 C244.63802,65.1510409 244.429688,64.9895841 244.257812,64.828125 L245.460938,63.328125 Z M254.367188,62.5625 C254.403646,62.8125012 254.483072,63.0416656 254.605469,63.25 C254.727865,63.4583344 254.882812,63.636718 255.070312,63.7851562 C255.257813,63.9335945 255.473957,64.0494787 255.71875,64.1328125 C255.963543,64.2161462 256.223957,64.2578125 256.5,64.2578125 C256.81771,64.2578125 257.161456,64.1966152 257.53125,64.0742188 C257.901044,63.9518223 258.239582,63.7734387 258.546875,63.5390625 L259.585938,65.0546875 C259.195311,65.3828141 258.716149,65.6484365 258.148438,65.8515625 C257.580726,66.0546885 256.976566,66.15625 256.335938,66.15625 C255.75781,66.15625 255.213544,66.0572927 254.703125,65.859375 C254.192706,65.6614573 253.746096,65.3750019 253.363281,65 C252.980467,64.6249981 252.678387,64.1692735 252.457031,63.6328125 C252.235676,63.0963515 252.125,62.4921909 252.125,61.8203125 C252.125,61.2057261 252.222655,60.6328152 252.417969,60.1015625 C252.613282,59.5703098 252.886717,59.109377 253.238281,58.71875 C253.589846,58.328123 254.010414,58.0221365 254.5,57.8007812 C254.989586,57.579426 255.531247,57.46875 256.125,57.46875 C256.677086,57.46875 257.190102,57.5690094 257.664062,57.7695312 C258.138023,57.9700531 258.549477,58.2513003 258.898438,58.6132812 C259.247398,58.9752622 259.520832,59.4088516 259.71875,59.9140625 C259.916668,60.4192734 260.015625,60.9765595 260.015625,61.5859375 L260.015625,62.5625 L254.367188,62.5625 Z M256.117188,59.34375 C255.653644,59.34375 255.26172,59.4986964 254.941406,59.8085938 C254.621092,60.1184911 254.434896,60.4921853 254.382812,60.9296875 L257.757812,60.9296875 C257.747396,60.486977 257.585939,60.1119807 257.273438,59.8046875 C256.960936,59.4973943 256.575523,59.34375 256.117188,59.34375 Z" id="DWP-response" fill="#0B0C0C"></path>
                <path d="M345.898438,60.8515625 L340,60.8515625 L340,66 L338.625,66 L338.625,54.796875 L340,54.796875 L340,59.6640625 L345.898438,59.6640625 L345.898438,54.796875 L347.28125,54.796875 L347.28125,66 L345.898438,66 L345.898438,60.8515625 Z M350.726562,62.4140625 C350.752604,62.7890644 350.828124,63.1354151 350.953125,63.453125 C351.078126,63.7708349 351.248697,64.0455718 351.464844,64.2773438 C351.680991,64.5091157 351.936196,64.6888014 352.230469,64.8164062 C352.524741,64.9440111 352.851561,65.0078125 353.210938,65.0078125 C353.653648,65.0078125 354.042967,64.9335945 354.378906,64.7851562 C354.714845,64.636718 355.023436,64.450522 355.304688,64.2265625 L355.976562,65.171875 C355.617186,65.4583348 355.201825,65.6940095 354.730469,65.8789062 C354.259112,66.063803 353.731774,66.15625 353.148438,66.15625 C352.57031,66.15625 352.046877,66.0533864 351.578125,65.8476562 C351.109373,65.6419261 350.709637,65.3554706 350.378906,64.9882812 C350.048175,64.6210919 349.794272,64.1835963 349.617188,63.6757812 C349.440103,63.1679662 349.351562,62.6145863 349.351562,62.015625 C349.351562,61.406247 349.438801,60.8476588 349.613281,60.3398438 C349.787761,59.8320287 350.033853,59.3945331 350.351562,59.0273438 C350.669272,58.6601544 351.049477,58.3736989 351.492188,58.1679688 C351.934898,57.9622386 352.427081,57.859375 352.96875,57.859375 C353.494794,57.859375 353.968748,57.9622386 354.390625,58.1679688 C354.812502,58.3736989 355.171874,58.6601544 355.46875,59.0273438 C355.765626,59.3945331 355.993489,59.8320287 356.152344,60.3398438 C356.311199,60.8476588 356.390625,61.4010387 356.390625,62 L356.390625,62.4140625 L350.726562,62.4140625 Z M352.921875,59.0078125 C352.58854,59.0078125 352.291668,59.072916 352.03125,59.203125 C351.770832,59.333334 351.548178,59.5078114 351.363281,59.7265625 C351.178384,59.9453136 351.032553,60.1966132 350.925781,60.4804688 C350.81901,60.7643243 350.757813,61.0572902 350.742188,61.359375 L354.96875,61.359375 C354.958333,61.0520818 354.904948,60.7565118 354.808594,60.4726562 C354.712239,60.1888007 354.576824,59.9388032 354.402344,59.7226562 C354.227864,59.5065093 354.016928,59.333334 353.769531,59.203125 C353.522134,59.072916 353.239585,59.0078125 352.921875,59.0078125 Z M362.757812,65.203125 C362.523436,65.4739597 362.207033,65.7005199 361.808594,65.8828125 C361.410154,66.0651051 360.942711,66.15625 360.40625,66.15625 C360.010415,66.15625 359.643231,66.100261 359.304688,65.9882812 C358.966144,65.8763015 358.671876,65.7161469 358.421875,65.5078125 C358.171874,65.2994781 357.976563,65.0468765 357.835938,64.75 C357.695312,64.4531235 357.625,64.1171894 357.625,63.7421875 C357.625,63.4296859 357.675781,63.1445325 357.777344,62.8867188 C357.878907,62.628905 358.022134,62.4036468 358.207031,62.2109375 C358.391928,62.0182282 358.614582,61.8606777 358.875,61.7382812 C359.135418,61.6158848 359.427082,61.5312502 359.75,61.484375 L362.570312,61.1015625 L362.570312,60.59375 C362.570312,60.2916652 362.523438,60.0377614 362.429688,59.8320312 C362.335937,59.6263011 362.209636,59.4635423 362.050781,59.34375 C361.891926,59.2239577 361.704428,59.1380211 361.488281,59.0859375 C361.272134,59.0338539 361.039064,59.0078125 360.789062,59.0078125 C360.341144,59.0078125 359.923179,59.0703119 359.535156,59.1953125 C359.147133,59.3203131 358.796877,59.466145 358.484375,59.6328125 L357.992188,58.59375 C358.450523,58.333332 358.930987,58.1458339 359.433594,58.03125 C359.9362,57.9166661 360.432289,57.859375 360.921875,57.859375 C361.895838,57.859375 362.63281,58.0794249 363.132812,58.5195312 C363.632815,58.9596376 363.882812,59.6015583 363.882812,60.4453125 L363.882812,64.125 C363.882812,64.3906263 363.934895,64.6132804 364.039062,64.7929688 C364.14323,64.9726571 364.309895,65.1145828 364.539062,65.21875 L363.796875,66.15625 C363.546874,66.0937497 363.332032,65.9830737 363.152344,65.8242188 C362.972655,65.6653638 362.846355,65.4739595 362.773438,65.25 L362.757812,65.203125 Z M360.421875,62.4453125 C360.203124,62.4765627 360.003907,62.520833 359.824219,62.578125 C359.64453,62.635417 359.492188,62.7122391 359.367188,62.8085938 C359.242187,62.9049484 359.144532,63.0234368 359.074219,63.1640625 C359.003906,63.3046882 358.96875,63.4765615 358.96875,63.6796875 C358.96875,63.9140637 359.01302,64.1223949 359.101562,64.3046875 C359.190105,64.4869801 359.309895,64.6406244 359.460938,64.765625 C359.61198,64.8906256 359.787759,64.9856768 359.988281,65.0507812 C360.188803,65.1158857 360.398436,65.1484375 360.617188,65.1484375 C360.86198,65.1484375 361.101561,65.1145837 361.335938,65.046875 C361.570314,64.9791663 361.778645,64.8815111 361.960938,64.7539062 C362.14323,64.6263014 362.290364,64.4713551 362.402344,64.2890625 C362.514323,64.1067699 362.570312,63.8984387 362.570312,63.6640625 L362.570312,62.125 L360.421875,62.4453125 Z M370.34375,59.1875 L370.132812,59.1875 C369.794269,59.1875 369.471356,59.2265621 369.164062,59.3046875 C368.856769,59.3828129 368.585939,59.5234365 368.351562,59.7265625 C368.117186,59.9296885 367.929688,60.2070295 367.789062,60.5585938 C367.648437,60.910158 367.578125,61.3593723 367.578125,61.90625 L367.578125,66 L366.265625,66 L366.265625,58.015625 L367.578125,58.015625 L367.578125,59.28125 C367.677084,59.0468738 367.809895,58.8411467 367.976562,58.6640625 C368.14323,58.4869783 368.33203,58.3398443 368.542969,58.2226562 C368.753907,58.1054682 368.980468,58.0182295 369.222656,57.9609375 C369.464845,57.9036455 369.710936,57.875 369.960938,57.875 L370.34375,57.875 L370.34375,59.1875 Z M373.195312,66 L371.882812,66 L371.882812,58.015625 L373.195312,58.015625 L373.195312,66 Z M371.640625,55.7109375 C371.640625,55.5859369 371.665364,55.4687505 371.714844,55.359375 C371.764323,55.2499995 371.829427,55.1536463 371.910156,55.0703125 C371.990886,54.9869787 372.087239,54.9205732 372.199219,54.8710938 C372.311198,54.8216143 372.429687,54.796875 372.554688,54.796875 C372.679688,54.796875 372.796874,54.8216143 372.90625,54.8710938 C373.015626,54.9205732 373.110677,54.9869787 373.191406,55.0703125 C373.272136,55.1536463 373.337239,55.2499995 373.386719,55.359375 C373.436198,55.4687505 373.460938,55.5859369 373.460938,55.7109375 C373.460938,55.8359381 373.436198,55.9544265 373.386719,56.0664062 C373.337239,56.178386 373.272136,56.2747392 373.191406,56.3554688 C373.110677,56.4361983 373.015626,56.5013018 372.90625,56.5507812 C372.796874,56.6002607 372.679688,56.625 372.554688,56.625 C372.429687,56.625 372.311198,56.6002607 372.199219,56.5507812 C372.087239,56.5013018 371.990886,56.4361983 371.910156,56.3554688 C371.829427,56.2747392 371.764323,56.178386 371.714844,56.0664062 C371.665364,55.9544265 371.640625,55.8359381 371.640625,55.7109375 Z M375.59375,58.015625 L376.90625,58.015625 L376.90625,58.9296875 C377.177085,58.559894 377.511717,58.2890634 377.910156,58.1171875 C378.308596,57.9453116 378.752602,57.859375 379.242188,57.859375 C379.684898,57.859375 380.072915,57.9322909 380.40625,58.078125 C380.739585,58.2239591 381.018228,58.4218738 381.242188,58.671875 C381.466147,58.9218762 381.634114,59.2109359 381.746094,59.5390625 C381.858073,59.8671891 381.914062,60.2135398 381.914062,60.578125 L381.914062,66 L380.601562,66 L380.601562,60.9921875 C380.601562,60.6432274 380.558594,60.3450533 380.472656,60.0976562 C380.386718,59.8502592 380.269532,59.6497404 380.121094,59.4960938 C379.972656,59.3424471 379.798178,59.2304691 379.597656,59.1601562 C379.397134,59.0898434 379.182293,59.0546875 378.953125,59.0546875 C378.703124,59.0546875 378.457032,59.10026 378.214844,59.1914062 C377.972655,59.2825525 377.753907,59.4192699 377.558594,59.6015625 C377.36328,59.7838551 377.20573,60.0130195 377.085938,60.2890625 C376.966145,60.5651055 376.90625,60.8906231 376.90625,61.265625 L376.90625,66 L375.59375,66 L375.59375,58.015625 Z M383.796875,61.5703125 C383.796875,61.0442682 383.872395,60.5546898 384.023438,60.1015625 C384.17448,59.6484352 384.390624,59.2565121 384.671875,58.9257812 C384.953126,58.5950504 385.292967,58.3346364 385.691406,58.1445312 C386.089846,57.9544261 386.536456,57.859375 387.03125,57.859375 C387.468752,57.859375 387.885415,57.9440096 388.28125,58.1132812 C388.677085,58.2825529 389.013019,58.5546856 389.289062,58.9296875 L389.289062,58.015625 L390.601562,58.015625 L390.601562,66 C390.601562,66.4947941 390.501303,66.9101546 390.300781,67.2460938 C390.100259,67.5820329 389.838543,67.8515615 389.515625,68.0546875 C389.192707,68.2578135 388.826825,68.4036454 388.417969,68.4921875 C388.009113,68.5807296 387.593752,68.625 387.171875,68.625 C386.937499,68.625 386.694012,68.6119793 386.441406,68.5859375 C386.188801,68.5598957 385.934897,68.5208336 385.679688,68.46875 C385.424478,68.4166664 385.173178,68.3502608 384.925781,68.2695312 C384.678384,68.1888017 384.442709,68.0937505 384.21875,67.984375 L384.695312,66.8828125 C384.851563,66.9557295 385.015624,67.0273434 385.1875,67.0976562 C385.359376,67.1679691 385.545572,67.2317705 385.746094,67.2890625 C385.946616,67.3463545 386.161457,67.393229 386.390625,67.4296875 C386.619793,67.466146 386.86979,67.484375 387.140625,67.484375 C387.47396,67.484375 387.774738,67.4505212 388.042969,67.3828125 C388.311199,67.3151038 388.536457,67.2096361 388.71875,67.0664062 C388.901043,66.9231764 389.041666,66.7408865 389.140625,66.5195312 C389.239584,66.298176 389.289062,66.0338557 389.289062,65.7265625 L389.289062,64.2109375 C389.013019,64.5859394 388.677085,64.8580721 388.28125,65.0273438 C387.885415,65.1966154 387.468752,65.28125 387.03125,65.28125 C386.536456,65.28125 386.089846,65.1861989 385.691406,64.9960938 C385.292967,64.8059886 384.953126,64.5442725 384.671875,64.2109375 C384.390624,63.8776025 384.17448,63.4856793 384.023438,63.0351562 C383.872395,62.5846332 383.796875,62.0963568 383.796875,61.5703125 Z M389.320312,61.5390625 C389.320312,61.1796857 389.28125,60.8476578 389.203125,60.5429688 C389.125,60.2382797 389.002605,59.9726574 388.835938,59.7460938 C388.66927,59.5195301 388.457033,59.3424486 388.199219,59.2148438 C387.941405,59.0872389 387.632814,59.0234375 387.273438,59.0234375 C386.908852,59.0234375 386.593751,59.088541 386.328125,59.21875 C386.062499,59.348959 385.842449,59.5273426 385.667969,59.7539062 C385.493489,59.9804699 385.364584,60.2473943 385.28125,60.5546875 C385.197916,60.8619807 385.15625,61.1901024 385.15625,61.5390625 L385.15625,61.6015625 C385.15625,61.9505226 385.197916,62.2773422 385.28125,62.5820312 C385.364584,62.8867203 385.493489,63.1523426 385.667969,63.3789062 C385.842449,63.6054699 386.062499,63.7838535 386.328125,63.9140625 C386.593751,64.0442715 386.908852,64.109375 387.273438,64.109375 C387.632814,64.109375 387.941405,64.0455736 388.199219,63.9179688 C388.457033,63.7903639 388.66927,63.6145845 388.835938,63.390625 C389.002605,63.1666655 389.125,62.9010432 389.203125,62.59375 C389.28125,62.2864568 389.320312,61.9557309 389.320312,61.6015625 L389.320312,61.5390625 Z M397.515625,66 L396.203125,66 L396.203125,54.796875 L397.515625,54.796875 L397.515625,58.9296875 C397.750001,58.6015609 398.067706,58.3411468 398.46875,58.1484375 C398.869794,57.9557282 399.330727,57.859375 399.851562,57.859375 C400.36719,57.859375 400.833331,57.9622386 401.25,58.1679688 C401.666669,58.3736989 402.023436,58.6614565 402.320312,59.03125 C402.617189,59.4010435 402.845051,59.8398412 403.003906,60.3476562 C403.162761,60.8554713 403.242188,61.4114553 403.242188,62.015625 C403.242188,62.6197947 403.162761,63.1744766 403.003906,63.6796875 C402.845051,64.1848984 402.617189,64.6210919 402.320312,64.9882812 C402.023436,65.3554706 401.666669,65.6419261 401.25,65.8476562 C400.833331,66.0533864 400.36719,66.15625 399.851562,66.15625 C399.330727,66.15625 398.869794,66.0598968 398.46875,65.8671875 C398.067706,65.6744782 397.750001,65.4140641 397.515625,65.0859375 L397.515625,66 Z M401.882812,61.96875 C401.882812,61.5520813 401.833334,61.1640643 401.734375,60.8046875 C401.635416,60.4453107 401.489584,60.1341159 401.296875,59.8710938 C401.104166,59.6080716 400.865887,59.4010424 400.582031,59.25 C400.298176,59.0989576 399.97396,59.0234375 399.609375,59.0234375 C399.260415,59.0234375 398.954428,59.0833327 398.691406,59.203125 C398.428384,59.3229173 398.208334,59.4869781 398.03125,59.6953125 C397.854166,59.9036469 397.720053,60.1497382 397.628906,60.4335938 C397.53776,60.7174493 397.492188,61.02604 397.492188,61.359375 L397.492188,62.65625 C397.492188,62.989585 397.53776,63.2981757 397.628906,63.5820312 C397.720053,63.8658868 397.854166,64.1119781 398.03125,64.3203125 C398.208334,64.5286469 398.428384,64.6927077 398.691406,64.8125 C398.954428,64.9322923 399.260415,64.9921875 399.609375,64.9921875 C399.97396,64.9921875 400.298176,64.9166674 400.582031,64.765625 C400.865887,64.6145826 401.104166,64.4075534 401.296875,64.1445312 C401.489584,63.8815091 401.635416,63.5703143 401.734375,63.2109375 C401.833334,62.8515607 401.882812,62.4635437 401.882812,62.046875 L401.882812,61.96875 Z M408.375,57.859375 C408.927086,57.859375 409.429685,57.9622386 409.882812,58.1679688 C410.33594,58.3736989 410.722655,58.6601544 411.042969,59.0273438 C411.363283,59.3945331 411.611978,59.8320287 411.789062,60.3398438 C411.966147,60.8476588 412.054688,61.406247 412.054688,62.015625 C412.054688,62.6145863 411.966147,63.1679662 411.789062,63.6757812 C411.611978,64.1835963 411.363283,64.6210919 411.042969,64.9882812 C410.722655,65.3554706 410.33594,65.6419261 409.882812,65.8476562 C409.429685,66.0533864 408.927086,66.15625 408.375,66.15625 C407.822914,66.15625 407.321617,66.0533864 406.871094,65.8476562 C406.420571,65.6419261 406.033856,65.3554706 405.710938,64.9882812 C405.388019,64.6210919 405.138022,64.1835963 404.960938,63.6757812 C404.783853,63.1679662 404.695312,62.6145863 404.695312,62.015625 C404.695312,61.406247 404.783853,60.8476588 404.960938,60.3398438 C405.138022,59.8320287 405.388019,59.3945331 405.710938,59.0273438 C406.033856,58.6601544 406.420571,58.3736989 406.871094,58.1679688 C407.321617,57.9622386 407.822914,57.859375 408.375,57.859375 Z M408.375,65.0078125 C408.75521,65.0078125 409.089842,64.9283862 409.378906,64.7695312 C409.66797,64.6106763 409.910155,64.3958347 410.105469,64.125 C410.300782,63.8541653 410.447916,63.5403664 410.546875,63.1835938 C410.645834,62.8268211 410.695312,62.453127 410.695312,62.0625 L410.695312,61.96875 C410.695312,61.5677063 410.645834,61.1875018 410.546875,60.828125 C410.447916,60.4687482 410.300782,60.1549493 410.105469,59.8867188 C409.910155,59.6184882 409.66797,59.4049487 409.378906,59.2460938 C409.089842,59.0872388 408.75521,59.0078125 408.375,59.0078125 C407.99479,59.0078125 407.660158,59.0872388 407.371094,59.2460938 C407.08203,59.4049487 406.839845,59.6184882 406.644531,59.8867188 C406.449218,60.1549493 406.302084,60.4687482 406.203125,60.828125 C406.104166,61.1875018 406.054688,61.5677063 406.054688,61.96875 L406.054688,62.0625 C406.054688,62.453127 406.104166,62.8268211 406.203125,63.1835938 C406.302084,63.5403664 406.449218,63.8541653 406.644531,64.125 C406.839845,64.3958347 407.08203,64.6106763 407.371094,64.7695312 C407.660158,64.9283862 407.99479,65.0078125 408.375,65.0078125 Z M417.171875,57.859375 C417.723961,57.859375 418.22656,57.9622386 418.679688,58.1679688 C419.132815,58.3736989 419.51953,58.6601544 419.839844,59.0273438 C420.160158,59.3945331 420.408853,59.8320287 420.585938,60.3398438 C420.763022,60.8476588 420.851562,61.406247 420.851562,62.015625 C420.851562,62.6145863 420.763022,63.1679662 420.585938,63.6757812 C420.408853,64.1835963 420.160158,64.6210919 419.839844,64.9882812 C419.51953,65.3554706 419.132815,65.6419261 418.679688,65.8476562 C418.22656,66.0533864 417.723961,66.15625 417.171875,66.15625 C416.619789,66.15625 416.118492,66.0533864 415.667969,65.8476562 C415.217446,65.6419261 414.830731,65.3554706 414.507812,64.9882812 C414.184894,64.6210919 413.934897,64.1835963 413.757812,63.6757812 C413.580728,63.1679662 413.492188,62.6145863 413.492188,62.015625 C413.492188,61.406247 413.580728,60.8476588 413.757812,60.3398438 C413.934897,59.8320287 414.184894,59.3945331 414.507812,59.0273438 C414.830731,58.6601544 415.217446,58.3736989 415.667969,58.1679688 C416.118492,57.9622386 416.619789,57.859375 417.171875,57.859375 Z M417.171875,65.0078125 C417.552085,65.0078125 417.886717,64.9283862 418.175781,64.7695312 C418.464845,64.6106763 418.70703,64.3958347 418.902344,64.125 C419.097657,63.8541653 419.244791,63.5403664 419.34375,63.1835938 C419.442709,62.8268211 419.492188,62.453127 419.492188,62.0625 L419.492188,61.96875 C419.492188,61.5677063 419.442709,61.1875018 419.34375,60.828125 C419.244791,60.4687482 419.097657,60.1549493 418.902344,59.8867188 C418.70703,59.6184882 418.464845,59.4049487 418.175781,59.2460938 C417.886717,59.0872388 417.552085,59.0078125 417.171875,59.0078125 C416.791665,59.0078125 416.457033,59.0872388 416.167969,59.2460938 C415.878905,59.4049487 415.63672,59.6184882 415.441406,59.8867188 C415.246093,60.1549493 415.098959,60.4687482 415,60.828125 C414.901041,61.1875018 414.851562,61.5677063 414.851562,61.96875 L414.851562,62.0625 C414.851562,62.453127 414.901041,62.8268211 415,63.1835938 C415.098959,63.5403664 415.246093,63.8541653 415.441406,64.125 C415.63672,64.3958347 415.878905,64.6106763 416.167969,64.7695312 C416.457033,64.9283862 416.791665,65.0078125 417.171875,65.0078125 Z M424.085938,61.9375 L427.84375,58.015625 L429.492188,58.015625 L426.453125,61.1875 L429.632812,66 L428.03125,66 L425.523438,62.0625 L424.085938,63.5390625 L424.085938,66 L422.773438,66 L422.773438,54.796875 L424.085938,54.796875 L424.085938,61.9375 Z M431.648438,62.4140625 C431.674479,62.7890644 431.749999,63.1354151 431.875,63.453125 C432.000001,63.7708349 432.170572,64.0455718 432.386719,64.2773438 C432.602866,64.5091157 432.858071,64.6888014 433.152344,64.8164062 C433.446616,64.9440111 433.773436,65.0078125 434.132812,65.0078125 C434.575523,65.0078125 434.964842,64.9335945 435.300781,64.7851562 C435.63672,64.636718 435.945311,64.450522 436.226562,64.2265625 L436.898438,65.171875 C436.539061,65.4583348 436.1237,65.6940095 435.652344,65.8789062 C435.180987,66.063803 434.653649,66.15625 434.070312,66.15625 C433.492185,66.15625 432.968752,66.0533864 432.5,65.8476562 C432.031248,65.6419261 431.631512,65.3554706 431.300781,64.9882812 C430.97005,64.6210919 430.716147,64.1835963 430.539062,63.6757812 C430.361978,63.1679662 430.273438,62.6145863 430.273438,62.015625 C430.273438,61.406247 430.360676,60.8476588 430.535156,60.3398438 C430.709636,59.8320287 430.955728,59.3945331 431.273438,59.0273438 C431.591147,58.6601544 431.971352,58.3736989 432.414062,58.1679688 C432.856773,57.9622386 433.348956,57.859375 433.890625,57.859375 C434.416669,57.859375 434.890623,57.9622386 435.3125,58.1679688 C435.734377,58.3736989 436.093749,58.6601544 436.390625,59.0273438 C436.687501,59.3945331 436.915364,59.8320287 437.074219,60.3398438 C437.233074,60.8476588 437.3125,61.4010387 437.3125,62 L437.3125,62.4140625 L431.648438,62.4140625 Z M433.84375,59.0078125 C433.510415,59.0078125 433.213543,59.072916 432.953125,59.203125 C432.692707,59.333334 432.470053,59.5078114 432.285156,59.7265625 C432.100259,59.9453136 431.954428,60.1966132 431.847656,60.4804688 C431.740885,60.7643243 431.679688,61.0572902 431.664062,61.359375 L435.890625,61.359375 C435.880208,61.0520818 435.826823,60.7565118 435.730469,60.4726562 C435.634114,60.1888007 435.498699,59.9388032 435.324219,59.7226562 C435.149739,59.5065093 434.938803,59.333334 434.691406,59.203125 C434.444009,59.072916 434.16146,59.0078125 433.84375,59.0078125 Z M444.398438,65.0859375 C444.164061,65.4140641 443.845054,65.6744782 443.441406,65.8671875 C443.037758,66.0598968 442.578128,66.15625 442.0625,66.15625 C441.546872,66.15625 441.080731,66.0533864 440.664062,65.8476562 C440.247394,65.6419261 439.890626,65.3554706 439.59375,64.9882812 C439.296874,64.6210919 439.069011,64.1848984 438.910156,63.6796875 C438.751301,63.1744766 438.671875,62.6197947 438.671875,62.015625 C438.671875,61.4114553 438.751301,60.8554713 438.910156,60.3476562 C439.069011,59.8398412 439.296874,59.4010435 439.59375,59.03125 C439.890626,58.6614565 440.247394,58.3736989 440.664062,58.1679688 C441.080731,57.9622386 441.546872,57.859375 442.0625,57.859375 C442.578128,57.859375 443.037758,57.9557282 443.441406,58.1484375 C443.845054,58.3411468 444.164061,58.6015609 444.398438,58.9296875 L444.398438,54.796875 L445.710938,54.796875 L445.710938,66 L444.398438,66 L444.398438,65.0859375 Z M440.03125,62.046875 C440.03125,62.4635437 440.080729,62.8515607 440.179688,63.2109375 C440.278646,63.5703143 440.424478,63.8815091 440.617188,64.1445312 C440.809897,64.4075534 441.046874,64.6145826 441.328125,64.765625 C441.609376,64.9166674 441.934894,64.9921875 442.304688,64.9921875 C442.653648,64.9921875 442.959634,64.9322923 443.222656,64.8125 C443.485678,64.6927077 443.705728,64.5286469 443.882812,64.3203125 C444.059897,64.1119781 444.192708,63.8658868 444.28125,63.5820312 C444.369792,63.2981757 444.414062,62.989585 444.414062,62.65625 L444.414062,61.359375 C444.414062,61.02604 444.369792,60.7174493 444.28125,60.4335938 C444.192708,60.1497382 444.059897,59.9036469 443.882812,59.6953125 C443.705728,59.4869781 443.485678,59.3229173 443.222656,59.203125 C442.959634,59.0833327 442.653648,59.0234375 442.304688,59.0234375 C441.934894,59.0234375 441.609376,59.0989576 441.328125,59.25 C441.046874,59.4010424 440.809897,59.6080716 440.617188,59.8710938 C440.424478,60.1341159 440.278646,60.4453107 440.179688,60.8046875 C440.080729,61.1640643 440.03125,61.5520813 440.03125,61.96875 L440.03125,62.046875 Z" id="Hearing-booked" fill="#0B0C0C"></path>
                <path d="M557.957031,60.8515625 L552.058594,60.8515625 L552.058594,66 L550.683594,66 L550.683594,54.796875 L552.058594,54.796875 L552.058594,59.6640625 L557.957031,59.6640625 L557.957031,54.796875 L559.339844,54.796875 L559.339844,66 L557.957031,66 L557.957031,60.8515625 Z M562.785156,62.4140625 C562.811198,62.7890644 562.886718,63.1354151 563.011719,63.453125 C563.136719,63.7708349 563.307291,64.0455718 563.523438,64.2773438 C563.739584,64.5091157 563.99479,64.6888014 564.289062,64.8164062 C564.583335,64.9440111 564.910154,65.0078125 565.269531,65.0078125 C565.712242,65.0078125 566.101561,64.9335945 566.4375,64.7851562 C566.773439,64.636718 567.08203,64.450522 567.363281,64.2265625 L568.035156,65.171875 C567.675779,65.4583348 567.260419,65.6940095 566.789062,65.8789062 C566.317706,66.063803 565.790368,66.15625 565.207031,66.15625 C564.628903,66.15625 564.105471,66.0533864 563.636719,65.8476562 C563.167966,65.6419261 562.768231,65.3554706 562.4375,64.9882812 C562.106769,64.6210919 561.852865,64.1835963 561.675781,63.6757812 C561.498697,63.1679662 561.410156,62.6145863 561.410156,62.015625 C561.410156,61.406247 561.497395,60.8476588 561.671875,60.3398438 C561.846355,59.8320287 562.092446,59.3945331 562.410156,59.0273438 C562.727866,58.6601544 563.108071,58.3736989 563.550781,58.1679688 C563.993492,57.9622386 564.485674,57.859375 565.027344,57.859375 C565.553388,57.859375 566.027342,57.9622386 566.449219,58.1679688 C566.871096,58.3736989 567.230467,58.6601544 567.527344,59.0273438 C567.82422,59.3945331 568.052083,59.8320287 568.210938,60.3398438 C568.369792,60.8476588 568.449219,61.4010387 568.449219,62 L568.449219,62.4140625 L562.785156,62.4140625 Z M564.980469,59.0078125 C564.647134,59.0078125 564.350262,59.072916 564.089844,59.203125 C563.829426,59.333334 563.606772,59.5078114 563.421875,59.7265625 C563.236978,59.9453136 563.091146,60.1966132 562.984375,60.4804688 C562.877604,60.7643243 562.816406,61.0572902 562.800781,61.359375 L567.027344,61.359375 C567.016927,61.0520818 566.963542,60.7565118 566.867188,60.4726562 C566.770833,60.1888007 566.635418,59.9388032 566.460938,59.7226562 C566.286457,59.5065093 566.075522,59.333334 565.828125,59.203125 C565.580728,59.072916 565.298179,59.0078125 564.980469,59.0078125 Z M574.816406,65.203125 C574.58203,65.4739597 574.265627,65.7005199 573.867188,65.8828125 C573.468748,66.0651051 573.001305,66.15625 572.464844,66.15625 C572.069008,66.15625 571.701825,66.100261 571.363281,65.9882812 C571.024738,65.8763015 570.73047,65.7161469 570.480469,65.5078125 C570.230468,65.2994781 570.035157,65.0468765 569.894531,64.75 C569.753906,64.4531235 569.683594,64.1171894 569.683594,63.7421875 C569.683594,63.4296859 569.734374,63.1445325 569.835938,62.8867188 C569.937501,62.628905 570.080728,62.4036468 570.265625,62.2109375 C570.450522,62.0182282 570.673176,61.8606777 570.933594,61.7382812 C571.194012,61.6158848 571.485675,61.5312502 571.808594,61.484375 L574.628906,61.1015625 L574.628906,60.59375 C574.628906,60.2916652 574.582032,60.0377614 574.488281,59.8320312 C574.394531,59.6263011 574.26823,59.4635423 574.109375,59.34375 C573.95052,59.2239577 573.763022,59.1380211 573.546875,59.0859375 C573.330728,59.0338539 573.097657,59.0078125 572.847656,59.0078125 C572.399737,59.0078125 571.981773,59.0703119 571.59375,59.1953125 C571.205727,59.3203131 570.85547,59.466145 570.542969,59.6328125 L570.050781,58.59375 C570.509117,58.333332 570.989581,58.1458339 571.492188,58.03125 C571.994794,57.9166661 572.490883,57.859375 572.980469,57.859375 C573.954432,57.859375 574.691404,58.0794249 575.191406,58.5195312 C575.691409,58.9596376 575.941406,59.6015583 575.941406,60.4453125 L575.941406,64.125 C575.941406,64.3906263 575.993489,64.6132804 576.097656,64.7929688 C576.201823,64.9726571 576.368488,65.1145828 576.597656,65.21875 L575.855469,66.15625 C575.605468,66.0937497 575.390626,65.9830737 575.210938,65.8242188 C575.031249,65.6653638 574.904948,65.4739595 574.832031,65.25 L574.816406,65.203125 Z M572.480469,62.4453125 C572.261718,62.4765627 572.062501,62.520833 571.882812,62.578125 C571.703124,62.635417 571.550782,62.7122391 571.425781,62.8085938 C571.300781,62.9049484 571.203125,63.0234368 571.132812,63.1640625 C571.0625,63.3046882 571.027344,63.4765615 571.027344,63.6796875 C571.027344,63.9140637 571.071614,64.1223949 571.160156,64.3046875 C571.248698,64.4869801 571.368489,64.6406244 571.519531,64.765625 C571.670574,64.8906256 571.846353,64.9856768 572.046875,65.0507812 C572.247397,65.1158857 572.45703,65.1484375 572.675781,65.1484375 C572.920574,65.1484375 573.160155,65.1145837 573.394531,65.046875 C573.628907,64.9791663 573.837239,64.8815111 574.019531,64.7539062 C574.201824,64.6263014 574.348958,64.4713551 574.460938,64.2890625 C574.572917,64.1067699 574.628906,63.8984387 574.628906,63.6640625 L574.628906,62.125 L572.480469,62.4453125 Z M582.402344,59.1875 L582.191406,59.1875 C581.852863,59.1875 581.529949,59.2265621 581.222656,59.3046875 C580.915363,59.3828129 580.644532,59.5234365 580.410156,59.7265625 C580.17578,59.9296885 579.988282,60.2070295 579.847656,60.5585938 C579.707031,60.910158 579.636719,61.3593723 579.636719,61.90625 L579.636719,66 L578.324219,66 L578.324219,58.015625 L579.636719,58.015625 L579.636719,59.28125 C579.735678,59.0468738 579.868489,58.8411467 580.035156,58.6640625 C580.201824,58.4869783 580.390624,58.3398443 580.601562,58.2226562 C580.812501,58.1054682 581.039061,58.0182295 581.28125,57.9609375 C581.523439,57.9036455 581.76953,57.875 582.019531,57.875 L582.402344,57.875 L582.402344,59.1875 Z M585.253906,66 L583.941406,66 L583.941406,58.015625 L585.253906,58.015625 L585.253906,66 Z M583.699219,55.7109375 C583.699219,55.5859369 583.723958,55.4687505 583.773438,55.359375 C583.822917,55.2499995 583.88802,55.1536463 583.96875,55.0703125 C584.04948,54.9869787 584.145833,54.9205732 584.257812,54.8710938 C584.369792,54.8216143 584.488281,54.796875 584.613281,54.796875 C584.738282,54.796875 584.855468,54.8216143 584.964844,54.8710938 C585.074219,54.9205732 585.16927,54.9869787 585.25,55.0703125 C585.33073,55.1536463 585.395833,55.2499995 585.445312,55.359375 C585.494792,55.4687505 585.519531,55.5859369 585.519531,55.7109375 C585.519531,55.8359381 585.494792,55.9544265 585.445312,56.0664062 C585.395833,56.178386 585.33073,56.2747392 585.25,56.3554688 C585.16927,56.4361983 585.074219,56.5013018 584.964844,56.5507812 C584.855468,56.6002607 584.738282,56.625 584.613281,56.625 C584.488281,56.625 584.369792,56.6002607 584.257812,56.5507812 C584.145833,56.5013018 584.04948,56.4361983 583.96875,56.3554688 C583.88802,56.2747392 583.822917,56.178386 583.773438,56.0664062 C583.723958,55.9544265 583.699219,55.8359381 583.699219,55.7109375 Z M587.652344,58.015625 L588.964844,58.015625 L588.964844,58.9296875 C589.235678,58.559894 589.570311,58.2890634 589.96875,58.1171875 C590.367189,57.9453116 590.811195,57.859375 591.300781,57.859375 C591.743492,57.859375 592.131509,57.9322909 592.464844,58.078125 C592.798179,58.2239591 593.076822,58.4218738 593.300781,58.671875 C593.524741,58.9218762 593.692708,59.2109359 593.804688,59.5390625 C593.916667,59.8671891 593.972656,60.2135398 593.972656,60.578125 L593.972656,66 L592.660156,66 L592.660156,60.9921875 C592.660156,60.6432274 592.617188,60.3450533 592.53125,60.0976562 C592.445312,59.8502592 592.328126,59.6497404 592.179688,59.4960938 C592.031249,59.3424471 591.856772,59.2304691 591.65625,59.1601562 C591.455728,59.0898434 591.240887,59.0546875 591.011719,59.0546875 C590.761718,59.0546875 590.515626,59.10026 590.273438,59.1914062 C590.031249,59.2825525 589.812501,59.4192699 589.617188,59.6015625 C589.421874,59.7838551 589.264324,60.0130195 589.144531,60.2890625 C589.024739,60.5651055 588.964844,60.8906231 588.964844,61.265625 L588.964844,66 L587.652344,66 L587.652344,58.015625 Z M595.855469,61.5703125 C595.855469,61.0442682 595.930989,60.5546898 596.082031,60.1015625 C596.233074,59.6484352 596.449217,59.2565121 596.730469,58.9257812 C597.01172,58.5950504 597.351561,58.3346364 597.75,58.1445312 C598.148439,57.9544261 598.59505,57.859375 599.089844,57.859375 C599.527346,57.859375 599.944008,57.9440096 600.339844,58.1132812 C600.735679,58.2825529 601.071613,58.5546856 601.347656,58.9296875 L601.347656,58.015625 L602.660156,58.015625 L602.660156,66 C602.660156,66.4947941 602.559897,66.9101546 602.359375,67.2460938 C602.158853,67.5820329 601.897137,67.8515615 601.574219,68.0546875 C601.2513,68.2578135 600.885419,68.4036454 600.476562,68.4921875 C600.067706,68.5807296 599.652346,68.625 599.230469,68.625 C598.996093,68.625 598.752605,68.6119793 598.5,68.5859375 C598.247395,68.5598957 597.993491,68.5208336 597.738281,68.46875 C597.483072,68.4166664 597.231772,68.3502608 596.984375,68.2695312 C596.736978,68.1888017 596.501303,68.0937505 596.277344,67.984375 L596.753906,66.8828125 C596.910157,66.9557295 597.074218,67.0273434 597.246094,67.0976562 C597.41797,67.1679691 597.604166,67.2317705 597.804688,67.2890625 C598.005209,67.3463545 598.220051,67.393229 598.449219,67.4296875 C598.678387,67.466146 598.928384,67.484375 599.199219,67.484375 C599.532554,67.484375 599.833332,67.4505212 600.101562,67.3828125 C600.369793,67.3151038 600.595051,67.2096361 600.777344,67.0664062 C600.959636,66.9231764 601.10026,66.7408865 601.199219,66.5195312 C601.298178,66.298176 601.347656,66.0338557 601.347656,65.7265625 L601.347656,64.2109375 C601.071613,64.5859394 600.735679,64.8580721 600.339844,65.0273438 C599.944008,65.1966154 599.527346,65.28125 599.089844,65.28125 C598.59505,65.28125 598.148439,65.1861989 597.75,64.9960938 C597.351561,64.8059886 597.01172,64.5442725 596.730469,64.2109375 C596.449217,63.8776025 596.233074,63.4856793 596.082031,63.0351562 C595.930989,62.5846332 595.855469,62.0963568 595.855469,61.5703125 Z M601.378906,61.5390625 C601.378906,61.1796857 601.339844,60.8476578 601.261719,60.5429688 C601.183593,60.2382797 601.061199,59.9726574 600.894531,59.7460938 C600.727864,59.5195301 600.515626,59.3424486 600.257812,59.2148438 C599.999999,59.0872389 599.691408,59.0234375 599.332031,59.0234375 C598.967446,59.0234375 598.652345,59.088541 598.386719,59.21875 C598.121092,59.348959 597.901043,59.5273426 597.726562,59.7539062 C597.552082,59.9804699 597.423177,60.2473943 597.339844,60.5546875 C597.25651,60.8619807 597.214844,61.1901024 597.214844,61.5390625 L597.214844,61.6015625 C597.214844,61.9505226 597.25651,62.2773422 597.339844,62.5820312 C597.423177,62.8867203 597.552082,63.1523426 597.726562,63.3789062 C597.901043,63.6054699 598.121092,63.7838535 598.386719,63.9140625 C598.652345,64.0442715 598.967446,64.109375 599.332031,64.109375 C599.691408,64.109375 599.999999,64.0455736 600.257812,63.9179688 C600.515626,63.7903639 600.727864,63.6145845 600.894531,63.390625 C601.061199,63.1666655 601.183593,62.9010432 601.261719,62.59375 C601.339844,62.2864568 601.378906,61.9557309 601.378906,61.6015625 L601.378906,61.5390625 Z" id="Hearing" fill="#0B0C0C"></path>
                <g id="Group-2" transform="translate(3.000000, 0.000000)">
                    <g id="Group">
                        <circle id="Oval-2" fill="#006435" cx="20.5" cy="20.5" r="20.5"></circle>
                        <polygon id="Path" fill="#FFFFFF" points="16.3374074 23.5619753 12.1128395 19.3374074 9 22.4502469 16.3374074 30.01 31.2345679 15.1128395 28.1217284 12"></polygon>
                    </g>
                    <path d="M41.5,20.5 L559.000242,20.5" id="Line" stroke="#006435" stroke-width="6" stroke-linecap="square"></path>
                    <g id="Group" transform="translate(369.000000, 0.000000)" fill="#FFFFFF" stroke="#006435" stroke-width="6">
                        <circle id="Oval-2" cx="20.5" cy="20.5" r="17.5"></circle>
                    </g>
                    <g id="Group" transform="translate(553.000000, 0.000000)" fill="#FFFFFF" stroke="#006435" stroke-width="6">
                        <circle id="Oval-2" cx="20.5" cy="20.5" r="17.5"></circle>
                    </g>
                    <g id="Group" transform="translate(185.000000, 0.000000)">
                        <circle id="Oval-2" fill="#006435" cx="20.5" cy="20.5" r="20.5"></circle>
                        <polygon id="Path" fill="#FFFFFF" points="16.3374074 23.5619753 12.1128395 19.3374074 9 22.4502469 16.3374074 30.01 31.2345679 15.1128395 28.1217284 12"></polygon>
                    </g>
                </g>
            </g>
        </g>
    </g>
</svg>